<?xml version="1.0" encoding="utf-8"?>
<!-- Generator: Adobe Illustrator 27.9.0, SVG Export Plug-In . SVG Version: 6.00 Build 0)  -->
<svg version="1.1" id="Laag_1" xmlns="http://www.w3.org/2000/svg" xmlns:xlink="http://www.w3.org/1999/xlink" x="0px" y="0px"
	 viewBox="0 0 261.78 222.39" style="enable-background:new 0 0 261.78 222.39;" xml:space="preserve">
<style type="text/css">
	.st0{opacity:0.23;}
	.st1{fill:#020203;}
	.st2{fill:none;stroke:#020203;stroke-miterlimit:10;}
</style>
<g class="st0">
	<g>
		<g>
			<g>
				<g>
					<path class="st1" d="M157.32,202.98c0.04-0.08,0.11-0.26,0.09-0.23l-0.13,0.3L157.32,202.98z"/>
					<path class="st1" d="M157.51,202.39c-0.07,0.14-0.19,0.4-0.31,0.68c0.14-0.29,0.08-0.17,0.24-0.51
						c0.02-0.03-0.03,0.1-0.08,0.22c0.04-0.08-0.02,0.07,0.07-0.12c0.09-0.24,0.08-0.26-0.01-0.07
						C157.45,202.53,157.48,202.45,157.51,202.39z"/>
					<path class="st1" d="M157.15,201.61l-0.02,0.03C157.14,201.62,157.14,201.61,157.15,201.61z"/>
					<path class="st1" d="M156.95,201.22c0.01,0,0.03-0.03,0.05-0.05C156.98,201.18,156.97,201.2,156.95,201.22z"/>
					<path class="st1" d="M157.15,200.91c-0.01,0.01-0.01,0.01-0.01,0.02C157.16,200.9,157.17,200.89,157.15,200.91z"/>
					<path class="st1" d="M157.15,201.61l0.05-0.09C157.14,201.6,157.16,201.58,157.15,201.61z"/>
					<path class="st1" d="M157.08,203.08c0.01-0.01,0.02-0.04,0.04-0.08c-0.01,0.01-0.02,0.02-0.02,0.03L157.08,203.08z"/>
					<path class="st1" d="M157.43,201.48L157.43,201.48c0.02-0.03,0.05-0.07,0.08-0.11L157.43,201.48z"/>
					<path class="st1" d="M157.57,201.49c-0.01,0.01-0.13,0.23-0.2,0.34c0.06-0.1,0.09-0.15,0.1-0.16
						C157.5,201.62,157.53,201.56,157.57,201.49z"/>
					<path class="st1" d="M157.53,202.03l0.02-0.03C157.54,202,157.53,202.01,157.53,202.03z"/>
					<path class="st1" d="M157.39,201.38c0.02-0.04,0.04-0.07,0.05-0.08L157.39,201.38z"/>
					<path class="st1" d="M153.54,198.6c0.02,0,0.03-0.01,0.05-0.01C153.56,198.6,153.54,198.6,153.54,198.6z"/>
					<polygon class="st1" points="154.88,198.2 154.9,198.2 155.06,198.18 					"/>
					<path class="st1" d="M157.32,200.58L157.32,200.58C157.34,200.56,157.34,200.56,157.32,200.58z"/>
					<path class="st1" d="M156.58,199.93c-0.21,0.14-0.29,0.14-0.52,0.3C156.15,200.17,156.45,200.03,156.58,199.93z"/>
					<path class="st1" d="M157.09,203.04L157.09,203.04C157.08,203.05,157.08,203.05,157.09,203.04z"/>
					<polygon class="st1" points="156.06,200.23 156.05,200.23 156.03,200.24 					"/>
					<path class="st1" d="M157.04,200.52c-0.04,0.03-0.06,0.06-0.09,0.08C156.97,200.59,157,200.56,157.04,200.52z"/>
					<path class="st1" d="M156.88,200.93l0.02-0.03C156.88,200.92,156.88,200.93,156.88,200.93z"/>
					<path class="st1" d="M156.67,200.7c0.01-0.02,0.04-0.04,0.01-0.02c-0.01,0.01-0.02,0.02-0.03,0.02
						C156.69,200.68,156.71,200.67,156.67,200.7z"/>
					<path class="st1" d="M156.6,200.62c-0.02,0.01-0.03,0.02-0.04,0.04l0.01-0.01L156.6,200.62z"/>
					<path class="st1" d="M153.76,199.04c0.08-0.02,0.16-0.04,0.25-0.06C153.81,199.02,153.74,199.02,153.76,199.04z"/>
					<path class="st1" d="M157.14,202.93c-0.03,0.06-0.05,0.09-0.06,0.11c0,0,0.01-0.01,0.01-0.01
						C157.12,202.99,157.13,202.95,157.14,202.93z"/>
					<path class="st1" d="M154.96,202.1l0.01-0.05C154.96,202.08,154.95,202.1,154.96,202.1z"/>
					<path class="st1" d="M154.12,200.1l-0.03,0.01C154.08,200.11,154.09,200.11,154.12,200.1z"/>
					<path class="st1" d="M154.89,202.02c0.07-0.07,0.12-0.11,0.14-0.13c-0.02,0.01-0.03,0.02-0.06,0.04L154.89,202.02z"/>
					<path class="st1" d="M154.01,198.98L154.01,198.98L154.01,198.98z"/>
					<path class="st1" d="M153.32,198.96c0,0.03,0.36-0.06,0.57-0.1c0.11,0.01-0.26,0.07-0.45,0.12c0.1,0,0.43-0.06,0.42-0.04
						c-0.06,0.01-0.08,0.02-0.16,0.03c0.29-0.04,0.03,0.05,0.39-0.01c-0.03,0.01-0.06,0.02-0.09,0.02c0.18-0.04,0.36-0.08,0.49-0.11
						c0.01,0.01,0.23-0.03,0,0.02c0.01-0.01-0.09,0.01-0.16,0.03l0.1-0.01c-0.34,0.09-0.12,0.01-0.37,0.07
						c0.11,0,0.4-0.05,0.31-0.01c-0.33,0.08-0.12-0.01-0.41,0.08l0.12-0.05c-0.52,0.14,0.03-0.02-0.52,0.12
						c-0.09,0.06,0.18,0,0.09,0.05c0.18-0.04,0.27-0.06,0.46-0.1c0.34-0.04-0.82,0.24-0.37,0.16c0.22-0.04,0.64-0.15,0.42-0.07
						l-0.37,0.09c-0.03,0.04,0.54-0.12,0.3-0.02c-0.15,0.03-0.13,0.01-0.17,0.02c-0.29,0.1,0.22-0.04,0.22-0.02l-0.33,0.09
						c0.06,0.02,0.31-0.01,0.38,0.01c-0.1,0.02-0.2,0.05-0.3,0.08c0.18,0-0.01,0.11-0.19,0.21l0.29-0.07c0,0-0.13,0.05-0.18,0.06
						c-0.1,0.05,0.18-0.05,0.29-0.08c0.02,0-0.16,0.06-0.24,0.08c0.25-0.04,0.54-0.07,0.25,0.05l-0.09,0.02
						c-0.11,0.06,0.58-0.15,0.33-0.05l-0.05,0.01c-0.1,0.09,0.17,0.06-0.23,0.25c0.4-0.13-0.16,0.12,0.4-0.08
						c-0.27,0.13-0.37,0.15-0.54,0.27c-0.02,0.02,0.35-0.11,0.42-0.12l-0.29,0.11l0.31-0.09l-0.34,0.14l0.08-0.01
						c0.01-0.01,0.12-0.06,0.21-0.09c0.14-0.03-0.18,0.13-0.33,0.18l0.26-0.04c-0.12,0.04-0.16,0.05-0.24,0.07
						c0.3-0.09-0.3,0.12-0.02,0.04c0.07-0.03,0.17-0.07,0.23-0.09c-0.17,0.08-0.16,0.11-0.08,0.1l-0.2,0.08
						c-0.03,0.06,0.13,0.04,0.14,0.08c0.09-0.05,0.43-0.19,0.46-0.2l-0.3,0.13c0.19-0.07,0.11-0.06,0.34-0.14
						c-0.03,0.03-0.34,0.16-0.44,0.19l0.11-0.03c-0.09,0.04-0.14,0.06-0.25,0.1c0.19-0.07-0.28,0.16,0.04,0.03l-0.09,0.04
						c0.02,0.04,0.13,0.02,0.16,0.04c0.26-0.12,0.21-0.08,0.42-0.16c-0.07,0.06-0.26,0.18-0.22,0.2c0.14-0.04,0.22-0.1,0.37-0.16
						c-0.23,0.11-0.2,0.13-0.37,0.2c0.05,0.02,0.07,0.02,0.27-0.03c0.09-0.05,0.13-0.08,0.21-0.11c0.04-0.01-0.09,0.07-0.2,0.12
						l-0.02,0.01c0.37-0.13-0.6,0.46-0.11,0.25l-0.02,0.01l0.27-0.09c-0.03,0.04-0.18,0.08-0.31,0.17c0.4-0.16-0.02,0.1,0.25,0
						c-0.64,0.4,0.1,0.07-0.29,0.35l0.15-0.09c0.16-0.08-0.08,0.06-0.11,0.09c0.12-0.07,0.13-0.09,0.22-0.14
						c0.23-0.03-0.12,0.3-0.19,0.48c-0.02,0.06,0.78-0.5,0.45-0.22l-0.28,0.18c0.37-0.16,0.08,0.13,0.39,0
						c-0.06,0.04-0.14,0.1-0.15,0.09c-0.18,0.15,0.02,0.05,0.18-0.06c-0.01,0.02-0.14,0.11-0.22,0.17c-0.1,0.1,0.27-0.15,0.08,0
						c-0.03,0.02-0.06,0.04-0.08,0.05c0.1-0.06,0.01,0.06,0.22-0.12c-0.09,0.1,0.13-0.04,0.01,0.08c0.25-0.18-0.09,0.13,0.26-0.14
						c-0.35,0.28-0.25,0.27-0.08,0.14c-0.11,0.08-0.1,0.1-0.25,0.22c0.02,0.01,0.09-0.03,0.27-0.18c-0.39,0.38,0.38-0.23-0.14,0.24
						c0.22-0.11,0.38-0.18,0.49-0.22c-0.34,0.3-0.07-0.01-0.42,0.31c0.17-0.09,0.48-0.33,0.43-0.22c-0.04,0.05-0.15,0.13-0.21,0.18
						c0.17-0.09,0.04,0.1,0.24-0.04c-0.03,0.03-0.07,0.06-0.09,0.08c0.02,0-0.03,0.06,0.11-0.08l-0.05,0.03
						c0.2-0.22,0.47-0.41,0.58-0.52c-0.43,0.4-0.08,0.13-0.62,0.64c0.03-0.02,0.1-0.09,0.2-0.19c-0.02,0.03-0.08,0.09-0.19,0.2
						c0.1-0.06,0.25-0.22,0.26-0.2c-0.07,0.07-0.1,0.1-0.18,0.18c0.15-0.13,0.29-0.26,0.25-0.18c-0.04,0.04-0.09,0.1-0.1,0.09
						c0.05,0.01,0.4-0.33,0.3-0.17c-0.3,0.31-0.09,0.11-0.34,0.39l0.09-0.07l0.12-0.14c0.01,0.02,0.2-0.17,0.14-0.07l-0.11,0.1
						l0.07-0.03l0.08-0.12c0.14-0.13,0.31-0.35,0.26-0.26c-0.03,0.03,0.01,0.02-0.13,0.19l0,0c0.08-0.08,0.17-0.17,0.12-0.09
						c-0.08,0.09-0.27,0.31-0.32,0.37c0.21-0.23,0.09-0.04,0.31-0.28c-0.05,0.06-0.18,0.21-0.2,0.24l0.17-0.19
						c-0.05,0.07-0.07,0.1-0.17,0.22c-0.01,0.05,0.3-0.37,0.19-0.19c-0.01,0.02-0.04,0.04-0.07,0.07c-0.04,0.1,0.15-0.09,0.09,0.03
						c-0.23,0.3-0.08,0.06-0.27,0.31c0.08-0.02,0.35-0.3,0.32-0.2l0.02-0.04c0.32-0.42-0.13,0.23,0.03,0.04
						c-0.02,0.03-0.11,0.14-0.14,0.19c-0.03,0.09,0.13-0.07,0.26-0.18l-0.08,0.11c-0.06,0.11,0,0.08-0.02,0.14
						c0.08-0.11,0.08-0.09,0.18-0.25c-0.38,0.68,0.31-0.29,0,0.28c-0.01,0-0.07,0.1-0.07,0.1l0.1-0.08c0.11-0.2,0.07-0.12,0.16-0.28
						c0.08-0.11,0.14-0.2,0.15-0.19c-0.09,0.12-0.19,0.32-0.25,0.43c0.04-0.06,0.08-0.13,0.12-0.19c-0.2,0.36,0.24-0.4,0.12-0.15
						l-0.06,0.1c0.04-0.05,0.13-0.18,0.12-0.15c-0.13,0.23-0.07,0.1-0.19,0.29c0.02,0,0.28-0.42,0.16-0.18
						c-0.05,0.06-0.05,0.06-0.1,0.12c-0.14,0.28-0.1,0.21-0.12,0.26l0-0.01l-0.04,0.14l0.04-0.08c0.36-0.6,0.1-0.09,0.34-0.48
						c-0.23,0.37-0.12,0.22-0.27,0.48c-0.03,0.08-0.07,0.17-0.11,0.24c0.13-0.21-0.07,0.18,0.12-0.12
						c-0.04,0.09,0.01,0.02-0.11,0.23c0.05-0.06,0.08-0.15,0.13-0.26c0.18-0.28-0.13,0.39,0.12,0c0.11-0.15,0.26-0.45,0.36-0.58
						c-0.06,0.14-0.16,0.32-0.16,0.32c-0.05,0.14-0.02,0.12,0.04,0.02c-0.04,0.08-0.07,0.14-0.11,0.24
						c0.02-0.02,0.16-0.32,0.11-0.18c-0.05,0.1-0.13,0.25-0.17,0.35c0.05-0.08,0.14-0.23,0.19-0.31c-0.07,0.16-0.11,0.23-0.16,0.33
						c0.05-0.06,0.11-0.12,0.22-0.37l0.03-0.09c0.01-0.01-0.09,0.21-0.11,0.26c-0.1,0.19,0.02-0.09,0.06-0.18l0.03-0.05
						c0.22-0.53-0.07,0.07-0.08,0.03l0.18-0.37l-0.16,0.3c0.04-0.1,0.14-0.31,0.17-0.36c0.08-0.19-0.07,0.13,0.01-0.08
						c0.02-0.03,0.02-0.05,0.03-0.07l-0.06,0.11c0.04-0.08,0.12-0.27,0.11-0.21c0.09-0.22-0.17,0.27-0.04-0.02l0.01-0.02
						c-0.09,0.11-0.14,0.27-0.32,0.58l0.32-0.68l-0.14,0.27c0-0.01,0.01-0.03,0.06-0.14c-0.11,0.18-0.06,0.12-0.16,0.29
						c0.11-0.25-0.1,0.09,0.12-0.34c-0.11,0.2-0.07,0.17-0.16,0.3c0.24-0.46-0.06,0.07,0.04-0.15c0.13-0.23,0.08-0.1,0.18-0.32
						c-0.23,0.4,0.03-0.1-0.03-0.03c-0.18,0.32-0.1,0.12-0.17,0.22c0.06-0.11,0.07-0.19,0.12-0.31l0.03-0.05
						c-0.19,0.31-0.17,0.24-0.22,0.3c0.12-0.19,0.16-0.26,0.22-0.34l-0.01,0c-0.06,0.1-0.1,0.15-0.13,0.18l0.15-0.23
						c-0.02,0-0.2,0.26-0.12,0.09c-0.14,0.21-0.37,0.61-0.49,0.74c0.07-0.12,0.2-0.32,0.24-0.36c-0.01,0.01-0.07,0.09-0.04,0.04
						l0.13-0.19c0.05-0.09-0.11,0.16-0.11,0.14c0.11-0.17,0.08-0.12,0.16-0.25c0.01-0.01-0.04,0.07,0.01,0.01
						c0.01-0.03,0.07-0.14,0.15-0.26c-0.06,0.09-0.15,0.22-0.17,0.24c-0.02,0,0.13-0.2,0.18-0.29c-0.08,0.11-0.01-0.01-0.17,0.23
						c0,0,0.07-0.12,0.12-0.19c-0.08,0.1-0.05,0.01-0.22,0.27l-0.01,0.02l-0.01,0.01l0,0l0,0c-0.19,0.22,0.05-0.17-0.05-0.08
						l0.06-0.08c-0.08,0.08-0.07,0.03-0.21,0.19c0,0,0.1-0.15,0.17-0.24c-0.05,0.05-0.12,0.14-0.04,0c0.12-0.13,0.09-0.12,0.09-0.09
						c0.04-0.08,0.14-0.2-0.04,0c0.16-0.2,0.19-0.26,0.14-0.2l-0.1,0.15c-0.03,0.02-0.02,0-0.01-0.02l0.21-0.26
						c0.24-0.33-0.48,0.5-0.07-0.04c-0.16,0.17-0.09,0.14-0.27,0.34c0.02-0.04,0.31-0.42,0.31-0.42c0.11-0.15-0.33,0.36-0.26,0.25
						c-0.08,0.09-0.28,0.33-0.37,0.4c0.02-0.04,0.32-0.39,0.39-0.45c0.01-0.01-0.01,0.02-0.04,0.05c0.03-0.03,0.07-0.06,0.15-0.16
						l-0.08,0.09c0.07-0.1,0.05-0.1,0.19-0.24c-0.08,0.08-0.13,0.14-0.17,0.19c0.1-0.14-0.02-0.02,0.05-0.12
						c-0.04,0.05-0.14,0.15-0.14,0.15c0.08-0.13-0.16,0.16-0.21,0.18c0.12-0.14,0.3-0.31,0.18-0.21c0.08-0.1,0.21-0.23,0.28-0.3
						c-0.17,0.16,0.08-0.13,0.11-0.16l0.07-0.06c-0.04,0.04-0.05,0.03-0.05,0.03l-0.16,0.17c0.03-0.03,0.02-0.04,0.09-0.11
						c-0.11,0.11-0.28,0.28-0.43,0.43c0.08-0.09-0.11,0.08,0.11-0.15c-0.06,0.09,0.22-0.23,0.27-0.25c-0.03,0.02-0.03,0.02,0-0.01
						c0.03-0.02,0.05-0.05,0.06-0.06c0.19-0.21-0.26,0.25-0.27,0.23c0.13-0.12,0.24-0.24,0.21-0.22c0,0-0.21,0.21-0.31,0.3
						c0.09-0.11-0.08,0.06-0.08,0.04l-0.04,0.05c-0.13,0.12-0.12,0.1-0.17,0.13c0.1-0.1,0.07-0.06,0.12-0.1
						c-0.23,0.21,0.22-0.24,0.05-0.11c0.09-0.08,0.24-0.23,0.3-0.29c-0.18,0.15,0.17-0.18,0.02-0.06c-0.17,0.17-0.13,0.13-0.31,0.28
						l0.14-0.09l-0.27,0.22c0,0.01,0.12-0.09,0.1-0.06c-0.15,0.13-0.1,0.09-0.25,0.23c0.25-0.25-0.17,0.12-0.01-0.05l0.44-0.4
						c0.18-0.19-0.25,0.18-0.16,0.06l-0.07,0.07c-0.18,0.15-0.04,0.01-0.11,0.07c0.15-0.13,0.2-0.18,0.29-0.26
						c-0.11,0.1,0-0.02-0.3,0.23l0.19-0.18c0.07-0.09-0.45,0.34-0.41,0.28c0.17-0.13,0.27-0.23,0.4-0.32c0-0.01,0.02-0.03-0.08,0.05
						c0.09-0.08-0.22,0.15-0.08,0.03c-0.07,0.05-0.23,0.18-0.22,0.17c0.03-0.03,0.08-0.06,0.08-0.06c-0.08,0.06-0.11,0.07-0.28,0.22
						c0.46-0.41-0.08-0.03,0.32-0.37c-0.06,0.03-0.13,0.05-0.15,0.05c0.05-0.03,0.08-0.06,0.06-0.04c0.13-0.13-0.46,0.33-0.31,0.19
						c0.25-0.2,0.15-0.09,0.24-0.17c0.52-0.39-0.09,0.03,0.21-0.21l0.03-0.02c0.17-0.14-0.22,0.12-0.19,0.08
						c0,0,0.05-0.03,0.08-0.06c-0.28,0.18-0.38,0.22-0.47,0.26c0.21-0.14,0.12-0.07,0.33-0.22c-0.04,0.01-0.34,0.24-0.41,0.26
						c0.11-0.08,0.2-0.16,0.43-0.32l0.02,0c0.29-0.21-0.02-0.01,0.02-0.05l0.13-0.09c-0.06,0.01-0.38,0.23-0.37,0.19l-0.1,0.07
						c-0.33,0.2,0.18-0.13-0.07,0.01l0.33-0.22c-0.08,0.04-0.34,0.18-0.41,0.2c0.26-0.14,0.39-0.21,0.54-0.29
						c0-0.01-0.04-0.01-0.21,0.09c0.03-0.02,0.12-0.06,0.07-0.03c-0.27,0.16-0.41,0.22-0.41,0.2c0.65-0.4,0.14-0.15,0.64-0.47
						c-0.26,0.12,0.07-0.11,0.01-0.12c-0.51,0.31-0.02,0-0.55,0.3c-0.04,0.01-0.03,0,0-0.02l0.31-0.2c0.15-0.09,0.12-0.06,0.24-0.13
						c0.03-0.04,0.22-0.13,0.36-0.22c-0.19,0.11-0.28,0.15-0.21,0.1l-0.24,0.15c-0.3,0.13,0.44-0.27,0.14-0.13l0.17-0.08
						c-0.11,0.04-0.02-0.04-0.46,0.18c0.06-0.03,0.21-0.12,0.25-0.13c0.05-0.06-0.5,0.18-0.24,0.02l0.13-0.06
						c-0.04,0.01-0.26,0.11-0.12,0.04c0.06-0.03,0.13-0.07,0.14-0.07c-0.05,0.02-0.24,0.1-0.17,0.05l0.15-0.07
						c0.16-0.11-0.39,0.13-0.49,0.15c0.4-0.19,0.52-0.27,0.58-0.31l0.06-0.03c0.04-0.05-0.36,0.1-0.53,0.13
						c0.43-0.21,0.16-0.15,0.39-0.28c-0.07,0.03-0.32,0.13-0.36,0.14c0.08-0.04-0.29,0.09,0.08-0.06l-0.01,0.01
						c0.37-0.15,0.26-0.13,0.27-0.14l-0.49,0.19c0.7-0.31-0.3,0.01,0.34-0.25c-0.13,0.03-0.13,0.03-0.26,0.07l0.27-0.1
						c0.06-0.05,0.09-0.07,0.02-0.07l0.19-0.06c0.01-0.02-0.78,0.25-0.8,0.24l0.4-0.14c-0.02-0.03,0.33-0.17-0.04-0.07
						c0.06-0.02,0.18-0.06,0.19-0.06c0.01-0.02,0.26-0.13-0.29,0.05c0.36-0.11,0.03-0.04-0.14,0l0.27-0.08
						c-0.34,0.09-0.44,0.12-0.54,0.13c0.03-0.02,0.21-0.07,0.15-0.04c0.14-0.06-0.26,0.06-0.12,0l0.17-0.04
						c0.02-0.02-0.07,0.01-0.28,0.06c-0.11,0.02,0.06-0.05,0.3-0.12c-0.15,0.04-0.35,0.09-0.28,0.06c0.09-0.02,0.15-0.04,0.18-0.05
						c0.18-0.08-0.32,0.05-0.06-0.04c0.09-0.03,0.13-0.04,0.16-0.05c0,0.02-0.01,0.04-0.03,0.05c0.25-0.07,0.29-0.1,0.63-0.18
						c-0.19,0.04-0.6,0.13-0.49,0.08c0.02-0.01,0.05-0.01,0.09-0.03l0.03-0.01c0.02-0.01,0-0.01-0.04,0
						c0.04-0.02,0.07-0.03,0.07-0.03c0.2-0.06,0.11-0.05,0.11-0.06c-0.27,0.07-0.23,0.05-0.45,0.12c0.02-0.01,0.03-0.01,0.05,0
						c0.01,0,0.01,0,0.03,0l-0.02,0.01c0.01,0,0.02,0.01,0.02,0.01c-0.14,0.03-0.26,0.05-0.11,0.01c-0.18,0.04-0.36,0.08-0.44,0.1
						c0.37-0.11,0.58-0.18,0.81-0.25c-0.16,0.02-0.12-0.03-0.63,0.08c-0.07,0.01,0.15-0.04,0.23-0.07c0.05-0.01,0.05,0,0.12-0.02
						c-0.13,0.02-0.06-0.03-0.42,0.05c0.16-0.06,0.33-0.07,0.27-0.08l0.11-0.02c0.57-0.18-0.94,0.13-0.21-0.09
						c-0.05,0.01-0.07,0.02-0.13,0.03c0.31-0.13-0.34-0.07,0.17-0.23c0.1-0.04-0.13,0-0.31,0.02l0.3-0.06l-0.35,0.04
						c-0.26,0.01,0.72-0.17,0.24-0.12l-0.2,0.04c0.04-0.02-0.12-0.02,0.11-0.05c-0.04,0-0.21,0.03-0.11,0.01l0.16-0.02l-0.27,0.01
						c0.11-0.04,0.62-0.09,0.65-0.13c-0.06,0-0.46,0.03-0.56,0.05c-0.01,0.01-0.1,0.03-0.25,0.05l-0.08,0
						c-0.46,0.06-0.94,0.12-1.25,0.2l0.29-0.02l-0.22,0.04l-0.02-0.02c-0.21,0.04-0.02,0.02,0.11,0.01
						c-0.12,0.02-0.2,0.04-0.24,0.05l0.44-0.04c-0.18,0.03-0.36,0.04-0.46,0.08c0.21-0.02,0.4-0.07,0.54-0.08
						c-0.21,0.04-0.38,0.07-0.2,0.05c-0.12,0.02-0.19,0.03-0.25,0.03c0.14-0.01,0.07,0.02,0.31-0.01c-0.26,0.05,0.07,0.03-0.36,0.1
						c0.1-0.01,0.34-0.04,0.36-0.03c-0.52,0.07-0.02,0.05-0.58,0.14c0.47-0.07,0.22,0.02,0.48,0c-0.04,0.01-0.11,0.02-0.09,0.01
						c-0.04,0.02-0.18,0.05-0.26,0.08c0.39-0.07,0.48-0.06,0.72-0.1c-0.37,0.09-0.45,0.08-0.81,0.15c0.31-0.06,0.32-0.03,0.58-0.08
						c-0.23,0.06-0.11,0.03-0.43,0.1c0.48-0.09,0.08,0,0.38-0.05c-0.23,0.07-0.45,0.1-0.3,0.09
						C153.5,198.94,153.32,198.96,153.32,198.96z M154.27,199.29L154.27,199.29c-0.01,0-0.02,0-0.02,0S154.26,199.29,154.27,199.29z
						 M154.29,199.34c0.01-0.01,0.01-0.01,0.01-0.02c0.09-0.03,0.19-0.05,0.19-0.05C154.42,199.28,154.37,199.31,154.29,199.34z
						 M156.15,198.74c0.04-0.01-0.01,0.01-0.07,0.03c-0.01,0-0.02,0-0.04,0l-0.03,0.01C156.06,198.77,156.11,198.75,156.15,198.74z"
						/>
					<path class="st1" d="M155.79,198.83c-0.01,0-0.02,0-0.02,0c-0.02,0.01-0.04,0.01-0.06,0.02L155.79,198.83L155.79,198.83z"/>
					<path class="st1" d="M157.12,201.65L157.12,201.65c0,0-0.01,0.01-0.02,0.03C157.11,201.66,157.12,201.65,157.12,201.65z"/>
					<polygon class="st1" points="153.97,200.1 154.04,200.08 153.98,200.09 					"/>
					<path class="st1" d="M156.78,202.58c-0.01,0.02-0.02,0.04-0.03,0.06C156.76,202.62,156.77,202.6,156.78,202.58z"/>
					<path class="st1" d="M156.85,202.68l-0.04,0.09C156.83,202.72,156.84,202.7,156.85,202.68z"/>
					<path class="st1" d="M156.85,202.85c0.02-0.04,0.04-0.08,0.06-0.1l0,0L156.85,202.85z"/>
					<path class="st1" d="M155.53,202.25c0,0-0.01,0-0.01,0.01C155.48,202.29,155.49,202.28,155.53,202.25z"/>
					<path class="st1" d="M156.27,202.05c-0.04,0.04-0.07,0.07-0.1,0.09C156.17,202.16,156.17,202.17,156.27,202.05z"/>
					<polygon class="st1" points="154.95,202.11 154.96,202.11 154.96,202.1 					"/>
					<path class="st1" d="M156.17,202.12c-0.03,0.05-0.02,0.04,0.01,0.02C156.19,202.12,156.2,202.1,156.17,202.12z"/>
					<path class="st1" d="M157.14,203.13l0,0.01c0.01-0.02,0.01-0.03,0.02-0.04L157.14,203.13z"/>
					<path class="st1" d="M157.16,203.1l0.02-0.03C157.18,203.07,157.17,203.08,157.16,203.1z"/>
					<path class="st1" d="M157.21,203.01l-0.04,0.06C157.18,203.07,157.18,203.09,157.21,203.01z"/>
					<path class="st1" d="M157.09,202.96l-0.04,0.09C157.05,203.04,157.07,203.01,157.09,202.96z"/>
					<path class="st1" d="M157.04,202.98c0,0.02-0.07,0.21-0.04,0.15l0.04-0.07C156.97,203.19,157.12,202.82,157.04,202.98z"/>
					<path class="st1" d="M157.5,201.8l-0.02,0.08c0.05-0.1,0.11-0.23,0.13-0.25C157.73,201.33,157.5,201.85,157.5,201.8z"/>
					<path class="st1" d="M157.52,201.63c0.03-0.04,0.08-0.14,0.11-0.19C157.57,201.52,157.55,201.54,157.52,201.63z"/>
					<path class="st1" d="M157.14,201.38l0.16-0.2C157.27,201.2,157.23,201.25,157.14,201.38z"/>
					<polygon class="st1" points="156.24,202.35 156.15,202.48 156.3,202.3 					"/>
					<polygon class="st1" points="157.35,200.91 157.38,200.88 157.31,200.95 					"/>
					<path class="st1" d="M156.81,200.48l-0.25,0.2C156.61,200.64,156.89,200.43,156.81,200.48z"/>
					<path class="st1" d="M156.36,200.4c0.13-0.09,0.21-0.15,0.08-0.07C156.42,200.35,156.33,200.42,156.36,200.4z"/>
					<polygon class="st1" points="156.37,199.3 156.47,199.27 156.39,199.29 					"/>
				</g>
			</g>
		</g>
	</g>
</g>
<g class="st0">
	<g>
		<path class="st2" d="M123.32,186.17"/>
	</g>
</g>
<g>
	<g>
		<path class="st1" d="M60.75,165.57c0.12,2.68,1.3,5.2,3.32,6.99c2.27,2.01,5.14,2.99,8.12,3.29c0.78,0.08,1.53-0.75,1.5-1.5
			c-0.04-0.88-0.66-1.41-1.5-1.5c-0.05-0.01-0.63-0.08-0.36-0.04c-0.15-0.02-0.3-0.05-0.45-0.07c-0.31-0.06-0.63-0.12-0.94-0.2
			c-0.62-0.15-1.22-0.35-1.81-0.59c0.24,0.1-0.07-0.03-0.14-0.07c-0.12-0.06-0.24-0.12-0.36-0.18c-0.28-0.14-0.54-0.29-0.81-0.45
			c-0.22-0.13-0.44-0.28-0.65-0.43c-0.07-0.05-0.14-0.1-0.21-0.15c0.14,0.11,0.14,0.11,0.01,0c-0.09-0.08-0.19-0.16-0.29-0.24
			c-0.4-0.35-0.76-0.74-1.1-1.15c0.22,0.27-0.01-0.02-0.06-0.08c-0.09-0.13-0.18-0.26-0.27-0.4c-0.13-0.2-0.24-0.41-0.35-0.62
			c-0.06-0.12-0.11-0.26-0.18-0.38c-0.04-0.1-0.03-0.07,0.03,0.08c-0.03-0.07-0.06-0.15-0.09-0.22c-0.08-0.22-0.16-0.45-0.22-0.68
			c-0.07-0.27-0.13-0.55-0.18-0.83c-0.07-0.4,0.02,0.32-0.01-0.09c-0.01-0.17-0.03-0.33-0.03-0.5c-0.04-0.78-0.66-1.54-1.5-1.5
			C61.46,164.1,60.71,164.73,60.75,165.57L60.75,165.57z"/>
	</g>
</g>
<g>
	<g>
		<path class="st1" d="M64.47,178.36c4.51-4.25,13.19-3.27,17.17,1.26c0.98,1.11,1.69,2.44,2.71,3.51c1.17,1.23,2.69,2.06,4.3,2.56
			c3.59,1.11,7.68,0.37,11.13,1.97c3.05,1.41,2.45,4.41,0.93,6.81c-1.76,2.79-4.83,4.9-8.23,4.67c-3.65-0.24-5.93-3.12-8.28-5.56
			c-2.71-2.81-5.68-4.31-9.6-4.6c-2.34-0.17-4.7-0.01-7.04-0.21c-1.55-0.13-3.36-0.43-4.61-1.45
			C60.12,185.02,62.47,180.38,64.47,178.36c1.36-1.38-0.76-3.5-2.12-2.12c-2.56,2.6-4.55,6.92-3.27,10.58
			c1.24,3.56,5.1,4.66,8.49,4.95c4.55,0.39,9.46-0.65,13.18,2.64c3.05,2.69,5.23,6.1,9.33,7.32c4.05,1.21,8.3-0.3,11.21-3.21
			c2.32-2.32,4.38-5.95,3.56-9.34c-1.01-4.2-5.9-5.15-9.54-5.52c-2.19-0.22-4.55-0.25-6.61-1.12c-1.77-0.75-2.72-2.11-3.81-3.6
			c-2.6-3.56-6.38-5.52-10.72-6.07c-4.2-0.53-8.68,0.41-11.83,3.37C60.94,177.57,63.06,179.69,64.47,178.36z"/>
	</g>
</g>
<g>
	<g>
		<path class="st1" d="M48.51,175.25c4.65,1.34,8.42,5.36,9.74,10.05c0.22,0.78,1.06,1.26,1.85,1.05c0.78-0.21,1.27-1.06,1.05-1.85
			c-1.59-5.68-6.13-10.51-11.83-12.15c-0.78-0.22-1.63,0.27-1.85,1.05C47.24,174.2,47.72,175.02,48.51,175.25L48.51,175.25z"/>
	</g>
</g>
<g>
	<g>
		<path class="st1" d="M103.86,190.89c2.16,2.66,5.29,4.39,8.6,5.17c0.76,0.18,1.66-0.24,1.85-1.05c0.18-0.77-0.23-1.65-1.05-1.85
			c-0.77-0.18-1.53-0.41-2.27-0.7c-0.13-0.05-0.24-0.1-0.05-0.02c-0.1-0.04-0.19-0.08-0.29-0.13c-0.17-0.08-0.34-0.16-0.5-0.24
			c-0.35-0.17-0.69-0.36-1.02-0.56c-0.31-0.19-0.61-0.39-0.91-0.6c-0.08-0.06-0.16-0.12-0.24-0.18c-0.13-0.1-0.08-0.06,0.02,0.02
			c-0.15-0.13-0.31-0.25-0.46-0.38c-0.57-0.49-1.08-1.03-1.56-1.62c-0.5-0.61-1.61-0.56-2.12,0
			C103.27,189.42,103.33,190.24,103.86,190.89L103.86,190.89z"/>
	</g>
</g>
<g>
	<g>
		<path class="st1" d="M98.09,201.1c0.76,0.17,1.51,0.41,2.23,0.7c-0.3-0.12-0.03-0.01,0.03,0.02c0.09,0.04,0.18,0.08,0.28,0.13
			c0.18,0.09,0.36,0.18,0.54,0.27c0.34,0.18,0.66,0.38,0.98,0.59c0.15,0.1,0.3,0.2,0.45,0.31c0.08,0.06,0.16,0.12,0.24,0.18
			c0.18,0.13-0.27-0.22,0.03,0.02c0.29,0.24,0.58,0.49,0.85,0.75c0.27,0.26,0.53,0.54,0.77,0.82c0.06,0.08,0.13,0.15,0.19,0.23
			c0.04,0.05,0.22,0.29,0.02,0.02c0.12,0.16,0.24,0.32,0.35,0.48c0.45,0.64,1.34,1,2.05,0.54c0.64-0.41,1.02-1.36,0.54-2.05
			c-2.07-2.99-5.2-5.1-8.75-5.9c-0.76-0.17-1.66,0.23-1.85,1.05C96.87,200.02,97.28,200.92,98.09,201.1L98.09,201.1z"/>
	</g>
</g>
<g>
	<g>
		<path class="st1" d="M145.97,201.93c-1.65-3.09-5.37-3.49-8.51-3.09c-3.61,0.45-7.4,1.9-10.74-0.2c-2.41-1.51-4.33-3.77-7.14-4.6
			c-3.25-0.96-6.46,0.41-8.96,2.46c-2.74,2.25-5.05,5.82-5.08,9.47c-0.03,3.43,2.61,5.74,5.83,6.25c2.01,0.32,4.03,0.11,6.05,0.1
			c2.09-0.01,4.01,0.42,5.95,1.21c3.61,1.46,7.05,3.45,11.09,3.19c3.99-0.26,7.78-2.38,10.13-5.61c1.98-2.71,3.36-7.17,0.82-9.96
			c-1.3-1.43-3.42,0.69-2.12,2.12c1.66,1.83-0.54,5.54-1.8,6.93c-1.94,2.12-4.74,3.52-7.64,3.54c-3.27,0.02-6.16-1.63-9.09-2.86
			c-1.47-0.62-2.96-1.13-4.54-1.37c-1.75-0.26-3.49-0.16-5.24-0.12c-2.23,0.06-6,0.09-6.43-2.85c-0.42-2.93,1.95-6.05,4.04-7.8
			c1.91-1.6,4.42-2.63,6.84-1.57c2.16,0.94,3.79,2.82,5.77,4.06c2.99,1.88,6.17,1.66,9.52,1.08c2.48-0.43,7.11-1.75,8.65,1.13
			C144.29,205.15,146.88,203.64,145.97,201.93L145.97,201.93z"/>
	</g>
</g>
<g>
	<g>
		<path class="st1" d="M145.57,204.94c3.34,2.77,7.74,1.82,11.59,0.85c0.79-0.2,1.26-1.08,1.05-1.85c-0.22-0.8-1.06-1.25-1.85-1.05
			c-1.69,0.43-3.3,0.82-4.88,0.89c-0.39,0.02-0.78,0.01-1.16-0.01c-0.06,0-0.63-0.08-0.35-0.03c-0.2-0.03-0.39-0.07-0.58-0.12
			c-0.71-0.18-1.27-0.45-1.7-0.8c-0.62-0.52-1.51-0.61-2.12,0C145.04,203.35,144.95,204.42,145.57,204.94L145.57,204.94z"/>
	</g>
</g>
<g>
	<g>
		<path class="st1" d="M191.05,196.89c-0.62-3.36-4.96-4.75-7.98-4.23c-3.58,0.62-5.1,5.14-8.76,5.31c-3.04,0.14-5.8-1.77-8.86-1.71
			c-3.74,0.07-6.43,2.96-8.15,6.03c-1.68,2.99-2.86,6.78-2.04,10.21c0.87,3.64,4.37,5.58,7.95,4.87c1.87-0.37,3.5-1.47,4.87-2.74
			c1.47-1.37,2.78-3.08,4.86-3.51c1.85-0.39,3.71,0.18,5.51,0.56c1.73,0.36,3.47,0.54,5.22,0.21c3.83-0.71,6.27-4.09,7.17-7.68
			c0.77-3.09,0.74-6.9-1.5-9.39c-1.3-1.44-3.41,0.69-2.12,2.12c1.43,1.58,1.23,4.39,0.77,6.31c-0.58,2.46-1.97,4.93-4.58,5.62
			c-2.93,0.78-5.92-0.78-8.85-0.88c-1.51-0.05-3.03,0.25-4.37,0.95c-1.47,0.76-2.6,2-3.78,3.14c-1.93,1.87-5.78,4.02-7.74,0.9
			c-1.44-2.3-0.41-5.72,0.62-7.97c1.13-2.45,3.14-5.68,6.17-5.74c2.38-0.04,4.61,1.18,6.93,1.56c3.33,0.54,5.78-0.77,8.14-3.04
			c1.29-1.24,2.45-2.45,4.37-2.15c1.37,0.21,2.98,0.52,3.27,2.06C188.51,199.58,191.4,198.78,191.05,196.89L191.05,196.89z"/>
	</g>
</g>
<g>
	<g>
		<path class="st1" d="M189.28,196.93c0.8,0.36,1.65,0.6,2.54,0.54c0.94-0.06,1.82-0.34,2.64-0.79c1.84-1.01,3.21-2.77,4.29-4.53
			c0.41-0.67,0.17-1.68-0.54-2.05c-0.73-0.39-1.62-0.18-2.05,0.54c-0.25,0.42-0.52,0.83-0.81,1.22c-0.02,0.03-0.28,0.37-0.07,0.1
			c-0.08,0.09-0.15,0.19-0.23,0.28c-0.12,0.15-0.25,0.3-0.39,0.44c-0.27,0.3-0.56,0.58-0.86,0.84c-0.07,0.06-0.15,0.16-0.24,0.2
			c0.3-0.13,0.1-0.08-0.01,0c-0.14,0.1-0.29,0.2-0.44,0.29c-0.14,0.08-0.29,0.16-0.44,0.24c-0.05,0.02-0.3,0.14-0.06,0.03
			c0.24-0.11-0.05,0.01-0.1,0.03c-0.14,0.05-0.29,0.09-0.44,0.13c-0.08,0.02-0.16,0.03-0.24,0.05c-0.25,0.05,0.31-0.02,0.12-0.02
			c-0.15,0-0.29,0.02-0.44,0.02c-0.08,0-0.16-0.01-0.24-0.01c-0.26-0.01,0.31,0.06,0.13,0.02c-0.14-0.03-0.29-0.06-0.43-0.1
			c-0.08-0.02-0.15-0.05-0.23-0.08c-0.26-0.08,0.32,0.15,0.05,0.03c-0.71-0.32-1.65-0.23-2.05,0.54
			C188.4,195.54,188.52,196.59,189.28,196.93L189.28,196.93z"/>
	</g>
</g>
<g>
	<g>
		<path class="st1" d="M226.97,178.23c-2.69-2.54-6.24-2.29-9.45-0.9c-1.74,0.75-2.84,1.82-3.7,3.51c-0.82,1.6-1.71,3.13-3.21,4.2
			c-1.31,0.93-2.65,1.17-4.22,1.06c-1.56-0.11-3.16-0.34-4.67,0.21c-3.36,1.22-4.25,5.08-4.41,8.27c-0.15,3.18-0.14,7.72,2.58,9.92
			c1.3,1.05,2.92,1.28,4.54,1.43c1.77,0.16,3.61,0.1,5.13-0.93c2.91-1.95,3.72-6.69,7.19-7.82c2.86-0.93,5.92,0.68,8.8-0.57
			c3.52-1.52,4.38-5.71,4.57-9.14c0.11-1.98,0.17-4.12-0.2-6.07c-0.39-2.04-1.82-3.18-3.8-3.54c-1.89-0.35-2.7,2.54-0.8,2.89
			c0.69,0.13,1.27,0.19,1.57,0.9c0.25,0.58,0.2,1.31,0.23,1.92c0.05,1.43,0.07,2.87-0.03,4.29c-0.16,2.25-0.69,5.57-3.3,6.2
			c-2.34,0.56-4.82-0.39-7.21,0.07c-2.93,0.57-4.75,3.04-6.3,5.39c-0.72,1.09-1.42,2.46-2.6,3.1c-1.23,0.66-3.1,0.41-4.42,0.15
			c-3.08-0.62-2.97-4.49-2.98-7c0-2.18,0.1-6.22,2.87-6.76c1.11-0.21,2.29,0.03,3.41,0.1c1.34,0.08,2.63-0.06,3.87-0.58
			c1.39-0.57,2.64-1.49,3.65-2.61c1.13-1.26,1.79-2.7,2.63-4.14c1.44-2.5,5.98-3.46,8.13-1.43
			C226.26,181.67,228.38,179.56,226.97,178.23L226.97,178.23z"/>
	</g>
</g>
<g>
	<g>
		<path class="st1" d="M69.29,166.22c-0.9,1.05-1.62,2.25-1.97,3.59c-0.3,1.13-0.37,2.45,0.09,3.56c0.16,0.38,0.32,0.68,0.69,0.9
			c0.32,0.19,0.8,0.27,1.16,0.15c0.36-0.12,0.71-0.34,0.9-0.69c0.17-0.33,0.3-0.79,0.15-1.16c-0.08-0.19-0.14-0.37-0.18-0.57
			c-0.01-0.06-0.02-0.12-0.03-0.18c-0.04-0.21,0.02,0.17,0.02,0.18c-0.04-0.07-0.02-0.25-0.02-0.34c0-0.07,0.05-0.64,0.03-0.66
			c0.01,0.01-0.06,0.39-0.02,0.16c0.01-0.07,0.02-0.13,0.04-0.2c0.02-0.12,0.05-0.24,0.08-0.36c0.06-0.23,0.14-0.47,0.23-0.69
			c0.02-0.05,0.1-0.25,0.01-0.02c-0.1,0.24,0.02-0.03,0.03-0.06c0.05-0.11,0.11-0.22,0.16-0.32c0.13-0.25,0.27-0.48,0.43-0.71
			c0.07-0.1,0.16-0.2,0.22-0.31c-0.07,0.12-0.17,0.21-0.03,0.04c0.05-0.06,0.1-0.12,0.16-0.18c0.51-0.6,0.63-1.54,0-2.12
			C70.85,165.7,69.84,165.58,69.29,166.22L69.29,166.22z"/>
	</g>
</g>
<g>
	<g>
		<path class="st1" d="M72.46,169.87c3.21-1.2,6.28-0.41,8.76,1.9c2.31,2.15,4.2,4.73,7.17,6.04c2.68,1.17,5.62,1.37,8.47,1.83
			c2.48,0.4,5.15,0.93,6.74,3.08c1.68,2.27,2.59,4.95,5.32,6.22c2.51,1.16,5.23,0.62,7.81,1.41c2.09,0.64,3.86,2.15,5.69,3.29
			c2.52,1.58,5.27,2.78,8.23,3.22c2.49,0.37,4.8-0.31,7.28-0.34c3.44-0.04,6.91,0.92,10.07,2.23c1.78,0.74,2.56-2.16,0.8-2.89
			c-2.9-1.21-5.98-2-9.12-2.27c-2.34-0.2-4.52,0.38-6.83,0.43c-2.8,0.06-5.58-1.02-7.97-2.4c-2.09-1.21-3.98-2.77-6.21-3.73
			c-1.24-0.53-2.49-0.76-3.82-0.9c-1.23-0.13-2.51-0.06-3.71-0.4c-2.9-0.82-3.69-3.8-5.38-5.95c-3.74-4.75-10.49-3.48-15.61-5.33
			c-3.4-1.23-5.29-4.59-8.07-6.71c-3.02-2.3-6.86-2.95-10.43-1.61C69.87,167.64,70.65,170.54,72.46,169.87L72.46,169.87z"/>
	</g>
</g>
<g>
	<g>
		<path class="st1" d="M148.36,199.05c3.36,0.23,6.98-0.06,10-1.67c1.16-0.62,2.21-1.39,3.44-1.86c1.57-0.61,3.27-0.93,4.96-0.95
			c2.69-0.03,5.34,1.16,8.02,0.87c1.26-0.14,2.51-0.59,3.41-1.52c0.75-0.78,1.45-1.4,2.31-1.69c3.46-1.18,7.48-0.06,8.55,3.75
			c0.52,1.86,3.42,1.07,2.89-0.8c-0.94-3.31-3.75-5.83-7.17-6.35c-2.81-0.43-6.43,0.33-8.37,2.56c-1.71,1.96-4.52,0.73-6.72,0.41
			c-3.58-0.53-7.28-0.06-10.52,1.63c-1.39,0.73-2.61,1.64-4.14,2.07c-2.17,0.62-4.45,0.7-6.69,0.55
			C146.44,195.92,146.44,198.92,148.36,199.05L148.36,199.05z"/>
	</g>
</g>
<g>
	<g>
		<path class="st1" d="M222.68,189.37c0.11-0.03,0.23-0.05,0.34-0.08c0.2-0.05,0.37-0.14,0.51-0.27c0.16-0.11,0.29-0.25,0.39-0.42
			c0.11-0.17,0.17-0.36,0.18-0.56c0.04-0.2,0.04-0.4-0.03-0.6c-0.05-0.12-0.1-0.24-0.15-0.36c-0.13-0.23-0.31-0.4-0.54-0.54
			c-0.12-0.05-0.24-0.1-0.36-0.15c-0.27-0.07-0.53-0.07-0.8,0c-0.11,0.03-0.23,0.05-0.34,0.08c-0.2,0.05-0.37,0.14-0.51,0.27
			c-0.16,0.11-0.29,0.25-0.39,0.42c-0.11,0.17-0.17,0.36-0.18,0.56c-0.04,0.2-0.04,0.4,0.03,0.6c0.05,0.12,0.1,0.24,0.15,0.36
			c0.13,0.23,0.31,0.4,0.54,0.54c0.12,0.05,0.24,0.1,0.36,0.15C222.15,189.45,222.42,189.45,222.68,189.37L222.68,189.37z"/>
	</g>
</g>
<g>
	<g>
		<path class="st1" d="M204.84,193.53c0.01,0.16,0.01,0.32,0.02,0.47c-0.01,0.21,0.04,0.4,0.13,0.58c0.06,0.19,0.16,0.35,0.31,0.48
			c0.14,0.15,0.3,0.25,0.48,0.31c0.18,0.09,0.37,0.14,0.58,0.13c0.13-0.02,0.27-0.04,0.4-0.05c0.25-0.07,0.47-0.2,0.66-0.39
			c0.08-0.1,0.16-0.2,0.23-0.3c0.14-0.23,0.2-0.49,0.2-0.76c-0.01-0.16-0.01-0.32-0.02-0.47c0.01-0.21-0.04-0.4-0.13-0.58
			c-0.06-0.19-0.16-0.35-0.31-0.48c-0.14-0.15-0.3-0.25-0.48-0.31c-0.18-0.09-0.37-0.14-0.58-0.13c-0.13,0.02-0.27,0.04-0.4,0.05
			c-0.25,0.07-0.47,0.2-0.66,0.39c-0.08,0.1-0.16,0.2-0.23,0.3C204.91,193.01,204.84,193.26,204.84,193.53L204.84,193.53z"/>
	</g>
</g>
<g>
	<g>
		<path class="st1" d="M182.34,204.12c1.93,0,1.93-3,0-3C180.41,201.12,180.41,204.12,182.34,204.12L182.34,204.12z"/>
	</g>
</g>
<g>
	<g>
		<path class="st1" d="M164.43,204.56c-0.06,0.15-0.12,0.29-0.17,0.44c-0.06,0.2-0.07,0.4-0.03,0.6c0.01,0.2,0.07,0.39,0.18,0.56
			c0.09,0.17,0.22,0.32,0.39,0.42c0.14,0.13,0.31,0.22,0.51,0.27c0.13,0.02,0.27,0.04,0.4,0.05c0.27,0,0.52-0.07,0.76-0.2
			c0.1-0.08,0.2-0.16,0.3-0.23c0.19-0.19,0.31-0.41,0.39-0.66c0.06-0.15,0.12-0.29,0.17-0.44c0.06-0.2,0.07-0.4,0.03-0.6
			c-0.01-0.2-0.07-0.39-0.18-0.56c-0.09-0.17-0.22-0.32-0.39-0.42c-0.14-0.13-0.31-0.22-0.51-0.27c-0.13-0.02-0.27-0.04-0.4-0.05
			c-0.27,0-0.52,0.07-0.76,0.2c-0.1,0.08-0.2,0.16-0.3,0.23C164.63,204.08,164.5,204.3,164.43,204.56L164.43,204.56z"/>
	</g>
</g>
<g>
	<g>
		<path class="st1" d="M115.91,205.89c0.15-0.05,0.3-0.11,0.45-0.16c0.2-0.05,0.37-0.14,0.51-0.27c0.16-0.11,0.29-0.25,0.39-0.42
			c0.11-0.17,0.17-0.36,0.18-0.56c0.04-0.2,0.04-0.4-0.03-0.6c-0.05-0.12-0.1-0.24-0.15-0.36c-0.13-0.23-0.31-0.4-0.54-0.54
			c-0.12-0.05-0.24-0.1-0.36-0.15c-0.27-0.07-0.53-0.07-0.8,0c-0.15,0.05-0.3,0.11-0.45,0.16c-0.2,0.05-0.37,0.14-0.51,0.27
			c-0.16,0.11-0.29,0.25-0.39,0.42c-0.11,0.17-0.17,0.36-0.18,0.56c-0.04,0.2-0.04,0.4,0.03,0.6c0.05,0.12,0.1,0.24,0.15,0.36
			c0.13,0.23,0.31,0.4,0.54,0.54c0.12,0.05,0.24,0.1,0.36,0.15C115.38,205.97,115.64,205.97,115.91,205.89L115.91,205.89z"/>
	</g>
</g>
<g>
	<g>
		<path class="st1" d="M93.78,193.69c0.11-0.09,0.23-0.19,0.34-0.28c0.15-0.14,0.25-0.3,0.31-0.48c0.09-0.18,0.14-0.37,0.13-0.58
			c0.01-0.21-0.04-0.4-0.13-0.58c-0.06-0.19-0.16-0.35-0.31-0.48c-0.1-0.08-0.2-0.16-0.3-0.23c-0.23-0.14-0.49-0.2-0.76-0.2
			c-0.13,0.02-0.27,0.04-0.4,0.05c-0.25,0.07-0.47,0.2-0.66,0.39c-0.11,0.09-0.23,0.19-0.34,0.28c-0.15,0.14-0.25,0.3-0.31,0.48
			c-0.09,0.18-0.14,0.37-0.13,0.58c-0.01,0.21,0.04,0.4,0.13,0.58c0.06,0.19,0.16,0.35,0.31,0.48c0.1,0.08,0.2,0.16,0.3,0.23
			c0.23,0.14,0.49,0.2,0.76,0.2c0.13-0.02,0.27-0.04,0.4-0.05C93.37,194.01,93.59,193.88,93.78,193.69L93.78,193.69z"/>
	</g>
</g>
<g>
	<g>
		<path class="st1" d="M71.44,183.9c1.93,0,1.93-3,0-3C69.51,180.9,69.51,183.9,71.44,183.9L71.44,183.9z"/>
	</g>
</g>
<g>
	<g>
		<path class="st1" d="M42.41,145.72c1.08,0.79,1.21,2.31,1.34,3.53c0.16,1.46,0.26,2.95,0.82,4.32c1.2,2.92,4.04,4.57,6.82,5.75
			c1.53,0.65,3.1,1.19,4.67,1.75c1.39,0.5,3.21,0.98,4.21,2.15c2.11,2.45-3.68,5.67-5.24,6.54c-3.08,1.73-6.99,3.91-10.53,2.26
			c-3.07-1.42-3.91-4.66-5.15-7.51c-0.71-1.64-1.63-3.21-2.99-4.41c-1.3-1.15-2.82-1.99-4.37-2.76c-2.49-1.25-6.79-2.81-7.09-6.1
			c-0.34-3.71,4.52-6.47,7.55-7.09c2.13-0.44,4.53-0.36,6.66,0.09c1.18,0.25,3.27,0.72,3.3,2.23c0.04,1.93,3.04,1.93,3,0
			c-0.09-4.2-4.92-5.25-8.28-5.51c-4.6-0.35-9.17,0.77-12.48,4.14c-2.77,2.82-3.77,6.82-1.15,10.11c2.7,3.39,7.18,4.15,10.46,6.75
			c3.25,2.58,3.38,7.28,6.03,10.33c2.74,3.15,7.08,3.96,10.95,2.65c2.26-0.76,4.46-1.91,6.5-3.14c1.81-1.09,3.6-2.36,4.9-4.05
			c1.05-1.36,1.72-3.13,1.17-4.84c-0.59-1.87-2.36-3.01-4.06-3.76c-2.03-0.89-4.17-1.52-6.24-2.33c-1.84-0.73-3.88-1.63-5.16-3.2
			c-1.2-1.47-1.17-3.41-1.4-5.2c-0.27-2.17-0.92-3.98-2.73-5.31C42.36,141.99,40.86,144.59,42.41,145.72L42.41,145.72z"/>
	</g>
</g>
<g>
	<g>
		<path class="st1" d="M50.41,164.33c0,0-0.01,0.01-0.01,0.01c0.1-0.08,0.2-0.16,0.3-0.23c-0.07,0.05-0.14,0.09-0.21,0.12
			c0.12-0.05,0.24-0.1,0.36-0.15c-0.08,0.03-0.17,0.06-0.26,0.07c0.13-0.02,0.27-0.04,0.4-0.05c-0.08,0.01-0.15,0.01-0.23,0
			c0.13,0.02,0.27,0.04,0.4,0.05c-0.05-0.01-0.1-0.02-0.14-0.04c0.12,0.05,0.24,0.1,0.36,0.15c-0.03-0.01-0.06-0.03-0.09-0.05
			c0.1,0.08,0.2,0.16,0.3,0.23c-0.01,0-0.01-0.01-0.02-0.01c-0.14-0.15-0.3-0.25-0.48-0.31c-0.18-0.09-0.37-0.14-0.58-0.13
			c-0.21-0.01-0.4,0.04-0.58,0.13c-0.19,0.06-0.35,0.16-0.48,0.31c-0.08,0.1-0.16,0.2-0.23,0.3c-0.14,0.23-0.2,0.49-0.2,0.76
			c0.02,0.13,0.04,0.27,0.05,0.4c0.07,0.25,0.2,0.47,0.39,0.66c0.26,0.22,0.51,0.4,0.85,0.48c0.08,0.02,0.18,0.03,0.26,0.04
			c0.08,0.01,0.17,0.03,0.26,0.03c0.05,0,0.09,0,0.14,0c0.15-0.02,0.3-0.04,0.45-0.06c0.03,0,0.05-0.01,0.08-0.02
			c0.05-0.01,0.1-0.03,0.14-0.05c0.15-0.06,0.33-0.12,0.48-0.21c0.15-0.09,0.3-0.21,0.42-0.32c0.15-0.14,0.25-0.3,0.31-0.48
			c0.09-0.18,0.14-0.37,0.13-0.58c0.01-0.21-0.04-0.4-0.13-0.58c-0.06-0.19-0.16-0.35-0.31-0.48c-0.1-0.08-0.2-0.16-0.3-0.23
			c-0.23-0.14-0.49-0.2-0.76-0.2c-0.13,0.02-0.27,0.04-0.4,0.05C50.81,164.01,50.59,164.14,50.41,164.33L50.41,164.33z"/>
	</g>
</g>
<g>
	<g>
		<path class="st1" d="M33.65,151.49c1.93,0,1.93-3,0-3C31.72,148.49,31.72,151.49,33.65,151.49L33.65,151.49z"/>
	</g>
</g>
<g>
	<g>
		<path class="st1" d="M73.17,166.36c-3.33-0.99-4.05-4.33-4.77-7.32c-0.85-3.57-2.28-6.67-5.79-8.26c-3.2-1.45-7.31-1.87-9.25-5.17
			c-0.87-1.48-1-3.24-1.55-4.84c-0.54-1.57-1.42-2.95-2.86-3.83c-3.49-2.13-8.33-1.13-12.1-0.53c-1.9,0.3-1.09,3.19,0.8,2.89
			c1.88-0.3,3.78-0.58,5.69-0.59c1.44-0.01,3.15,0.07,4.35,0.98c1.28,0.98,1.51,2.79,1.88,4.25c0.43,1.68,1.07,3.2,2.19,4.54
			c2.44,2.91,6.07,3.43,9.35,4.89c1.63,0.72,2.81,1.79,3.52,3.45c0.65,1.53,0.91,3.2,1.32,4.8c0.91,3.51,2.8,6.54,6.43,7.63
			C74.22,169.8,75.02,166.91,73.17,166.36L73.17,166.36z"/>
	</g>
</g>
<g>
	<g>
		<path class="st1" d="M154.84,199.29c-0.01,0.43,0,0.86,0.06,1.28c0.06,0.46,0.12,0.92,0.29,1.35c0.18,0.48,0.39,0.89,0.75,1.26
			c0.31,0.32,0.74,0.58,1.18,0.68c0.39,0.09,0.8,0.06,1.16-0.15c0.31-0.18,0.61-0.54,0.69-0.9c0.09-0.38,0.07-0.82-0.15-1.16
			c-0.21-0.32-0.51-0.61-0.9-0.69c-0.06-0.01-0.11-0.03-0.17-0.05c0.12,0.05,0.24,0.1,0.36,0.15c-0.09-0.04-0.17-0.08-0.24-0.14
			c0.1,0.08,0.2,0.16,0.3,0.23c-0.08-0.06-0.15-0.14-0.21-0.21c0.08,0.1,0.16,0.2,0.23,0.3c-0.1-0.13-0.18-0.28-0.25-0.44
			c0.05,0.12,0.1,0.24,0.15,0.36c-0.13-0.32-0.21-0.66-0.25-1c0.02,0.13,0.04,0.27,0.05,0.4c-0.05-0.43-0.07-0.85-0.06-1.28
			c0.01-0.38-0.17-0.8-0.44-1.06c-0.26-0.26-0.69-0.46-1.06-0.44C155.51,197.82,154.86,198.45,154.84,199.29L154.84,199.29z"/>
	</g>
</g>
<g>
	<g>
		<path class="st1" d="M114.3,188.55c-1.36,1.47-2.3,3.49-1.87,5.53c0.16,0.77,1.11,1.29,1.85,1.05c0.81-0.26,1.22-1.02,1.05-1.85
			c-0.01-0.07-0.03-0.13-0.04-0.2c0.02,0.13,0.04,0.27,0.05,0.4c-0.04-0.28-0.03-0.57,0-0.85c-0.02,0.13-0.04,0.27-0.05,0.4
			c0.06-0.41,0.17-0.81,0.33-1.2c-0.05,0.12-0.1,0.24-0.15,0.36c0.21-0.48,0.47-0.93,0.79-1.35c-0.08,0.1-0.16,0.2-0.23,0.3
			c0.13-0.16,0.26-0.32,0.4-0.47c0.53-0.58,0.61-1.56,0-2.12C115.84,188.02,114.87,187.93,114.3,188.55L114.3,188.55z"/>
	</g>
</g>
<g>
	<g>
		<path class="st1" d="M65.25,162.68c-0.04,0.17-0.1,0.33-0.16,0.48c0.05-0.12,0.1-0.24,0.15-0.36c-0.15,0.34-0.34,0.66-0.57,0.95
			c0.08-0.1,0.16-0.2,0.23-0.3c-0.31,0.4-0.67,0.75-1.07,1.06c0.1-0.08,0.2-0.16,0.3-0.23c-0.18,0.14-0.37,0.27-0.57,0.39
			c-0.33,0.2-0.59,0.52-0.69,0.9c-0.1,0.36-0.05,0.84,0.15,1.16c0.21,0.32,0.51,0.6,0.9,0.69c0.39,0.09,0.81,0.06,1.16-0.15
			c0.69-0.42,1.34-0.95,1.85-1.58c0.53-0.66,0.99-1.37,1.2-2.2c0.1-0.38,0.05-0.81-0.15-1.16c-0.18-0.31-0.54-0.61-0.9-0.69
			c-0.38-0.09-0.82-0.07-1.16,0.15C65.62,162,65.35,162.3,65.25,162.68L65.25,162.68z"/>
	</g>
</g>
<g>
	<g>
		<path class="st1" d="M104.98,186.39c0.06,1.6,0.12,3.21,0.17,4.81c0.03,0.78,0.67,1.54,1.5,1.5c0.79-0.04,1.53-0.66,1.5-1.5
			c-0.06-1.6-0.12-3.21-0.17-4.81c-0.03-0.78-0.67-1.54-1.5-1.5C105.69,184.93,104.95,185.55,104.98,186.39L104.98,186.39z"/>
	</g>
</g>
<g>
	<g>
		<path class="st1" d="M34.64,140.42c-3.1-3.74-5.48-8.2-7.21-12.72c-0.29-0.76-1.01-1.28-1.85-1.05c-0.72,0.2-1.34,1.08-1.05,1.85
			c1.92,5.04,4.53,9.88,7.98,14.05c0.52,0.62,1.59,0.54,2.12,0C35.25,141.93,35.15,141.05,34.64,140.42L34.64,140.42z"/>
	</g>
</g>
<g>
	<g>
		<path class="st1" d="M26.01,145.8c-0.67-6.51-3.44-12.94-8.32-17.41c-1.42-1.3-3.55,0.81-2.12,2.12
			c4.26,3.91,6.85,9.56,7.44,15.29c0.08,0.81,0.63,1.5,1.5,1.5C25.26,147.3,26.1,146.61,26.01,145.8L26.01,145.8z"/>
	</g>
</g>
<g>
	<g>
		<path class="st1" d="M35.64,137.67c-1.11,0.99-2.22,1.97-3.33,2.96c-0.28,0.25-0.44,0.7-0.44,1.06c0,0.37,0.16,0.81,0.44,1.06
			c0.29,0.26,0.66,0.46,1.06,0.44c0.41-0.02,0.75-0.16,1.06-0.44c1.11-0.99,2.22-1.97,3.33-2.96c0.28-0.25,0.44-0.7,0.44-1.06
			c0-0.37-0.16-0.81-0.44-1.06c-0.29-0.26-0.66-0.46-1.06-0.44C36.29,137.25,35.95,137.4,35.64,137.67L35.64,137.67z"/>
	</g>
</g>
<g>
	<g>
		<path class="st1" d="M40.65,135.99c-0.52-0.7-0.99-1.43-1.39-2.21c-0.33-0.65-0.53-1.13-0.74-1.86c-0.1-0.34-0.18-0.68-0.24-1.03
			c-0.07-0.4-0.07-0.34-0.09-0.78c-0.02-0.36-0.03-0.73-0.01-1.09c0.01-0.16,0.02-0.31,0.04-0.46c0.02-0.18,0.02-0.21,0.01-0.06
			c0.02-0.1,0.03-0.2,0.05-0.31c0.18-1-0.41-1.83-1.45-1.9c-2.5-0.16-5-0.31-7.49-0.47c-0.78-0.05-1.53,0.72-1.5,1.5
			c0.04,0.85,0.66,1.45,1.5,1.5c2.5,0.16,5,0.31,7.49,0.47c-0.48-0.63-0.96-1.27-1.45-1.9c-0.67,3.65,0.52,7.17,2.68,10.11
			c0.48,0.65,1.3,0.98,2.05,0.54C40.75,137.66,41.13,136.64,40.65,135.99L40.65,135.99z"/>
	</g>
</g>
<g>
	<g>
		<path class="st1" d="M27.52,120.56c1.1,1.1,1.63,2.61,0.62,3.97c-0.95,1.28-2.7,1.88-4.18,2.26c-3.66,0.97-7.79,1.2-11.14-0.81
			c-1.25-0.75-2.55-1.84-3.09-3.24c-0.48-1.25,0.07-2.42,0.77-3.46c1.59-2.36,3.87-4.22,4.21-7.23c0.35-3.05-1.22-5.91-2.18-8.71
			c-0.44-1.27-0.89-2.69-0.62-4.05c0.25-1.27,1.22-2.13,2.31-2.73c2.93-1.59,6.69-1.37,9.73-0.24c2.74,1.02,5.85,3.18,6.74,6.13
			c0.2,0.67,0.31,1.46,0.05,2.13c-0.34,0.85-1.3,1.22-2.04,1.65c-1.64,0.95-2.89,2.25-3.51,4.07c-1.42,4.19,1.28,8.53,3.35,11.98
			c0.99,1.65,3.59,0.15,2.59-1.51c-1.84-3.07-5.66-8.86-1.41-11.66c1.66-1.09,3.36-1.81,3.95-3.9c0.47-1.69,0.07-3.49-0.69-5.03
			c-3.42-6.9-13.96-9.98-20.56-6.05c-3.16,1.88-4.1,5.1-3.23,8.56c0.45,1.78,1.23,3.45,1.83,5.18c0.51,1.46,1.04,3.13,0.53,4.66
			c-1.06,3.23-4.57,4.98-4.98,8.57c-0.43,3.76,2.98,6.78,6.11,8.17c4.43,1.97,10.24,1.49,14.61-0.51c1.89-0.87,3.63-2.32,4.18-4.4
			c0.6-2.22-0.29-4.37-1.86-5.94C28.28,117.07,26.16,119.19,27.52,120.56L27.52,120.56z"/>
	</g>
</g>
<g>
	<g>
		<path class="st1" d="M35.18,128.13c2.98-2.17,6.06-5.45,5.19-9.47c-0.31-1.45-1.27-2.58-1.97-3.85c-0.92-1.66-1.16-3.59-0.7-5.42
			c0.37-1.49,1.05-2.87,1.19-4.42c0.15-1.8-0.51-3.59-1.59-5.01c-2.32-3.03-6.53-5.01-10.19-5.75c-3.67-0.74-7.47-0.53-11.09,0.38
			c-1.87,0.47-1.08,3.36,0.8,2.89c5.81-1.45,12.58-0.84,17.2,3.33c1.1,1,1.99,2.34,1.9,3.89c-0.07,1.24-0.69,2.42-1.02,3.61
			c-0.9,3.22-0.19,6.33,1.58,9.09c0.81,1.26,1.33,2.34,0.84,3.86c-0.58,1.8-2.15,3.2-3.64,4.28
			C32.12,126.67,33.62,129.27,35.18,128.13L35.18,128.13z"/>
	</g>
</g>
<g>
	<g>
		<path class="st1" d="M19.39,119.56c-0.14,0.07-0.28,0.14-0.43,0.2c-0.17,0.09-0.32,0.22-0.42,0.39c-0.13,0.14-0.22,0.31-0.27,0.51
			c-0.06,0.2-0.07,0.4-0.03,0.6c0.01,0.2,0.07,0.39,0.18,0.56c0.08,0.1,0.16,0.2,0.23,0.3c0.19,0.19,0.41,0.31,0.66,0.39
			c0.13,0.02,0.27,0.04,0.4,0.05c0.27,0,0.52-0.07,0.76-0.2c0.14-0.07,0.28-0.14,0.43-0.2c0.17-0.09,0.32-0.22,0.42-0.39
			c0.13-0.14,0.22-0.31,0.27-0.51c0.06-0.2,0.07-0.4,0.03-0.6c-0.01-0.2-0.07-0.39-0.18-0.56c-0.08-0.1-0.16-0.2-0.23-0.3
			c-0.19-0.19-0.41-0.31-0.66-0.39c-0.13-0.02-0.27-0.04-0.4-0.05C19.88,119.35,19.63,119.42,19.39,119.56L19.39,119.56z"/>
	</g>
</g>
<g>
	<g>
		<path class="st1" d="M21.16,101.88c-0.15-0.12-0.29-0.24-0.44-0.37c-0.14-0.15-0.3-0.25-0.48-0.31c-0.18-0.09-0.37-0.14-0.58-0.13
			c-0.21-0.01-0.4,0.04-0.58,0.13c-0.19,0.06-0.35,0.16-0.48,0.31c-0.08,0.1-0.16,0.2-0.23,0.3c-0.14,0.23-0.2,0.49-0.2,0.76
			c0.02,0.13,0.04,0.27,0.05,0.4c0.07,0.25,0.2,0.47,0.39,0.66c0.15,0.12,0.29,0.24,0.44,0.37c0.14,0.15,0.3,0.25,0.48,0.31
			c0.18,0.09,0.37,0.14,0.58,0.13c0.21,0.01,0.4-0.04,0.58-0.13c0.19-0.06,0.35-0.16,0.48-0.31c0.08-0.1,0.16-0.2,0.23-0.3
			c0.14-0.23,0.2-0.49,0.2-0.76c-0.02-0.13-0.04-0.27-0.05-0.4C21.47,102.28,21.35,102.06,21.16,101.88L21.16,101.88z"/>
	</g>
</g>
<g>
	<g>
		<path class="st1" d="M143.45,197.63c0.15,1.9,0.68,3.73,1.65,5.38c0.4,0.68,1.37,0.98,2.05,0.54c0.68-0.44,0.96-1.33,0.54-2.05
			c-0.23-0.4-0.44-0.81-0.62-1.24c0.05,0.12,0.1,0.24,0.15,0.36c-0.37-0.88-0.62-1.8-0.75-2.74c0.02,0.13,0.04,0.27,0.05,0.4
			c-0.03-0.22-0.05-0.43-0.07-0.65c-0.03-0.4-0.15-0.77-0.44-1.06c-0.26-0.26-0.69-0.46-1.06-0.44
			C144.19,196.16,143.39,196.79,143.45,197.63L143.45,197.63z"/>
	</g>
</g>
<g class="st0">
	<g>
		<g>
			<g>
				<g>
					<path class="st1" d="M198.58,45.69c0.01-0.09,0.03-0.28,0.02-0.24l-0.03,0.33L198.58,45.69z"/>
					<path class="st1" d="M198.59,45.08c-0.02,0.16-0.05,0.44-0.07,0.74c0.03-0.32,0.02-0.18,0.06-0.56c0.01-0.04,0,0.11-0.01,0.23
						c0.01-0.08,0,0.07,0.03-0.13c0.01-0.26,0-0.27-0.03-0.06C198.58,45.23,198.58,45.14,198.59,45.08z"/>
					<path class="st1" d="M197.8,44.59l0.01,0.04C197.8,44.6,197.8,44.59,197.8,44.59z"/>
					<path class="st1" d="M197.25,44.5c0-0.01,0-0.04-0.01-0.07C197.24,44.46,197.24,44.48,197.25,44.5z"/>
					<path class="st1" d="M197.07,44.18c0.01,0.01,0.01,0.01,0.01,0.02C197.07,44.17,197.07,44.15,197.07,44.18z"/>
					<path class="st1" d="M197.8,44.59l-0.03-0.1C197.78,44.59,197.79,44.56,197.8,44.59z"/>
					<path class="st1" d="M198.45,45.87c0-0.02,0.01-0.05,0.01-0.09c0,0.01,0,0.03-0.01,0.03L198.45,45.87z"/>
					<path class="st1" d="M198,44.3L198,44.3c0-0.04,0-0.08,0-0.14L198,44.3z"/>
					<path class="st1" d="M198.19,44.24c0-0.01,0,0.27,0,0.39c0-0.12,0-0.17,0-0.19C198.19,44.38,198.19,44.32,198.19,44.24z"/>
					<path class="st1" d="M198.47,44.73l0.01-0.04C198.47,44.71,198.47,44.72,198.47,44.73z"/>
					<path class="st1" d="M197.87,44.25c0-0.04-0.01-0.08-0.01-0.1C197.86,44.18,197.86,44.22,197.87,44.25z"/>
					<path class="st1" d="M195.44,48.08c-0.02-0.01-0.03-0.02-0.04-0.03C195.43,48.06,195.44,48.08,195.44,48.08z"/>
					<polygon class="st1" points="194.22,47.38 194.21,47.37 194.08,47.28 					"/>
					<path class="st1" d="M196.79,43.88L196.79,43.88C196.79,43.85,196.79,43.86,196.79,43.88z"/>
					<path class="st1" d="M195.38,44.77c0.15,0.2,0.15,0.29,0.32,0.51C195.64,45.18,195.49,44.89,195.38,44.77z"/>
					<path class="st1" d="M198.45,45.84L198.45,45.84C198.44,45.85,198.44,45.85,198.45,45.84z"/>
					<polygon class="st1" points="195.71,45.27 195.71,45.28 195.72,45.3 					"/>
					<path class="st1" d="M196.45,44.18c0.02,0.05,0.03,0.08,0.05,0.11C196.48,44.26,196.47,44.23,196.45,44.18z"/>
					<path class="st1" d="M196.87,44.45l-0.02-0.03C196.86,44.44,196.87,44.45,196.87,44.45z"/>
					<path class="st1" d="M196.45,44.6c-0.01-0.02-0.03-0.05-0.02-0.02c0.01,0.01,0.01,0.02,0.01,0.03
						C196.44,44.58,196.43,44.57,196.45,44.6z"/>
					<path class="st1" d="M196.31,44.67c0.01,0.02,0.02,0.03,0.03,0.05l0-0.02L196.31,44.67z"/>
					<path class="st1" d="M195.55,47.73c-0.06-0.05-0.13-0.1-0.2-0.16C195.5,47.7,195.55,47.76,195.55,47.73z"/>
					<path class="st1" d="M198.45,45.72c-0.01,0.07-0.01,0.11-0.01,0.12c0,0,0-0.01,0-0.01C198.45,45.78,198.45,45.74,198.45,45.72z
						"/>
					<path class="st1" d="M197.31,46.65l-0.03-0.03C197.3,46.64,197.31,46.65,197.31,46.65z"/>
					<path class="st1" d="M196.06,47.14l0.02,0.03C196.09,47.17,196.08,47.17,196.06,47.14z"/>
					<path class="st1" d="M197.26,46.67c-0.04-0.09-0.07-0.14-0.09-0.17c0.01,0.02,0.02,0.04,0.03,0.07L197.26,46.67z"/>
					<path class="st1" d="M195.35,47.57L195.35,47.57L195.35,47.57z"/>
					<path class="st1" d="M195.79,48.08c0.02-0.01-0.28-0.23-0.44-0.37c-0.07-0.08,0.22,0.16,0.37,0.28
						c-0.07-0.07-0.32-0.29-0.31-0.29c0.05,0.04,0.06,0.05,0.12,0.1c-0.22-0.2,0.01-0.04-0.26-0.29c0.03,0.02,0.05,0.04,0.07,0.06
						c-0.14-0.12-0.29-0.24-0.39-0.32c0-0.01-0.17-0.16,0.02-0.01c-0.01,0,0.07,0.06,0.12,0.11l-0.07-0.07
						c0.27,0.22,0.08,0.09,0.28,0.25c-0.08-0.08-0.28-0.29-0.2-0.23c0.26,0.22,0.07,0.1,0.31,0.28l-0.11-0.07
						c0.42,0.34-0.04-0.02,0.41,0.35c0.09,0.05-0.11-0.13-0.02-0.09c-0.14-0.12-0.21-0.18-0.35-0.31c-0.23-0.25,0.66,0.54,0.34,0.22
						c-0.17-0.15-0.49-0.44-0.3-0.3l0.28,0.26c0.04,0.01-0.4-0.38-0.19-0.22c0.11,0.1,0.08,0.1,0.12,0.13
						c0.24,0.19-0.15-0.15-0.15-0.16l0.25,0.23c-0.02-0.05-0.19-0.24-0.21-0.3c0.07,0.07,0.15,0.15,0.23,0.21
						c-0.1-0.14,0.08-0.03,0.25,0.09l-0.2-0.21c0,0,0.1,0.09,0.14,0.13c0.09,0.07-0.13-0.13-0.21-0.22
						c-0.01-0.02,0.13,0.11,0.19,0.18c-0.16-0.19-0.33-0.42-0.1-0.22l0.06,0.07c0.1,0.07-0.41-0.44-0.2-0.26l0.03,0.04
						c0.12,0.06-0.03-0.17,0.29,0.14c-0.28-0.31,0.16,0.11-0.24-0.32c0.22,0.2,0.28,0.28,0.44,0.4c0.02,0.01-0.24-0.28-0.27-0.33
						l0.21,0.23l-0.2-0.25l0.25,0.27l-0.05-0.07c-0.02-0.01-0.1-0.1-0.16-0.16c-0.08-0.11,0.17,0.14,0.28,0.25l-0.14-0.22
						c0.08,0.1,0.1,0.13,0.15,0.19c-0.19-0.25,0.22,0.24,0.04,0.01c-0.05-0.05-0.12-0.14-0.16-0.19c0.13,0.14,0.14,0.12,0.1,0.05
						l0.14,0.16c0.05,0.02-0.02-0.11,0-0.13c-0.07-0.07-0.3-0.36-0.32-0.39l0.21,0.25c-0.12-0.16-0.09-0.09-0.23-0.29
						c0.03,0.02,0.24,0.28,0.3,0.37l-0.06-0.1c0.06,0.08,0.09,0.12,0.17,0.21c-0.12-0.16,0.22,0.24,0.01-0.04l0.06,0.08
						c0.02-0.01-0.04-0.11-0.03-0.14c-0.17-0.22-0.13-0.18-0.26-0.36c0.07,0.06,0.22,0.22,0.22,0.19c-0.07-0.12-0.14-0.19-0.23-0.33
						c0.15,0.2,0.16,0.17,0.26,0.33c0-0.05-0.01-0.06-0.1-0.25c-0.06-0.08-0.09-0.12-0.14-0.19c-0.02-0.04,0.07,0.08,0.15,0.18
						l0.01,0.02c-0.19-0.34,0.5,0.56,0.22,0.11l0.01,0.02l-0.13-0.25c0.04,0.03,0.1,0.16,0.2,0.29c-0.21-0.37,0.08,0.02-0.06-0.23
						c0.42,0.62,0.03-0.08,0.31,0.31l-0.09-0.15c-0.09-0.15,0.06,0.08,0.09,0.12c-0.07-0.12-0.08-0.14-0.14-0.22
						c-0.06-0.21,0.24,0.16,0.36,0.28c0.04,0.03-0.43-0.81-0.2-0.45l0.15,0.29c-0.15-0.37,0.08-0.03-0.03-0.35
						c0.03,0.07,0.07,0.16,0.07,0.16c0.11,0.21,0.03,0-0.05-0.18c0.02,0.02,0.08,0.16,0.12,0.25c0.07,0.12-0.11-0.29-0.01-0.07
						c0.02,0.04,0.03,0.07,0.04,0.09c-0.04-0.11,0.04,0.02-0.09-0.23c0.07,0.11-0.02-0.12,0.06,0.02c-0.12-0.29,0.08,0.13-0.09-0.28
						c0.18,0.41,0.17,0.32,0.1,0.12c0.06,0.13,0.06,0.13,0.13,0.3c0.01-0.01-0.02-0.09-0.11-0.31c0.22,0.49-0.12-0.42,0.15,0.22
						c-0.06-0.24-0.09-0.4-0.09-0.51c0.15,0.42-0.02,0.05,0.15,0.5c-0.04-0.18-0.15-0.55-0.09-0.46c0.03,0.06,0.06,0.19,0.08,0.26
						c-0.03-0.19,0.06,0.02,0.01-0.22c0.01,0.04,0.02,0.08,0.03,0.12c0-0.02,0.03,0.06-0.03-0.14l0.01,0.05
						c-0.1-0.28-0.17-0.6-0.21-0.75c0.17,0.56,0.07,0.13,0.28,0.84c-0.01-0.04-0.04-0.13-0.07-0.26c0.02,0.04,0.04,0.11,0.08,0.26
						c-0.02-0.11-0.08-0.32-0.07-0.32c0.03,0.1,0.04,0.13,0.07,0.25c-0.05-0.19-0.09-0.38-0.05-0.3c0.02,0.06,0.03,0.13,0.03,0.13
						c0.01-0.03-0.1-0.51-0.02-0.34c0.1,0.42,0.05,0.13,0.14,0.5l-0.01-0.11l-0.05-0.17c0.01,0-0.04-0.26,0-0.15l0.03,0.15
						l0.01-0.08l-0.05-0.13c-0.03-0.19-0.12-0.46-0.07-0.36c0,0.04,0.02,0,0.08,0.21l0,0c-0.02-0.12-0.04-0.24-0.01-0.15
						c0.03,0.12,0.09,0.4,0.11,0.48c-0.06-0.31,0.01-0.09-0.05-0.42c0.02,0.08,0.06,0.27,0.06,0.31l-0.05-0.25
						c0.02,0.08,0.03,0.12,0.06,0.27c0.03,0.04-0.1-0.46-0.04-0.27c0,0.02,0.01,0.06,0.01,0.1c0.04,0.1,0.01-0.17,0.06-0.05
						c0.08,0.37,0,0.09,0.07,0.4c0.01-0.07-0.02-0.45,0.03-0.37l-0.01-0.04c-0.08-0.52,0.06,0.25,0.04,0
						c0.01,0.04,0.02,0.18,0.03,0.23c0.03,0.08,0.02-0.13,0.03-0.3l0.01,0.14c0.03,0.12,0.04,0.07,0.06,0.13
						c-0.01-0.14,0-0.11-0.03-0.31c0.12,0.77,0.04-0.42,0.14,0.22l0,0.12l0.02-0.13c-0.02-0.23-0.01-0.14-0.03-0.32
						c-0.01-0.14,0-0.24,0.01-0.24c-0.01,0.15,0.03,0.37,0.04,0.5c0-0.07-0.01-0.15-0.01-0.22c0.04,0.41-0.03-0.46,0.02-0.19
						l0.01,0.12c0.01-0.06,0.01-0.22,0.02-0.19c0.02,0.27,0,0.12,0.01,0.34c0.01-0.02,0-0.51,0.03-0.24
						c-0.01,0.07-0.01,0.08-0.01,0.15c0.03,0.31,0.02,0.23,0.04,0.28l0-0.01l0.03,0.14l-0.01-0.09c-0.01-0.7,0.03-0.13,0.04-0.59
						c-0.01,0.43,0,0.25,0,0.55c0.01,0.08,0.02,0.18,0.01,0.26c0.01-0.24,0.02,0.19,0.03-0.17c0,0.1,0.01,0.01,0.01,0.25
						c0.01-0.08,0-0.17,0-0.29c0.02-0.33,0.04,0.4,0.07-0.05c0.03-0.19,0.04-0.52,0.08-0.68c0,0.16-0.02,0.35-0.02,0.35
						c0.01,0.14,0.02,0.12,0.04,0.01c0,0.09-0.01,0.16-0.01,0.27c0.01-0.02,0.02-0.35,0.03-0.21c-0.01,0.11-0.02,0.28-0.03,0.39
						c0.01-0.09,0.04-0.27,0.05-0.36c-0.01,0.17-0.02,0.26-0.03,0.37c0.02-0.08,0.04-0.15,0.06-0.42l0-0.1
						c0.01-0.01-0.01,0.23-0.02,0.28c-0.03,0.21-0.01-0.09,0-0.19l0.01-0.06c0.03-0.57-0.04,0.09-0.06,0.06l0.03-0.42l-0.04,0.34
						c0-0.11,0.01-0.34,0.02-0.4c-0.01-0.21-0.02,0.15-0.02-0.08c0-0.04,0-0.06,0-0.07l-0.02,0.12c0.01-0.09,0.01-0.29,0.02-0.23
						c-0.02-0.24-0.05,0.31-0.05-0.01l0-0.03c-0.04,0.14-0.01,0.31-0.04,0.66l-0.01-0.75l-0.01,0.31c0-0.01-0.01-0.03-0.01-0.16
						c-0.02,0.21,0,0.13-0.01,0.33c-0.02-0.28-0.05,0.13-0.05-0.35c0,0.23,0.02,0.18,0,0.34c-0.01-0.52-0.02,0.09-0.04-0.15
						c0-0.27,0.02-0.13,0-0.37c0,0.46-0.04-0.1-0.05-0.01c0.01,0.36-0.03,0.15-0.05,0.27c0-0.12-0.05-0.2-0.09-0.33l0-0.06
						c0.02,0.37-0.01,0.3-0.02,0.37c-0.01-0.22-0.02-0.31-0.01-0.4l-0.02,0c0,0.12,0,0.18,0,0.22l-0.02-0.27
						c-0.02,0.02-0.02,0.33-0.06,0.15c0.02,0.26,0.08,0.71,0.07,0.88c-0.01-0.14-0.04-0.37-0.03-0.43c0,0.02,0,0.12-0.01,0.06
						l-0.01-0.23c-0.02-0.1,0.01,0.19,0,0.17c-0.02-0.2-0.02-0.14-0.03-0.3c0-0.02,0.02,0.08,0.01,0c-0.01-0.03-0.04-0.15-0.06-0.3
						c0.01,0.11,0.03,0.26,0.02,0.29c-0.02,0.02-0.03-0.24-0.06-0.33c0.01,0.14-0.02,0,0.01,0.29c-0.01,0-0.02-0.14-0.03-0.22
						c0,0.13-0.05,0.04,0,0.35l0.01,0.02c0,0.01,0,0.01,0,0.01l0,0l0,0c0,0.29-0.1-0.16-0.11-0.03l-0.01-0.1
						c0,0.12-0.04,0.07-0.02,0.29c0,0-0.04-0.18-0.06-0.29c0,0.08,0.01,0.19-0.04,0.03c-0.01-0.17-0.03-0.15,0-0.13
						c-0.04-0.08-0.07-0.23-0.04,0.04c-0.04-0.25-0.08-0.31-0.07-0.23l0.05,0.18c0,0.04-0.02,0.02-0.03,0l-0.06-0.33
						c-0.13-0.39,0.06,0.69-0.12,0.03c0.04,0.23,0.06,0.16,0.11,0.42c-0.03-0.04-0.16-0.5-0.16-0.5c-0.07-0.17,0.08,0.48,0.03,0.37
						c0.03,0.11,0.11,0.42,0.12,0.54c-0.03-0.04-0.14-0.48-0.15-0.57c0-0.01,0.01,0.03,0.02,0.06c0-0.04-0.01-0.1-0.05-0.22
						l0.03,0.12c-0.04-0.11-0.07-0.09-0.11-0.29c0.01,0.11,0.04,0.19,0.07,0.25c-0.07-0.16-0.04,0.01-0.1-0.1
						c0.02,0.06,0.06,0.2,0.06,0.2c-0.08-0.13,0.04,0.22,0.03,0.28c-0.06-0.17-0.11-0.42-0.1-0.26c-0.05-0.11-0.09-0.3-0.11-0.4
						c0.04,0.23-0.09-0.13-0.12-0.17l-0.01-0.1c0.01,0.06,0,0.06-0.01,0.06l0.08,0.23c-0.02-0.04-0.03-0.04-0.06-0.13
						c0.04,0.15,0.12,0.38,0.16,0.58c-0.04-0.11,0.01,0.13-0.09-0.17c0.06,0.09-0.1-0.3-0.08-0.36c0.01,0.04,0,0.04-0.02,0
						c-0.01-0.03-0.02-0.06-0.02-0.08c-0.12-0.26,0.09,0.35,0.05,0.35c-0.05-0.17-0.11-0.32-0.1-0.28c0.01,0,0.1,0.28,0.13,0.41
						c-0.06-0.12,0.01,0.11-0.01,0.09l0.03,0.06c0.05,0.17,0.03,0.15,0.04,0.21c-0.04-0.13-0.02-0.09-0.04-0.15
						c0.08,0.3-0.14-0.29-0.09-0.09c-0.04-0.11-0.12-0.31-0.14-0.39c0.05,0.23-0.11-0.22-0.07-0.03c0.09,0.22,0.07,0.17,0.13,0.39
						l-0.01-0.17l0.09,0.34c0.01,0-0.02-0.15,0-0.11c0.05,0.19,0.03,0.13,0.1,0.32c-0.13-0.33,0.04,0.21-0.06-0.01l-0.2-0.56
						c-0.12-0.24,0.05,0.3-0.04,0.18l0.05,0.09c0.08,0.22-0.01,0.04,0.01,0.13c-0.07-0.18-0.1-0.25-0.15-0.36
						c0.05,0.14-0.03,0,0.11,0.37l-0.11-0.23c-0.07-0.09,0.18,0.54,0.12,0.49c-0.07-0.2-0.14-0.33-0.18-0.48
						c-0.01,0-0.03-0.03,0.02,0.1c-0.05-0.11,0.08,0.26-0.01,0.09c0.03,0.08,0.11,0.27,0.09,0.26c-0.02-0.04-0.04-0.09-0.04-0.09
						c0.04,0.09,0.04,0.13,0.13,0.33c-0.27-0.55-0.06,0.07-0.3-0.4c0.01,0.07,0.01,0.14,0,0.16c-0.02-0.05-0.04-0.09-0.03-0.07
						c-0.1-0.15,0.23,0.52,0.11,0.35c-0.15-0.28-0.06-0.16-0.12-0.27c-0.29-0.58,0,0.1-0.18-0.23l-0.01-0.04
						c-0.11-0.19,0.07,0.24,0.03,0.21c0,0-0.03-0.05-0.04-0.09c0.13,0.3,0.15,0.42,0.18,0.51c-0.11-0.23-0.05-0.12-0.18-0.35
						c0.01,0.04,0.19,0.37,0.21,0.44c-0.07-0.12-0.14-0.22-0.27-0.46l0.01-0.02c-0.18-0.31-0.02,0.02-0.06-0.03l-0.07-0.14
						c-0.01,0.06,0.18,0.4,0.14,0.4l0.06,0.1c0.17,0.35-0.12-0.18,0.01,0.08l-0.2-0.34c0.04,0.09,0.15,0.35,0.17,0.43
						c-0.14-0.26-0.19-0.4-0.26-0.56c-0.01,0-0.02,0.05,0.07,0.22c-0.01-0.04-0.06-0.12-0.02-0.07c0.14,0.28,0.2,0.42,0.18,0.43
						c-0.38-0.66-0.15-0.13-0.47-0.63c0.11,0.27-0.14-0.06-0.17,0.01c0.34,0.49,0,0.02,0.33,0.54c0.01,0.04,0,0.03-0.02,0
						l-0.23-0.29c-0.1-0.14-0.06-0.12-0.14-0.23c-0.05-0.02-0.15-0.21-0.26-0.34c0.12,0.18,0.16,0.27,0.1,0.21l0.17,0.22
						c0.15,0.29-0.31-0.41-0.17-0.12l-0.1-0.17c0.05,0.11-0.07,0.04,0.19,0.46c-0.04-0.06-0.14-0.19-0.16-0.23
						c-0.08-0.03,0.21,0.49,0.01,0.26l-0.08-0.12c0.02,0.04,0.15,0.24,0.06,0.12c-0.04-0.05-0.09-0.12-0.09-0.13
						c0.03,0.04,0.14,0.23,0.07,0.16L195,44.95c-0.16-0.13,0.19,0.37,0.22,0.48c-0.27-0.35-0.38-0.44-0.44-0.49l-0.04-0.05
						c-0.08-0.01,0.15,0.35,0.22,0.51c-0.33-0.35-0.21-0.09-0.42-0.26c0.06,0.06,0.22,0.26,0.24,0.3c-0.07-0.06,0.17,0.25-0.09-0.06
						l0.01,0c-0.26-0.3-0.21-0.2-0.24-0.19l0.34,0.4c-0.54-0.55,0.09,0.29-0.39-0.2c0.08,0.11,0.07,0.11,0.15,0.22l-0.19-0.21
						c-0.07-0.03-0.11-0.04-0.09,0.03l-0.13-0.15c-0.03,0,0.54,0.62,0.53,0.64l-0.29-0.3c-0.02,0.03-0.31-0.21-0.07,0.1
						c-0.04-0.04-0.13-0.13-0.13-0.15c-0.02,0-0.25-0.15,0.16,0.26c-0.27-0.27-0.06,0,0.05,0.13l-0.2-0.2
						c0.24,0.26,0.31,0.33,0.36,0.42c-0.03-0.02-0.16-0.15-0.11-0.11c-0.12-0.09,0.18,0.2,0.06,0.11l-0.12-0.13
						c-0.03,0,0.04,0.06,0.18,0.22c0.07,0.09-0.07-0.02-0.26-0.19c0.11,0.11,0.25,0.26,0.19,0.22c-0.07-0.07-0.11-0.11-0.13-0.13
						c-0.16-0.11,0.2,0.26-0.01,0.09c-0.07-0.06-0.1-0.09-0.12-0.11c0.02-0.01,0.05-0.02,0.06,0c-0.19-0.18-0.23-0.19-0.48-0.45
						c0.13,0.15,0.42,0.46,0.31,0.39c-0.02-0.02-0.04-0.03-0.07-0.06l-0.02-0.02c-0.02-0.01-0.01,0.01,0.02,0.04
						c-0.04-0.02-0.06-0.04-0.07-0.04c-0.16-0.14-0.1-0.06-0.12-0.06c0.21,0.19,0.17,0.17,0.35,0.32c-0.02-0.01-0.02-0.02-0.03-0.04
						c-0.01-0.01-0.01-0.01-0.02-0.02l0.02,0.02c0-0.01,0-0.02,0-0.03c0.1,0.1,0.18,0.19,0.06,0.09c0.13,0.13,0.26,0.26,0.33,0.32
						c-0.3-0.25-0.47-0.38-0.66-0.53c0.09,0.13,0.02,0.13,0.41,0.49c0.05,0.05-0.12-0.09-0.18-0.14c-0.04-0.04-0.03-0.04-0.08-0.09
						c0.09,0.1,0,0.08,0.28,0.32c-0.14-0.09-0.25-0.23-0.22-0.17l-0.08-0.08c-0.49-0.33,0.66,0.68,0.03,0.25
						c0.04,0.03,0.06,0.04,0.11,0.08c-0.31-0.15,0.15,0.31-0.31,0.05c-0.1-0.05,0.09,0.1,0.22,0.22l-0.24-0.18l0.26,0.23
						c0.19,0.18-0.62-0.4-0.26-0.08l0.17,0.12c-0.04-0.01,0.07,0.11-0.12-0.03c0.03,0.02,0.17,0.13,0.08,0.07l-0.13-0.09l0.2,0.19
						c-0.11-0.05-0.5-0.37-0.55-0.36c0.04,0.05,0.35,0.3,0.44,0.36c0.01,0,0.09,0.05,0.22,0.14l0.06,0.06
						c0.38,0.27,0.76,0.56,1.04,0.73l-0.22-0.18l0.19,0.13l0,0.02c0.18,0.12,0.03,0-0.07-0.08c0.1,0.07,0.17,0.12,0.21,0.14
						l-0.35-0.28c0.15,0.11,0.29,0.22,0.37,0.27c-0.16-0.13-0.33-0.24-0.43-0.33c0.18,0.12,0.31,0.22,0.17,0.11
						c0.1,0.07,0.16,0.12,0.2,0.15c-0.11-0.09-0.03-0.06-0.23-0.21c0.21,0.15-0.04-0.07,0.32,0.2c-0.08-0.07-0.27-0.22-0.28-0.24
						c0.41,0.33,0.04-0.01,0.49,0.34c-0.37-0.3-0.14-0.16-0.34-0.34c0.03,0.02,0.09,0.07,0.07,0.06c0.04,0.02,0.15,0.1,0.23,0.15
						c-0.31-0.24-0.37-0.31-0.55-0.47c0.3,0.22,0.35,0.29,0.64,0.52c-0.25-0.2-0.23-0.22-0.44-0.38c0.19,0.14,0.09,0.06,0.35,0.26
						c-0.38-0.31-0.06-0.06-0.29-0.25c0.2,0.14,0.36,0.29,0.25,0.18C195.66,47.96,195.79,48.08,195.79,48.08z M195.4,47.23
						L195.4,47.23c0.01,0.01,0.01,0.02,0.01,0.02S195.41,47.25,195.4,47.23z M195.43,47.21c-0.01,0-0.02,0-0.02,0
						c-0.07-0.07-0.14-0.13-0.14-0.13C195.32,47.12,195.36,47.15,195.43,47.21z M193.94,45.94c-0.02-0.03,0.02,0,0.06,0.04
						c0,0.01,0.01,0.02,0.02,0.03l0.02,0.02C194,46,193.97,45.97,193.94,45.94z"/>
					<path class="st1" d="M194.2,46.2c0,0,0.01,0.02,0.01,0.02c0.02,0.02,0.04,0.03,0.05,0.04L194.2,46.2L194.2,46.2z"/>
					<path class="st1" d="M197.81,44.63L197.81,44.63c0,0,0,0.02,0.01,0.03C197.81,44.65,197.81,44.64,197.81,44.63z"/>
					<polygon class="st1" points="196.13,47.27 196.08,47.21 196.12,47.26 					"/>
					<path class="st1" d="M198.11,45.57c0,0.02,0,0.05,0.01,0.07C198.12,45.62,198.11,45.6,198.11,45.57z"/>
					<path class="st1" d="M198.19,45.63l0.01,0.1C198.2,45.67,198.2,45.65,198.19,45.63z"/>
					<path class="st1" d="M198.26,45.77c0-0.05,0-0.09,0-0.12l0,0L198.26,45.77z"/>
					<path class="st1" d="M197.45,46.24c0,0,0,0.01,0,0.01C197.47,46.31,197.46,46.28,197.45,46.24z"/>
					<path class="st1" d="M197.54,45.53c0.01,0.05,0.02,0.1,0.02,0.13C197.57,45.68,197.58,45.69,197.54,45.53z"/>
					<polygon class="st1" points="197.31,46.65 197.31,46.65 197.31,46.65 					"/>
					<path class="st1" d="M197.55,45.66c0.02,0.05,0.02,0.04,0.01,0C197.56,45.65,197.54,45.62,197.55,45.66z"/>
					<path class="st1" d="M198.49,45.9l0,0.01c0-0.02,0-0.03,0-0.05L198.49,45.9z"/>
					<path class="st1" d="M198.5,45.87l0.01-0.03C198.5,45.84,198.5,45.84,198.5,45.87z"/>
					<path class="st1" d="M198.52,45.76l-0.01,0.07C198.5,45.84,198.51,45.84,198.52,45.76z"/>
					<path class="st1" d="M198.43,45.77l-0.01,0.1C198.42,45.85,198.43,45.82,198.43,45.77z"/>
					<path class="st1" d="M198.4,45.8c0,0.02,0.01,0.22,0.01,0.15l0-0.08C198.41,46.02,198.42,45.62,198.4,45.8z"/>
					<path class="st1" d="M198.31,44.53l0.03,0.08c0-0.11-0.01-0.25,0-0.28C198.3,44.01,198.34,44.58,198.31,44.53z"/>
					<path class="st1" d="M198.22,44.38c0.01-0.05,0-0.16,0-0.22C198.21,44.26,198.21,44.28,198.22,44.38z"/>
					<path class="st1" d="M197.59,44.44l-0.04-0.25C197.54,44.22,197.56,44.28,197.59,44.44z"/>
					<polygon class="st1" points="197.72,45.76 197.76,45.91 197.72,45.68 					"/>
					<polygon class="st1" points="197.29,43.99 197.29,43.95 197.29,44.04 					"/>
					<path class="st1" d="M196.23,44.43l0.13,0.29C196.35,44.66,196.21,44.34,196.23,44.43z"/>
					<path class="st1" d="M195.96,44.92c-0.08-0.14-0.14-0.22-0.07-0.08C195.91,44.86,195.97,44.96,195.96,44.92z"/>
					<polygon class="st1" points="194.53,45.31 194.47,45.22 194.51,45.3 					"/>
				</g>
			</g>
		</g>
	</g>
</g>
<g class="st0">
	<g>
		<path class="st2" d="M160.82,43.49"/>
	</g>
</g>
<g>
	<g>
		<path class="st1" d="M98.48,34.22c0.99-1.7,2.53-2.77,4.47-3.23c2.15-0.51,4.55-0.08,6.69,0.76c0.75,0.3,1.65-0.33,1.85-1.05
			c0.23-0.85-0.29-1.55-1.05-1.85c-5.13-2.02-11.56-1.27-14.54,3.84C94.92,34.37,97.51,35.89,98.48,34.22L98.48,34.22z"/>
	</g>
</g>
<g>
	<g>
		<path class="st1" d="M106.53,31.43c3.1,2.82,7.08,3.64,11.1,2.54c4.27-1.16,7.96-4.18,12.59-2.91c4.11,1.13,8.46,4.32,12.91,2.93
			c3.46-1.08,4.66-4.69,4.47-8.01c-0.21-3.69-1.81-7.33-4.78-9.61c-3.07-2.36-7.03-2.62-10.66-1.54c-2.13,0.63-4.19,1.63-6.41,1.95
			c-2.44,0.35-4.67-0.49-6.83-1.54c-3.87-1.89-8.78-5.15-13.21-3.07c-4.08,1.92-4.54,7.57-3.37,11.37c1.27,4.14,4.66,8.19,9.16,8.71
			c1.91,0.22,1.9-2.78,0-3c-3.13-0.36-5.54-3.95-6.33-6.7c-0.73-2.53-0.74-7.25,2.6-7.94c1.89-0.39,3.98,0.45,5.66,1.23
			c1.9,0.88,3.71,1.93,5.64,2.75c1.72,0.73,3.51,1.28,5.39,1.28c1.89,0,3.74-0.52,5.51-1.13c3.02-1.04,6.11-2.25,9.27-0.99
			c2.98,1.18,4.72,4.15,5.23,7.19c0.38,2.23,0.22,5.66-2.5,6.26c-1.76,0.39-3.67-0.27-5.3-0.89c-1.82-0.69-3.58-1.54-5.46-2.08
			c-2.11-0.61-4.26-0.67-6.4-0.15c-2,0.49-3.85,1.42-5.75,2.21c-3.58,1.48-7.37,1.8-10.43-0.98
			C107.23,28.01,105.1,30.13,106.53,31.43L106.53,31.43z"/>
	</g>
</g>
<g>
	<g>
		<path class="st1" d="M111.64,31.54c3.59,1.41,7.67,1.78,11.36,0.51c0.77-0.26,1.27-1.03,1.05-1.85c-0.2-0.75-1.08-1.31-1.85-1.05
			c-3.23,1.11-6.56,0.74-9.76-0.51c-0.75-0.3-1.65,0.32-1.85,1.05C110.36,30.54,110.88,31.24,111.64,31.54L111.64,31.54z"/>
	</g>
</g>
<g>
	<g>
		<path class="st1" d="M88.44,22.35c2.37,1.05,4.88,1.6,7.46,1.22c2.13-0.31,4.17-1.38,5.5-3.09c0.49-0.64,0.62-1.5,0-2.12
			c-0.52-0.52-1.62-0.64-2.12,0c-0.26,0.34-0.55,0.66-0.88,0.95c-0.08,0.07-0.15,0.13-0.23,0.2c-0.19,0.16,0.15-0.1-0.06,0.04
			c-0.19,0.13-0.38,0.25-0.57,0.36c-0.18,0.1-0.36,0.19-0.54,0.28c-0.06,0.03-0.21,0.08-0.07,0.03c-0.12,0.05-0.24,0.09-0.36,0.13
			c-0.43,0.14-0.86,0.25-1.31,0.31c0.16-0.02-0.03,0-0.09,0.01c-0.11,0.01-0.22,0.02-0.33,0.03c-0.22,0.01-0.45,0.02-0.67,0.02
			c-0.4,0-1.01-0.04-1.25-0.08c-1.02-0.16-2.04-0.45-2.98-0.87c-0.74-0.33-1.61-0.21-2.05,0.54C87.53,20.94,87.7,22.02,88.44,22.35
			L88.44,22.35z"/>
	</g>
</g>
<g>
	<g>
		<path class="st1" d="M146.94,33.06c-0.17,0.07,0.33-0.12,0.38-0.14c0.15-0.05,0.3-0.11,0.45-0.15c0.36-0.11,0.72-0.21,1.08-0.29
			c0.31-0.07,0.63-0.13,0.95-0.18c-0.13,0.02-0.1,0.01,0.08-0.01c0.11-0.01,0.22-0.02,0.32-0.03c0.16-0.01,0.33-0.03,0.49-0.04
			c1.58-0.09,2.85,0.07,4.32,0.44c0.76,0.19,1.66-0.25,1.85-1.05c0.18-0.78-0.23-1.64-1.05-1.85c-3.5-0.88-7.07-0.71-10.39,0.71
			c-0.72,0.31-0.94,1.43-0.54,2.05C145.38,33.28,146.17,33.4,146.94,33.06L146.94,33.06z"/>
	</g>
</g>
<g>
	<g>
		<path class="st1" d="M144.6,21.58c3.53,0.93,7.27,0.58,10.52-1.12c0.7-0.36,0.96-1.39,0.54-2.05c-0.46-0.71-1.31-0.93-2.05-0.54
			c-2.5,1.31-5.44,1.54-8.21,0.81c-0.76-0.2-1.66,0.25-1.85,1.05C143.37,20.52,143.79,21.36,144.6,21.58L144.6,21.58z"/>
	</g>
</g>
<g>
	<g>
		<path class="st1" d="M186.59,37.49c-2.56,1.72-5.72-1.03-7.69-2.55c-2.38-1.83-4.79-3.67-7.9-3.89c-2.8-0.2-5.47,1-8.25,0.94
			c-2.78-0.06-4.62-2.12-5.66-4.52c-1.05-2.42-1.53-5.64-0.38-8.11c1.29-2.8,4.4-1.78,6.53-0.66c2.99,1.57,5.61,3.11,9.02,3.54
			c3.13,0.4,6.38,0.14,9.38,1.26c2.98,1.12,5.27,3.72,6.2,6.74c0.44,1.42,0.58,2.94,0.31,4.41c-0.19,1-0.62,2.56-1.7,2.95
			c-1.8,0.66-1.02,3.56,0.8,2.89c2.94-1.07,3.99-4.37,4.04-7.25c0.05-3.44-1.42-6.82-3.75-9.31c-2.58-2.76-6.06-3.91-9.74-4.27
			c-2.01-0.19-4.04-0.16-6.03-0.52c-1.99-0.36-3.71-1.2-5.45-2.18c-2.86-1.61-6.25-3.42-9.53-1.84c-3.14,1.51-3.94,5.6-3.63,8.76
			c0.3,3.16,1.5,6.44,3.8,8.7c2.61,2.56,5.97,2.63,9.36,2c1.83-0.34,3.76-0.85,5.61-0.38c2,0.51,3.69,1.95,5.29,3.19
			c2.98,2.3,7.16,5.19,10.89,2.68C189.7,39.01,188.2,36.41,186.59,37.49L186.59,37.49z"/>
	</g>
</g>
<g>
	<g>
		<path class="st1" d="M190.03,40.09c0.1-0.02,0.19-0.04,0.29-0.06c-0.16,0.03-0.08,0.01,0.03,0c0.19-0.01,0.38-0.02,0.57-0.02
			c0.19,0,0.38,0.02,0.57,0.04c-0.16-0.02-0.1-0.02,0.02,0.01c0.09,0.02,0.19,0.04,0.28,0.06c0.38,0.09,0.74,0.21,1.1,0.35
			c-0.15-0.06-0.03-0.01,0.05,0.02c0.09,0.04,0.18,0.08,0.27,0.13c0.2,0.1,0.4,0.21,0.6,0.32c0.36,0.21,0.71,0.43,1.05,0.67
			c0.35,0.24,0.64,0.46,0.85,0.63c0.7,0.56,1.37,1.15,2.04,1.74c0.59,0.52,1.55,0.62,2.12,0c0.52-0.57,0.63-1.56,0-2.12
			c-2.94-2.62-6.43-5.55-10.66-4.66c-0.77,0.16-1.29,1.11-1.05,1.85C188.45,39.85,189.21,40.27,190.03,40.09L190.03,40.09z"/>
	</g>
</g>
<g>
	<g>
		<path class="st1" d="M189.92,29.41c2.19,2.21,4.88,3.94,7.9,4.76c0.76,0.2,1.66-0.26,1.85-1.05c0.18-0.79-0.24-1.63-1.05-1.85
			c-0.31-0.08-0.63-0.18-0.93-0.28c-0.16-0.06-0.33-0.12-0.49-0.18c-0.07-0.03-0.14-0.06-0.22-0.09c-0.16-0.06-0.07-0.02,0.04,0.02
			c-0.64-0.22-1.26-0.6-1.84-0.95c-0.29-0.18-0.58-0.36-0.86-0.56c-0.13-0.09-0.27-0.19-0.4-0.28c-0.07-0.05-0.13-0.1-0.2-0.15
			c0.25,0.19,0.01,0.01-0.04-0.03c-0.58-0.46-1.12-0.96-1.64-1.48c-0.55-0.56-1.58-0.59-2.12,0
			C189.37,27.89,189.33,28.81,189.92,29.41L189.92,29.41z"/>
	</g>
</g>
<g>
	<g>
		<path class="st1" d="M202.78,32.31c-0.26-0.2-0.52-0.41-0.82-0.56c-0.29-0.14-0.59-0.27-0.91-0.35c-0.65-0.16-1.29-0.15-1.94-0.01
			c-0.2,0.05-0.37,0.14-0.51,0.27c-0.16,0.11-0.29,0.25-0.39,0.42c-0.11,0.17-0.17,0.36-0.18,0.56c-0.04,0.2-0.04,0.4,0.03,0.6
			c0.12,0.36,0.34,0.71,0.69,0.9c0.12,0.05,0.24,0.1,0.36,0.15c0.27,0.07,0.53,0.07,0.8,0c0.07-0.02,0.14-0.03,0.22-0.04
			c-0.13,0.02-0.27,0.04-0.4,0.05c0.23-0.03,0.45-0.03,0.68,0c-0.13-0.02-0.27-0.04-0.4-0.05c0.23,0.03,0.45,0.1,0.66,0.19
			c-0.12-0.05-0.24-0.1-0.36-0.15c0.22,0.1,0.42,0.22,0.62,0.36c-0.1-0.08-0.2-0.16-0.3-0.23c0.01,0.01,0.02,0.02,0.03,0.02
			c0.14,0.15,0.3,0.25,0.48,0.31c0.18,0.09,0.37,0.14,0.58,0.13c0.37,0,0.81-0.16,1.06-0.44c0.26-0.29,0.46-0.66,0.44-1.06
			c-0.02-0.13-0.04-0.27-0.05-0.4C203.09,32.72,202.96,32.49,202.78,32.31L202.78,32.31z"/>
	</g>
</g>
<g>
	<g>
		<path class="st1" d="M225.08,61.05c-0.72,1.13-2.21,0.82-3.35,0.6c-1.8-0.35-2.54-1.38-3.29-2.96c-1.28-2.7-2.47-5.08-5.44-6.18
			c-2.34-0.87-4.9-0.57-7.29-1.17c-2.93-0.73-3.99-3.36-4.46-6.13c-0.45-2.67-0.36-6.01,1.19-8.34c1.96-2.94,5.44-1.47,6.99,1.02
			c1.69,2.71,2.24,5.8,5.14,7.6c2.44,1.52,5.3,1.44,7.97,2.22c3.14,0.92,4.71,3.43,4.63,6.64c-0.06,2.45-0.93,5.8-3.33,6.97
			c-1.73,0.85-0.22,3.43,1.51,2.59c2.74-1.34,4.15-4.66,4.61-7.51c0.54-3.33,0-7.01-2.59-9.4c-2.55-2.35-5.82-2.36-8.99-3.17
			c-1.76-0.45-3.22-1.3-4.15-2.9c-1.02-1.76-1.55-3.74-2.79-5.37c-2.16-2.85-6.11-4.48-9.4-2.43c-3.03,1.9-3.95,5.89-4,9.24
			c-0.05,3.5,0.75,7.91,3.59,10.25c2.45,2.02,5.53,1.84,8.49,2.27c1.63,0.24,3.16,0.76,4.14,2.17c1.16,1.66,1.6,3.72,2.88,5.31
			c1.39,1.73,3.46,2.21,5.57,2.42c2.05,0.2,3.82-0.46,4.95-2.23C228.71,60.94,226.11,59.43,225.08,61.05L225.08,61.05z"/>
	</g>
</g>
<g>
	<g>
		<path class="st1" d="M230.28,77.77c-1.47-2.57-1.19-4.9,0.3-7.39c1.29-2.15,3.35-4.23,5.88-4.78c2.32-0.51,4.36,0.64,4.44,3.11
			c0.09,2.89-0.79,5.68,1.01,8.26c1.39,1.98,3.71,3.13,4.82,5.32c1.35,2.65,1.01,6,0.02,8.71c-0.93,2.53-3.6,6.4-6.78,5.51
			c-1.08-0.3-2.33-1-3.04-1.89c-1.01-1.27-0.5-3.11-0.26-4.55c0.53-3.13,0.49-6.39-1.64-8.95c-0.85-1.03-1.96-1.7-3.14-2.28
			c-1.06-0.51-2.56-1.01-3.01-2.22c-0.67-1.79-3.57-1.02-2.89,0.8c0.54,1.45,1.48,2.45,2.82,3.22c1.21,0.7,2.66,1.1,3.67,2.11
			c2.73,2.72,0.91,6.6,0.87,9.86c-0.05,3.58,3.04,6.31,6.42,6.93c3.77,0.69,7.13-2.36,8.84-5.43c1.78-3.19,2.47-7.17,1.66-10.75
			c-0.36-1.59-1.08-3.08-2.12-4.33c-0.94-1.12-2.16-1.96-3.16-3.02c-2.54-2.68-0.32-6.4-1.45-9.57c-1.06-2.99-4.17-4.3-7.17-3.86
			c-3.58,0.53-6.56,3.28-8.36,6.29c-2.04,3.4-2.28,6.95-0.3,10.42C228.65,80.96,231.24,79.45,230.28,77.77L230.28,77.77z"/>
	</g>
</g>
<g>
	<g>
		<path class="st1" d="M227.95,60.03c2.45,2.59,5.66,4.32,9.24,4.57c0.78,0.05,1.53-0.73,1.5-1.5c-0.04-0.86-0.66-1.44-1.5-1.5
			c-0.19-0.01-0.37-0.03-0.56-0.05c-0.23-0.02,0.25,0.04,0.03,0c-0.08-0.01-0.16-0.03-0.25-0.04c-0.35-0.06-0.69-0.14-1.03-0.23
			c-0.34-0.1-0.68-0.21-1.02-0.34c-0.1-0.04-0.2-0.08-0.29-0.12c0.13,0.05,0.14,0.06,0.01,0c-0.17-0.08-0.35-0.16-0.52-0.25
			c-0.67-0.34-1.29-0.75-1.89-1.19c-0.19-0.14,0.16,0.14-0.02-0.01c-0.07-0.06-0.14-0.11-0.21-0.17c-0.16-0.13-0.31-0.27-0.47-0.41
			c-0.31-0.28-0.61-0.58-0.9-0.89c-0.54-0.57-1.58-0.59-2.12,0C227.39,58.52,227.37,59.42,227.95,60.03L227.95,60.03z"/>
	</g>
</g>
<g>
	<g>
		<path class="st1" d="M242.37,134.79c-2.14-0.64-2.81-3.31-2.69-5.32c0.09-1.47,1.39-2.69,2-3.99c0.59-1.24,0.99-2.55,1.11-3.93
			c0.22-2.58-0.9-4.35-2.17-6.46c-0.49-0.82-0.86-1.63-0.53-2.59c0.41-1.2,1.53-2.14,2.52-2.86c0.95-0.69,2-1.28,3.05-1.82
			c1.08-0.55,2.73-1.46,3.95-0.86c0.88,0.44,1.5,1.58,1.97,2.4c0.81,1.39,0.6,2.51-0.06,3.93c-1.17,2.51-2.82,5.04-2.35,7.94
			c0.32,1.99,1.62,3.5,2.6,5.19c1.29,2.23,0.3,4.06-1.51,5.66c-1.08,0.95-2.33,1.71-3.57,2.43c-0.67,0.39-1.38,0.87-2.11,1.14
			c-0.8,0.29-1.09,0.03-1.61-0.61c-1.22-1.5-3.33,0.64-2.12,2.12c2.48,3.03,5.71,0.99,8.38-0.66c2.5-1.55,5.33-3.62,6.06-6.65
			c0.64-2.67-0.81-4.72-2.16-6.87c-0.6-0.96-1.14-1.96-1.03-3.13c0.17-1.96,1.43-3.71,2.22-5.46c0.69-1.54,1.12-3.14,0.64-4.8
			c-0.42-1.46-1.4-2.91-2.4-4.04c-2.47-2.79-5.95-1.61-8.79-0.11c-2.6,1.37-5.63,3.31-6.56,6.27c-0.43,1.38-0.24,2.77,0.37,4.06
			c0.6,1.26,1.64,2.3,2.06,3.64c0.56,1.78-0.06,3.79-0.95,5.35c-1.05,1.85-2.12,3.24-1.97,5.48c0.22,3.24,1.52,6.43,4.87,7.43
			C243.43,138.23,244.22,135.34,242.37,134.79L242.37,134.79z"/>
	</g>
</g>
<g>
	<g>
		<path class="st1" d="M106.61,35.3c-0.03-0.13-0.06-0.26-0.08-0.39c-0.01-0.06-0.02-0.13-0.03-0.2c-0.06-0.33,0.02,0.25,0.01,0.06
			c-0.02-0.26-0.05-0.51-0.05-0.77c0-0.26,0-0.53,0.03-0.79c0.01-0.06,0.02-0.12,0.02-0.18c0,0.06-0.05,0.34-0.02,0.13
			c0.02-0.13,0.05-0.26,0.07-0.39c0.05-0.22,0.11-0.44,0.19-0.65c0.02-0.05,0.04-0.1,0.06-0.15c0.06-0.18-0.14,0.3-0.06,0.13
			c0.05-0.11,0.1-0.22,0.16-0.32c0.05-0.09,0.1-0.18,0.16-0.27c0.03-0.04,0.06-0.08,0.09-0.13c0.11-0.17-0.09,0.1-0.1,0.12
			c0.07-0.17,0.33-0.35,0.46-0.47c0.6-0.51,0.56-1.61,0-2.12c-0.64-0.59-1.48-0.54-2.12,0c-0.9,0.75-1.48,1.92-1.73,3.06
			c-0.31,1.36-0.26,2.76,0.06,4.12c0.18,0.76,1.09,1.29,1.85,1.05C106.36,36.88,106.8,36.12,106.61,35.3L106.61,35.3z"/>
	</g>
</g>
<g>
	<g>
		<path class="st1" d="M106.14,36.54c1.98,2.2,4.66,3.49,7.61,3.6c3.09,0.12,5.85-1.27,8.77-2.04c6.18-1.63,11.4,3.53,17.53,2.89
			c1.32-0.14,2.52-0.58,3.68-1.22c1.31-0.72,2.53-1.73,3.97-2.19c2.62-0.82,5.08,1.09,7.47,1.83c2.45,0.76,4.97,0.38,7.46,0.14
			c3.09-0.3,6.27-0.27,9.2,0.91c2.21,0.89,3.93,2.67,6.1,3.68c3.22,1.5,6.72,2.29,10.25,2.6c1.92,0.17,1.91-2.83,0-3
			c-3.07-0.27-6.27-0.98-9.05-2.35c-1.82-0.89-3.3-2.3-5.09-3.21c-2.6-1.33-5.64-1.83-8.54-1.8c-2.54,0.02-5.07,0.6-7.61,0.48
			c-2.66-0.13-4.8-1.93-7.38-2.35c-3-0.49-5.21,0.82-7.69,2.3c-1.08,0.65-2.16,1.17-3.44,1.21c-1.42,0.05-2.81-0.32-4.16-0.73
			c-2.77-0.85-5.44-2.08-8.34-2.47c-3.71-0.5-6.81,1.11-10.3,1.99c-3.14,0.79-6.13,0.02-8.32-2.41
			C106.97,32.98,104.86,35.11,106.14,36.54L106.14,36.54z"/>
	</g>
</g>
<g>
	<g>
		<path class="st1" d="M222.2,55.07c1.93,0,1.93-3,0-3C220.27,52.07,220.27,55.07,222.2,55.07L222.2,55.07z"/>
	</g>
</g>
<g>
	<g>
		<path class="st1" d="M207.84,43.9c0.02-0.16,0.03-0.31,0.05-0.47c0.01-0.21-0.04-0.4-0.13-0.58c-0.06-0.19-0.16-0.35-0.31-0.48
			c-0.14-0.15-0.3-0.25-0.48-0.31c-0.18-0.09-0.37-0.14-0.58-0.13c-0.13,0.02-0.27,0.04-0.4,0.05c-0.25,0.07-0.47,0.2-0.66,0.39
			c-0.08,0.1-0.16,0.2-0.23,0.3c-0.14,0.23-0.2,0.49-0.2,0.76c-0.02,0.16-0.03,0.31-0.05,0.47c-0.01,0.21,0.04,0.4,0.13,0.58
			c0.06,0.19,0.16,0.35,0.31,0.48c0.14,0.15,0.3,0.25,0.48,0.31c0.18,0.09,0.37,0.14,0.58,0.13c0.13-0.02,0.27-0.04,0.4-0.05
			c0.25-0.07,0.47-0.2,0.66-0.39c0.08-0.1,0.16-0.2,0.23-0.3C207.77,44.42,207.84,44.17,207.84,43.9L207.84,43.9z"/>
	</g>
</g>
<g>
	<g>
		<path class="st1" d="M179.92,29.83c0.06,0.14,0.12,0.28,0.17,0.42c0.05,0.2,0.14,0.37,0.27,0.51c0.11,0.16,0.25,0.29,0.42,0.39
			c0.17,0.11,0.36,0.17,0.56,0.18c0.2,0.04,0.4,0.04,0.6-0.03c0.12-0.05,0.24-0.1,0.36-0.15c0.23-0.13,0.4-0.31,0.54-0.54
			c0.05-0.12,0.1-0.24,0.15-0.36c0.07-0.27,0.07-0.53,0-0.8c-0.06-0.14-0.12-0.28-0.17-0.42c-0.05-0.2-0.14-0.37-0.27-0.51
			c-0.11-0.16-0.25-0.29-0.42-0.39c-0.17-0.11-0.36-0.17-0.56-0.18c-0.2-0.04-0.4-0.04-0.6,0.03c-0.12,0.05-0.24,0.1-0.36,0.15
			c-0.23,0.13-0.4,0.31-0.54,0.54c-0.05,0.12-0.1,0.24-0.15,0.36C179.85,29.3,179.85,29.57,179.92,29.83L179.92,29.83z"/>
	</g>
</g>
<g>
	<g>
		<path class="st1" d="M161.23,24.83c0.11,0.12,0.22,0.23,0.33,0.35c0.14,0.15,0.3,0.25,0.48,0.31c0.18,0.09,0.37,0.14,0.58,0.13
			c0.21,0.01,0.4-0.04,0.58-0.13c0.19-0.06,0.35-0.16,0.48-0.31c0.08-0.1,0.16-0.2,0.23-0.3c0.14-0.23,0.2-0.49,0.2-0.76
			c-0.02-0.13-0.04-0.27-0.05-0.4c-0.07-0.25-0.2-0.47-0.39-0.66c-0.11-0.12-0.22-0.23-0.33-0.35c-0.14-0.15-0.3-0.25-0.48-0.31
			c-0.18-0.09-0.37-0.14-0.58-0.13c-0.21-0.01-0.4,0.04-0.58,0.13c-0.19,0.06-0.35,0.16-0.48,0.31c-0.08,0.1-0.16,0.2-0.23,0.3
			c-0.14,0.23-0.2,0.49-0.2,0.76c0.02,0.13,0.04,0.27,0.05,0.4C160.92,24.42,161.04,24.64,161.23,24.83L161.23,24.83z"/>
	</g>
</g>
<g>
	<g>
		<path class="st1" d="M135.2,24.06c0.06,0.14,0.11,0.27,0.17,0.41c0.05,0.2,0.14,0.37,0.27,0.51c0.11,0.16,0.25,0.29,0.42,0.39
			c0.17,0.11,0.36,0.17,0.56,0.18c0.2,0.04,0.4,0.04,0.6-0.03c0.12-0.05,0.24-0.1,0.36-0.15c0.23-0.13,0.4-0.31,0.54-0.54
			c0.05-0.12,0.1-0.24,0.15-0.36c0.07-0.27,0.07-0.53,0-0.8c-0.06-0.14-0.11-0.27-0.17-0.41c-0.05-0.2-0.14-0.37-0.27-0.51
			c-0.11-0.16-0.25-0.29-0.42-0.39c-0.17-0.11-0.36-0.17-0.56-0.18c-0.2-0.04-0.4-0.04-0.6,0.03c-0.12,0.05-0.24,0.1-0.36,0.15
			c-0.23,0.13-0.4,0.31-0.54,0.54c-0.05,0.12-0.1,0.24-0.15,0.36C135.13,23.53,135.13,23.79,135.2,24.06L135.2,24.06z"/>
	</g>
</g>
<g>
	<g>
		<path class="st1" d="M113.08,24.36c1.93,0,1.93-3,0-3C111.15,21.36,111.14,24.36,113.08,24.36L113.08,24.36z"/>
	</g>
</g>
<g>
	<g>
		<path class="st1" d="M70.95,44.74c3.77-0.56,4.44-4.45,6.97-6.58c2.89-2.43,7.95-1.1,11.28-0.64c3.58,0.49,8.67,0.74,9.18-4.02
			c0.43-4.02-2.63-8.15-4.91-11.16c-2.62-3.46-6.06-6.28-10.67-5.67c-4.26,0.56-6.5,4.03-10.01,6.02
			c-3.97,2.25-8.97,0.35-13.25,1.47c-3.81,1-6.04,4.14-5.51,8.07c0.63,4.72,3.94,8.54,8.1,10.64c3.19,1.6,9.05,3.88,11.32-0.28
			c0.93-1.69-1.66-3.21-2.59-1.51c-0.62,1.14-2.11,0.94-3.2,0.7c-1.72-0.37-3.37-1.1-4.9-1.96c-2.94-1.67-5.33-4.53-5.79-7.98
			c-0.46-3.47,2.33-4.91,5.4-5.09c3.85-0.23,7.81,0.59,11.41-1.19c3-1.48,5.02-4.7,8.27-5.68c3.81-1.14,6.77,1.26,8.94,4.15
			c1.12,1.49,2.18,3.03,3.05,4.67c0.69,1.3,1.53,2.98,1.35,4.51c-0.18,1.53-1.71,1.67-2.98,1.64c-1.8-0.03-3.61-0.4-5.39-0.64
			c-3.51-0.46-7.66-0.89-10.68,1.38c-1.27,0.95-2.12,2.27-2.99,3.58c-0.83,1.26-1.63,2.44-3.22,2.68
			C68.25,42.13,69.06,45.02,70.95,44.74L70.95,44.74z"/>
	</g>
</g>
<g>
	<g>
		<path class="st1" d="M88.84,27.88c-0.02-0.05-0.04-0.09-0.07-0.13c-0.1-0.14-0.2-0.28-0.32-0.41c-0.03-0.04-0.07-0.07-0.1-0.1
			c-0.13-0.11-0.27-0.22-0.41-0.32c-0.04-0.02-0.08-0.05-0.12-0.07c-0.15-0.07-0.31-0.15-0.47-0.19c-0.16-0.04-0.34-0.06-0.51-0.07
			c-0.02,0-0.03,0-0.05,0c-0.13,0.01-0.28,0.03-0.42,0.06c-0.01,0-0.02,0-0.03,0.01c-0.2,0.05-0.37,0.14-0.51,0.27
			c-0.16,0.11-0.29,0.25-0.39,0.42c-0.11,0.17-0.17,0.36-0.18,0.56c-0.04,0.2-0.04,0.4,0.03,0.6c0.05,0.12,0.1,0.24,0.15,0.36
			c0.13,0.23,0.31,0.4,0.54,0.54c0.12,0.05,0.24,0.1,0.36,0.15c0.27,0.07,0.53,0.07,0.8,0c0.01,0,0.02,0,0.03-0.01
			c-0.13,0.02-0.27,0.04-0.4,0.05c0.04,0,0.08,0,0.11,0c-0.13-0.02-0.27-0.04-0.4-0.05c0.05,0.01,0.1,0.02,0.15,0.04
			c-0.12-0.05-0.24-0.1-0.36-0.15c0.07,0.03,0.14,0.07,0.21,0.12c-0.1-0.08-0.2-0.16-0.3-0.23c0.07,0.06,0.13,0.12,0.19,0.19
			c-0.08-0.1-0.16-0.2-0.23-0.3c0.04,0.06,0.08,0.12,0.11,0.19c0.09,0.17,0.22,0.32,0.39,0.42c0.14,0.13,0.31,0.22,0.51,0.27
			c0.2,0.06,0.4,0.07,0.6,0.03c0.2-0.01,0.39-0.07,0.56-0.18c0.1-0.08,0.2-0.16,0.3-0.23c0.19-0.19,0.31-0.41,0.39-0.66
			c0.02-0.13,0.04-0.27,0.05-0.4C89.04,28.37,88.97,28.12,88.84,27.88L88.84,27.88z"/>
	</g>
</g>
<g>
	<g>
		<path class="st1" d="M64.67,35.49c1.93,0,1.93-3,0-3C62.74,32.49,62.73,35.49,64.67,35.49L64.67,35.49z"/>
	</g>
</g>
<g>
	<g>
		<path class="st1" d="M107.94,34.9c-3.45-0.66-6.38,0.71-8.76,3.17c-2.25,2.32-4.12,5.59-7.74,5.63c-3.67,0.04-7.2-1.48-10.84-0.24
			c-1.56,0.53-2.91,1.43-4.06,2.62c-0.97,1.01-1.8,2.27-3,3.01c-1.54,0.95-3.37,0.36-4.87-0.37c-2.02-0.98-3.85-2.32-5.64-3.65
			c-1.55-1.15-3.05,1.45-1.51,2.59c2.86,2.12,6.1,4.61,9.78,4.91c3.48,0.29,5.32-2.27,7.49-4.49c2.79-2.85,6.42-2.09,9.98-1.6
			c1.78,0.24,3.63,0.4,5.37-0.18c1.58-0.53,2.93-1.52,4.1-2.69c2.5-2.49,4.78-6.6,8.92-5.81C109.03,38.16,109.84,35.27,107.94,34.9
			L107.94,34.9z"/>
	</g>
</g>
<g>
	<g>
		<path class="st1" d="M195.41,47.53c0.18-0.17,0.37-0.33,0.56-0.48c-0.1,0.08-0.2,0.16-0.3,0.23c0.39-0.3,0.81-0.54,1.26-0.74
			c-0.12,0.05-0.24,0.1-0.36,0.15c0.38-0.16,0.78-0.27,1.19-0.32c-0.13,0.02-0.27,0.04-0.4,0.05c0.36-0.04,0.71-0.04,1.07,0
			c-0.13-0.02-0.27-0.04-0.4-0.05c0.06,0.01,0.12,0.02,0.19,0.03c0.41,0.07,0.79,0.06,1.16-0.15c0.31-0.18,0.61-0.54,0.69-0.9
			c0.09-0.38,0.07-0.81-0.15-1.16c-0.2-0.31-0.52-0.62-0.9-0.69c-1-0.17-2.02-0.15-2.99,0.2c-1.03,0.37-1.94,0.95-2.73,1.7
			c-0.57,0.54-0.59,1.58,0,2.12C193.9,48.09,194.81,48.11,195.41,47.53L195.41,47.53z"/>
	</g>
</g>
<g>
	<g>
		<path class="st1" d="M156.78,36.39c-0.08-0.3-0.14-0.59-0.18-0.9c0.02,0.13,0.04,0.27,0.05,0.4c-0.06-0.5-0.07-1-0.01-1.51
			c-0.02,0.13-0.04,0.27-0.05,0.4c0.05-0.39,0.14-0.76,0.29-1.13c-0.05,0.12-0.1,0.24-0.15,0.36c0.1-0.23,0.23-0.46,0.38-0.66
			c-0.08,0.1-0.16,0.2-0.23,0.3c0.02-0.03,0.05-0.06,0.07-0.09c0.26-0.32,0.44-0.64,0.44-1.06c0-0.37-0.16-0.81-0.44-1.06
			c-0.29-0.26-0.66-0.46-1.06-0.44c-0.37,0.02-0.81,0.14-1.06,0.44c-0.61,0.74-1,1.59-1.13,2.54c-0.15,1.08-0.09,2.14,0.19,3.2
			c0.21,0.76,1.08,1.3,1.85,1.05C156.51,37.98,157.01,37.2,156.78,36.39L156.78,36.39z"/>
	</g>
</g>
<g>
	<g>
		<path class="st1" d="M101.44,38.11c0.38-1.64-0.07-3.37-0.92-4.79c-0.19-0.33-0.53-0.59-0.9-0.69c-0.36-0.1-0.84-0.05-1.16,0.15
			c-0.68,0.44-0.97,1.33-0.54,2.05c0.15,0.26,0.29,0.52,0.41,0.8c-0.05-0.12-0.1-0.24-0.15-0.36c0.2,0.47,0.34,0.95,0.41,1.45
			c-0.02-0.13-0.04-0.27-0.05-0.4c0.05,0.36,0.06,0.72,0.01,1.09c0.02-0.13,0.04-0.27,0.05-0.4c-0.01,0.1-0.03,0.2-0.06,0.3
			c-0.09,0.39-0.05,0.81,0.15,1.16c0.18,0.31,0.54,0.61,0.9,0.69c0.38,0.09,0.82,0.07,1.16-0.15
			C101.07,38.8,101.35,38.49,101.44,38.11L101.44,38.11z"/>
	</g>
</g>
<g>
	<g>
		<path class="st1" d="M147.28,36.28c0.79-1.39,1.58-2.78,2.37-4.17c0.39-0.68,0.18-1.67-0.54-2.05c-0.71-0.38-1.64-0.19-2.05,0.54
			c-0.79,1.39-1.58,2.78-2.37,4.17c-0.39,0.68-0.18,1.67,0.54,2.05C145.94,37.19,146.87,37.01,147.28,36.28L147.28,36.28z"/>
	</g>
</g>
<g>
	<g>
		<path class="st1" d="M60.29,40.02c-4.97,2.08-9.52,5.12-13.55,8.68c-0.61,0.54-0.55,1.57,0,2.12c0.6,0.6,1.51,0.54,2.12,0
			c3.61-3.2,7.76-6.05,12.22-7.91c0.75-0.31,1.28-0.99,1.05-1.85C61.95,40.36,61.05,39.7,60.29,40.02L60.29,40.02z"/>
	</g>
</g>
<g>
	<g>
		<path class="st1" d="M53.34,32.71c-3.15,4.79-8.02,8.62-13.6,10.09c-1.86,0.49-1.07,3.39,0.8,2.89
			c6.34-1.68,11.81-6.04,15.39-11.47C57,32.61,54.4,31.11,53.34,32.71L53.34,32.71z"/>
	</g>
</g>
<g>
	<g>
		<path class="st1" d="M63.65,44.93c-0.53-1.38-1.06-2.77-1.59-4.15c-0.14-0.37-0.33-0.69-0.69-0.9c-0.32-0.19-0.8-0.27-1.16-0.15
			c-0.36,0.12-0.71,0.34-0.9,0.69c-0.18,0.34-0.29,0.78-0.15,1.16c0.53,1.38,1.06,2.77,1.59,4.15c0.14,0.37,0.33,0.69,0.69,0.9
			c0.32,0.19,0.8,0.27,1.16,0.15c0.36-0.12,0.71-0.34,0.9-0.69C63.68,45.75,63.79,45.3,63.65,44.93L63.65,44.93z"/>
	</g>
</g>
<g>
	<g>
		<path class="st1" d="M62.89,47.02c-3.24,1.57-5.97,4.11-7.05,7.62c0.73-0.3,1.47-0.6,2.2-0.9c-2.29-1.02-4.57-2.03-6.86-3.05
			c-0.74-0.33-1.61-0.22-2.05,0.54c-0.37,0.64-0.21,1.72,0.54,2.05c2.29,1.02,4.57,2.03,6.86,3.05c0.89,0.4,1.89,0.11,2.2-0.9
			c0.37-1.2,1.02-2.29,1.92-3.23c1.07-1.11,2.36-1.93,3.75-2.6c0.73-0.35,0.92-1.39,0.54-2.05C64.5,46.81,63.62,46.66,62.89,47.02
			L62.89,47.02z"/>
	</g>
</g>
<g>
	<g>
		<path class="st1" d="M46.9,61.83c3.87-0.53,6.12-4.16,4.89-7.87c-0.71-2.12-2.11-3.96-3.64-5.56c-1.57-1.65-3.38-3.25-5.44-4.25
			c-3.28-1.6-7.98-2.23-11.15-0.02c-3.52,2.45-2.28,6.64-2.56,10.24c-0.26,3.34-3.61,4.78-6.09,6.39c-2.57,1.66-5.23,3.89-5.13,7.25
			c0.12,3.63,2.81,6.73,5.66,8.69c3.37,2.32,7.68,3.3,11.72,2.69c4.1-0.61,8.61-3.8,6.73-8.47c-0.45-1.12-1.06-2.19-0.94-3.43
			c0.11-1.1,0.72-2.07,1.48-2.84c1.8-1.8,4.38-2.74,6.7-3.67c1.77-0.71,1-3.62-0.8-2.89c-3.36,1.35-7.13,2.76-9.21,5.91
			c-0.94,1.42-1.35,3.13-1.11,4.81c0.24,1.73,2.06,3.77,0.96,5.43c-1.6,2.41-5.53,2.59-8.07,2.22c-3.38-0.49-6.72-2.24-8.74-5.03
			c-1.57-2.16-1.95-4.52,0.1-6.46c1.99-1.88,4.63-2.94,6.72-4.69c2.48-2.07,3.14-4.73,3.01-7.87c-0.06-1.48-0.33-3.2,0.28-4.6
			c0.56-1.27,1.87-1.78,3.16-1.98c4.37-0.67,8.11,1.98,10.9,5.04c1.26,1.38,2.76,3.23,2.82,5.2c0.05,1.82-1.45,2.67-3.06,2.89
			c-0.81,0.11-1.23,1.14-1.05,1.85C45.28,61.65,46.1,61.94,46.9,61.83L46.9,61.83z"/>
	</g>
</g>
<g>
	<g>
		<path class="st1" d="M54.56,54.8c1.53,3.18,2.48,7.25-1.05,9.36c-3.22,1.92-5.68,4.43-6.47,8.23c-0.31,1.49-0.31,3.15-1.08,4.5
			c-0.92,1.62-2.73,2.38-4.48,2.71c-3.47,0.65-7.09,0.24-10.35-1.07c-2.58-1.04-4.96-2.62-7.03-4.47c-1.43-1.29-3.56,0.83-2.12,2.12
			c5.31,4.77,12.01,7.4,19.19,6.48c4.17-0.54,7.61-2.86,8.38-7.18c0.35-1.98,0.56-3.88,1.73-5.59c1.21-1.77,2.93-2.5,4.6-3.69
			c4.39-3.1,3.29-8.74,1.27-12.92C56.31,51.55,53.72,53.07,54.56,54.8L54.56,54.8z"/>
	</g>
</g>
<g>
	<g>
		<path class="st1" d="M40.6,52.7c-0.1-0.13-0.19-0.25-0.29-0.38c-0.09-0.17-0.22-0.32-0.39-0.42c-0.14-0.13-0.31-0.22-0.51-0.27
			c-0.2-0.06-0.4-0.07-0.6-0.03c-0.2,0.01-0.39,0.07-0.56,0.18c-0.1,0.08-0.2,0.16-0.3,0.23c-0.19,0.19-0.31,0.41-0.39,0.66
			c-0.02,0.13-0.04,0.27-0.05,0.4c0,0.27,0.07,0.52,0.2,0.76c0.1,0.13,0.19,0.25,0.29,0.38c0.09,0.17,0.22,0.32,0.39,0.42
			c0.14,0.13,0.31,0.22,0.51,0.27c0.2,0.06,0.4,0.07,0.6,0.03c0.2-0.01,0.39-0.07,0.56-0.18c0.1-0.08,0.2-0.16,0.3-0.23
			c0.19-0.19,0.31-0.41,0.39-0.66c0.02-0.13,0.04-0.27,0.05-0.4C40.81,53.19,40.74,52.94,40.6,52.7L40.6,52.7z"/>
	</g>
</g>
<g>
	<g>
		<path class="st1" d="M30.63,67.8c-0.19,0.04-0.37,0.08-0.56,0.12c-0.2,0.05-0.37,0.14-0.51,0.27c-0.16,0.11-0.29,0.25-0.39,0.42
			c-0.11,0.17-0.17,0.36-0.18,0.56c-0.04,0.2-0.04,0.4,0.03,0.6c0.05,0.12,0.1,0.24,0.15,0.36c0.13,0.23,0.31,0.4,0.54,0.54
			c0.12,0.05,0.24,0.1,0.36,0.15c0.27,0.07,0.53,0.07,0.8,0c0.19-0.04,0.37-0.08,0.56-0.12c0.2-0.05,0.37-0.14,0.51-0.27
			c0.16-0.11,0.29-0.25,0.39-0.42c0.11-0.17,0.17-0.36,0.18-0.56c0.04-0.2,0.04-0.4-0.03-0.6c-0.05-0.12-0.1-0.24-0.15-0.36
			c-0.13-0.23-0.31-0.4-0.54-0.54c-0.12-0.05-0.24-0.1-0.36-0.15C31.16,67.72,30.9,67.72,30.63,67.8L30.63,67.8z"/>
	</g>
</g>
<g>
	<g>
		<path class="st1" d="M186.56,44.14c0.19-0.3,0.39-0.6,0.61-0.88c-0.08,0.1-0.16,0.2-0.23,0.3c0.55-0.72,1.2-1.36,1.91-1.92
			c-0.1,0.08-0.2,0.16-0.3,0.23c0.28-0.22,0.58-0.42,0.88-0.61c0.33-0.2,0.59-0.52,0.69-0.9c0.1-0.36,0.05-0.84-0.15-1.16
			c-0.21-0.32-0.51-0.6-0.9-0.69c-0.39-0.09-0.81-0.06-1.16,0.15c-1.6,1-2.95,2.35-3.94,3.95c-0.41,0.67-0.16,1.68,0.54,2.05
			C185.25,45.06,186.12,44.85,186.56,44.14L186.56,44.14z"/>
	</g>
</g>
<g>
	<g>
		<path class="st1" d="M242.13,147.08c-3.18,0.44-5.43,2.99-6.78,5.74c-0.86,1.75-1.2,3.29-0.74,5.21c0.41,1.74,0.67,3.36,0.15,5.12
			c-0.89,3.01-3.95,4.17-5.48,6.74c-1.82,3.06-0.22,6.37,2.01,8.69c2.22,2.32,5.51,4.96,8.91,3.63c1.52-0.59,2.82-1.76,3.99-2.87
			c1.14-1.09,2.09-2.41,2.4-3.98c0.65-3.38-1.54-7.19,0.89-10.18c1.58-1.94,3.89-3.17,5.18-5.37c1.84-3.11,0.52-6.48-1.63-9.03
			c-1.16-1.38-2.56-2.76-4.05-3.78c-1.81-1.24-3.66-0.88-5.34,0.36c-1.53,1.14-0.04,3.74,1.51,2.59c0.49-0.37,1.03-0.87,1.69-0.73
			c0.55,0.12,1.1,0.76,1.51,1.13c1.09,0.97,2.19,1.98,3.04,3.18c1.3,1.83,1.61,3.8,0.09,5.57c-1.31,1.52-3.04,2.61-4.31,4.18
			c-1.8,2.22-2.07,4.83-1.75,7.6c0.16,1.42,0.61,3.08,0.07,4.46c-0.47,1.18-1.6,2.06-2.54,2.86c-0.9,0.77-1.94,1.58-3.2,1.33
			c-1.42-0.29-2.72-1.52-3.73-2.48c-1.87-1.77-3.62-4.23-1.51-6.48c1.62-1.73,3.55-2.95,4.59-5.18c0.67-1.44,1.01-3.04,0.98-4.62
			c-0.01-0.83-0.13-1.66-0.3-2.46c-0.16-0.72-0.47-1.45-0.44-2.19c0.07-1.39,1.17-3.07,2.03-4.11c0.95-1.15,2.07-1.84,3.55-2.04
			c0.81-0.11,1.23-1.14,1.05-1.85C243.74,147.26,242.93,146.97,242.13,147.08L242.13,147.08z"/>
	</g>
</g>
<g>
	<g>
		<path class="st1" d="M20.23,71.93c1.13,7.73-1.01,15.68-5.62,21.94c-1.15,1.55,1.46,3.05,2.59,1.51
			c5.13-6.95,7.17-15.74,5.93-24.25c-0.12-0.81-1.13-1.24-1.85-1.05C20.42,70.31,20.11,71.13,20.23,71.93L20.23,71.93z"/>
	</g>
</g>
<g>
	<g>
		<path class="st1" d="M31.48,80.08c-2.86,4.46-4.45,9.63-4.66,14.91c-0.08,1.93,2.92,1.93,3,0c0.19-4.77,1.68-9.38,4.26-13.4
			C35.12,79.96,32.52,78.45,31.48,80.08L31.48,80.08z"/>
	</g>
</g>
<g>
	<g>
		<path class="st1" d="M36.74,81.9c-2.88,5.15-4.66,10.79-5.33,16.65c-0.09,0.81,0.76,1.5,1.5,1.5c0.89,0,1.41-0.69,1.5-1.5
			c0.6-5.31,2.31-10.47,4.92-15.14C40.28,81.73,37.69,80.21,36.74,81.9L36.74,81.9z"/>
	</g>
</g>
<g>
	<g>
		<path class="st1" d="M190.86,43.96c-0.64,0.01-1.27,0.02-1.91,0.03c-1.76,0.03-1.95,2.38-0.4,2.95c2.26,0.83,3.43,3.34,4.5,5.31
			c1.21,2.24,2.48,4.6,4.67,6.04c1.36,0.89,2.92,1.13,4.5,1.26c1.75,0.15,3.08,0.48,4.32,1.78c2.04,2.14,3.21,4.98,5.75,6.65
			c3.17,2.09,7.51,1.5,10.23-1.03c1.42-1.31-0.71-3.43-2.12-2.12c-2.29,2.12-5.66,1.75-7.72-0.44c-1.91-2.02-3.04-4.66-5.33-6.34
			c-1.27-0.93-2.72-1.28-4.26-1.43c-1.47-0.15-2.91-0.17-4.12-1.11c-1.83-1.42-2.78-3.82-3.88-5.78c-1.37-2.46-3.01-4.69-5.74-5.69
			c-0.13,0.98-0.27,1.96-0.4,2.95c0.64-0.01,1.27-0.02,1.91-0.03C192.79,46.93,192.8,43.93,190.86,43.96L190.86,43.96z"/>
	</g>
</g>
<g>
	<g>
		<path class="st1" d="M221.61,67.87c0.07,0.02,0.14,0.05,0.21,0.07c0.12,0.04,0.31,0.18-0.09-0.04c0.11,0.06,0.22,0.1,0.33,0.16
			c0.24,0.12,0.47,0.26,0.69,0.42c0.06,0.04,0.12,0.09,0.18,0.13c-0.38-0.28-0.16-0.12-0.07-0.05c0.09,0.08,0.19,0.16,0.27,0.24
			c0.2,0.19,0.4,0.4,0.57,0.62c0.16,0.2-0.06-0.04-0.08-0.1c0.02,0.05,0.1,0.13,0.13,0.18c0.08,0.11,0.15,0.22,0.22,0.34
			c0.14,0.23,0.26,0.47,0.38,0.71c0.08,0.16-0.14-0.35-0.05-0.12c0.03,0.07,0.05,0.14,0.08,0.21c0.05,0.13,0.09,0.25,0.12,0.38
			c0.08,0.27,0.13,0.55,0.17,0.82c-0.02-0.13-0.04-0.27-0.05-0.4c0,0.02,0.01,0.05,0.01,0.07c0.05,0.41,0.13,0.75,0.44,1.06
			c0.26,0.26,0.69,0.46,1.06,0.44c0.39-0.02,0.79-0.14,1.06-0.44c0.25-0.27,0.49-0.68,0.44-1.06c-0.11-0.85-0.3-1.59-0.64-2.38
			c-0.28-0.65-0.67-1.22-1.12-1.78c-0.89-1.11-2.12-1.91-3.46-2.38c-0.74-0.26-1.67,0.29-1.85,1.05
			C220.37,66.86,220.81,67.59,221.61,67.87L221.61,67.87z"/>
	</g>
</g>
<g>
	<g>
		<path class="st1" d="M217.46,69.92c3.12,3.09,6.61,5.82,10.36,8.1c0.69,0.42,1.65,0.15,2.05-0.54c0.42-0.71,0.16-1.63-0.54-2.05
			c-3.58-2.18-6.77-4.68-9.75-7.63c-0.58-0.57-1.55-0.57-2.12,0C216.89,68.38,216.89,69.35,217.46,69.92L217.46,69.92z"/>
	</g>
</g>
<g>
	<g>
		<path class="st1" d="M246.08,92.55c-1.62,4.01-1.15,8.77,1.13,12.44c0.43,0.69,1.34,0.95,2.05,0.54c0.69-0.4,0.97-1.36,0.54-2.05
			c-1.91-3.08-2.18-6.76-0.83-10.12c0.3-0.75-0.33-1.65-1.05-1.85C247.07,91.26,246.38,91.79,246.08,92.55L246.08,92.55z"/>
	</g>
</g>
<g>
	<g>
		<path class="st1" d="M238.55,98.85c0.47,0.65,0.88,1.34,1.22,2.06c0.05,0.1,0.09,0.19,0.13,0.29c-0.05-0.11-0.03-0.09,0.03,0.08
			c0.08,0.2,0.15,0.4,0.22,0.6c0.13,0.38,0.24,0.76,0.34,1.15c0.21,0.87,0.27,1.27,0.31,2.13c0.02,0.4,0.02,0.8,0,1.2
			c-0.01,0.21-0.02,0.43-0.05,0.64c-0.01,0.11-0.02,0.21-0.03,0.32c0.02-0.13,0.01-0.11-0.01,0.08c-0.12,0.77,0.2,1.65,1.05,1.85
			c0.72,0.16,1.72-0.22,1.85-1.05c0.59-3.79-0.22-7.72-2.47-10.86c-0.47-0.66-1.31-0.97-2.05-0.54
			C238.43,97.17,238.07,98.18,238.55,98.85L238.55,98.85z"/>
	</g>
</g>
<g>
	<g>
		<path class="st1" d="M234.59,98.27c1.09,2.57,1.93,5.26,2.49,7.99c0.35,1.67,0.65,3.86-0.75,5.13c-1.43,1.3,0.69,3.42,2.12,2.12
			c2.08-1.89,2.09-4.86,1.64-7.43c-0.56-3.21-1.64-6.33-2.92-9.32c-0.32-0.75-1.42-0.91-2.05-0.54
			C234.36,96.67,234.28,97.52,234.59,98.27L234.59,98.27z"/>
	</g>
</g>
<g>
	<g>
		<path class="st1" d="M224.22,75.9c1.3,2.21,0.49,5.09,1.45,7.46c0.43,1.07,1.11,2.06,2.12,2.66c0.58,0.35,1.22,0.53,1.87,0.7
			c0.47,0.13,0.95,0.2,1.25,0.62c0.54,0.75,0.42,2.03,0.52,2.91c0.15,1.25,0.48,2.42,1.07,3.53c1.16,2.2,3.14,3.8,5.46,4.64
			c1.82,0.66,2.6-2.24,0.8-2.89c-1.93-0.7-3.51-2.36-4.1-4.33c-0.62-2.06-0.11-4.41-1.72-6.11c-0.87-0.91-2-1.04-3.12-1.44
			c-0.96-0.33-1.35-1.17-1.58-2.1c-0.61-2.43-0.09-4.91-1.42-7.18C225.84,72.72,223.24,74.22,224.22,75.9L224.22,75.9z"/>
	</g>
</g>
<g>
	<g>
		<path class="st1" d="M242.41,136.78c0.65,3.44,0.08,7.18-1.63,10.27c-0.94,1.69,1.65,3.2,2.59,1.51c2.12-3.82,2.73-8.3,1.93-12.58
			c-0.15-0.8-1.11-1.25-1.85-1.05C242.62,135.16,242.26,135.98,242.41,136.78L242.41,136.78z"/>
	</g>
</g>
<g>
	<g>
		<path class="st1" d="M250.5,134.13c-2.04,4.64-3.19,9.59-3.24,14.67c-0.02,1.93,2.98,1.93,3,0c0.04-4.52,1.01-9.02,2.83-13.16
			c0.33-0.74,0.22-1.61-0.54-2.05C251.92,133.22,250.83,133.38,250.5,134.13L250.5,134.13z"/>
	</g>
</g>
<g>
	<g>
		<path class="st1" d="M236.56,107.18c-1.69,2.34-3.45,5.01-3.32,8.03c0.07,1.6,0.71,3.04,1.02,4.58c0.35,1.69,0.18,3.45-0.02,5.15
			c-0.57,4.8-1.24,11.34,4.01,13.93c1.73,0.85,3.25-1.74,1.51-2.59c-4.41-2.17-2.79-8.48-2.42-12.27c0.13-1.37,0.16-2.74-0.03-4.1
			c-0.2-1.37-0.73-2.64-0.99-4c-0.52-2.7,1.34-5.15,2.83-7.22C240.28,107.13,237.68,105.63,236.56,107.18L236.56,107.18z"/>
	</g>
</g>
<g>
	<g>
		<path class="st1" d="M237.93,137.38c0,4.01-0.53,7.97-1.59,11.84c-0.51,1.86,2.38,2.66,2.89,0.8c1.12-4.11,1.7-8.38,1.69-12.64
			C240.93,135.45,237.93,135.44,237.93,137.38L237.93,137.38z"/>
	</g>
</g>
<g>
	<g>
		<path class="st1" d="M191.1,206.57c0.57-0.35,1.17-0.67,1.78-0.94c-0.29,0.13,0.11-0.04,0.14-0.05c0.17-0.06,0.34-0.13,0.5-0.18
			c0.3-0.1,0.6-0.19,0.9-0.27c0.3-0.08,0.61-0.15,0.92-0.21c0.18-0.03,0.35-0.06,0.53-0.09c0.33-0.06-0.23,0.02,0.13-0.02
			c0.67-0.07,1.34-0.1,2.01-0.08c0.79,0.02,1.54-0.71,1.5-1.5c-0.04-0.83-0.66-1.47-1.5-1.5c-2.95-0.09-5.92,0.71-8.43,2.26
			c-0.67,0.41-0.98,1.36-0.54,2.05C189.48,206.7,190.39,207.01,191.1,206.57L191.1,206.57z"/>
	</g>
</g>
<g>
	<g>
		<path class="st1" d="M231.05,175.54c-1.58,1.12-3.16,2.24-4.74,3.37c-0.33,0.23-0.58,0.5-0.69,0.9c-0.1,0.36-0.05,0.84,0.15,1.16
			c0.41,0.63,1.37,1.02,2.05,0.54c1.58-1.12,3.16-2.24,4.74-3.37c0.33-0.23,0.58-0.5,0.69-0.9c0.1-0.36,0.05-0.84-0.15-1.16
			C232.7,175.44,231.74,175.05,231.05,175.54L231.05,175.54z"/>
	</g>
</g>
<g>
	<g>
		<path class="st1" d="M234.93,179.76c-3.04,1.41-5.61,3.69-7.48,6.45c-0.44,0.65-0.15,1.69,0.54,2.05c0.76,0.4,1.58,0.16,2.05-0.54
			c0.11-0.16,0.21-0.31,0.32-0.46c0.06-0.08,0.11-0.15,0.17-0.23c0.1-0.14,0.11-0.17,0.01-0.01c0.2-0.31,0.48-0.59,0.73-0.86
			c0.5-0.56,1.04-1.08,1.61-1.57c0.14-0.12,0.29-0.24,0.43-0.36c0.14-0.11,0.03-0.05-0.04,0.03c0.07-0.07,0.19-0.14,0.27-0.2
			c0.29-0.21,0.58-0.41,0.88-0.61c0.65-0.42,1.33-0.78,2.02-1.11c0.71-0.33,0.95-1.42,0.54-2.05
			C236.51,179.56,235.7,179.4,234.93,179.76L234.93,179.76z"/>
	</g>
</g>
<g>
	<g>
		<path class="st1" d="M189.33,193c1.93,0,1.93-3,0-3C187.4,190,187.4,193,189.33,193L189.33,193z"/>
	</g>
</g>
<g>
	<g>
		<path class="st1" d="M190.08,192.79c3.11-1.59,6.41-2.73,9.85-3.45c0.79-0.17,1.25-1.1,1.05-1.85c-0.23-0.82-1.05-1.21-1.85-1.05
			c-3.67,0.76-7.23,2.04-10.57,3.75c-0.72,0.37-0.93,1.38-0.54,2.05C188.46,192.98,189.36,193.16,190.08,192.79L190.08,192.79z"/>
	</g>
</g>
<g>
	<g>
		<path class="st1" d="M199.71,188.86c0.92-2.06,2.47-3.74,4.59-4.61c1.15-0.47,2.37-0.72,3.51-1.21c1.08-0.46,2.02-1.12,2.91-1.87
			c1.74-1.45,3.21-3.31,5.42-4.05c2.36-0.79,4.94-0.55,7.38-0.36c1.92,0.15,1.91-2.85,0-3c-2.71-0.22-5.55-0.4-8.17,0.46
			c-2.5,0.83-4.25,2.6-6.17,4.32c-0.94,0.84-1.93,1.54-3.12,1.97c-1.28,0.46-2.59,0.77-3.81,1.39c-2.27,1.15-4.1,3.14-5.13,5.45
			C196.34,189.09,198.93,190.62,199.71,188.86L199.71,188.86z"/>
	</g>
</g>
<g>
	<g>
		<path class="st1" d="M224.1,176.74c1.52-1.21,3.04-2.41,4.56-3.62c0.28-0.22,0.44-0.72,0.44-1.06c0-0.37-0.16-0.81-0.44-1.06
			c-0.29-0.26-0.66-0.46-1.06-0.44c-0.42,0.02-0.73,0.18-1.06,0.44c-1.52,1.21-3.04,2.41-4.56,3.62c-0.28,0.22-0.44,0.72-0.44,1.06
			c0,0.37,0.16,0.81,0.44,1.06c0.29,0.26,0.66,0.46,1.06,0.44C223.46,177.16,223.77,177,224.1,176.74L224.1,176.74z"/>
	</g>
</g>
<g>
	<g>
		<path class="st1" d="M228.14,169.87c-0.33-2.18,0.65-3.86,1.97-5.47c0.7-0.85,1.3-1.73,1.61-2.8c0.34-1.15,0.31-2.36,0.46-3.54
			c0.47-3.74,3.19-7.06,6.75-8.28c1.81-0.63,1.03-3.52-0.8-2.89c-4.33,1.49-7.83,5.22-8.74,9.77c-0.25,1.25-0.19,2.55-0.47,3.79
			c-0.28,1.25-1.19,2.08-1.94,3.06c-1.6,2.08-2.12,4.6-1.73,7.17c0.12,0.81,1.13,1.24,1.85,1.05
			C227.95,171.49,228.26,170.66,228.14,169.87L228.14,169.87z"/>
	</g>
</g>
<g>
	<g>
		<path class="st1" d="M233.79,72.53c0,0.17,0,0.34,0,0.51c-0.01,0.21,0.04,0.4,0.13,0.58c0.06,0.19,0.16,0.35,0.31,0.48
			c0.14,0.15,0.3,0.25,0.48,0.31c0.18,0.09,0.37,0.14,0.58,0.13c0.13-0.02,0.27-0.04,0.4-0.05c0.25-0.07,0.47-0.2,0.66-0.39
			c0.08-0.1,0.16-0.2,0.23-0.3c0.14-0.23,0.2-0.49,0.2-0.76c0-0.17,0-0.34,0-0.51c0.01-0.21-0.04-0.4-0.13-0.58
			c-0.06-0.19-0.16-0.35-0.31-0.48c-0.14-0.15-0.3-0.25-0.48-0.31c-0.18-0.09-0.37-0.14-0.58-0.13c-0.13,0.02-0.27,0.04-0.4,0.05
			c-0.25,0.07-0.47,0.2-0.66,0.39c-0.08,0.1-0.16,0.2-0.23,0.3C233.86,72,233.79,72.26,233.79,72.53L233.79,72.53z"/>
	</g>
</g>
<g>
	<g>
		<path class="st1" d="M240.43,88.36c0,0.17,0,0.34,0,0.51c-0.01,0.21,0.04,0.4,0.13,0.58c0.06,0.19,0.16,0.35,0.31,0.48
			c0.14,0.15,0.3,0.25,0.48,0.31c0.18,0.09,0.37,0.14,0.58,0.13c0.13-0.02,0.27-0.04,0.4-0.05c0.25-0.07,0.47-0.2,0.66-0.39
			c0.08-0.1,0.16-0.2,0.23-0.3c0.14-0.23,0.2-0.49,0.2-0.76c0-0.17,0-0.34,0-0.51c0.01-0.21-0.04-0.4-0.13-0.58
			c-0.06-0.19-0.16-0.35-0.31-0.48c-0.14-0.15-0.3-0.25-0.48-0.31c-0.18-0.09-0.37-0.14-0.58-0.13c-0.13,0.02-0.27,0.04-0.4,0.05
			c-0.25,0.07-0.47,0.2-0.66,0.39c-0.08,0.1-0.16,0.2-0.23,0.3C240.5,87.83,240.43,88.09,240.43,88.36L240.43,88.36z"/>
	</g>
</g>
<g>
	<g>
		<path class="st1" d="M245.5,115.39c1.93,0,1.93-3,0-3C243.57,112.39,243.57,115.39,245.5,115.39L245.5,115.39z"/>
	</g>
</g>
<g>
	<g>
		<path class="st1" d="M244.99,131.73c1.93,0,1.93-3,0-3C243.06,128.73,243.06,131.73,244.99,131.73L244.99,131.73z"/>
	</g>
</g>
<g>
	<g>
		<path class="st1" d="M242.47,156.78c0,0.17,0,0.34,0,0.51c-0.01,0.21,0.04,0.4,0.13,0.58c0.06,0.19,0.16,0.35,0.31,0.48
			c0.14,0.15,0.3,0.25,0.48,0.31c0.18,0.09,0.37,0.14,0.58,0.13c0.13-0.02,0.27-0.04,0.4-0.05c0.25-0.07,0.47-0.2,0.66-0.39
			c0.08-0.1,0.16-0.2,0.23-0.3c0.14-0.23,0.2-0.49,0.2-0.76c0-0.17,0-0.34,0-0.51c0.01-0.21-0.04-0.4-0.13-0.58
			c-0.06-0.19-0.16-0.35-0.31-0.48c-0.14-0.15-0.3-0.25-0.48-0.31c-0.18-0.09-0.37-0.14-0.58-0.13c-0.13,0.02-0.27,0.04-0.4,0.05
			c-0.25,0.07-0.47,0.2-0.66,0.39c-0.08,0.1-0.16,0.2-0.23,0.3C242.54,156.26,242.47,156.51,242.47,156.78L242.47,156.78z"/>
	</g>
</g>
<g>
	<g>
		<path class="st1" d="M236.85,173.12c0,0.17,0,0.34,0,0.51c-0.01,0.21,0.04,0.4,0.13,0.58c0.06,0.19,0.16,0.35,0.31,0.48
			c0.14,0.15,0.3,0.25,0.48,0.31c0.18,0.09,0.37,0.14,0.58,0.13c0.13-0.02,0.27-0.04,0.4-0.05c0.25-0.07,0.47-0.2,0.66-0.39
			c0.08-0.1,0.16-0.2,0.23-0.3c0.14-0.23,0.2-0.49,0.2-0.76c0-0.17,0-0.34,0-0.51c0.01-0.21-0.04-0.4-0.13-0.58
			c-0.06-0.19-0.16-0.35-0.31-0.48c-0.14-0.15-0.3-0.25-0.48-0.31c-0.18-0.09-0.37-0.14-0.58-0.13c-0.13,0.02-0.27,0.04-0.4,0.05
			c-0.25,0.07-0.47,0.2-0.66,0.39c-0.08,0.1-0.16,0.2-0.23,0.3C236.92,172.6,236.85,172.85,236.85,173.12L236.85,173.12z"/>
	</g>
</g>
<g>
	<g>
		<path class="st1" d="M142.56,213.29c3.71-1.04,8.17-2.25,11.69-0.02c1.36,0.86,2.62-1.3,1.26-2.16
			c-4.12-2.61-9.23-1.46-13.61-0.24C140.34,211.31,141,213.73,142.56,213.29L142.56,213.29z"/>
	</g>
</g>
<g>
	<g>
		<path class="st1" d="M135.35,208.83c0.23-0.11,0.45-0.23,0.68-0.34c0.15-0.08,0.26-0.19,0.35-0.32c0.11-0.12,0.19-0.26,0.22-0.43
			c0.05-0.17,0.06-0.33,0.02-0.5c-0.01-0.17-0.06-0.32-0.15-0.46c-0.07-0.08-0.13-0.17-0.2-0.25c-0.16-0.15-0.34-0.26-0.55-0.32
			c-0.11-0.01-0.22-0.03-0.33-0.04c-0.23,0-0.44,0.06-0.63,0.17c-0.23,0.11-0.45,0.23-0.68,0.34c-0.15,0.08-0.26,0.19-0.35,0.32
			c-0.11,0.12-0.19,0.26-0.22,0.43c-0.05,0.17-0.06,0.33-0.02,0.5c0.01,0.17,0.06,0.32,0.15,0.46c0.07,0.08,0.13,0.17,0.2,0.25
			c0.16,0.15,0.34,0.26,0.55,0.32c0.11,0.01,0.22,0.03,0.33,0.04C134.95,209,135.16,208.95,135.35,208.83L135.35,208.83z"/>
	</g>
</g>
</svg>
