<?xml version="1.0" encoding="utf-8"?>
<!-- Generator: Adobe Illustrator 27.9.0, SVG Export Plug-In . SVG Version: 6.00 Build 0)  -->
<svg version="1.1" id="Laag_1" xmlns="http://www.w3.org/2000/svg" xmlns:xlink="http://www.w3.org/1999/xlink" x="0px" y="0px"
	 viewBox="0 0 334.28 343.89" style="enable-background:new 0 0 334.28 343.89;" xml:space="preserve">
<style type="text/css">
	.st0{fill:none;stroke:#020203;stroke-miterlimit:10;}
	.st1{fill:#020203;}
	.st2{fill:none;stroke:#020203;stroke-width:3;stroke-miterlimit:10;}
</style>
<line class="st0" x1="11.02" y1="35.83" x2="443.44" y2="-4.7"/>
<line class="st0" x1="11.02" y1="259.6" x2="316.45" y2="428.76"/>
<line class="st0" x1="11.02" y1="35.83" x2="11.02" y2="259.16"/>
<g>
	<g>
		<path class="st1" d="M154.72,162.55c0.68-1.35,1.36-2.69,2.03-4.04c-0.46-0.19-0.91-0.39-1.37-0.58c-0.37,1.7-0.51,3.92,1.4,4.73
			c2.02,0.85,3.78-0.77,4.97-2.2c-0.42-0.24-0.84-0.49-1.25-0.73c-0.29,1.12-0.58,2.25-0.87,3.37c-0.13,0.51,0.37,1.14,0.92,0.92
			c1.53-0.6,3.06-1.19,4.6-1.79c-0.31-0.31-0.62-0.62-0.92-0.92c-0.23,1.18-0.47,2.37-0.7,3.55c-0.12,0.59,0.34,1.03,0.92,0.92
			c1.29-0.23,2.59-0.47,3.88-0.7c-0.24-0.42-0.49-0.84-0.73-1.25c-0.8,0.85-1.46,1.76-2,2.79c-0.22,0.43-0.03,0.96,0.45,1.1
			c1.45,0.42,2.88,0.91,4.27,1.5c-0.09-0.34-0.18-0.68-0.27-1.03c-0.62,1.01-1.4,1.77-2.43,2.36c-0.53,0.31-0.43,0.97,0,1.3
			c1.35,1.03,2.55,2.24,3.58,3.59c0.15-0.37,0.3-0.73,0.45-1.1c-1.51,0.33-3.02,0.65-4.52,0.98c-0.6,0.13-0.66,0.85-0.33,1.25
			c0.67,0.81,1.34,1.62,2.01,2.44c0.11-0.42,0.22-0.84,0.33-1.25c-1.6,0.49-3.2,0.73-4.87,0.72c-0.46,0-0.88,0.49-0.72,0.95
			c0.43,1.22,0.85,2.45,1.28,3.67c0.31-0.31,0.62-0.62,0.92-0.92c-1.04-0.31-2.07-0.61-3.11-0.92c-0.73-0.22-1.72-0.7-2.51-0.47
			c-0.73,0.2-1.16,0.95-1.59,1.5c-0.69,0.87-1.38,1.75-2.07,2.62c0.39,0.05,0.79,0.1,1.18,0.15c-0.58-1.1-0.75-2.17-0.62-3.39
			c0.06-0.59-0.68-0.91-1.13-0.65c-1.95,1.11-3.96,2.07-6.06,2.85c0.28,0.37,0.56,0.73,0.85,1.1c0.84-1.31,1.53-2.69,2.09-4.14
			c0.17-0.44-0.27-0.98-0.72-0.95c-1.68,0.12-3.31-0.01-4.95-0.42c0.11,0.42,0.22,0.84,0.33,1.25c0.96-0.91,1.93-1.83,2.89-2.74
			c0.45-0.42,0.16-1.06-0.33-1.25c-0.76-0.31-1.49-0.18-2.28-0.08c-0.64,0.08-1.85,0.02-1.22-0.99c0.35-0.57,1.19-0.78,1.77-0.97
			c0.73-0.24,0.69-1.19,0-1.45c-1-0.36-1.59-1.23-1.62-2.29c-0.18,0.24-0.37,0.48-0.55,0.72c0.78-0.31,1.5-0.45,2.34-0.44
			c0.45,0.01,0.9-0.49,0.72-0.95c-0.46-1.18-0.92-2.37-1.38-3.55c-0.31,0.31-0.62,0.62-0.92,0.92c0.77,0.11,1.53,0.22,2.3,0.33
			c0.56,0.08,1.07-0.32,0.92-0.92c-0.23-0.93-0.5-1.84-0.82-2.74c-0.37,0.28-0.73,0.56-1.1,0.85c1.97,1.19,4.36-0.59,3.52-2.82
			c-0.24,0.32-0.48,0.63-0.72,0.95c0.97-0.13,1.81-0.02,2.72,0.36c0.89,0.37,1.28-1.08,0.4-1.45c-1.01-0.43-2.03-0.56-3.12-0.42
			c-0.43,0.06-0.91,0.44-0.72,0.95c0.33,0.89-0.41,1.68-1.32,1.13c-0.53-0.32-1.32,0.22-1.1,0.85c0.32,0.9,0.59,1.81,0.82,2.74
			c0.31-0.31,0.62-0.62,0.92-0.92c-0.77-0.11-1.53-0.22-2.3-0.33c-0.5-0.07-1.15,0.32-0.92,0.92c0.46,1.18,0.92,2.37,1.38,3.55
			c0.24-0.32,0.48-0.63,0.72-0.95c-0.96-0.01-1.84,0.14-2.74,0.5c-0.3,0.12-0.56,0.37-0.55,0.72c0.05,1.75,1.09,3.14,2.73,3.73
			c0-0.48,0-0.96,0-1.45c-1.57,0.52-3.75,1.77-2.88,3.79c0.88,2.06,3.13,0.54,4.62,1.14c-0.11-0.42-0.22-0.84-0.33-1.25
			c-0.96,0.91-1.93,1.83-2.89,2.74c-0.41,0.38-0.21,1.12,0.33,1.25c1.76,0.44,3.54,0.6,5.35,0.47c-0.24-0.32-0.48-0.63-0.72-0.95
			c-0.51,1.33-1.16,2.58-1.93,3.78c-0.34,0.52,0.23,1.33,0.85,1.1c2.22-0.83,4.36-1.83,6.42-3c-0.38-0.22-0.75-0.43-1.13-0.65
			c-0.16,1.48,0.13,2.84,0.82,4.15c0.21,0.39,0.88,0.53,1.18,0.15c0.49-0.62,0.99-1.25,1.48-1.87c0.43-0.54,0.98-1.6,1.64-1.75
			c0.64-0.14,1.65,0.38,2.26,0.57c0.81,0.24,1.63,0.48,2.44,0.72c0.52,0.16,1.11-0.38,0.92-0.92c-0.43-1.22-0.85-2.45-1.28-3.67
			c-0.24,0.32-0.48,0.63-0.72,0.95c1.8,0.01,3.55-0.24,5.27-0.77c0.57-0.18,0.69-0.82,0.33-1.25c-0.67-0.81-1.34-1.62-2.01-2.44
			c-0.11,0.42-0.22,0.84-0.33,1.25c1.51-0.33,3.02-0.65,4.52-0.98c0.43-0.09,0.74-0.72,0.45-1.1c-1.2-1.57-2.55-2.93-4.12-4.13
			c0,0.43,0,0.86,0,1.3c1.24-0.72,2.22-1.68,2.97-2.9c0.19-0.31,0.1-0.87-0.27-1.03c-1.51-0.64-3.05-1.2-4.63-1.65
			c0.15,0.37,0.3,0.73,0.45,1.1c0.48-0.92,1.05-1.73,1.76-2.49c0.54-0.57-0.01-1.38-0.73-1.25c-1.29,0.23-2.59,0.47-3.88,0.7
			c0.31,0.31,0.62,0.62,0.92,0.92c0.23-1.18,0.47-2.37,0.7-3.55c0.1-0.5-0.34-1.15-0.92-0.92c-1.53,0.6-3.06,1.19-4.6,1.79
			c0.31,0.31,0.62,0.62,0.92,0.92c0.29-1.12,0.58-2.25,0.87-3.37c0.18-0.68-0.75-1.33-1.25-0.73c-0.71,0.85-1.61,2.05-2.86,1.98
			c-1.59-0.09-1.23-2.02-1.01-3.05c0.17-0.79-0.97-1.38-1.37-0.58c-0.68,1.35-1.36,2.69-2.03,4.04
			C152.99,162.65,154.29,163.41,154.72,162.55L154.72,162.55z"/>
	</g>
</g>
<g>
	<g>
		<path class="st1" d="M155.53,171.25c0.3-1.26,0.6-2.52,0.91-3.78c0.17-0.72-0.17-1.49-0.87-1.77c-0.74-0.3-1.42-0.01-1.87,0.61
			c-0.95,1.32-0.16,3.17,1.12,3.92c1.54,0.91,3.29,0.18,4.68-0.65c-0.61-0.79-1.21-1.57-1.82-2.36c-0.51,0.62-1.03,1.24-1.54,1.85
			c-0.39,0.47-0.57,1.05-0.31,1.64c0.24,0.54,0.76,0.92,1.37,0.92c1.13,0,2.26,0.01,3.39,0.01c-0.13-0.98-0.27-1.96-0.4-2.95
			c-1.21,0.35-2.37,0.89-3.41,1.62c-0.55,0.39-0.88,1.01-0.69,1.69c0.17,0.62,0.79,1.13,1.45,1.1c0.63-0.03,1.18,0.03,1.68,0.24
			c-0.1-0.79-0.2-1.57-0.3-2.36c-0.4,0.34-1.13,0.78-1.61,0.96c-1.58,0.61-1.33,2.8,0.4,2.95c-0.28-0.02,0.12,0.04,0.17,0.06
			c-0.2-0.07,0.02,0.02,0.1,0.07c0.15,0.09-0.11-0.19,0.09,0.08c0.19,0.25-0.07-0.13,0.1,0.16c0.68-0.68,1.37-1.37,2.05-2.05
			c-1.45-0.65-2.95-0.42-4.19,0.57c-1.16,0.93-1.65,2.32-1.39,3.76c0.13,0.73,0.97,1.18,1.65,1.07c0.76-0.11,1.25-0.71,1.3-1.47
			c0.07-1.07-0.08-2.16-0.41-3.18c-0.29-0.87-1.36-1.46-2.2-0.9c-0.71,0.47-1.42,0.94-2.12,1.4c0.61,0.79,1.21,1.57,1.82,2.36
			c0.53-0.56,1.05-1.12,1.58-1.68c0.81-0.86,0.4-2.13-0.66-2.51c-0.73-0.26-1.5-0.11-2.18,0.22c-0.49,0.24-0.88,0.64-1.37,0.88
			c-0.08,0.04-0.08,0.04-0.01,0.01c0.09-0.04,0.07-0.04-0.08,0.02c-0.04,0.01-0.09,0.02-0.13,0.03c0.07-0.03,0.15-0.04,0.22-0.01
			c0.49,0.08,0.58,0.63,0.49,1.03c-0.03,0.15,0.14-0.13-0.03,0.05c0.03-0.03,0.29-0.24,0.18-0.17c-0.11,0.08,0.2-0.11,0.23-0.13
			c0.25-0.15-0.1,0.02,0.18-0.08c0.7-0.25,1.19-0.88,1.07-1.65c-0.1-0.66-0.72-1.4-1.47-1.3c-0.63,0.08-1.2,0.06-1.62-0.12
			c0.1,0.79,0.2,1.57,0.3,2.36c0.55-0.49,1.09-0.99,1.64-1.48c0.79-0.72,0.44-2.31-0.66-2.51c-0.18-0.04-0.14-0.01,0.1,0.11
			c0.14,0.05,0.25,0.14,0.31,0.28c0.05,0.07,0.09,0.27,0.04,0.08c0.02,0.21,0.03,0.25,0.03,0.13c0-0.12,0-0.07-0.02,0.13
			c-0.03,0.05-0.05,0.1-0.08,0.16c0.07-0.12,0.07-0.12,0-0.02c-0.09,0.08-0.12,0.11-0.22,0.18c0.05-0.01,0.09-0.02,0.14-0.04
			c-0.14,0.02-0.15,0.02-0.04,0.02c0.1,0,0.33,0.03,0.12,0c0.15,0.03,0.29,0.07,0.43,0.12c0.27-0.96,0.53-1.93,0.8-2.89
			c-0.32-0.05-0.65-0.11-0.97-0.16c0,0.96,0,1.93,0,2.89c0.3-0.11,0.72-0.22,0.93-0.23c0.36-0.03,0.71,0,0.96,0.06
			c-0.3-0.73-0.6-1.47-0.9-2.2c-0.48,0.66-0.96,1.33-1.44,1.99c-0.72,1,0.28,2.18,1.3,2.26c0.53,0.04,1.06,0.08,1.58,0.12
			c-0.48-0.63-0.96-1.27-1.45-1.9c-0.14,0.47-0.28,0.95-0.41,1.42c-0.17,0.57,0.07,1.23,0.54,1.58c0.44,0.33,1.18,0.47,1.67,0.12
			c0.14-0.08,0.17-0.11,0.08-0.08c-0.09,0.02-0.06,0.01,0.11-0.03c-0.09-0.02-0.16,0.03-0.26-0.02c0.73,0.35,1.62,0.2,2.05-0.54
			c0.38-0.65,0.2-1.7-0.54-2.05c-0.95-0.45-2.07-0.51-2.95,0.13c0.73,0.56,1.47,1.13,2.2,1.69c0.14-0.47,0.28-0.95,0.41-1.42
			c0.29-1-0.5-1.83-1.45-1.9c-0.53-0.04-1.06-0.08-1.58-0.12c0.43,0.75,0.86,1.5,1.3,2.26c0.48-0.66,0.96-1.33,1.44-1.99
			c0.55-0.76-0.01-2.01-0.9-2.2c-1.16-0.25-2.36-0.22-3.49,0.18c-0.63,0.22-1.1,0.75-1.1,1.45c0,0.61,0.46,1.34,1.1,1.45
			c0.32,0.05,0.65,0.11,0.97,0.16c0.8,0.13,1.61-0.21,1.85-1.05c0.22-0.81-0.27-1.6-1.05-1.85c-1.38-0.44-3.1-0.21-3.84,1.17
			c-0.67,1.26-0.1,3.21,1.44,3.48c-0.22-0.84-0.44-1.67-0.66-2.51c-0.55,0.49-1.09,0.99-1.64,1.48c-0.65,0.59-0.58,1.98,0.3,2.36
			c1.01,0.43,2.04,0.67,3.14,0.53c-0.13-0.98-0.27-1.96-0.4-2.95c-0.89,0.31-1.81,0.82-2.32,1.66c-0.61,1.01-0.43,2.29,0.52,3.02
			c0.88,0.68,1.99,0.55,2.94,0.11c0.34-0.16,0.62-0.39,0.93-0.6c0.04-0.03,0.56-0.35,0.56-0.34c0.05,0.13-0.58-0.08-0.13,0.08
			c-0.22-0.84-0.44-1.67-0.66-2.51c-0.53,0.56-1.05,1.12-1.58,1.68c-0.51,0.54-0.59,1.38-0.12,1.97c0.44,0.55,1.3,0.81,1.94,0.39
			c0.71-0.47,1.42-0.94,2.12-1.4c-0.73-0.3-1.47-0.6-2.2-0.9c0.27,0.83,0.36,1.49,0.31,2.38c0.98-0.13,1.96-0.27,2.95-0.4
			c0.07,0.43,0.08-0.4-0.01,0.05c0.02-0.1,0.21-0.52,0.05-0.23c0.04-0.07,0.33-0.47,0.12-0.22c0.11-0.13,0.23-0.25,0.37-0.36
			c-0.26,0.21,0.18-0.08,0.23-0.11c-0.29,0.16,0.15-0.04,0.24-0.06c0.17-0.03,0.16-0.03-0.03,0c0.08,0,0.17,0,0.25,0
			c-0.44-0.01,0.32,0.14-0.03-0.01c0.62,0.28,1.31,0.27,1.82-0.23c0.47-0.47,0.57-1.24,0.23-1.82c-0.65-1.13-1.76-1.75-3.04-1.86
			c0.13,0.98,0.27,1.96,0.4,2.95c1.09-0.42,2.04-0.98,2.93-1.74c0.68-0.58,0.55-1.99-0.3-2.36c-1.02-0.44-2.07-0.7-3.19-0.65
			c0.25,0.93,0.5,1.86,0.76,2.8c0.88-0.62,1.7-1.03,2.69-1.32c1.61-0.47,1.32-2.94-0.4-2.95c-1.13,0-2.26-0.01-3.39-0.01
			c0.35,0.85,0.71,1.71,1.06,2.56c0.51-0.62,1.03-1.24,1.54-1.85c0.48-0.57,0.61-1.35,0.12-1.97c-0.46-0.57-1.28-0.78-1.94-0.39
			c-0.28,0.17-0.71,0.43-0.92,0.51c-0.11,0.04-0.22,0.08-0.34,0.11c-0.19,0.03-0.23,0.05-0.11,0.04c-0.12,0.01-0.23,0.01-0.35,0
			c0.12,0.02,0.14,0.01,0.04-0.01c-0.1-0.03-0.08-0.02,0.07,0.03c-0.14-0.09-0.14-0.09,0,0.02c-0.06-0.06-0.12-0.12-0.18-0.18
			c0.09,0.12,0.11,0.14,0.06,0.05c-0.05-0.1-0.04-0.07,0.03,0.08c-0.04-0.17-0.05-0.15-0.01,0.06c0-0.17,0-0.15-0.01,0.07
			c-0.08,0.18-0.08,0.2,0.02,0.05c-0.91-0.39-1.83-0.77-2.74-1.16c-0.3,1.26-0.6,2.52-0.91,3.78c-0.19,0.79,0.25,1.63,1.05,1.85
			C154.45,172.51,155.34,172.04,155.53,171.25L155.53,171.25z"/>
	</g>
</g>
<g>
	<g>
		<path class="st1" d="M163.51,93.11c-2.47,20.54-2.99,41.3-1.57,61.94c0.13,1.92,3.13,1.93,3,0c-1.42-20.64-0.9-41.39,1.57-61.94
			C166.74,91.19,163.74,91.21,163.51,93.11L163.51,93.11z"/>
	</g>
</g>
<g>
	<g>
		<path class="st1" d="M161.15,161.1c-2.05-15.36-4.93-30.6-8.66-45.64c-0.47-1.87-3.36-1.08-2.89,0.8
			c3.67,14.78,6.55,29.75,8.56,44.84c0.11,0.81,0.61,1.49,1.5,1.5C160.37,162.61,161.25,161.91,161.15,161.1L161.15,161.1z"/>
	</g>
</g>
<g>
	<g>
		<path class="st1" d="M184.22,96.9c-3.32,7.58-6.64,15.16-9.97,22.74c-1.66,3.78-3.32,7.56-4.97,11.35c-1.57,3.6-3.12,7.21-4.18,11
			c-0.52,1.86,2.38,2.66,2.89,0.8c1.05-3.77,2.59-7.36,4.16-10.94c1.63-3.71,3.26-7.43,4.88-11.14c3.26-7.43,6.51-14.85,9.77-22.28
			C187.57,96.67,184.99,95.14,184.22,96.9L184.22,96.9z"/>
	</g>
</g>
<g>
	<g>
		<path class="st1" d="M168.7,168.86c14.53-5.79,29.32-10.89,44.33-15.29c1.85-0.54,1.06-3.44-0.8-2.89
			c-15.01,4.4-29.8,9.51-44.33,15.29C166.13,166.67,166.9,169.57,168.7,168.86L168.7,168.86z"/>
	</g>
</g>
<g>
	<g>
		<path class="st1" d="M221.51,170.9c-15.14-0.58-30.3-0.03-45.35,1.63c-1.9,0.21-1.92,3.21,0,3c15.05-1.66,30.22-2.21,45.35-1.63
			C223.44,173.97,223.44,170.97,221.51,170.9L221.51,170.9z"/>
	</g>
</g>
<g>
	<g>
		<path class="st1" d="M222.27,187.58c-11.14-1.85-22.09-4.67-32.74-8.43c-1.82-0.64-2.61,2.25-0.8,2.89
			c10.65,3.75,21.6,6.57,32.74,8.43C223.36,190.79,224.17,187.9,222.27,187.58L222.27,187.58z"/>
	</g>
</g>
<g>
	<g>
		<path class="st1" d="M154.27,184.15c4.26,19.9,6.42,40.2,6.47,60.54c0,1.93,3,1.93,3,0c-0.05-20.61-2.26-41.19-6.57-61.34
			C156.76,181.46,153.86,182.26,154.27,184.15L154.27,184.15z"/>
	</g>
</g>
<g>
	<g>
		<path class="st1" d="M157.62,184.4c2.94,6.6,5.87,13.19,8.81,19.79c1.45,3.26,2.9,6.52,4.35,9.78c1.38,3.09,2.98,6.18,3.59,9.53
			c0.35,1.9,3.24,1.09,2.89-0.8c-0.6-3.28-2.14-6.31-3.49-9.34c-1.52-3.41-3.04-6.82-4.56-10.24c-3-6.75-6.01-13.5-9.01-20.25
			C159.42,181.12,156.84,182.65,157.62,184.4L157.62,184.4z"/>
	</g>
</g>
<g>
	<g>
		<path class="st1" d="M139.86,240.66c5.55-15.56,9.92-31.53,13.06-47.75c0.37-1.89-2.53-2.69-2.89-0.8
			c-3.14,16.22-7.51,32.19-13.06,47.75C136.32,241.68,139.22,242.47,139.86,240.66L139.86,240.66z"/>
	</g>
</g>
<g>
	<g>
		<path class="st1" d="M146.7,179.41c0.24-0.12,0.48-0.24,0.72-0.37c0.17-0.09,0.32-0.22,0.42-0.39c0.13-0.14,0.22-0.31,0.27-0.51
			c0.06-0.2,0.07-0.4,0.03-0.6c-0.01-0.2-0.07-0.39-0.18-0.56c-0.08-0.1-0.16-0.2-0.23-0.3c-0.19-0.19-0.41-0.31-0.66-0.39
			c-0.13-0.02-0.27-0.04-0.4-0.05c-0.27,0-0.52,0.07-0.76,0.2c-0.24,0.12-0.48,0.24-0.72,0.37c-0.17,0.09-0.32,0.22-0.42,0.39
			c-0.13,0.14-0.22,0.31-0.27,0.51c-0.06,0.2-0.07,0.4-0.03,0.6c0.01,0.2,0.07,0.39,0.18,0.56c0.08,0.1,0.16,0.2,0.23,0.3
			c0.19,0.19,0.41,0.31,0.66,0.39c0.13,0.02,0.27,0.04,0.4,0.05C146.21,179.62,146.47,179.55,146.7,179.41L146.7,179.41z"/>
	</g>
</g>
<g>
	<g>
		<path class="st1" d="M145.11,175.21c-11.48,3.81-22.64,8.55-33.36,14.15c-1.71,0.89-0.2,3.48,1.51,2.59
			c10.49-5.49,21.4-10.12,32.64-13.85C147.73,177.5,146.95,174.6,145.11,175.21L145.11,175.21z"/>
	</g>
</g>
<g>
	<g>
		<path class="st1" d="M110.51,174.12c8.48,0.47,16.96,0.08,25.37-1.09c0.81-0.11,1.23-1.14,1.05-1.85
			c-0.23-0.87-1.05-1.16-1.85-1.05c-8.14,1.13-16.37,1.43-24.57,0.98C108.58,171.01,108.59,174.01,110.51,174.12L110.51,174.12z"/>
	</g>
</g>
<g>
	<g>
		<path class="st1" d="M111.7,160.35c12.01,1.33,24.03,2.65,36.04,3.98c1.92,0.21,1.9-2.79,0-3c-12.01-1.33-24.03-2.65-36.04-3.98
			C109.78,157.13,109.79,160.14,111.7,160.35L111.7,160.35z"/>
	</g>
</g>
<ellipse class="st2" cx="167.29" cy="171.37" rx="56.76" ry="79.68"/>
<ellipse class="st2" cx="169.76" cy="171.4" rx="62.76" ry="84.65"/>
<g>
	<g>
		<path class="st1" d="M158.71,171.34c8.15-7.95,16.47-15.71,24.96-23.29c1.44-1.29-0.68-3.4-2.12-2.12
			c-8.49,7.58-16.82,15.34-24.96,23.29C155.2,170.57,157.32,172.69,158.71,171.34L158.71,171.34z"/>
	</g>
</g>
<g>
	<g>
		<path class="st1" d="M174.21,151.23c5.09-2.25,10.16-4.56,15.2-6.94c-0.61-0.79-1.21-1.57-1.82-2.36
			c-4.12,3.53-7.26,7.99-9.34,12.99c-0.31,0.75,0.34,1.65,1.05,1.85c0.86,0.24,1.53-0.3,1.85-1.05c1.88-4.51,4.87-8.49,8.57-11.66
			c0.56-0.48,0.55-1.43,0.12-1.97c-0.49-0.62-1.24-0.71-1.94-0.39c-5.04,2.38-10.1,4.69-15.2,6.94c-0.74,0.33-0.91,1.41-0.54,2.05
			C172.6,151.45,173.47,151.56,174.21,151.23L174.21,151.23z"/>
	</g>
</g>
<g>
	<g>
		<path class="st1" d="M154.26,172.38c4.46,7.52,13.14,11.39,20.1,16.15c8.04,5.5,15.64,11.63,22.74,18.3
			c1.41,1.32,3.53-0.8,2.12-2.12c-6.95-6.53-14.38-12.55-22.22-17.99c-3.66-2.54-7.46-4.84-11.17-7.29
			c-3.48-2.3-6.82-4.92-8.98-8.56C155.86,169.21,153.27,170.72,154.26,172.38L154.26,172.38z"/>
	</g>
</g>
<g>
	<g>
		<path class="st1" d="M189.12,205.82c3.99,1.18,7.87,2.67,11.62,4.47c0.61,0.29,1.32,0.26,1.82-0.23c0.43-0.43,0.63-1.3,0.23-1.82
			c-2.67-3.47-4.08-7.69-3.94-12.07c0.04-1.33-1.66-1.94-2.56-1.06c-0.21,0.2-0.42,0.41-0.63,0.61c-1.39,1.35,0.74,3.47,2.12,2.12
			c0.21-0.2,0.42-0.41,0.63-0.61c-0.85-0.35-1.71-0.71-2.56-1.06c-0.16,4.85,1.38,9.74,4.35,13.59c0.68-0.68,1.37-1.37,2.05-2.05
			c-3.98-1.91-8.1-3.51-12.33-4.77C188.07,202.37,187.28,205.27,189.12,205.82L189.12,205.82z"/>
	</g>
</g>
</svg>
