<?xml version="1.0" encoding="utf-8"?>
<!-- Generator: Adobe Illustrator 27.9.0, SVG Export Plug-In . SVG Version: 6.00 Build 0)  -->
<svg version="1.1" id="Laag_1" xmlns="http://www.w3.org/2000/svg" xmlns:xlink="http://www.w3.org/1999/xlink" x="0px" y="0px"
	 viewBox="0 0 319.28 328.69" style="enable-background:new 0 0 319.28 328.69;" xml:space="preserve">
<style type="text/css">
	.st0{fill:none;stroke:#020203;stroke-miterlimit:10;}
	.st1{fill:#020203;}
</style>
<line class="st0" x1="7.02" y1="31.33" x2="439.44" y2="-9.2"/>
<line class="st0" x1="7.02" y1="255.1" x2="312.45" y2="424.26"/>
<line class="st0" x1="7.02" y1="31.33" x2="7.02" y2="254.66"/>
<g>
	<g>
		<path class="st1" d="M146.75,185.36c-4.79,2.32-9.67,4.19-14.76,5.72c-5.18,1.56-10.14,3.53-15.01,5.88
			c-0.7,0.34-0.97,1.42-0.54,2.05c1.79,2.63,4.43,4.24,7.29,5.51c3.29,1.46,6.68,2.69,10.09,3.82c7.12,2.36,14.35,4.36,21.54,6.49
			c3.49,1.03,7.05,2.4,10.66,2.93c3.26,0.47,6.37-0.33,9.32-1.7c3.11-1.45,5.96-3.44,8.9-5.19c3.11-1.85,6.26-3.62,9.47-5.29
			c7.12-3.72,14.46-6.98,21.99-9.77c1.79-0.67,1.02-3.57-0.8-2.89c-12.83,4.76-24.93,10.91-36.58,18.06
			c-2.64,1.62-5.4,3.25-8.49,3.8c-3.43,0.61-6.86-0.82-10.1-1.78c-6.99-2.07-14.01-4.07-20.98-6.22c-3.83-1.18-7.64-2.45-11.37-3.94
			c-3.01-1.21-6.45-2.54-8.35-5.32c-0.18,0.68-0.36,1.37-0.54,2.05c4.79-2.32,9.67-4.19,14.76-5.72c5.18-1.56,10.14-3.53,15.01-5.88
			C150.01,187.11,148.49,184.53,146.75,185.36L146.75,185.36z"/>
	</g>
</g>
<g>
	<g>
		<path class="st1" d="M164.01,172.66c-0.71-12.2-1.19-24.41-1.27-36.63c-0.05-6.35,0-12.7,0.12-19.04c0.02-1.08-0.1-2.52,0.57-3.44
			c0.73-1.01,2.34-0.79,3.42-0.79c3.38,0.02,6.76,0.07,10.14,0.14c6.68,0.12,13.35,0.31,20.03,0.56c3.3,0.12,6.59,0.27,9.89,0.42
			c3.03,0.14,6.2,0.06,9.2,0.59c2.68,0.47,4.54,1.81,5.02,4.59c0.48,2.76-0.02,5.75-0.2,8.52c-0.44,6.8-0.89,13.6-1.33,20.4
			c-0.98,15.09-1.97,30.19-2.95,45.28c-0.13,1.93,2.87,1.92,3,0c0.93-14.27,1.86-28.53,2.79-42.8c0.46-7.13,0.93-14.27,1.39-21.4
			c0.34-5.21,1.99-12.85-3.32-16.19c-2.26-1.43-5.09-1.56-7.68-1.7c-3.62-0.2-7.25-0.37-10.87-0.52c-7.08-0.3-14.17-0.53-21.26-0.69
			c-3.46-0.08-6.92-0.13-10.39-0.18c-2.7-0.03-6.51-0.72-8.7,1.3c-2.1,1.94-1.75,5.28-1.79,7.86c-0.05,3.37-0.09,6.75-0.1,10.12
			c-0.04,14.54,0.45,29.07,1.29,43.59C161.12,174.58,164.12,174.59,164.01,172.66L164.01,172.66z"/>
	</g>
</g>
<g>
	<g>
		<path class="st1" d="M170.34,183.77c5.34,2.1,10.97,3.49,16.51,4.93c6.58,1.7,13.18,3.28,19.75,5c2.85,0.74,5.7,1.51,8.5,2.41
			c1.84,0.6,2.63-2.3,0.8-2.89c-11.92-3.87-24.33-6.16-36.38-9.61c-2.83-0.81-5.65-1.66-8.39-2.73
			C169.34,180.17,168.56,183.07,170.34,183.77L170.34,183.77z"/>
	</g>
</g>
<g>
	<g>
		<path class="st1" d="M170.51,192.16c1.93,0,1.93-3,0-3C168.58,189.16,168.58,192.16,170.51,192.16L170.51,192.16z"/>
	</g>
</g>
<g>
	<g>
		<path class="st1" d="M130.65,195.3c1.68,1.01,3.52,1.27,5.4,1.68c2.12,0.46,4.13,1.41,6.15,2.2c4.15,1.6,8.32,3.16,12.51,4.65
			c8.35,2.97,16.81,5.66,25.39,7.89c1.87,0.49,2.67-2.41,0.8-2.89c-8.43-2.19-16.73-4.82-24.93-7.73
			c-4.19-1.48-8.36-3.04-12.51-4.64c-1.91-0.74-3.83-1.66-5.81-2.19c-1.85-0.49-3.81-0.56-5.48-1.56
			C130.51,191.71,129,194.31,130.65,195.3L130.65,195.3z"/>
	</g>
</g>
<g>
	<g>
		<path class="st1" d="M161.42,158.41c3.77,2.49,8.74,2.38,13.07,2.91c5,0.61,9.99,1.35,14.95,2.21c9.8,1.7,19.52,3.89,29.11,6.52
			c1.86,0.51,2.66-2.38,0.8-2.89c-9.44-2.59-18.99-4.75-28.63-6.44c-4.75-0.83-9.52-1.55-14.3-2.16c-2.36-0.3-4.73-0.56-7.1-0.83
			c-2.25-0.25-4.47-0.64-6.39-1.91C161.32,154.75,159.81,157.35,161.42,158.41L161.42,158.41z"/>
	</g>
</g>
<g>
	<g>
		<path class="st1" d="M159.9,134.16c20.53,4.11,41.24,7.32,62.04,9.64c1.92,0.21,1.9-2.79,0-3c-20.54-2.29-40.98-5.48-61.25-9.53
			C158.81,130.89,158,133.78,159.9,134.16L159.9,134.16z"/>
	</g>
</g>
<g>
	<g>
		<path class="st1" d="M181.96,111.56c-0.82,7.15-1.55,14.32-2.42,21.46c-0.3,2.45-0.66,4.88-0.69,7.36
			c-0.02,2.22,0.08,4.45,0.07,6.67c-0.01,3.75-0.32,7.49-0.86,11.2c-0.28,1.89,2.61,2.7,2.89,0.8c0.87-5.88,0.94-11.64,0.9-17.57
			c-0.04-5.72,1.06-11.46,1.69-17.14c0.47-4.27,0.93-8.53,1.42-12.79C185.18,109.65,182.18,109.66,181.96,111.56L181.96,111.56z"/>
	</g>
</g>
<g>
	<g>
		<path class="st1" d="M206.51,113.59c-2.05,16.3-3.19,32.7-4.5,49.07c-0.15,1.92,2.85,1.91,3,0c1.31-16.37,2.45-32.77,4.5-49.07
			C209.76,111.68,206.75,111.7,206.51,113.59L206.51,113.59z"/>
	</g>
</g>
<g>
	<g>
		<path class="st1" d="M209.62,113.5c3.66-4.49,7.5-8.83,11.5-13.02c-0.85-0.35-1.71-0.71-2.56-1.06c0.48,3.58,0.96,7.16,1.43,10.75
			c0.11,0.8,0.61,1.5,1.5,1.5c0.73,0,1.61-0.69,1.5-1.5c-0.48-3.58-0.96-7.16-1.43-10.75c-0.08-0.61-0.31-1.12-0.92-1.37
			c-0.55-0.22-1.22-0.13-1.64,0.31c-4,4.19-7.84,8.53-11.5,13.02c-0.51,0.63-0.61,1.51,0,2.12
			C208.03,114.03,209.11,114.13,209.62,113.5L209.62,113.5z"/>
	</g>
</g>
<g>
	<g>
		<path class="st1" d="M184.32,111.89c0.04-1.27,1.43-2.48,2.21-3.38c1.08-1.24,2.19-2.45,3.35-3.61c2.26-2.27,4.67-4.4,7.22-6.34
			c-0.68-0.18-1.37-0.36-2.05-0.54c1.2,2.48,1.99,5.13,2.42,7.85c0.13,0.8,1.13,1.24,1.85,1.05c0.85-0.23,1.17-1.04,1.05-1.85
			c-0.47-2.99-1.4-5.84-2.72-8.56c-0.32-0.67-1.44-1-2.05-0.54c-2.91,2.21-5.68,4.61-8.24,7.22c-1.25,1.28-2.45,2.6-3.61,3.97
			c-1.18,1.41-2.37,2.81-2.43,4.73C181.25,113.82,184.25,113.82,184.32,111.89L184.32,111.89z"/>
	</g>
</g>
<g>
	<g>
		<path class="st1" d="M196.46,102.9c-0.31,0-0.62,0-0.93,0c-0.75,0-1.37,0.57-1.47,1.3c-0.1,0.73,0.35,1.44,1.07,1.65
			c0.72,0.21,1.45,0.41,2.17,0.62c0-0.96,0-1.93,0-2.89c-0.08,0.03-0.16,0.05-0.24,0.06c0.13-0.02,0.27-0.04,0.4-0.05
			c-0.12,0.02-0.24,0.02-0.36,0.01c0.13,0.02,0.27,0.04,0.4,0.05c-0.14-0.02-0.27-0.06-0.41-0.11c0.12,0.05,0.24,0.1,0.36,0.15
			c-0.15-0.07-0.29-0.15-0.43-0.25c0.1,0.08,0.2,0.16,0.3,0.23c-0.15-0.12-0.29-0.26-0.41-0.41c0.08,0.1,0.16,0.2,0.23,0.3
			c-0.12-0.16-0.21-0.32-0.29-0.5c0.05,0.12,0.1,0.24,0.15,0.36c-0.07-0.17-0.11-0.35-0.14-0.53c0.02,0.13,0.04,0.27,0.05,0.4
			c-0.04-0.3-0.03-0.61,0-0.91c-0.02,0.13-0.04,0.27-0.05,0.4c0.1-0.67,0.33-1.31,0.58-1.94c0.13-0.34,0.03-0.85-0.15-1.16
			c-0.18-0.31-0.54-0.61-0.9-0.69c-0.38-0.09-0.81-0.07-1.16,0.15c-0.35,0.22-0.54,0.51-0.69,0.9c-0.24,0.62-0.47,1.24-0.57,1.9
			c-0.14,0.94-0.1,1.82,0.31,2.7c0.63,1.37,2.31,2.34,3.8,1.84c0.61-0.2,1.13-0.77,1.1-1.45c-0.03-0.67-0.45-1.26-1.1-1.45
			c-0.72-0.21-1.45-0.41-2.17-0.62c-0.13,0.98-0.27,1.96-0.4,2.95c0.31,0,0.62,0,0.93,0c0.78,0,1.54-0.69,1.5-1.5
			C197.92,103.59,197.3,102.9,196.46,102.9L196.46,102.9z"/>
	</g>
</g>
<g>
	<g>
		<path class="st1" d="M217.73,103.29c-0.54,1.66-0.87,3.38-1.02,5.12c-0.05,0.58-0.16,1.24,0.14,1.77c0.29,0.52,0.8,0.86,1.34,1.07
			c0.95,0.37,1.96,0.09,2.72-0.54c0.6-0.51,0.56-1.61,0-2.12c-0.64-0.59-1.48-0.54-2.12,0c0.07-0.06,0.3-0.19,0.09-0.09
			c-0.16,0.08,0.31-0.15,0.15-0.07c-0.04,0.01-0.07,0.02-0.11,0.02c0.08-0.01,0.17-0.02,0.25-0.04c-0.02,0.03-0.36-0.03-0.02,0.02
			c0.28,0.04,0.07-0.01,0.02-0.01c-0.04-0.01-0.07-0.02-0.11-0.03c0.07,0.03,0.15,0.06,0.22,0.09c-0.17-0.08,0.1,0.07,0.12,0.11
			c-0.03-0.02-0.06-0.05-0.08-0.08c-0.08-0.08-0.04-0.03,0.12,0.16c0.07,0.25,0.14,0.5,0.2,0.76c0.02-0.49,0.06-0.97,0.11-1.46
			c0.01-0.08,0.06-0.26,0.04-0.33c-0.03,0.19-0.03,0.23-0.02,0.12c0.01-0.06,0.02-0.11,0.02-0.17c0.04-0.24,0.08-0.48,0.12-0.72
			c0.17-0.94,0.41-1.87,0.7-2.78c0.24-0.75-0.28-1.67-1.05-1.85C218.75,102.06,217.99,102.49,217.73,103.29L217.73,103.29z"/>
	</g>
</g>
<g>
	<g>
		<path class="st1" d="M182.25,213.45c11,7.81,21.57,16.21,31.7,25.12c0-0.71,0-1.41,0-2.12c-0.48,0.55-0.96,1.1-1.45,1.64
			c-1.27,1.44,0.84,3.57,2.12,2.12c0.48-0.55,0.96-1.1,1.45-1.64c0.51-0.58,0.64-1.56,0-2.12c-10.32-9.08-21.1-17.63-32.3-25.59
			C182.19,209.74,180.69,212.34,182.25,213.45L182.25,213.45z"/>
	</g>
</g>
<g>
	<g>
		<path class="st1" d="M147.18,212.54c7.15,3.76,14.05,7.96,20.89,12.25c4.68,2.93,9.27,6.14,14.18,8.67
			c1.71,0.88,3.23-1.7,1.51-2.59c-4.91-2.53-9.5-5.74-14.18-8.67c-6.84-4.28-13.74-8.48-20.89-12.25
			C146.99,209.05,145.47,211.64,147.18,212.54L147.18,212.54z"/>
	</g>
</g>
<g>
	<g>
		<path class="st1" d="M148.51,199.22c7.82,1.45,15.79,0.52,23.07-2.66c1.76-0.77,0.24-3.36-1.51-2.59
			c-6.48,2.83-13.81,3.65-20.76,2.36C147.42,195.97,146.62,198.86,148.51,199.22L148.51,199.22z"/>
	</g>
</g>
<g>
	<g>
		<path class="st1" d="M144.13,174.63c1.68,7.79,1.37,15.79,2.98,23.58c0.39,1.89,3.28,1.09,2.89-0.8
			c-0.8-3.89-1.11-7.79-1.35-11.75c-0.25-3.98-0.78-7.94-1.63-11.84C146.62,171.94,143.72,172.74,144.13,174.63L144.13,174.63z"/>
	</g>
</g>
<g>
	<g>
		<path class="st1" d="M146.21,174.55c8.21,0.33,16.42,0.54,24.63,0.64c-0.48-0.63-0.96-1.27-1.45-1.9
			c-1.18,7.11-0.33,14.27-0.29,21.43c0.01,1.93,3.01,1.93,3,0c-0.04-6.86-0.95-13.81,0.19-20.63c0.16-0.96-0.39-1.89-1.45-1.9
			c-8.21-0.1-16.42-0.31-24.63-0.64C144.28,171.47,144.28,174.47,146.21,174.55L146.21,174.55z"/>
	</g>
</g>
<g>
	<g>
		<path class="st1" d="M170.11,194.11c7.09,2.16,14.12,4.65,21.28,6.57c2.15,0.58,4.31,1.13,6.46,1.68c1.87,0.48,2.67-2.41,0.8-2.89
			c-5.61-1.45-11.1-3.08-16.62-4.82c-3.7-1.17-7.4-2.3-11.11-3.43C169.06,190.65,168.27,193.54,170.11,194.11L170.11,194.11z"/>
	</g>
</g>
<g>
	<g>
		<path class="st1" d="M141.46,150.35c3.44,2.29,6.11,5.58,7.81,9.34c0.82,1.81,1.38,3.77,1.69,5.73c0.16,1,0.23,2.02,0.24,3.03
			c0.01,0.52-0.01,1.03-0.04,1.55c-0.01,0.23-0.03,0.46-0.05,0.69c-0.02,0.17-0.03,0.34-0.05,0.51c-0.07,0.33,0.03,0.25,0.3-0.23
			c0.5,0,1.01,0,1.51,0c-0.04-0.02-0.08-0.05-0.12-0.07c0.25,0.43,0.5,0.86,0.74,1.3c-0.06,0.16-0.11,0.32-0.17,0.48
			c-0.56,0.23-1.13,0.46-1.69,0.69c0.04,0.01,0.07,0.02,0.11,0.02c1.88,0.44,2.68-2.46,0.8-2.89c-0.04-0.01-0.07-0.02-0.11-0.02
			c-0.6-0.14-1.41,0.08-1.69,0.69c-0.66,1.43,0.48,3.2,2.13,2.4c1.27-0.61,1.22-2.35,1.29-3.57c0.17-2.87-0.21-5.82-1.06-8.57
			c-1.72-5.57-5.28-10.44-10.13-13.68C141.36,146.68,139.86,149.28,141.46,150.35L141.46,150.35z"/>
	</g>
</g>
<g>
	<g>
		<path class="st1" d="M137.95,142.32c-1.75,0.71-3.21,2.06-3.75,3.91c-0.49,1.67-0.03,3.55,1.35,4.65
			c1.34,1.07,3.18,1.49,4.75,0.64c1.84-1.01,2.28-3.41,1.92-5.31c-0.21-1.1-0.9-2.2-1.93-2.7c-1.21-0.58-2.57-0.48-3.59,0.43
			c-0.59,0.52-0.57,1.59,0,2.12c0.63,0.58,1.49,0.56,2.12,0c0.23-0.2-0.3,0.2-0.04,0.04c0.15-0.09,0.05,0.08-0.14,0.05
			c0.04,0,0.15-0.03,0.19-0.05c0.17-0.07-0.4,0.01-0.12,0.03c0.03,0,0.13,0.02,0.16,0.01c-0.21,0.06-0.33-0.06-0.11-0.01
			c0.05,0.01,0.15,0.06,0.2,0.06c-0.21-0.1-0.27-0.12-0.16-0.07c0.04,0.02,0.08,0.04,0.11,0.06c0.05,0.03,0.25,0.19,0.06,0.02
			c-0.2-0.17,0.01,0.02,0.04,0.05c-0.01-0.01,0.13,0.14,0.13,0.14c-0.04-0.05-0.08-0.1-0.12-0.15c0.04,0.05,0.07,0.1,0.1,0.16
			c0.03,0.05,0.06,0.11,0.09,0.17c0.15,0.28-0.08-0.25-0.02-0.05c0.05,0.17,0.09,0.34,0.14,0.51c0.06,0.26-0.03-0.08-0.01-0.11
			c-0.02,0.05,0.02,0.23,0.02,0.29c0.01,0.14,0.01,0.29,0,0.43c0,0.08-0.01,0.16-0.01,0.24c-0.01,0.26,0-0.08,0.02-0.12
			c-0.08,0.14-0.07,0.4-0.12,0.56c-0.02,0.06-0.04,0.12-0.06,0.18c-0.09,0.3,0.12-0.24,0.03-0.06c-0.07,0.12-0.14,0.24-0.21,0.36
			c-0.16,0.27,0.24-0.23,0-0.01c-0.04,0.04-0.08,0.08-0.12,0.12c-0.18,0.19,0.27-0.17,0.11-0.08c-0.07,0.04-0.13,0.09-0.2,0.13
			c-0.04,0.02-0.08,0.04-0.12,0.06c0.32-0.21,0.28-0.1,0.14-0.07c-0.1,0.03-0.19,0.05-0.29,0.07c-0.26,0.06,0.35-0.02,0.16-0.02
			c-0.06,0-0.11,0.01-0.17,0.01c-0.09,0-0.52-0.04-0.21,0c0.31,0.04-0.06-0.02-0.14-0.04c-0.11-0.03-0.22-0.08-0.34-0.11
			c0.38,0.1,0.25,0.12,0.13,0.05c-0.05-0.03-0.11-0.05-0.16-0.08c-0.11-0.06-0.2-0.12-0.3-0.19c-0.24-0.15,0.28,0.25,0.08,0.06
			c-0.04-0.03-0.07-0.06-0.11-0.09c-0.09-0.08-0.17-0.17-0.25-0.26c-0.15-0.16,0.1,0.13,0.1,0.14c-0.03-0.06-0.08-0.12-0.12-0.18
			c-0.06-0.1-0.11-0.21-0.17-0.31c0.23,0.4,0.05,0.12,0.01-0.04c-0.01-0.05-0.02-0.1-0.03-0.16c-0.07-0.31,0.01,0.37,0.01,0.05
			c0-0.13-0.01-0.26,0-0.39c0-0.07,0.02-0.14,0.02-0.21c0.02,0.36-0.03,0.23,0,0.06c0.04-0.17,0.09-0.33,0.15-0.5
			c0.03-0.11,0.13-0.19-0.05,0.12c0.04-0.07,0.07-0.16,0.12-0.23c0.08-0.16,0.17-0.31,0.27-0.45c0.03-0.05,0.07-0.09,0.1-0.14
			c-0.23,0.35-0.08,0.11-0.01,0.03c0.12-0.13,0.24-0.26,0.38-0.38c0.04-0.04,0.09-0.08,0.13-0.12c0.22-0.2-0.25,0.17-0.02,0.01
			c0.15-0.1,0.29-0.2,0.45-0.29c0.12-0.07,0.65-0.3,0.2-0.12c0.38-0.15,0.68-0.33,0.9-0.69c0.19-0.32,0.27-0.8,0.15-1.16
			C139.57,142.67,138.73,142.01,137.95,142.32L137.95,142.32z"/>
	</g>
</g>
<g>
	<g>
		<path class="st1" d="M138.22,144.3c-0.04-1.12,0.05-3.73,1.73-3.73c1.17,0,1.15,1.42,0.3,1.88c-1.14,0.61-0.87,2.43,0.36,2.74
			c0.95,0.24,1.9,0.22,2.86,0.29c0.35,0.03,1.29,0.1,1.4,0.56c0.08,0.31-0.41,0.68-0.62,0.8c-0.69,0.38-1.6,0.34-2.36,0.36
			c-0.94,0.02-1.74,0.94-1.45,1.9c0.58,1.86,0.22,4.37-1.97,4.92c-0.77,0.2-1.59,0.05-2.08-0.61c-0.4-0.53-0.51-1.23-0.17-1.8
			c0.7-1.21-0.8-2.99-2.05-2.05c-0.6,0.45-3.29,2.42-3.54,0.71c-0.23-1.53,1.81-1.9,2.91-1.72c0.8,0.13,1.62-0.21,1.85-1.05
			c0.2-0.73-0.25-1.7-1.05-1.85c-0.84-0.15-1.83-0.35-2.45-0.98c-0.31-0.32-0.68-1.03-0.31-1.45c0.4-0.45,1.26-0.02,1.62,0.28
			c0.76,0.64,1.18,1.67,1.59,2.56c0.34,0.73,1.4,0.92,2.05,0.54c0.75-0.44,0.88-1.31,0.54-2.05c-0.72-1.55-1.62-3.21-3.23-3.99
			c-1.55-0.74-3.55-0.7-4.77,0.64c-1.18,1.3-1.16,3.3-0.27,4.75c0.95,1.54,2.73,2.28,4.44,2.59c0.27-0.96,0.53-1.93,0.8-2.89
			c-1.67-0.28-3.44-0.15-4.85,0.88c-1.37,1-2.06,2.65-1.78,4.33c0.27,1.61,1.56,2.83,3.18,3.03c1.76,0.22,3.44-0.73,4.8-1.75
			c-0.68-0.68-1.37-1.37-2.05-2.05c-1.95,3.36,1.1,7.41,4.81,6.97c4.24-0.51,6.07-4.99,4.9-8.76c-0.48,0.63-0.96,1.27-1.45,1.9
			c1.39-0.03,2.86-0.12,4.07-0.89c1.13-0.71,1.96-2.03,1.9-3.39c-0.07-1.47-1.12-2.55-2.44-3.06c-1.3-0.5-2.69-0.22-4.01-0.56
			c0.12,0.91,0.24,1.83,0.36,2.74c3.11-1.66,2.64-6.46-0.84-7.33c-1.58-0.4-3.23,0.27-4.26,1.49c-1.21,1.43-1.49,3.29-1.43,5.11
			C135.29,146.22,138.29,146.23,138.22,144.3L138.22,144.3z"/>
	</g>
</g>
<g>
	<g>
		<path class="st1" d="M151.12,156.49c-0.08-0.31-0.15-0.63-0.2-0.95c-0.02-0.09-0.03-0.18-0.04-0.27c0.02,0.15,0.02,0.17,0.01,0.06
			c-0.01-0.16-0.03-0.32-0.05-0.48c-0.05-0.62-0.05-1.24,0-1.86c0.01-0.16,0.03-0.32,0.05-0.48c-0.03,0.33,0.02-0.11,0.02-0.15
			c0.05-0.32,0.12-0.63,0.19-0.95c0.08-0.31,0.17-0.62,0.27-0.93c0.04-0.13,0.09-0.26,0.14-0.39c0.02-0.05,0.23-0.56,0.11-0.28
			c0.31-0.72,0.24-1.64-0.54-2.05c-0.65-0.34-1.72-0.23-2.05,0.54c-1.24,2.85-1.56,5.96-0.8,8.99c0.19,0.76,1.09,1.29,1.85,1.05
			C150.87,158.08,151.33,157.3,151.12,156.49L151.12,156.49z"/>
	</g>
</g>
<g>
	<g>
		<path class="st1" d="M153.82,170.56c0.61-2.28-0.08-4.9-1.84-6.5c-1.77-1.6-4.47-2.19-6.71-1.29c-0.38,0.15-0.68,0.33-0.9,0.69
			c-0.19,0.32-0.27,0.8-0.15,1.16c0.23,0.7,1.07,1.36,1.85,1.05c0.22-0.09,0.44-0.16,0.67-0.22c0.1-0.02,0.2-0.04,0.3-0.06
			c0.34-0.08-0.34,0.02,0,0c0.22-0.02,0.44-0.03,0.66-0.02c0.12,0,0.24,0.01,0.35,0.02c0.3,0.02-0.32-0.06,0,0
			c0.2,0.04,0.4,0.08,0.59,0.14c0.11,0.03,0.22,0.08,0.34,0.11c0.11,0.04,0.06,0.02-0.12-0.06c0.06,0.03,0.12,0.05,0.18,0.08
			c0.18,0.09,0.36,0.19,0.53,0.3c0.05,0.03,0.22,0.11,0.25,0.17c-0.17-0.13-0.19-0.15-0.07-0.05c0.04,0.03,0.08,0.07,0.11,0.1
			c0.16,0.15,0.3,0.3,0.45,0.47c0.2,0.22-0.17-0.25,0.01,0.01c0.06,0.08,0.11,0.16,0.16,0.25c0.11,0.18,0.21,0.38,0.3,0.57
			c0.05,0.1,0.03,0.06-0.05-0.13c0.02,0.06,0.05,0.12,0.07,0.19c0.03,0.09,0.06,0.19,0.09,0.28c0.06,0.19,0.09,0.39,0.14,0.58
			c0.06,0.3-0.03-0.35,0,0.04c0.01,0.12,0.02,0.23,0.02,0.35c0,0.19-0.04,0.4-0.03,0.59c0.03-0.23,0.04-0.27,0.01-0.1
			c-0.01,0.03-0.01,0.07-0.02,0.1c-0.02,0.13-0.06,0.26-0.09,0.39c-0.2,0.76,0.25,1.66,1.05,1.85
			C152.76,171.78,153.6,171.37,153.82,170.56L153.82,170.56z"/>
	</g>
</g>
</svg>
