<?xml version="1.0" encoding="utf-8"?>
<!-- Generator: Adobe Illustrator 27.9.0, SVG Export Plug-In . SVG Version: 6.00 Build 0)  -->
<svg version="1.1" id="Laag_1" xmlns="http://www.w3.org/2000/svg" xmlns:xlink="http://www.w3.org/1999/xlink" x="0px" y="0px"
	 viewBox="0 0 250.28 355.89" style="enable-background:new 0 0 250.28 355.89;" xml:space="preserve">
<style type="text/css">
	.st0{fill:none;stroke:#020203;stroke-miterlimit:10;}
	.st1{fill:#020203;}
</style>
<line class="st0" x1="203.17" y1="240.25" x2="203.17" y2="471.25"/>
<line class="st0" x1="203.25" y1="239.75" x2="-72.75" y2="239.75"/>
<line class="st0" x1="204.75" y1="390.56" x2="-72.75" y2="390.56"/>
<line class="st0" x1="175.72" y1="389.07" x2="175.72" y2="439.75"/>
<g>
	<g>
		<path class="st1" d="M85.53,91.06c8.1,3.17,16.77,4.7,25.46,4.53c1.93-0.04,1.93-3.04,0-3c-8.45,0.16-16.79-1.34-24.66-4.42
			C84.53,87.46,83.75,90.36,85.53,91.06L85.53,91.06z"/>
	</g>
</g>
<g>
	<g>
		<path class="st1" d="M112.13,109.46c-12.53,2.2-25.06,4.4-37.58,6.59c-1.9,0.33-1.09,3.22,0.8,2.89
			c12.53-2.2,25.06-4.4,37.58-6.59C114.82,112.02,114.02,109.13,112.13,109.46L112.13,109.46z"/>
	</g>
</g>
<g>
	<g>
		<path class="st1" d="M111.75,127.15c-5.74,3.21-11.17,6.95-16.24,11.14c-0.63,0.52-0.53,1.59,0,2.12c0.62,0.62,1.49,0.52,2.12,0
			c4.88-4.02,10.12-7.58,15.64-10.67C114.95,128.8,113.44,126.21,111.75,127.15L111.75,127.15z"/>
	</g>
</g>
<g>
	<g>
		<path class="st1" d="M148.96,126.23c-1.21,1.82-2.8,3.34-4.29,4.94c-0.7,0.75-1.39,1.52-2.01,2.35c-0.72,0.95-1.05,1.99-1.47,3.1
			c-1.87,4.98-3.74,9.96-5.61,14.94c-3.74,9.96-7.48,19.93-11.22,29.89c-7.48,19.93-14.96,39.85-22.44,59.78
			c-4.21,11.21-8.41,22.42-12.62,33.63c-0.68,1.81,2.22,2.59,2.89,0.8c7.42-19.77,14.84-39.54,22.26-59.31
			c7.45-19.85,14.9-39.7,22.35-59.55c2.07-5.53,4.15-11.05,6.22-16.58c0.52-1.38,0.94-2.88,1.58-4.2c0.5-1.03,1.41-1.89,2.18-2.72
			c1.67-1.78,3.4-3.5,4.76-5.54C152.62,126.13,150.03,124.63,148.96,126.23L148.96,126.23z"/>
	</g>
</g>
<g>
	<g>
		<path class="st1" d="M128.04,266.93c-11.02,2.28-22.03,4.56-33.05,6.84c-2.69,0.56-5.39,1.11-8.08,1.67
			c-1.31,0.27-2.61,0.54-3.92,0.81c-1.33,0.28-2.82,0.41-4.08,0.95c-1.91,0.82-2.31,2.9-0.81,4.35c1.64,1.6,4.16,1.86,6.28,2.31
			c5.27,1.13,10.55,2.26,15.82,3.39c5.28,1.13,10.61,2.47,16.04,2.62c5.25,0.14,10.47-0.91,15.53-2.19
			c5.3-1.34,10.57-2.81,15.84-4.23c12.16-3.26,24.31-6.52,36.47-9.78c1.86-0.5,1.07-3.39-0.8-2.89c-10.08,2.7-20.15,5.41-30.23,8.11
			c-4.96,1.33-9.92,2.66-14.88,3.99c-4.74,1.27-9.48,2.66-14.34,3.45c-10.17,1.66-20.16-1.38-30.04-3.5
			c-2.48-0.53-4.95-1.06-7.43-1.59c-1.2-0.26-2.4-0.51-3.6-0.77c-0.5-0.11-1.01-0.21-1.49-0.4c-0.3-0.12-0.8-0.6-1.07-0.62
			c-0.04-0.03-0.08-0.07-0.12-0.1c-0.01,0.21-0.02,0.41-0.04,0.62c0.01,0.01,0.84-0.21,0.78-0.2c0.57-0.13,1.14-0.24,1.71-0.35
			c1.39-0.29,2.77-0.57,4.16-0.86c2.53-0.52,5.06-1.05,7.59-1.57c11.51-2.38,23.01-4.76,34.52-7.14
			C130.73,269.43,129.93,266.54,128.04,266.93L128.04,266.93z"/>
	</g>
</g>
<g>
	<g>
		<path class="st1" d="M96.2,276.54c14.17,2.22,28.28,4.79,42.31,7.72c1.88,0.39,2.69-2.5,0.8-2.89
			c-14.04-2.93-28.15-5.51-42.31-7.72C95.11,273.35,94.3,276.24,96.2,276.54L96.2,276.54z"/>
	</g>
</g>
<g>
	<g>
		<path class="st1" d="M153.78,129.08c-1.62,5.01-1.65,10.39-2.44,15.56c-0.89,5.83-1.34,11.74-1.93,17.61
			c-1.18,11.72-2.33,23.45-3.47,35.18c-1.91,19.63-3.57,39.3-5.72,58.91c-1.21,10.99-2.54,21.96-3.98,32.91
			c-0.11,0.81,0.77,1.49,1.5,1.5c0.9,0.01,1.39-0.7,1.5-1.5c2.57-19.56,4.76-39.16,6.59-58.81c1.96-21.02,3.97-42.03,6.07-63.03
			c0.66-6.57,1.23-13.16,1.99-19.73c0.36-3.14,0.86-6.26,1.22-9.4c0.32-2.84,0.68-5.68,1.56-8.41
			C157.27,128.03,154.38,127.24,153.78,129.08L153.78,129.08z"/>
	</g>
</g>
<g>
	<g>
		<path class="st1" d="M129.76,268.83c11.77,3.21,23.53,6.42,35.3,9.63c1.87,0.51,2.66-2.38,0.8-2.89
			c-11.77-3.21-23.53-6.42-35.3-9.63C128.69,265.43,127.89,268.33,129.76,268.83L129.76,268.83z"/>
	</g>
</g>
<g>
	<g>
		<path class="st1" d="M129.23,269.3c9.97-2.05,19.83-4.63,29.52-7.76c1.83-0.59,1.05-3.49-0.8-2.89
			c-9.69,3.13-19.55,5.71-29.52,7.76C126.54,266.8,127.34,269.69,129.23,269.3L129.23,269.3z"/>
	</g>
</g>
<g>
	<g>
		<path class="st1" d="M130.01,262.9c-12.6,3.4-25.21,6.8-37.81,10.2c-3.13,0.84-6.26,1.69-9.39,2.53
			c-1.45,0.39-2.89,0.78-4.34,1.17c-1.51,0.41-3.21,0.67-4.63,1.36c-2.22,1.08-2.4,3.6-0.87,5.35c1.8,2.06,4.6,2.54,7.11,3.24
			c6.19,1.73,12.38,3.46,18.58,5.19c5.96,1.67,12.01,3.63,18.26,3.75c6.05,0.12,11.98-1.5,17.68-3.4c6.05-2.02,12.06-4.19,18.08-6.3
			c13.79-4.82,27.58-9.64,41.37-14.47c1.81-0.63,1.03-3.53-0.8-2.89c-11.6,4.05-23.19,8.11-34.79,12.16c-5.72,2-11.44,4-17.16,6
			c-5.43,1.9-10.85,3.97-16.5,5.12c-5.89,1.2-11.57,0.77-17.38-0.68c-5.87-1.47-11.67-3.22-17.49-4.84c-2.86-0.8-5.72-1.6-8.57-2.4
			c-1.36-0.38-2.79-0.68-4.12-1.16c-0.53-0.19-2.28-0.97-2.29-1.7c-0.01-0.54,1.9-0.79,2.39-0.92c1.61-0.43,3.21-0.87,4.82-1.3
			c2.89-0.78,5.78-1.56,8.67-2.34c13.33-3.59,26.65-7.19,39.98-10.78C132.67,265.29,131.88,262.39,130.01,262.9L130.01,262.9z"/>
	</g>
</g>
<g>
	<g>
		<path class="st1" d="M154.88,120.9c-1.09,0.63-1.62,1.95-1.3,3.16c0.19,0.72,0.92,1.17,1.65,1.07c0.74-0.1,1.29-0.72,1.3-1.47
			c0.01-0.84,0.02-1.68,0.03-2.52c0.01-0.75-0.58-1.38-1.3-1.47c-0.72-0.1-1.47,0.35-1.65,1.07c-0.35,1.43-0.15,2.98,0.62,4.25
			c0.2,0.33,0.53,0.59,0.9,0.69c0.36,0.1,0.84,0.05,1.16-0.15c0.32-0.21,0.6-0.51,0.69-0.9c0.09-0.39,0.06-0.81-0.15-1.16
			c-0.1-0.16-0.19-0.33-0.26-0.51c0.05,0.12,0.1,0.24,0.15,0.36c-0.14-0.34-0.24-0.68-0.29-1.04c0.02,0.13,0.04,0.27,0.05,0.4
			c-0.05-0.36-0.05-0.72-0.01-1.08c-0.02,0.13-0.04,0.27-0.05,0.4c0.02-0.15,0.05-0.31,0.09-0.46c-0.98-0.13-1.96-0.27-2.95-0.4
			c-0.01,0.84-0.02,1.68-0.03,2.52c0.98-0.13,1.96-0.27,2.95-0.4c-0.01-0.06-0.03-0.11-0.03-0.17c0.02,0.13,0.04,0.27,0.05,0.4
			c-0.01-0.11-0.01-0.23,0-0.34c-0.02,0.13-0.04,0.27-0.05,0.4c0.02-0.11,0.05-0.22,0.09-0.33c-0.05,0.12-0.1,0.24-0.15,0.36
			c0.05-0.11,0.1-0.2,0.17-0.3c-0.08,0.1-0.16,0.2-0.23,0.3c0.07-0.09,0.15-0.17,0.24-0.24c-0.1,0.08-0.2,0.16-0.3,0.23
			c0.05-0.03,0.09-0.06,0.14-0.09c0.33-0.19,0.59-0.54,0.69-0.9c0.1-0.36,0.05-0.84-0.15-1.16c-0.21-0.32-0.51-0.6-0.9-0.69
			C155.64,120.66,155.24,120.7,154.88,120.9L154.88,120.9z"/>
	</g>
</g>
<g>
	<g>
		<path class="st1" d="M133.47,80.29c-5.26,4.97-5.6,13.43-5.3,20.2c0.32,7.23,2.74,14.77,9.72,18.12
			c7.68,3.68,16.19,1.48,23.72-1.42c4.18-1.6,8.28-3.4,12.29-5.39c3.8-1.89,7.65-3.85,11-6.48c5.92-4.64,9.86-12.84,5.33-19.81
			c-4.07-6.26-12.09-9.03-19-10.68c-8.36-1.99-17.04-2.28-25.6-1.97c-4.4,0.16-8.82,0.39-13.21,0.79c-1.73,0.16-3.32,0.78-3.61,2.69
			c-0.24,1.57,0.48,3.12,1.59,4.2c2.29,2.21,5.71,2.66,8.39,4.24c2.83,1.67,5.14,4.11,6.79,6.94c3.69,6.37,3.37,13.76-0.47,19.98
			c-1.03,1.68-2.26,3.2-3.62,4.62c-1.33,1.4,0.79,3.52,2.12,2.12c4.74-4.99,8.16-11.57,7.58-18.61c-0.5-6.09-3.53-11.99-8.31-15.84
			c-2.42-1.95-5.06-2.93-7.88-4.13c-1.09-0.46-2.56-1.09-3.08-2.23c-0.26-0.58-0.29-0.88,0.36-0.98c1.01-0.16,2.07-0.15,3.09-0.22
			c7.95-0.56,15.94-0.99,23.9-0.39c7.44,0.56,15.38,1.97,22,5.57c2.7,1.47,5.29,3.42,6.8,6.16c1.72,3.11,1.35,6.76-0.31,9.82
			c-1.77,3.27-4.73,5.63-7.85,7.54c-3.44,2.11-7.09,3.92-10.75,5.62c-3.72,1.73-7.52,3.32-11.4,4.66c-3.76,1.3-7.69,2.31-11.69,2.16
			c-3.37-0.13-6.87-1.12-9.49-3.31c-2.54-2.13-3.98-5.15-4.73-8.33c-0.75-3.21-0.82-6.55-0.7-9.83c0.13-3.3,0.4-6.74,1.72-9.81
			c0.63-1.48,1.53-2.78,2.7-3.89C137,81.08,134.88,78.96,133.47,80.29L133.47,80.29z"/>
	</g>
</g>
<g>
	<g>
		<path class="st1" d="M143.47,76.68c5.48,4.98,9.17,11.7,10.36,19.02c1.24,7.69-0.56,15.71-4.67,22.28
			c-1.03,1.64,1.57,3.15,2.59,1.51c4.5-7.18,6.3-15.83,5.04-24.2c-1.19-7.93-5.27-15.36-11.19-20.74
			C144.16,73.27,142.03,75.38,143.47,76.68L143.47,76.68z"/>
	</g>
</g>
<g>
	<g>
		<path class="st1" d="M149.53,119.26c-0.59,2.18-0.81,4.54-0.16,6.73c0.52,1.74,1.57,3.51,3.24,4.36c1.91,0.96,4.07,0.59,5.67-0.78
			c1.43-1.22,2.28-3.14,2.54-4.98c0.4-2.74-0.41-5.56,0.2-8.27c0.43-1.88-2.47-2.68-2.89-0.8c-0.48,2.1-0.26,4.2-0.19,6.33
			c0.06,1.64-0.02,3.09-0.85,4.5c-0.3,0.5-0.73,1-1.17,1.26c-0.33,0.19-0.39,0.23-0.8,0.3c0.15-0.02-0.23,0.01-0.28,0.01
			c-0.08,0-0.17,0-0.25-0.01c-0.26-0.03,0.17,0.04-0.08-0.02c-0.38-0.09-0.32-0.07-0.66-0.27c-0.21-0.12-0.35-0.25-0.61-0.53
			c-0.28-0.3-0.69-1.02-0.84-1.46c-0.63-1.79-0.5-3.64,0.02-5.55C152.92,118.19,150.03,117.39,149.53,119.26L149.53,119.26z"/>
	</g>
</g>
</svg>
