<?xml version="1.0" encoding="utf-8"?>
<!-- Generator: Adobe Illustrator 27.9.0, SVG Export Plug-In . SVG Version: 6.00 Build 0)  -->
<svg version="1.1" id="Laag_1" xmlns="http://www.w3.org/2000/svg" xmlns:xlink="http://www.w3.org/1999/xlink" x="0px" y="0px"
	 viewBox="0 0 80 92" style="enable-background:new 0 0 80 92;" xml:space="preserve">
<g>
	<g>
		<path d="M11.4,57.31c12.27-4.53,22.82-13.09,29.59-24.3c0.28-0.47-1.03-0.33-1.17-0.31c-0.54,0.09-1.39,0.29-1.69,0.81
			c-6.35,10.52-16.2,18.84-27.74,23.1c-0.31,0.11-1.14,0.42-0.86,0.85C9.78,57.84,11.12,57.41,11.4,57.31L11.4,57.31z"/>
	</g>
</g>
<g>
	<g>
		<path d="M21.14,16.19c3.61-1.08,7.29-1.86,11.03-2.31c1.43-0.17,3.13-0.53,4.53-0.02c1.54,0.56,1.76,2.13,1,3.44
			c-0.87,1.51-2.36,2.73-3.55,3.98c-1.28,1.34-2.58,2.66-3.83,4.02c-1.69,1.83-3.62,5.33-0.89,7.24c0.51,0.36,1.36,0.13,1.89-0.08
			c0.2-0.08,1.31-0.64,0.82-0.98c-2.52-1.76-0.47-4.89,1.05-6.5c2.12-2.26,4.4-4.4,6.42-6.75c0.77-0.9,1.51-1.98,1.46-3.21
			c-0.04-1.11-0.82-1.92-1.8-2.33c-2.31-0.99-5.34-0.32-7.71,0c-3.63,0.49-7.22,1.28-10.73,2.33c-0.34,0.1-1.44,0.43-1.29,0.96
			C19.68,16.51,20.85,16.27,21.14,16.19L21.14,16.19z"/>
	</g>
</g>
<g>
	<g>
		<path d="M38,21.52c1.64,4.29,3.27,8.58,4.91,12.87c0.75,1.97,1.54,3.98,1.35,6.12c-0.17,1.95-0.96,3.71-2.35,5.09
			c-0.49,0.49-0.22,1.12,0.36,1.34c0.69,0.26,1.55-0.05,2.05-0.55c3.16-3.14,3.42-7.48,1.98-11.49c-1.71-4.75-3.6-9.45-5.4-14.17
			C40.41,19.48,37.53,20.3,38,21.52L38,21.52z"/>
	</g>
</g>
<g>
	<g>
		<path d="M48.95,46.78c8.52,1.57,15.93,9.09,17.03,17.76c0.88,6.95-3.17,13.78-9.03,16.92c-6.54,3.5-14.71,1.98-19.81-3.27
			c-4.2-4.32-5.78-10.24-4.42-16.05c1.06-4.51,3.93-8.56,8.26-10.45c2.91-1.27,6.32-1.43,9.39-0.69c0.81,0.2,3.38-1.06,1.81-1.43
			c-7.82-1.89-16.9,1.53-20.75,8.73c-3.24,6.05-2.73,13.52,1.35,19.02c4.84,6.53,13.23,8.8,20.98,6.76
			c7.27-1.91,13.77-7.73,15.03-15.37c1.82-11.09-7.52-21.44-18.03-23.37c-0.63-0.12-1.57,0.1-2.05,0.55
			C48.29,46.29,48.34,46.66,48.95,46.78L48.95,46.78z"/>
	</g>
</g>
<g>
	<g>
		<path d="M47.79,65.73c0,0.06,0,0.11,0,0.17c0.03,0.07,0.09,0.12,0.17,0.13c0.11,0.04,0.22,0.06,0.34,0.05
			c0.16,0,0.33-0.01,0.49-0.04c0.19-0.02,0.38-0.06,0.57-0.11c0.13-0.04,0.25-0.08,0.38-0.12c0.21-0.07,0.42-0.17,0.61-0.28
			c0.07-0.05,0.14-0.1,0.2-0.15c0.1-0.06,0.14-0.15,0.14-0.26c0-0.06,0-0.11,0-0.17c-0.03-0.07-0.09-0.12-0.17-0.13
			c-0.11-0.04-0.22-0.06-0.34-0.05c-0.16,0-0.33,0.01-0.49,0.04c-0.19,0.02-0.38,0.06-0.57,0.11C49,64.96,48.87,65,48.74,65.04
			c-0.21,0.07-0.42,0.17-0.61,0.28c-0.07,0.05-0.14,0.1-0.2,0.15C47.83,65.53,47.79,65.62,47.79,65.73L47.79,65.73z"/>
	</g>
</g>
<g>
	<g>
		<path d="M44.39,63.42c-2.97,0.14-5.95-1.13-7.98-3.29c-0.38-0.4-1.01-0.39-1.48-0.16c-0.34,0.16-0.89,0.71-0.51,1.12
			c2.52,2.69,6.11,4.09,9.78,3.92c0.47-0.02,1.14-0.35,1.2-0.88C45.46,63.58,44.82,63.4,44.39,63.42L44.39,63.42z"/>
	</g>
</g>
<g>
	<g>
		<path d="M46.32,69.93c-0.57,1.38-1.46,2.65-2.56,3.67c-0.58,0.54-1.06,0.9-1.74,1.31c-0.17,0.1-0.33,0.19-0.5,0.28
			c-0.19,0.1,0.09-0.04-0.13,0.07c-0.08,0.04-0.16,0.08-0.24,0.11c-0.18,0.08-0.35,0.15-0.53,0.23c-0.1,0.04-0.2,0.07-0.3,0.11
			c-0.23,0.09,0.14-0.05-0.12,0.04c-0.31,0.1-1.06,0.38-0.94,0.84c0.12,0.44,0.94,0.35,1.23,0.25c3.57-1.14,6.55-3.69,7.99-7.17
			c0.19-0.46-0.71-0.5-0.94-0.47C47.08,69.26,46.52,69.45,46.32,69.93L46.32,69.93z"/>
	</g>
</g>
<g>
	<g>
		<path d="M62.8,70.43c-3.11,0.14-6.23-1.31-8.33-3.56c-0.09-0.1-0.46-0.06-0.55-0.05c-0.28,0.03-0.58,0.1-0.85,0.19
			c-0.17,0.06-0.9,0.32-0.66,0.58c2.43,2.6,5.91,3.82,9.43,3.66c0.44-0.02,1.14-0.18,1.46-0.51C63.63,70.4,63,70.42,62.8,70.43
			L62.8,70.43z"/>
	</g>
</g>
<g>
	<g>
		<path d="M54.38,52.81c0.31,3.21-0.84,6.46-3.08,8.78c-0.36,0.37,0.31,0.51,0.55,0.5c0.5-0.01,1.09-0.19,1.44-0.56
			c2.38-2.46,3.58-5.9,3.26-9.31C56.49,51.66,54.31,52.1,54.38,52.81L54.38,52.81z"/>
	</g>
</g>
<g>
	<g>
		<path d="M48.29,61.31c-1.07-2.14-1.5-4.66-0.88-6.99c0.16-0.58-1.31-0.38-1.46,0.16c-0.64,2.39-0.21,5.03,0.88,7.22
			c0.15,0.3,0.55,0.29,0.83,0.21C47.85,61.86,48.43,61.6,48.29,61.31L48.29,61.31z"/>
	</g>
</g>
<g>
	<g>
		<path d="M59.87,60.45c-1.52,1.56-3.55,2.72-5.74,2.89c-0.29,0.02-0.76,0.2-0.81,0.53c-0.05,0.35,0.41,0.4,0.65,0.39
			c2.68-0.2,5.23-1.58,7.09-3.49c0.22-0.23,0.14-0.51-0.16-0.6C60.57,60.08,60.12,60.2,59.87,60.45L59.87,60.45z"/>
	</g>
</g>
<g>
	<g>
		<path d="M56.23,76.63c-2.14-1.59-3.83-3.93-4.35-6.58c-0.05-0.25-1.51,0.08-1.45,0.39c0.53,2.68,2.26,5.05,4.43,6.67
			c0.21,0.15,0.72-0.03,0.93-0.11C55.86,76.97,56.41,76.76,56.23,76.63L56.23,76.63z"/>
	</g>
</g>
<g>
	<g>
		<path d="M43.05,68.3c-1.74,1.15-3.84,1.75-5.92,1.46c-0.33-0.05-0.76,0.08-1.02,0.27c-0.23,0.17-0.19,0.33,0.1,0.37
			c2.76,0.39,5.68-0.49,7.97-2.01c0.24-0.16,0.16-0.34-0.1-0.37C43.74,67.98,43.33,68.12,43.05,68.3L43.05,68.3z"/>
	</g>
</g>
<g>
	<g>
		<path d="M44.34,57.1c0.71-0.72,1.44-1.44,2.14-2.17c0.62-0.65,1.31-1.32,1.65-2.17c-0.48,0.09-0.95,0.18-1.43,0.26
			c-0.49,1.68,0.01,3.53,1.29,4.73c0.07,0.06,0.3,0.04,0.37,0.03c0.19-0.02,0.39-0.07,0.56-0.13c0.1-0.04,0.61-0.22,0.44-0.39
			c-1.2-1.12-1.69-2.93-1.23-4.51c0.07-0.24-0.47-0.14-0.57-0.12c-0.19,0.03-0.38,0.09-0.55,0.17c-0.09,0.04-0.26,0.11-0.3,0.21
			c-0.33,0.82-0.99,1.47-1.6,2.1c-0.68,0.71-1.38,1.4-2.07,2.1c-0.22,0.22,0.2,0.23,0.34,0.21C43.66,57.41,44.12,57.33,44.34,57.1
			L44.34,57.1z"/>
	</g>
</g>
<g>
	<g>
		<path d="M59.5,68.75c0.69,0.56,1.37,1.14,2.07,1.69c0.66,0.53,1.34,1.08,2.17,1.33c0.23-0.32,0.46-0.64,0.69-0.95
			c-1.75-0.34-3.76,0.4-4.85,1.81c-0.2,0.25-0.15,0.54,0.17,0.65c0.31,0.1,0.81,0,1.02-0.27c0.11-0.14,0.22-0.27,0.35-0.4
			c0.14-0.14,0.14-0.14,0.32-0.27c0.07-0.05,0.14-0.1,0.22-0.15c0.04-0.02,0.07-0.05,0.11-0.07c-0.07,0.04-0.06,0.04,0.01,0
			c0.15-0.07,0.3-0.14,0.45-0.21c0.05-0.02,0.04-0.02-0.03,0.01c0.04-0.01,0.08-0.03,0.13-0.04c0.08-0.03,0.17-0.05,0.25-0.07
			c0.03-0.01,0.3-0.05,0.13-0.03c0.09-0.01,0.17-0.02,0.26-0.03c0.09-0.01,0.18-0.01,0.26-0.02c-0.15,0,0.12,0,0.14,0.01
			c0.18,0.01,0.35,0.03,0.52,0.07c0.3,0.06,0.73-0.11,0.9-0.37c0.16-0.24,0.07-0.5-0.22-0.59c-0.74-0.22-1.37-0.78-1.96-1.26
			c-0.67-0.54-1.34-1.09-2-1.64C60.17,67.58,58.88,68.24,59.5,68.75L59.5,68.75z"/>
	</g>
</g>
</svg>
