<?xml version="1.0" encoding="utf-8"?>
<!-- Generator: Adobe Illustrator 27.9.0, SVG Export Plug-In . SVG Version: 6.00 Build 0)  -->
<svg version="1.1" xmlns="http://www.w3.org/2000/svg" xmlns:xlink="http://www.w3.org/1999/xlink" x="0px" y="0px"
	 viewBox="0 0 686 186" style="enable-background:new 0 0 686 186;" xml:space="preserve">
<style type="text/css">
	.st0{fill:#FACCB4;}
	.st1{fill:none;}
	.st2{fill:#979233;}
	.st3{font-family:'Stencil';}
	.st4{font-size:18px;}
</style>
<g id="Laag_1">
	<rect x="0.5" y="0.5" class="st0" width="686" height="186"/>
</g>
<g id="Laag_2">
	<g>
		<g>
			<path d="M27.86,75.34c12.53-5.07,24.82-11.84,34.32-21.61c3.74-3.85,7.07-8.22,9.37-13.09c1.02-2.16,1.98-4.59,1.02-6.96
				c-1.13-2.78-4.29-3.82-7.04-4.1c-3.04-0.31-6.28,0.25-9.05,1.52c-2.85,1.31-4.74,3.72-5.72,6.65
				c-2.37,7.11-3.18,14.93-3.52,22.38c-0.7,15.39,1.42,30.7,1.81,46.06c0.19,7.63-0.03,15.31-1.29,22.86
				c-0.64,3.83-1.53,7.62-2.71,11.31c-0.81,2.54-1.68,5.14-3.61,7.08c-1.14,1.14-2.54,1.96-4.03,2.56c0.63,0.48,1.27,0.96,1.9,1.45
				c-1.32-21.75,9.17-41.8,23.68-57.34c4.91-5.25,10.27-10.06,15.92-14.49c1.52-1.19-0.62-3.3-2.12-2.12
				c-18.19,14.29-34.48,33.46-39.23,56.67c-1.16,5.68-1.6,11.5-1.25,17.28c0.05,0.87,0.93,1.83,1.9,1.45
				c2.82-1.12,5.24-2.77,6.96-5.3c1.53-2.24,2.34-4.96,3.11-7.53c2.14-7.06,3.22-14.41,3.63-21.76c0.81-14.7-1.07-29.35-1.64-44.02
				c-0.29-7.33-0.25-14.68,0.6-21.97c0.42-3.62,1.07-7.21,1.96-10.75c0.73-2.91,1.48-5.74,4.22-7.37c2.44-1.45,5.7-1.93,8.48-1.6
				c2.12,0.25,4.76,1.18,4.42,3.74c-0.29,2.22-1.77,4.48-2.9,6.35c-1.29,2.15-2.77,4.18-4.4,6.09
				C53.34,59.7,40.23,67.12,27.06,72.44C25.29,73.16,26.07,76.06,27.86,75.34L27.86,75.34z"/>
		</g>
	</g>
	<g>
		<g>
			<path d="M93.85,49.24c-1.73,3.55-3.06,7.26-3.89,11.13c-0.82,3.83-1.25,7.74-1.74,11.63c-1.05,8.38-2.09,16.76-3.14,25.14
				c-1.04,8.3-2.07,16.6-3.11,24.89c-0.52,4.19-1.05,8.38-1.57,12.57c-0.42,3.36-1.28,7.01-0.46,10.37c0.81,3.35,3.42,5.54,6.63,6.5
				c2.83,0.85,6.48,0.95,8.93-0.94c0.65-0.5,0.98-1.28,0.54-2.05c-0.36-0.63-1.41-1.03-2.05-0.54c-1.95,1.51-4.71,1.27-6.93,0.54
				c-2.58-0.85-4.22-2.81-4.41-5.56c-0.24-3.38,0.59-6.95,1.01-10.29c0.48-3.86,0.96-7.72,1.45-11.58
				c1.91-15.28,3.82-30.56,5.72-45.84c1.05-8.39,1.87-16.74,5.62-24.44C97.29,49.03,94.7,47.51,93.85,49.24L93.85,49.24z"/>
		</g>
	</g>
	<g>
		<g>
			<path d="M101.61,35.83c0-0.4,0-0.79,0-1.19c0.01-0.21-0.04-0.4-0.13-0.58c-0.06-0.19-0.16-0.35-0.31-0.48
				c-0.14-0.15-0.3-0.25-0.48-0.31c-0.18-0.09-0.37-0.14-0.58-0.13c-0.13,0.02-0.27,0.04-0.4,0.05c-0.25,0.07-0.47,0.2-0.66,0.39
				c-0.08,0.1-0.16,0.2-0.23,0.3c-0.14,0.23-0.2,0.49-0.2,0.76c0,0.4,0,0.79,0,1.19c-0.01,0.21,0.04,0.4,0.13,0.58
				c0.06,0.19,0.16,0.35,0.31,0.48c0.14,0.15,0.3,0.25,0.48,0.31c0.18,0.09,0.37,0.14,0.58,0.13c0.13-0.02,0.27-0.04,0.4-0.05
				c0.25-0.07,0.47-0.2,0.66-0.39c0.08-0.1,0.16-0.2,0.23-0.3C101.54,36.35,101.61,36.1,101.61,35.83L101.61,35.83z"/>
		</g>
	</g>
	<g>
		<g>
			<path d="M114.17,82.44c5.98-3.3,11.65-7.2,16.73-11.77c2.37-2.13,4.69-4.39,6.69-6.86c1.8-2.22,3.54-5.11,2.68-8.08
				c-0.72-2.49-2.95-4.34-5.4-5c-2.97-0.8-6.12,0.08-8.61,1.78c-4.94,3.39-8.79,8.95-11.45,14.24c-5.62,11.14-6.85,24.01-7.87,36.26
				c-0.6,7.3-0.85,14.65-0.32,21.97c0.26,3.63,0.71,7.25,1.39,10.83c0.58,3.07,1.21,6.22,2.37,9.13c1.05,2.63,2.58,5.01,4.89,6.7
				c2.69,1.97,6.15,2.69,9.44,2.4c3.44-0.31,6.83-1.5,9.62-3.56c2.85-2.1,4.96-4.85,7.01-7.7c1.13-1.57-1.47-3.07-2.59-1.51
				c-1.65,2.28-3.35,4.56-5.57,6.33c-2.16,1.73-4.74,2.84-7.46,3.3c-2.62,0.45-5.46,0.2-7.8-1.12c-1.92-1.08-3.27-2.79-4.24-4.75
				c-1.11-2.25-1.65-4.78-2.2-7.21c-0.74-3.3-1.28-6.64-1.62-10.01c-0.66-6.5-0.66-13.05-0.29-19.56
				c0.34-6.12,0.94-12.24,1.78-18.31c0.72-5.17,1.71-10.32,3.38-15.27c1.72-5.11,4.23-10.01,7.65-14.2
				c2.87-3.52,8.2-9.52,13.26-6.17c2.6,1.72,1.97,4.38,0.39,6.63c-1.87,2.66-4.39,5-6.79,7.19c-5.02,4.58-10.65,8.44-16.59,11.72
				C110.96,80.79,112.47,83.38,114.17,82.44L114.17,82.44z"/>
		</g>
	</g>
	<g>
		<g>
			<path d="M161.67,38.92c-4.1,19.7-8.22,39.52-9.36,59.66c-0.53,9.31-0.61,18.84,0.89,28.07c1.32,8.07,4.32,17.07,10.47,22.79
				c3.23,3,7.57,4.85,11.99,3.85c3.54-0.8,7.19-3.59,6.38-7.59c-0.38-1.89-3.27-1.09-2.89,0.8c0.57,2.81-3.96,4.07-5.96,4.1
				c-3.64,0.04-6.82-2.37-9.06-5.03c-5.1-6.06-7.41-14.32-8.36-22.03c-1.06-8.56-0.92-17.32-0.39-25.91
				c0.56-9.19,1.75-18.32,3.27-27.4c1.71-10.21,3.81-20.36,5.93-30.49C164.96,37.84,162.07,37.03,161.67,38.92L161.67,38.92z"/>
		</g>
	</g>
	<g>
		<g>
			<path d="M159.02,69.64c3.16-0.25,6.32-0.51,9.49-0.76c0.78-0.06,1.54-0.64,1.5-1.5c-0.03-0.76-0.66-1.57-1.5-1.5
				c-3.16,0.25-6.32,0.51-9.49,0.76c-0.78,0.06-1.54,0.64-1.5,1.5C157.56,68.9,158.18,69.71,159.02,69.64L159.02,69.64z"/>
		</g>
	</g>
	<g>
		<g>
			<path d="M211.38,52.92c-8.06-3.02-19.53,1.05-21.27,10.13c-0.81,4.2-0.04,8.72,1,12.81c1.06,4.2,2.66,8.24,4.46,12.17
				c3.75,8.22,8.46,15.95,12.31,24.12c3.57,7.59,6.48,15.88,5.7,24.39c-0.22,2.34-0.66,4.81-1.78,6.9
				c-1.27,2.35-3.37,4.01-5.85,4.95c-2.66,1.01-5.76,1.38-8.52,0.53c-1.28-0.4-4.37-1.86-3.29-3.64c1.01-1.65-1.59-3.16-2.59-1.51
				c-2.6,4.26,2.82,7.73,6.41,8.36c4.92,0.87,10.64-0.62,14.22-4.21c3.32-3.34,4.28-8.19,4.5-12.73c0.21-4.28-0.45-8.59-1.61-12.7
				c-4.98-17.73-18.39-32.19-21.72-50.47c-0.89-4.87-1.2-10.67,3.12-14.07c3.76-2.96,9.68-3.81,14.13-2.15
				C212.39,56.49,213.17,53.6,211.38,52.92L211.38,52.92z"/>
		</g>
	</g>
	<g>
		<g>
			<path d="M426.73,52.32c4.36,25.96,5.93,52.37,4.65,78.67c-0.37,7.5-0.97,14.99-1.79,22.46c-0.21,1.92,2.79,1.9,3,0
				c2.91-26.44,2.97-53.17,0.11-79.62c-0.8-7.46-1.84-14.9-3.08-22.3C429.3,49.63,426.41,50.43,426.73,52.32L426.73,52.32z"/>
		</g>
	</g>
	<g>
		<g>
			<path d="M429.11,55.02c6.07,2.34,11.88,6.35,15,12.2c2.58,4.86,2.55,10.48-0.43,15.15c-2,3.13-4.79,5.72-6.56,9.01
				c-0.77,1.43-1.33,2.99-1.41,4.62c-0.1,1.99,0.69,3.87,1.64,5.58c2.21,3.99,4.52,7.89,6.57,11.97c1.99,3.95,3.83,7.98,5.51,12.08
				c3.69,9.05,6.57,18.42,8.57,27.99c0.39,1.89,3.29,1.09,2.89-0.8c-3.67-17.63-10.41-34.54-19.42-50.12
				c-1.06-1.84-2.61-3.84-2.76-6.03c-0.12-1.71,0.67-3.31,1.55-4.72c1.94-3.1,4.66-5.66,6.48-8.84c2.96-5.19,2.9-11.28,0.36-16.61
				c-3.33-6.99-10.16-11.66-17.19-14.37C428.1,51.43,427.32,54.33,429.11,55.02L429.11,55.02z"/>
		</g>
	</g>
	<g>
		<g>
			<path d="M568.74,33.7c-3.22,18.8-5.6,37.75-7.07,56.77c-0.74,9.58-1.26,19.17-1.55,28.77c-0.14,4.68-0.25,9.37-0.26,14.05
				c-0.01,3.92,0.21,7.91,1.75,11.57c3.31,7.86,12.53,12.04,20.73,10.38c1.89-0.38,1.09-3.27-0.8-2.89
				c-6.79,1.37-14.65-2.29-17.27-8.85c-1.4-3.49-1.43-7.31-1.41-11.02c0.03-4.5,0.13-9,0.26-13.49c0.55-18.07,1.92-36.11,4.07-54.06
				c1.22-10.18,2.71-20.33,4.44-30.44C571.96,32.61,569.07,31.8,568.74,33.7L568.74,33.7z"/>
		</g>
	</g>
	<g>
		<g>
			<path d="M624.13,47.72c5.6,26.89,5.08,54.51,3.17,81.77c-0.54,7.69-1.18,15.38-1.83,23.07c-0.14,1.61,2.03,1.86,2.8,0.76
				c0.4-0.58,0.81-1.16,1.21-1.74c1.1-1.59-1.5-3.09-2.59-1.51c-0.4,0.58-0.81,1.16-1.21,1.74c0.93,0.25,1.86,0.5,2.8,0.76
				c2.31-27.43,4.63-55.06,2.01-82.55c-0.74-7.75-1.87-15.46-3.46-23.08C626.63,45.03,623.73,45.83,624.13,47.72L624.13,47.72z"/>
		</g>
	</g>
	<g>
		<g>
			<path d="M629.53,57.79c5.56-6.77,15.1-10.4,23.77-9.73c2.11,0.16,4.29,0.76,5.8,2.33c1.23,1.28,1.79,3.05,2.02,4.78
				c0.27,2.01,0.11,4.05,0.01,6.06c-0.14,2.82-0.29,5.64-0.43,8.46c-1.13,22.22-2.26,44.45-3.38,66.67
				c-0.21,4.14-0.41,8.4,1.04,12.37c1.41,3.85,4.22,6.69,8.24,7.72c1.87,0.48,2.67-2.41,0.8-2.89c-8.22-2.12-7.34-12.1-7-18.69
				c0.58-11.44,1.16-22.89,1.74-34.33c0.58-11.36,1.15-22.72,1.73-34.08c0.22-4.42,0.99-9.25-0.16-13.61
				c-1.12-4.24-4.47-6.93-8.75-7.59c-5.14-0.79-10.72,0.18-15.53,2.05c-4.6,1.79-8.87,4.53-12.02,8.37
				C626.19,57.15,628.3,59.29,629.53,57.79L629.53,57.79z"/>
		</g>
	</g>
	<g>
		<g>
			<path d="M359.15,35.7c-1.72,16.9-2.48,33.9-2.24,50.88c0.24,16.92,1.45,33.83,3.63,50.61c0.5,3.9,0.61,8.39,3.53,11.37
				c2.65,2.7,6.71,3.63,10.35,3.13c1.9-0.26,1.09-3.16-0.8-2.89c-3.02,0.42-6.7-0.8-8.31-3.51c-0.8-1.34-1.06-2.92-1.28-4.44
				c-0.28-1.95-0.53-3.91-0.77-5.86c-1-8-1.77-16.02-2.33-24.06c-1.11-16.04-1.35-32.14-0.7-48.2c0.36-9.03,1.01-18.04,1.93-27.03
				C362.34,33.78,359.34,33.79,359.15,35.7L359.15,35.7z"/>
		</g>
	</g>
	<g>
		<g>
			<path d="M358.65,91.59c-7.53-2.38-16.89-0.82-23.31,3.77c-6.49,4.64-10.08,12.52-11.89,20.09c-1.96,8.18-1.26,16.82,2.96,24.21
				c2.02,3.53,4.71,6.97,8.32,8.99c3.71,2.08,8.16,2.81,12.36,2.38c6.75-0.69,12.75-4.28,16.7-9.77c1.13-1.57-1.47-3.07-2.59-1.51
				c-2.85,3.96-7.34,6.98-12.26,7.99c-3.35,0.69-6.9,0.54-10.15-0.55c-3.78-1.27-6.5-3.96-8.68-7.22
				c-4.22-6.32-5.58-13.92-4.27-21.37c1.19-6.71,3.95-14.18,9-18.96c5.81-5.52,15.39-7.54,23-5.14
				C359.7,95.07,360.49,92.18,358.65,91.59L358.65,91.59z"/>
		</g>
	</g>
	<g>
		<g>
			<path d="M500.46,33.84c-1.71,17.5-2.47,35.08-2.25,52.66c0.22,17.67,1.43,35.33,3.6,52.87c0.5,4.04,0.56,8.62,3.33,11.87
				c2.55,2.99,6.86,4.06,10.62,3.52c1.9-0.27,1.09-3.17-0.8-2.89c-3.15,0.45-6.82-0.94-8.4-3.79c-0.76-1.38-1.01-2.99-1.23-4.54
				c-0.29-2.12-0.55-4.25-0.8-6.38c-0.99-8.33-1.77-16.69-2.32-25.07c-1.1-16.63-1.33-33.32-0.69-49.97
				c0.37-9.45,1.02-18.88,1.94-28.28C503.65,31.92,500.64,31.94,500.46,33.84L500.46,33.84z"/>
		</g>
	</g>
	<g>
		<g>
			<path d="M499.96,92.21c-7.57-2.49-17-0.81-23.37,3.92c-6.62,4.91-10.17,13.19-11.95,21.03c-1.88,8.25-1.28,16.91,2.66,24.48
				c1.9,3.65,4.49,7.25,7.97,9.53c3.73,2.44,8.44,3.34,12.84,2.92c6.77-0.63,12.82-4.26,16.69-9.84c1.1-1.59-1.5-3.09-2.59-1.51
				c-2.84,4.09-7.33,7.11-12.29,8.09c-3.59,0.71-7.46,0.44-10.84-1.01c-3.55-1.52-6.04-4.45-8.03-7.67
				c-4.04-6.53-5.26-14.3-3.98-21.83c0.65-3.82,1.81-7.56,3.37-11.11c1.38-3.14,3.09-6.15,5.52-8.6c5.76-5.79,15.45-8.07,23.22-5.52
				C501,95.71,501.79,92.81,499.96,92.21L499.96,92.21z"/>
		</g>
	</g>
	<g>
		<g>
			<path d="M248.31,53.14c-3.69-1.13-8.21-0.92-11.44,1.35c-3.21,2.26-4.9,5.93-6.05,9.57c-3.01,9.48-3.57,19.51-3.53,29.38
				c0.03,7.76-0.44,15.49-0.54,23.25c-0.04,3.11,0.14,6.21,0.45,9.3c0.46,4.58,1.04,9.22,2.38,13.64c0.89,2.94,2.16,5.84,4.27,8.12
				c1.82,1.97,4.23,3.24,6.76,4.05c3.7,1.19,8.03,1.26,11.23-1.21c2.47-1.91,3.81-4.87,4.73-7.78c1.41-4.48,1.98-9.21,2.54-13.86
				c0.68-5.64,1.17-11.29,1.45-16.96c0.37-7.6,0.37-15.23-0.12-22.83c-0.51-7.84-1.13-15.86-3.02-23.51
				c-1.06-4.27-2.73-9.13-6.74-11.5C249.93,53.73,249.13,53.4,248.31,53.14c-1.84-0.59-2.63,2.31-0.8,2.89
				c1.28,0.41,2.34,1.03,3.34,2.13c1.12,1.22,2.05,3.13,2.67,4.92c2.58,7.38,3.1,15.55,3.71,23.27c1.23,15.7,0.63,31.71-1.76,47.27
				c-0.56,3.63-1.17,7.47-2.71,10.83c-0.99,2.15-2.46,4.14-4.82,4.83c-3.26,0.96-7.04-0.15-9.74-1.81c-1.99-1.22-3.39-3.06-4.4-5.14
				c-1.56-3.2-2.27-6.83-2.83-10.32c-0.61-3.78-1.01-7.61-1.16-11.43c-0.24-6.05,0.31-12.11,0.43-18.16
				c0.18-9.14-0.3-18.3,1.17-27.37c0.73-4.5,1.58-9.31,3.56-13.46c1.54-3.23,3.93-5.67,7.64-6.04c1.64-0.16,3.34,0,4.92,0.48
				C249.36,56.6,250.16,53.7,248.31,53.14z"/>
		</g>
	</g>
	<g>
		<g>
			<path d="M270.3,53.77c5.11,25.13,4.64,50.92,2.9,76.38c-0.49,7.2-1.08,14.4-1.68,21.6c-0.13,1.6,2.03,1.88,2.8,0.76
				c0.37-0.54,0.74-1.08,1.1-1.62c1.09-1.6-1.51-3.1-2.59-1.51c-0.37,0.54-0.74,1.08-1.1,1.62c0.93,0.25,1.86,0.5,2.8,0.76
				c2.11-25.64,4.23-51.46,1.84-77.15c-0.68-7.26-1.71-14.48-3.16-21.62C272.81,51.08,269.92,51.88,270.3,53.77L270.3,53.77z"/>
		</g>
	</g>
	<g>
		<g>
			<path d="M273.1,62.55c6.19-6.29,15.73-8.98,24.35-9.12c3.92-0.06,9.07,0.42,10.83,4.58c0.64,1.51,0.75,3.2,0.72,4.82
				c-0.04,2.48-0.27,4.96-0.42,7.43c-1.35,22.17-2.7,44.34-4.05,66.51c-0.23,3.79-0.21,7.58,1.37,11.11
				c1.67,3.73,5.02,6.07,8.96,6.92c1.88,0.4,2.69-2.49,0.8-2.89c-3.43-0.74-6.17-2.7-7.37-6.08c-1.21-3.42-0.88-7-0.67-10.55
				c0.7-11.42,1.39-22.83,2.09-34.25c0.69-11.33,1.38-22.67,2.07-34c0.23-3.78,0.7-7.92-1.32-11.34c-2.33-3.93-7.01-5.09-11.28-5.24
				c-9.88-0.37-21.13,2.8-28.2,9.98C269.63,61.81,271.75,63.93,273.1,62.55L273.1,62.55z"/>
		</g>
	</g>
	<g>
		<g>
			<path d="M388.26,82.19c5.98-3.3,11.65-7.2,16.73-11.77c2.37-2.13,4.69-4.39,6.69-6.86c1.8-2.22,3.54-5.11,2.68-8.08
				c-0.72-2.49-2.95-4.34-5.4-5c-2.97-0.8-6.12,0.08-8.61,1.78c-4.94,3.39-8.79,8.95-11.45,14.24c-5.62,11.14-6.85,24.01-7.87,36.26
				c-0.6,7.3-0.85,14.65-0.32,21.97c0.26,3.63,0.71,7.25,1.39,10.83c0.58,3.07,1.21,6.22,2.37,9.13c1.05,2.63,2.58,5.01,4.89,6.7
				c2.69,1.97,6.15,2.69,9.44,2.4c3.44-0.31,6.83-1.5,9.62-3.56c2.85-2.1,4.96-4.85,7.01-7.7c1.13-1.57-1.47-3.07-2.59-1.51
				c-1.65,2.28-3.35,4.56-5.57,6.33c-2.16,1.73-4.74,2.84-7.46,3.3c-2.62,0.45-5.46,0.2-7.8-1.12c-1.92-1.08-3.27-2.79-4.24-4.75
				c-1.11-2.25-1.65-4.78-2.2-7.21c-0.74-3.3-1.28-6.64-1.62-10.01c-0.66-6.5-0.66-13.05-0.29-19.56
				c0.34-6.12,0.94-12.24,1.78-18.31c0.72-5.17,1.71-10.32,3.38-15.27c1.72-5.11,4.23-10.01,7.65-14.2
				c2.87-3.52,8.2-9.52,13.26-6.17c2.6,1.72,1.97,4.38,0.39,6.63c-1.87,2.66-4.39,5-6.79,7.19c-5.02,4.58-10.65,8.44-16.59,11.72
				C385.05,80.54,386.57,83.13,388.26,82.19L388.26,82.19z"/>
		</g>
	</g>
	<g>
		<g>
			<path d="M527.47,83.74c5.98-3.3,11.65-7.2,16.73-11.77c2.37-2.13,4.69-4.39,6.69-6.86c1.8-2.22,3.54-5.11,2.68-8.08
				c-0.72-2.49-2.95-4.34-5.4-5c-2.97-0.8-6.12,0.08-8.61,1.78c-4.94,3.39-8.79,8.95-11.45,14.24c-5.62,11.14-6.85,24.01-7.87,36.26
				c-0.6,7.3-0.85,14.65-0.32,21.97c0.26,3.63,0.71,7.25,1.39,10.83c0.58,3.07,1.21,6.22,2.37,9.13c1.05,2.63,2.58,5.01,4.89,6.7
				c2.69,1.97,6.15,2.69,9.44,2.4c3.44-0.31,6.83-1.5,9.62-3.56c2.85-2.1,4.96-4.85,7.01-7.7c1.13-1.57-1.47-3.07-2.59-1.51
				c-1.65,2.28-3.35,4.56-5.57,6.33c-2.16,1.73-4.74,2.84-7.46,3.3c-2.62,0.45-5.46,0.2-7.8-1.12c-1.92-1.08-3.27-2.79-4.24-4.75
				c-1.11-2.25-1.65-4.78-2.2-7.21c-0.74-3.3-1.28-6.64-1.62-10.01c-0.66-6.5-0.66-13.05-0.29-19.56
				c0.34-6.12,0.94-12.24,1.78-18.31c0.72-5.17,1.71-10.32,3.38-15.27c1.72-5.11,4.23-10.01,7.65-14.2
				c2.87-3.52,8.2-9.52,13.26-6.17c2.6,1.72,1.97,4.38,0.39,6.63c-1.87,2.66-4.39,5-6.79,7.19c-5.02,4.58-10.65,8.44-16.59,11.72
				C524.26,82.09,525.78,84.68,527.47,83.74L527.47,83.74z"/>
		</g>
	</g>
	<g>
		<g>
			<path d="M588.37,83.74c5.98-3.3,11.65-7.2,16.73-11.77c2.37-2.13,4.69-4.39,6.69-6.86c1.8-2.22,3.54-5.11,2.68-8.08
				c-0.72-2.49-2.95-4.34-5.4-5c-2.97-0.8-6.12,0.08-8.61,1.78c-4.94,3.39-8.79,8.95-11.45,14.24c-5.62,11.14-6.85,24.01-7.87,36.26
				c-0.6,7.3-0.85,14.65-0.32,21.97c0.26,3.63,0.71,7.25,1.39,10.83c0.58,3.07,1.21,6.22,2.37,9.13c1.05,2.63,2.58,5.01,4.89,6.7
				c2.69,1.97,6.15,2.69,9.44,2.4c3.44-0.31,6.83-1.5,9.62-3.56c2.85-2.1,4.96-4.85,7.01-7.7c1.13-1.57-1.47-3.07-2.59-1.51
				c-1.65,2.28-3.35,4.56-5.57,6.33c-2.16,1.73-4.74,2.84-7.46,3.3c-2.62,0.45-5.46,0.2-7.8-1.12c-1.92-1.08-3.27-2.79-4.24-4.75
				c-1.11-2.25-1.65-4.78-2.2-7.21c-0.74-3.3-1.28-6.64-1.62-10.01c-0.66-6.5-0.66-13.05-0.29-19.56
				c0.34-6.12,0.94-12.24,1.78-18.31c0.72-5.17,1.71-10.32,3.38-15.27c1.72-5.11,4.23-10.01,7.65-14.2
				c2.87-3.52,8.2-9.52,13.26-6.17c2.6,1.72,1.97,4.38,0.39,6.63c-1.87,2.66-4.39,5-6.79,7.19c-5.02,4.58-10.65,8.44-16.59,11.72
				C585.17,82.09,586.68,84.68,588.37,83.74L588.37,83.74z"/>
		</g>
	</g>
	<rect x="5.91" y="6.36" class="st1" width="675.57" height="24.51"/>
	<text transform="matrix(1 0 0 1 5.915 18.3677)" class="st2 st3 st4">DIY - DIY - DIY - DIY - DIY - DIY - DIY - DIY - DIY - DIY - DIY - DIY - DIY - DIY - DIY - DIY </text>
	<rect x="5.91" y="168.62" class="st1" width="675.57" height="24.51"/>
	<text transform="matrix(1 0 0 1 5.9114 180.6215)" class="st2 st3 st4">DIY - DIY - DIY - DIY - DIY - DIY - DIY - DIY - DIY - DIY - DIY - DIY - DIY - DIY - DIY - DIY </text>
	<rect x="1.91" y="25" class="st1" width="15.09" height="201"/>
	<text transform="matrix(1 0 0 1 5.887 37.0057)"><tspan x="0" y="0" class="st2 st3 st4">I</tspan><tspan x="-1.81" y="21.6" class="st2 st3 st4">Y </tspan><tspan x="1.32" y="43.2" class="st2 st3 st4">- </tspan><tspan x="-2.27" y="64.8" class="st2 st3 st4">D</tspan><tspan x="0" y="86.4" class="st2 st3 st4">I</tspan><tspan x="-1.81" y="108" class="st2 st3 st4">Y </tspan><tspan x="1.32" y="129.6" class="st2 st3 st4">- </tspan></text>
	<rect x="669.26" y="24.84" class="st1" width="15.09" height="201"/>
	<text transform="matrix(1 0 0 1 673.2402 36.8447)"><tspan x="0" y="0" class="st2 st3 st4">I</tspan><tspan x="-1.81" y="21.6" class="st2 st3 st4">Y </tspan><tspan x="1.32" y="43.2" class="st2 st3 st4">- </tspan><tspan x="-2.27" y="64.8" class="st2 st3 st4">D</tspan><tspan x="0" y="86.4" class="st2 st3 st4">I</tspan><tspan x="-1.81" y="108" class="st2 st3 st4">Y </tspan><tspan x="1.32" y="129.6" class="st2 st3 st4">- </tspan></text>
</g>
</svg>
