<?xml version="1.0" encoding="utf-8"?>
<!-- Generator: Adobe Illustrator 27.9.0, SVG Export Plug-In . SVG Version: 6.00 Build 0)  -->
<svg version="1.1" id="Laag_1" xmlns="http://www.w3.org/2000/svg" xmlns:xlink="http://www.w3.org/1999/xlink" x="0px" y="0px"
	 viewBox="0 0 74 91" style="enable-background:new 0 0 74 91;" xml:space="preserve">
<g>
	<g>
		<path d="M66.91,55.01c-11.72-4.34-21.71-12.73-28.15-23.42c-0.58-0.96-3.38,0.04-2.67,1.2c6.65,11.04,17.02,19.51,29.09,23.98
			C66.26,57.17,68.58,55.63,66.91,55.01L66.91,55.01z"/>
	</g>
</g>
<g>
	<g>
		<path d="M57.16,13.97c-3.09-0.93-6.23-1.64-9.42-2.12c-2.73-0.41-5.7-0.98-8.42-0.26c-2.34,0.62-4.34,2.4-2.88,4.91
			c0.72,1.23,1.83,2.22,2.8,3.25c1.1,1.15,2.2,2.31,3.3,3.46c1.12,1.18,2.43,2.34,3.08,3.86c0.5,1.16,0.62,3-0.56,3.82
			c-0.46,0.32-0.35,0.61,0.18,0.68c0.63,0.08,1.53-0.18,2.05-0.55c2.66-1.86,1.46-4.98-0.3-6.98c-1.16-1.32-2.42-2.56-3.63-3.83
			c-1.26-1.32-2.74-2.6-3.78-4.1c-0.64-0.92-1.38-2.91,0.02-3.58c-0.15,0.07,0.47-0.04,0.56-0.05c0.23-0.01,0.45,0,0.68,0.01
			c0.93,0.05,1.86,0.16,2.78,0.27c3.78,0.45,7.51,1.26,11.15,2.35c0.62,0.19,1.48-0.08,2.03-0.36
			C57.09,14.62,57.79,14.16,57.16,13.97L57.16,13.97z"/>
	</g>
</g>
<g>
	<g>
		<path d="M36.09,20.24c-1.77,4.65-3.6,9.28-5.31,13.95c-1.44,3.94-1.38,8.19,1.76,11.32c0.74,0.74,3.49-0.35,2.69-1.15
			c-1.42-1.41-2.27-3.24-2.48-5.23c-0.22-2.15,0.51-4.17,1.26-6.14c1.65-4.37,3.32-8.73,4.99-13.1
			C39.37,18.9,36.47,19.24,36.09,20.24L36.09,20.24z"/>
	</g>
</g>
<g>
	<g>
		<path d="M27.37,44.31c-9.43,1.74-18.23,9.47-19.26,19.38c-0.8,7.75,3.98,14.99,10.91,18.19c7.58,3.5,17.08,2.02,23.07-3.82
			c4.89-4.77,6.69-11.6,4.79-18.13c-1.47-5.04-5.25-9.13-10.24-10.86c-3.52-1.22-7.47-1.32-11.09-0.45
			c-0.35,0.09-1.43,0.46-1.29,0.99c0.14,0.54,1.29,0.29,1.61,0.21c0.1-0.02,0.21-0.05,0.31-0.07c-0.4,0.08,0.28-0.05,0.36-0.06
			c0.55-0.09,1.11-0.15,1.67-0.18c1.87-0.09,3.76,0.11,5.55,0.66c4.25,1.31,7.75,4.45,9.5,8.53c2.34,5.44,1.93,11.79-1.51,16.68
			c-1.29,1.83-2.91,3.48-4.8,4.69c-3.9,2.47-8.76,2.8-13.12,1.47c-6.31-1.93-11.51-7.3-12.68-13.88
			C9.43,57.9,17.3,47.45,26.91,45.68c0.4-0.07,1.65-0.34,1.67-0.9C28.61,44.2,27.77,44.24,27.37,44.31L27.37,44.31z"/>
	</g>
</g>
<g>
	<g>
		<path d="M26.42,65.15c0,0.06,0,0.11,0,0.17c-0.03,0.14,0,0.26,0.07,0.37c0.05,0.13,0.13,0.22,0.26,0.29
			c0.14,0.08,0.28,0.14,0.44,0.15c0.18,0.04,0.35,0.05,0.54,0.03c0.13-0.02,0.26-0.05,0.39-0.07c0.25-0.07,0.48-0.17,0.7-0.32
			c0.09-0.07,0.17-0.15,0.26-0.22c0.14-0.14,0.23-0.3,0.27-0.5c0-0.06,0-0.11,0-0.17c0.03-0.14,0-0.26-0.07-0.37
			c-0.05-0.13-0.13-0.22-0.26-0.29c-0.14-0.08-0.28-0.14-0.44-0.15c-0.18-0.04-0.35-0.05-0.54-0.03c-0.13,0.02-0.26,0.05-0.39,0.07
			c-0.25,0.07-0.48,0.17-0.7,0.32c-0.09,0.07-0.17,0.15-0.26,0.22C26.54,64.79,26.45,64.95,26.42,65.15L26.42,65.15z"/>
	</g>
</g>
<g>
	<g>
		<path d="M32.25,64.6c3.69,0.18,7.38-1.32,9.86-4.07c0.32-0.35,0.22-0.79-0.25-0.93c-0.49-0.15-1.19,0.03-1.54,0.41
			c-0.96,1.06-2.1,1.9-3.41,2.45c-1.2,0.51-2.51,0.76-3.88,0.7c-0.5-0.02-1.17,0.16-1.42,0.63C31.38,64.26,31.83,64.58,32.25,64.6
			L32.25,64.6z"/>
	</g>
</g>
<g>
	<g>
		<path d="M28.56,69.75c1.25,3.11,3.82,5.57,7.01,6.63c0.45,0.15,1.11-0.07,1.52-0.27c0.22-0.11,0.72-0.43,0.26-0.58
			c-3.01-1-5.44-3.43-6.62-6.35C30.52,68.64,28.39,69.33,28.56,69.75L28.56,69.75z"/>
	</g>
</g>
<g>
	<g>
		<path d="M14.83,71.16c3.66,0.18,7.4-1.33,9.87-4.05c0.3-0.33,0.25-0.71-0.22-0.82c-0.47-0.12-1.2,0.04-1.54,0.41
			c-0.96,1.06-2.1,1.92-3.4,2.47c-1.21,0.52-2.48,0.76-3.88,0.69c-0.48-0.02-1.16,0.17-1.43,0.61
			C13.95,70.91,14.46,71.14,14.83,71.16L14.83,71.16z"/>
	</g>
</g>
<g>
	<g>
		<path d="M20.78,52.31c-0.31,3.4,0.81,6.86,3.15,9.37c0.56,0.6,2.63-0.21,2.01-0.88c-2.17-2.33-3.27-5.55-2.97-8.72
			C23.05,51.12,20.85,51.5,20.78,52.31L20.78,52.31z"/>
	</g>
</g>
<g>
	<g>
		<path d="M30.21,61.03c1.05-2.19,1.48-4.79,0.86-7.17c-0.07-0.28-1.52,0.1-1.45,0.39c0.6,2.35,0.2,4.89-0.84,7.05
			c-0.1,0.22,0.5,0.12,0.57,0.1C29.57,61.37,30.09,61.27,30.21,61.03L30.21,61.03z"/>
	</g>
</g>
<g>
	<g>
		<path d="M16.36,60.57c1.72,1.83,4.06,3.12,6.58,3.32c0.31,0.02,0.79-0.12,0.96-0.4c0.18-0.3-0.16-0.41-0.39-0.43
			c-2.22-0.18-4.31-1.46-5.8-3.06C17.36,59.63,15.98,60.16,16.36,60.57L16.36,60.57z"/>
	</g>
</g>
<g>
	<g>
		<path d="M22.36,76.61c2.16-1.67,3.87-4.09,4.39-6.81c0.09-0.46-1.36-0.22-1.44,0.21c-0.49,2.56-2.04,4.86-4.09,6.44
			c-0.23,0.18-0.17,0.38,0.11,0.42C21.67,76.93,22.09,76.82,22.36,76.61L22.36,76.61z"/>
	</g>
</g>
<g>
	<g>
		<path d="M32.62,68.26c2.12,1.45,4.7,2.12,7.26,1.74c0.2-0.03,0.78-0.15,0.85-0.39c0.07-0.24-0.49-0.14-0.58-0.12
			c-2.14,0.31-4.42-0.53-6.16-1.72c-0.23-0.16-0.7,0.01-0.93,0.09C32.98,67.9,32.42,68.13,32.62,68.26L32.62,68.26z"/>
	</g>
</g>
<g>
	<g>
		<path d="M33.91,56.57c-0.66-0.69-1.32-1.37-1.97-2.07c-0.6-0.64-1.26-1.29-1.58-2.12c-0.1-0.27-0.6-0.18-0.81-0.12
			c-0.17,0.05-0.72,0.23-0.64,0.51c0.42,1.48,0.06,3.25-1.07,4.34c-0.07,0.07-0.18,0.16-0.15,0.28c0.03,0.11,0.18,0.15,0.27,0.16
			c0.31,0.05,0.79-0.05,1.02-0.27c1.3-1.26,1.87-3.14,1.37-4.89c-0.48,0.13-0.97,0.26-1.45,0.39c0.33,0.86,1,1.55,1.62,2.21
			c0.67,0.72,1.36,1.42,2.04,2.13C32.87,57.43,34.24,56.91,33.91,56.57L33.91,56.57z"/>
	</g>
</g>
<g>
	<g>
		<path d="M16.83,67.86c-0.62,0.53-1.24,1.06-1.87,1.58c-0.28,0.23-0.56,0.46-0.85,0.67c-0.15,0.11-0.29,0.21-0.45,0.3
			c-0.04,0.02-0.04,0.03-0.01,0c-0.05,0.02-0.09,0.05-0.14,0.07c-0.05,0.02-0.09,0.04-0.14,0.06c0.07-0.02,0.06-0.02-0.03,0.01
			c-0.24,0.07-0.7,0.29-0.61,0.62c0.09,0.34,0.6,0.28,0.84,0.23c-0.18,0.04,0.09-0.01,0.12-0.02c0.09-0.01,0.17-0.02,0.26-0.02
			c-0.15,0.01,0.11,0,0.14,0c0.09,0,0.17,0.01,0.26,0.02c0.04,0,0.09,0.01,0.13,0.02c-0.06-0.01-0.05-0.01,0.03,0.01
			c0.06,0.01,0.13,0.03,0.19,0.04c0.08,0.02,0.17,0.05,0.25,0.07c0.03,0.01,0.19,0.07,0.17,0.06c0.62,0.25,1.14,0.66,1.53,1.19
			c0.34,0.45,1.73-0.07,1.34-0.6c-1.07-1.44-2.92-1.97-4.64-1.63c0.08,0.28,0.15,0.56,0.23,0.85c0.92-0.28,1.64-0.87,2.37-1.47
			c0.7-0.57,1.38-1.16,2.06-1.75c0.25-0.21,0.12-0.52-0.16-0.6C17.49,67.48,17.1,67.63,16.83,67.86L16.83,67.86z"/>
	</g>
</g>
</svg>
