<?xml version="1.0" encoding="utf-8"?>
<!-- Generator: Adobe Illustrator 27.9.0, SVG Export Plug-In . SVG Version: 6.00 Build 0)  -->
<svg version="1.1" id="Laag_1" xmlns="http://www.w3.org/2000/svg" xmlns:xlink="http://www.w3.org/1999/xlink" x="0px" y="0px"
	 viewBox="0 0 351.28 428.89" style="enable-background:new 0 0 351.28 428.89;" xml:space="preserve">
<style type="text/css">
	.st0{fill:#020203;}
	.st1{fill:none;stroke:#020203;stroke-miterlimit:10;}
	.st2{fill:#FACCB4;}
</style>
<g>
	<g>
		<path class="st0" d="M132.18,262.81c13.42-0.82,26.67-3.69,39.26-8.41c12.92-4.84,25.13-11.51,36.23-19.7
			c6.46-4.77,12.55-10.02,18.21-15.71c1.36-1.37-0.76-3.49-2.12-2.12c-19.17,19.24-43.38,33.5-69.9,39.74
			c-7.13,1.68-14.38,2.75-21.69,3.2C130.26,259.93,130.25,262.93,132.18,262.81L132.18,262.81z"/>
	</g>
</g>
<g>
	<g>
		<path class="st0" d="M193.58,167.21c6.11-0.35,12.25-0.2,18.33,0.52c3.07,0.36,6.13,0.88,9.16,1.53c1.99,0.43,4.01,0.85,5.74,1.99
			c4.09,2.71,2.65,7.79-0.17,10.88c-1.78,1.95-3.96,3.49-6.04,5.1c-2.49,1.93-4.98,3.85-7.47,5.78c-2.73,2.11-5.6,4.11-8.11,6.47
			c-1.89,1.77-3.55,3.76-5.19,5.76c-1.22,1.48,0.89,3.61,2.12,2.12c1.55-1.89,3.11-3.76,4.88-5.46c2.41-2.32,5.19-4.26,7.84-6.31
			c2.75-2.13,5.51-4.26,8.26-6.38c2.21-1.71,4.52-3.35,6.33-5.51c3.18-3.8,4.64-9.49,0.94-13.49c-1.43-1.54-3.41-2.52-5.4-3.13
			c-2.89-0.89-5.98-1.36-8.96-1.81c-7.36-1.12-14.81-1.47-22.24-1.04C191.66,164.32,191.65,167.32,193.58,167.21L193.58,167.21z"/>
	</g>
</g>
<g>
	<g>
		<path class="st0" d="M224.08,186.29c-0.14,10.22-0.28,20.45-0.42,30.67c-0.13,9.48,0.66,19.62-3.39,28.45
			c-1.82,3.96-4.4,7.8-8,10.35c-1.56,1.11-0.07,3.71,1.51,2.59c7.1-5.03,11.03-13.76,12.16-22.19c0.69-5.12,0.58-10.31,0.66-15.47
			c0.07-5.4,0.15-10.81,0.22-16.21c0.08-6.07,0.17-12.14,0.25-18.21C227.11,184.36,224.11,184.36,224.08,186.29L224.08,186.29z"/>
	</g>
</g>
<g>
	<g>
		<path class="st0" d="M171.32,301.44c4.51-11.92,11.69-22.64,21.58-30.75c8.75-7.18,20.57-13.02,32.17-10.65
			c18.7,3.82,26.77,25.45,27.73,42.47c1.14,20.42-5.59,42.79-21.35,56.51c-7.09,6.17-16.3,10.78-25.93,9.77
			c-0.12-0.01-0.25-0.03-0.37-0.04c-0.38-0.04,0.35,0.06-0.07-0.01c-0.44-0.07-0.88-0.14-1.32-0.23c-1.13-0.22-2.24-0.51-3.34-0.86
			c-3.09-0.97-6.02-2.42-8.69-4.26c-8.97-6.19-13.71-16.63-15.3-27.16c-1.7-11.27,0.09-23.08,3.97-33.74
			c0.22-0.61,0.45-1.22,0.69-1.82c0.09-0.23,0.18-0.45,0.28-0.68c0.04-0.11-0.09,0.2,0.08-0.18c0.76-1.75-1.83-3.28-2.59-1.51
			c-3.79,8.8-5.85,18.55-6.02,28.12c-0.23,12.59,3.18,26.07,12.23,35.25c4.85,4.92,11.26,8.45,18.06,9.76
			c8.59,1.65,17.42-1.15,24.6-5.85c6.96-4.56,12.72-10.74,17.07-17.81c6.82-11.08,10.39-24.12,11.02-37.07
			c0.44-8.91-0.58-17.93-3.51-26.38c-3.41-9.82-9.36-19.44-18.8-24.41c-11.27-5.94-24.25-3.2-34.76,3.03
			c-11.68,6.92-20.95,17.63-26.9,29.77c-1.27,2.59-2.4,5.24-3.42,7.94C167.74,302.45,170.64,303.23,171.32,301.44L171.32,301.44z"/>
	</g>
</g>
<g>
	<g>
		<path class="st0" d="M122.48,298.68c5.42-11,9.26-22.45,11.72-34.44c1.52-7.39,2.94-14.8,4.33-22.21
			c0.93-4.94,1.79-9.72,1.92-14.75c0.12-4.51,0.01-9.04,0.4-13.54c0.1-1.15,0.23-2.29,0.42-3.42c0.15-0.9,0.21-2.16,0.82-2.89
			c0.55-0.66,1.68-0.77,2.46-0.93c1.11-0.23,2.23-0.43,3.35-0.59c2.27-0.34,4.56-0.52,6.85-0.58c2.07-0.06,4.13,0.13,6.2,0.11
			c2.63-0.02,6.06-0.81,6.77-3.77c0.84-3.51-2.87-6.75-5.51-8.37c-3.17-1.94-6.86-3.01-10.35-4.22c-4.22-1.46-8.48-2.89-12.82-3.94
			c-4.09-0.99-8.37-1.55-12.53-0.67c-3.31,0.7-6.91,2.55-7.97,6.03c-0.94,3.08,1.21,6.07,3.15,8.24c3.6,4.01,8.03,6.99,13.3,8.3
			c1.87,0.46,3.8,0.71,5.72,0.82c1.93,0.11,1.92-2.89,0-3c-5.52-0.31-10.82-2.25-14.84-6.12c-1.7-1.64-3.92-3.62-4.47-6.01
			c-0.76-3.28,3.68-4.92,6.12-5.4c3.93-0.77,8.01,0.01,11.83,1c3.96,1.03,7.84,2.33,11.71,3.66c3.31,1.14,6.8,2.14,9.79,4.01
			c1.47,0.92,6.07,4.72,2.78,6.03c-1.2,0.47-2.53,0.45-3.79,0.39c-2.1-0.11-4.2-0.13-6.31-0.03c-2.08,0.1-4.14,0.31-6.2,0.61
			c-1.87,0.27-3.91,0.48-5.68,1.21c-3.6,1.49-3.56,6.5-3.84,9.79c-0.35,4.18-0.27,8.38-0.36,12.58c-0.04,1.89-0.09,3.79-0.28,5.67
			c-0.01,0.12-0.07,0.58-0.05,0.43c0.03-0.2-0.04,0.27-0.05,0.32c-0.03,0.18-0.05,0.36-0.08,0.54c-0.35,2.22-0.76,4.43-1.17,6.64
			c-1.3,7-2.66,13.99-4.06,20.97c-0.84,4.18-1.67,8.38-2.82,12.5c-1.7,6.12-3.87,12.12-6.44,17.92c-0.84,1.9-1.72,3.77-2.64,5.63
			C119.04,298.9,121.62,300.42,122.48,298.68L122.48,298.68z"/>
	</g>
</g>
<g>
	<g>
		<path class="st0" d="M49.69,264.19c4.3-10.6,11.04-20.18,20.19-27.12c8.22-6.24,19.08-11,29.52-8.16
			c9.48,2.58,15.87,10.86,19.38,19.64c2.59,6.49,3.9,13.35,4.06,20.33c0.44,18.34-6.07,38.3-20.68,50.12
			c-3.43,2.78-7.34,5.11-11.54,6.5c-2.34,0.77-4.76,1.27-7.23,1.37c-1.29,0.05-2.56-0.01-3.85-0.13c-1-0.09,0.28,0.07-0.5-0.07
			c-4.68-0.84-9.05-2.82-12.79-5.77c-7.91-6.24-11.87-16.13-12.83-25.96c-0.98-10,0.82-20.25,4.49-29.57
			c0.36-0.91,0.53-1.32,0.94-2.22c0.8-1.74-1.78-3.27-2.59-1.51c-3.54,7.69-5.55,16.22-6.01,24.65c-0.64,11.58,2.04,24.01,9.87,32.9
			c4.24,4.82,10,8.4,16.24,9.97c7.57,1.9,15.56-0.14,22.17-4.01c17.08-10.01,25.73-30.09,27.14-49.19c0.6-8.05-0.1-16.23-2.49-23.95
			c-2.81-9.09-7.89-18.05-16.23-23.09c-10-6.04-22-4.15-31.84,1.2c-10.76,5.85-19.38,15.32-25.02,26.11
			c-1.22,2.33-2.29,4.73-3.28,7.16C46.07,265.18,48.97,265.96,49.69,264.19L49.69,264.19z"/>
	</g>
</g>
<g>
	<g>
		<path class="st0" d="M210.43,314.36c-0.03-0.13-0.06-0.27-0.08-0.4c0.04,0.26,0-0.05-0.01-0.15c-0.02-0.3-0.02-0.6,0-0.9
			c0.01-0.09,0.07-0.5,0.02-0.23c0.02-0.14,0.05-0.28,0.08-0.42c0.07-0.3,0.15-0.6,0.25-0.89c0.05-0.13,0.1-0.27,0.15-0.4
			c0.06-0.16,0,0-0.01,0.03c0.03-0.06,0.06-0.13,0.09-0.19c0.13-0.28,0.28-0.55,0.43-0.81c0.07-0.12,0.15-0.24,0.23-0.35
			c0.05-0.08,0.11-0.15,0.16-0.23c0.01-0.01,0.14-0.19,0.05-0.07c-0.07,0.1,0.14-0.17,0.18-0.21c0.1-0.12,0.21-0.23,0.31-0.34
			c0.18-0.18,0.37-0.35,0.57-0.51c-0.2,0.16,0,0.01,0.09-0.05c0.12-0.08,0.23-0.15,0.36-0.21c0.05-0.03,0.36-0.18,0.18-0.1
			c-0.18,0.08,0.13-0.05,0.19-0.06c0.12-0.04,0.25-0.06,0.37-0.09c0.23-0.07-0.26-0.01,0.07,0c0.1,0,0.22,0.02,0.31,0.01
			c0.15-0.02-0.12-0.01-0.14-0.02c0.05,0.02,0.11,0.02,0.15,0.03c0.05,0.02,0.38,0.12,0.17,0.04c-0.2-0.07,0.11,0.06,0.17,0.09
			c0.08,0.05,0.16,0.11,0.24,0.16c-0.19-0.11-0.15-0.13-0.01,0.01c0.07,0.07,0.14,0.14,0.2,0.21c0.03,0.03,0.06,0.08,0.1,0.11
			c0.12,0.11-0.15-0.25-0.02-0.02c0.1,0.18,0.22,0.35,0.32,0.54c0.07,0.14,0.12,0.27,0.03,0.04c0.05,0.12,0.09,0.24,0.13,0.37
			c0.07,0.22,0.13,0.44,0.18,0.66c0.03,0.12,0.05,0.23,0.07,0.35c0.02,0.13,0.05,0.44,0.03,0.14c0.04,0.54,0.07,1.07,0.04,1.61
			c-0.01,0.13-0.02,0.25-0.03,0.38c-0.01,0.12-0.05,0.37-0.01,0.1c-0.04,0.27-0.09,0.54-0.16,0.8c-0.06,0.26-0.14,0.52-0.22,0.78
			c-0.04,0.12-0.08,0.23-0.13,0.35c-0.09,0.24,0.09-0.16-0.07,0.14c-0.11,0.21-0.22,0.42-0.34,0.63c-0.06,0.1-0.13,0.2-0.19,0.29
			c-0.19,0.28,0.08-0.07-0.08,0.11c-0.16,0.16-0.31,0.32-0.47,0.48c-0.17,0.17,0.15-0.08-0.09,0.07c-0.15,0.09-0.3,0.18-0.45,0.27
			c-0.24,0.13,0.15-0.02-0.1,0.04c-0.12,0.03-0.23,0.06-0.35,0.09c-0.27,0.08,0.21,0.01-0.07,0.01c-0.13,0-0.28-0.02-0.41,0
			c-0.16,0.02,0.09,0.01,0.11,0.02c-0.08-0.02-0.15-0.03-0.23-0.05c-0.13-0.03-0.26-0.08-0.39-0.12c-0.16-0.05,0.07,0.03,0.09,0.04
			c-0.07-0.03-0.14-0.07-0.21-0.1c-0.14-0.08-0.28-0.17-0.41-0.25c-0.02-0.01-0.19-0.14-0.05-0.03c0.14,0.11-0.07-0.06-0.09-0.08
			c-0.11-0.1-0.22-0.2-0.32-0.31c-0.04-0.05-0.09-0.1-0.13-0.14c-0.02-0.02-0.19-0.23-0.09-0.1s-0.03-0.04-0.04-0.06
			c-0.05-0.08-0.1-0.15-0.15-0.22c-0.08-0.13-0.16-0.27-0.24-0.41c-0.04-0.07-0.2-0.45-0.11-0.21c-0.13-0.33-0.23-0.68-0.3-1.03
			c-0.01-0.07-0.03-0.14-0.04-0.22c0.03,0.16,0,0.06,0-0.05c-0.01-0.18-0.02-0.35-0.03-0.53c0-0.18,0.01-0.36,0.02-0.54
			c0,0,0.02-0.26,0.01-0.12c-0.01,0.12,0.05-0.28,0.05-0.28c0.15-0.8-0.22-1.62-1.05-1.85c-0.73-0.2-1.69,0.25-1.85,1.05
			c-0.62,3.27,0.69,6.98,3.96,8.28c1.4,0.55,3.05,0.37,4.3-0.47c1.26-0.84,2.08-2.06,2.64-3.44c1-2.47,1.01-5.59-0.2-8
			c-0.58-1.16-1.59-2.11-2.85-2.49c-1.36-0.4-2.87-0.01-4.01,0.79c-2.91,2.03-4.59,5.96-3.79,9.45c0.18,0.79,1.09,1.26,1.85,1.05
			C210.19,315.98,210.61,315.15,210.43,314.36L210.43,314.36z"/>
	</g>
</g>
<g>
	<g>
		<path class="st0" d="M216.24,310.11c6.48-7.37,12.96-14.74,19.44-22.11c1.27-1.44-0.84-3.57-2.12-2.12
			c-6.48,7.37-12.96,14.74-19.44,22.11C212.85,309.43,214.96,311.56,216.24,310.11L216.24,310.11z"/>
	</g>
</g>
<g>
	<g>
		<path class="st0" d="M229.67,264.19c-3.96,10.26-7.92,20.53-11.89,30.79c-0.7,1.8,2.2,2.58,2.89,0.8
			c3.96-10.26,7.92-20.53,11.89-30.79C233.26,263.19,230.36,262.41,229.67,264.19L229.67,264.19z"/>
	</g>
</g>
<g>
	<g>
		<path class="st0" d="M217.25,317.64c8.13,2.09,15.89,5.28,23.16,9.45c1.68,0.96,3.19-1.63,1.51-2.59
			c-7.49-4.29-15.52-7.6-23.88-9.75C216.18,314.26,215.38,317.16,217.25,317.64L217.25,317.64z"/>
	</g>
</g>
<g>
	<g>
		<path class="st0" d="M208.39,319.06c-1.86,9.99-3.72,19.97-5.58,29.96c-0.35,1.89,2.54,2.7,2.89,0.8
			c1.86-9.99,3.72-19.97,5.58-29.96C211.64,317.97,208.75,317.16,208.39,319.06L208.39,319.06z"/>
	</g>
</g>
<g>
	<g>
		<path class="st0" d="M208.32,312.94c-8.07,0.01-16.15,0.02-24.22,0.03c-1.93,0-1.93,3,0,3c8.07-0.01,16.15-0.02,24.22-0.03
			C210.25,315.94,210.25,312.94,208.32,312.94L208.32,312.94z"/>
	</g>
</g>
<g>
	<g>
		<path class="st0" d="M197.85,268.27c3.67,10.48,8.31,20.61,14.08,30.11c1,1.65,3.6,0.14,2.59-1.51
			c-5.64-9.27-10.2-19.15-13.78-29.39C200.1,265.66,197.21,266.44,197.85,268.27L197.85,268.27z"/>
	</g>
</g>
<g>
	<g>
		<path class="st0" d="M210.56,306.34c-5.32-9.75-10.63-19.51-15.95-29.26c-0.92-1.7-3.52-0.18-2.59,1.51
			c5.32,9.75,10.63,19.51,15.95,29.26C208.89,309.55,211.48,308.03,210.56,306.34L210.56,306.34z"/>
	</g>
</g>
<g>
	<g>
		<path class="st0" d="M181.38,350.92c7.7-8.94,15.39-17.88,23.09-26.81c1.25-1.46-0.86-3.59-2.12-2.12
			c-7.7,8.94-15.39,17.88-23.09,26.81C178,350.25,180.12,352.39,181.38,350.92L181.38,350.92z"/>
	</g>
</g>
<g>
	<g>
		<path class="st0" d="M212.99,319.53c0.34,10.92,2.03,21.81,5.39,32.22c0.59,1.83,3.49,1.05,2.89-0.8
			c-3.28-10.17-4.95-20.76-5.28-31.42C215.93,317.6,212.93,317.59,212.99,319.53L212.99,319.53z"/>
	</g>
</g>
<g>
	<g>
		<path class="st0" d="M249.9,291.45c-8.12,5.12-16.65,9.61-25.54,13.22c-1.77,0.72-0.99,3.62,0.8,2.89
			c9.15-3.71,17.91-8.25,26.26-13.52C253.05,293.01,251.54,290.42,249.9,291.45L249.9,291.45z"/>
	</g>
</g>
<g>
	<g>
		<path class="st0" d="M174.48,326.86c5.97-0.41,11.94-0.82,17.9-1.23c1.92-0.13,1.93-3.13,0-3c-5.97,0.41-11.94,0.82-17.9,1.23
			C172.57,323.99,172.55,326.99,174.48,326.86L174.48,326.86z"/>
	</g>
</g>
<g>
	<g>
		<path class="st0" d="M249.44,336.73c-8.48-4.81-17.4-8.8-26.65-11.89c-1.84-0.61-2.62,2.28-0.8,2.89c9.01,3,17.67,6.9,25.93,11.58
			C249.61,340.27,251.12,337.68,249.44,336.73L249.44,336.73z"/>
	</g>
</g>
<g>
	<g>
		<path class="st0" d="M209.94,369.2c0.48-8.52,0.96-17.05,1.44-25.57c0.11-1.93-2.89-1.92-3,0c-0.48,8.52-0.96,17.05-1.44,25.57
			C206.83,371.13,209.83,371.12,209.94,369.2L209.94,369.2z"/>
	</g>
</g>
<g>
	<g>
		<path class="st0" d="M88.41,281.87c-0.16,0.2-0.39,0.36-0.54,0.55c-0.09,0.12,0.06-0.04,0.08-0.06c-0.05,0.03-0.09,0.06-0.14,0.09
			c-0.11,0.07-0.21,0.13-0.32,0.19c-0.06,0.03-0.13,0.06-0.19,0.09c0.01-0.01,0.27-0.09,0.12-0.06c-0.1,0.02-0.19,0.06-0.29,0.09
			c-0.05,0.01-0.1,0.02-0.15,0.03c-0.2,0.06,0.01-0.08,0.11-0.01c-0.04-0.03-0.29,0.02-0.34,0.02c-0.1,0-0.19-0.01-0.29-0.01
			c-0.34-0.01,0.21,0.06-0.03-0.01c-0.09-0.03-0.19-0.04-0.28-0.07c-0.06-0.02-0.4-0.14-0.19-0.06c0.21,0.08-0.12-0.06-0.18-0.1
			c-0.09-0.05-0.17-0.1-0.26-0.16c-0.15-0.1-0.2-0.17-0.02-0.01c-0.1-0.09-0.21-0.18-0.31-0.28c-0.07-0.07-0.14-0.15-0.21-0.23
			c-0.19-0.2,0.12,0.2-0.03-0.03c-0.14-0.22-0.27-0.44-0.39-0.67c-0.13-0.25,0.06,0.21-0.02-0.06c-0.04-0.13-0.09-0.26-0.12-0.39
			c-0.03-0.12-0.06-0.23-0.08-0.35c-0.01-0.06-0.02-0.12-0.03-0.18c0.03,0.21,0.01,0.12,0.01-0.04c-0.01-0.26-0.01-0.52,0-0.78
			c0-0.07,0.01-0.13,0.02-0.19c0,0.06-0.05,0.3,0,0.01c0.03-0.15,0.06-0.29,0.09-0.44c0.07-0.27,0.15-0.52,0.25-0.78
			c0.1-0.27-0.09,0.15,0.05-0.1c0.07-0.13,0.13-0.26,0.2-0.38c0.13-0.23,0.28-0.44,0.43-0.67c-0.14,0.21-0.02,0.02,0.06-0.07
			c0.1-0.12,0.21-0.24,0.32-0.35c0.16-0.17,0.34-0.31,0.51-0.47c-0.26,0.24,0.02-0.01,0.1-0.07c0.11-0.07,0.21-0.14,0.32-0.2
			s0.22-0.12,0.33-0.17c0.05-0.02,0.1-0.04,0.14-0.07c-0.01,0-0.27,0.09-0.12,0.05c0.22-0.05,0.45-0.12,0.67-0.18
			c0.17-0.05-0.17,0.04-0.16,0.02c0.01-0.01,0.13-0.01,0.14-0.01c0.09,0,0.19,0,0.28,0c0.33-0.01-0.23-0.08,0.02,0
			c0.1,0.03,0.21,0.05,0.31,0.08c0.02,0.01,0.12,0.03,0.13,0.05c0.02,0.02-0.27-0.17-0.14-0.05c0.07,0.07,0.2,0.12,0.29,0.17
			c0.22,0.13-0.17-0.18,0.01,0.01c0.07,0.08,0.16,0.19,0.24,0.25c0.14,0.11-0.15-0.25-0.06-0.09c0.02,0.04,0.06,0.08,0.08,0.12
			c0.05,0.08,0.1,0.16,0.15,0.24s0.08,0.18,0.13,0.26c-0.2-0.33-0.02-0.03,0.03,0.1c0.06,0.19,0.12,0.39,0.16,0.59
			c0.01,0.05,0.08,0.45,0.04,0.21c-0.04-0.22,0.01,0.16,0.02,0.23c0.04,0.51-0.02,0.99-0.04,1.5c-0.01,0.17,0.01-0.11,0.02-0.12
			c-0.01,0.07-0.02,0.15-0.04,0.23c-0.02,0.13-0.05,0.26-0.08,0.39c-0.06,0.28-0.14,0.56-0.22,0.83c-0.05,0.14-0.1,0.29-0.15,0.43
			c-0.02,0.05-0.04,0.1-0.06,0.16c-0.07,0.2,0.12-0.23,0.02-0.05c-0.13,0.24-0.24,0.49-0.37,0.73c-0.06,0.11-0.13,0.21-0.2,0.32
			c-0.04,0.06-0.28,0.4-0.16,0.23c0.13-0.17-0.1,0.11-0.14,0.16c-0.08,0.09-0.16,0.17-0.24,0.25c-0.04,0.04-0.36,0.32-0.18,0.17
			c0.17-0.15-0.1,0.07-0.15,0.1c-0.1,0.07-0.22,0.12-0.32,0.18c-0.04,0.02-0.2,0.08,0.01,0c0.24-0.1-0.04,0.01-0.07,0.02
			c-0.77,0.26-1.27,1.03-1.05,1.85c0.21,0.75,1.07,1.3,1.85,1.05c2.49-0.83,3.93-3.45,4.39-5.9c0.47-2.49,0.19-5.71-2.24-7.13
			c-2.61-1.52-5.6,0.3-7.16,2.45c-1.69,2.33-2.06,5.85-0.26,8.23c0.96,1.27,2.33,2.12,3.94,2.24c1.57,0.12,3.11-0.63,4.11-1.82
			c0.52-0.62,0.61-1.51,0-2.12C89.99,281.33,88.93,281.24,88.41,281.87L88.41,281.87z"/>
	</g>
</g>
<g>
	<g>
		<path class="st0" d="M85.21,277.17c-6.14-4.04-12.27-8.09-18.41-12.13c-1.62-1.07-3.12,1.53-1.51,2.59
			c6.14,4.04,12.27,8.09,18.41,12.13C85.32,280.82,86.82,278.23,85.21,277.17L85.21,277.17z"/>
	</g>
</g>
<g>
	<g>
		<path class="st0" d="M52.48,281.7c7.45-0.08,14.89-0.17,22.34-0.25c1.93-0.02,1.93-3.02,0-3c-7.45,0.08-14.89,0.17-22.34,0.25
			C50.55,278.72,50.55,281.72,52.48,281.7L52.48,281.7z"/>
	</g>
</g>
<g>
	<g>
		<path class="st0" d="M90,272.55c-0.44-10.28-0.08-20.58,1.03-30.81c0.21-1.92-2.79-1.9-3,0c-1.11,10.23-1.47,20.53-1.03,30.81
			C87.08,274.48,90.09,274.49,90,272.55L90,272.55z"/>
	</g>
</g>
<g>
	<g>
		<path class="st0" d="M92.7,281.37c6.81-2.33,13.62-4.66,20.43-6.99c1.82-0.62,1.04-3.52-0.8-2.89
			c-6.81,2.33-13.62,4.66-20.43,6.99C90.08,279.1,90.86,282,92.7,281.37L92.7,281.37z"/>
	</g>
</g>
<g>
	<g>
		<path class="st0" d="M87.98,284.27c1.77,9.11,3.53,18.22,5.3,27.32c0.37,1.89,3.26,1.09,2.89-0.8c-1.77-9.11-3.53-18.22-5.3-27.32
			C90.5,281.58,87.61,282.38,87.98,284.27L87.98,284.27z"/>
	</g>
</g>
<g>
	<g>
		<path class="st0" d="M62.82,315.44c6.17-9.16,11.51-18.86,16.04-28.93c0.79-1.75-1.8-3.27-2.59-1.51
			c-4.53,10.07-9.87,19.77-16.04,28.93C59.14,315.53,61.74,317.03,62.82,315.44L62.82,315.44z"/>
	</g>
</g>
<g>
	<g>
		<path class="st0" d="M83.21,285.25c-5.1,10.33-10.19,20.66-15.29,31c-0.85,1.73,1.74,3.25,2.59,1.51
			c5.1-10.33,10.19-20.66,15.29-31C86.65,285.04,84.06,283.52,83.21,285.25L83.21,285.25z"/>
	</g>
</g>
<g>
	<g>
		<path class="st0" d="M119,298.46c-7.41-4.72-14.82-9.44-22.23-14.16c-1.63-1.04-3.14,1.55-1.51,2.59
			c7.41,4.72,14.82,9.44,22.23,14.16C119.12,302.09,120.63,299.5,119,298.46L119,298.46z"/>
	</g>
</g>
<g>
	<g>
		<path class="st0" d="M92.09,275.94c7.68-5.79,14.24-12.84,19.78-20.69c1.12-1.58-1.48-3.08-2.59-1.51
			c-5.22,7.39-11.47,14.15-18.71,19.61c-0.65,0.49-0.97,1.29-0.54,2.05C90.4,276.05,91.44,276.43,92.09,275.94L92.09,275.94z"/>
	</g>
</g>
<g>
	<g>
		<path class="st0" d="M64.98,246.4c5.39,7.35,10.11,15.17,14.22,23.31c0.87,1.72,3.46,0.21,2.59-1.51
			c-4.1-8.14-8.83-15.96-14.22-23.31C66.44,243.34,63.83,244.84,64.98,246.4L64.98,246.4z"/>
	</g>
</g>
<g>
	<g>
		<path class="st0" d="M105.25,316.82c-1.57-6.55-3.13-13.11-4.7-19.66c-0.45-1.88-3.34-1.08-2.89,0.8
			c1.57,6.55,3.13,13.11,4.7,19.66C102.81,319.5,105.7,318.7,105.25,316.82L105.25,316.82z"/>
	</g>
</g>
<g>
	<g>
		<path class="st0" d="M123.21,258.36c-5.39,3.16-10.79,6.33-16.18,9.49c-1.66,0.98-0.16,3.57,1.51,2.59
			c5.39-3.16,10.79-6.33,16.18-9.49C126.39,259.98,124.88,257.38,123.21,258.36L123.21,258.36z"/>
	</g>
</g>
<line class="st1" x1="13.02" y1="31.83" x2="381.5" y2="-7.5"/>
<line class="st1" x1="13.02" y1="255.6" x2="47.5" y2="274.5"/>
<line class="st1" x1="13.02" y1="31.83" x2="13.02" y2="255.16"/>
<g>
	<g>
		<path class="st0" d="M165.61,301.25c5.25-13.89,13.61-26.4,25.12-35.87c10.24-8.43,24.06-15.28,37.65-12.58
			c12.64,2.51,21.42,12.66,26.52,23.93c3.66,8.08,5.61,16.85,6.12,25.69c0.82,14.24-1.68,28.9-7.48,41.95
			c-4.08,9.18-9.8,17.51-17.37,24.13c-8.32,7.26-19.14,12.71-30.46,11.54c-0.13-0.01-0.26-0.03-0.4-0.05
			c-0.23-0.03-0.14-0.02,0.07,0.01c-0.11-0.02-0.22-0.03-0.33-0.05c-0.48-0.08-0.95-0.15-1.42-0.25c-1.31-0.26-2.61-0.59-3.88-0.99
			c-3.62-1.13-7.04-2.81-10.17-4.96c-10.54-7.23-16.12-19.43-18-31.77c-2.02-13.2,0.07-27.05,4.62-39.54
			c0.26-0.71,0.53-1.42,0.81-2.13c0.1-0.26,0.21-0.52,0.32-0.78c0.14-0.34-0.09,0.21,0.11-0.25c0.76-1.75-1.83-3.28-2.59-1.51
			c-4.38,10.15-6.75,21.4-6.98,32.43c-0.31,14.71,3.64,30.48,14.26,41.19c5.62,5.67,13.02,9.73,20.88,11.23
			c9.94,1.9,20.15-1.36,28.45-6.8c8.15-5.34,14.87-12.58,19.94-20.88c7.84-12.84,11.95-27.9,12.68-42.87
			c0.5-10.31-0.66-20.75-4.04-30.53c-3.94-11.42-10.84-22.63-21.82-28.42c-13.08-6.9-28.17-3.68-40.36,3.57
			c-13.56,8.06-24.3,20.51-31.2,34.62c-1.46,2.97-2.75,6.02-3.93,9.12C162.03,302.26,164.93,303.04,165.61,301.25L165.61,301.25z"/>
	</g>
</g>
<g>
	<g>
		<path class="st0" d="M44.3,264.69c4.67-12.35,12.09-23.47,22.29-31.91c9.14-7.56,21.51-13.75,33.68-11.34
			c11.25,2.23,19.05,11.23,23.61,21.25c3.28,7.2,5.03,15.03,5.49,22.92c0.75,12.69-1.45,25.76-6.6,37.41
			c-3.66,8.28-8.79,15.79-15.63,21.75c-7.41,6.47-17.04,11.29-27.11,10.25c-0.12-0.01-0.24-0.03-0.37-0.04
			c-0.27-0.03,0.31,0.05-0.19-0.03c-0.42-0.07-0.85-0.14-1.27-0.22c-1.17-0.23-2.32-0.53-3.46-0.88c-3.22-1-6.27-2.5-9.05-4.41
			c-9.41-6.44-14.38-17.33-16.07-28.34c-1.81-11.79,0.07-24.17,4.13-35.32c0.23-0.63,0.47-1.27,0.72-1.89
			c0.09-0.23,0.18-0.45,0.28-0.68c0.1-0.24-0.09,0.2,0.09-0.22c0.76-1.75-1.83-3.28-2.59-1.51c-3.94,9.13-6.07,19.24-6.27,29.17
			c-0.27,13.16,3.28,27.25,12.74,36.85c5.05,5.12,11.71,8.79,18.79,10.15c8.92,1.72,18.09-1.18,25.56-6.05
			c7.3-4.77,13.33-11.24,17.88-18.65c7.08-11.54,10.79-25.1,11.45-38.58c0.45-9.27-0.6-18.67-3.65-27.46
			c-3.56-10.27-9.8-20.35-19.71-25.52c-11.8-6.15-25.38-3.18-36.32,3.38c-12.09,7.25-21.66,18.36-27.82,30.96
			c-1.3,2.66-2.47,5.4-3.51,8.17C40.73,265.7,43.62,266.48,44.3,264.69L44.3,264.69z"/>
	</g>
</g>
<g>
	<g>
		<path class="st0" d="M228.76,198.18c-0.95,3.61-0.53,7.27-0.2,10.93c0.35,3.81,0.56,7.63,0.64,11.45
			c0.16,7.74-0.24,15.49-1.15,23.18c-0.23,1.91,2.77,1.9,3,0c0.9-7.53,1.3-15.11,1.16-22.69c-0.07-3.74-0.26-7.48-0.58-11.21
			c-0.31-3.61-0.91-7.3,0.03-10.86C232.15,197.11,229.25,196.31,228.76,198.18L228.76,198.18z"/>
	</g>
</g>
<g>
	<g>
		<path class="st0" d="M227,245.98c5.56-1.38,11.23-0.3,16.64,1.22c5.49,1.54,10.91,3.33,16.35,5.02c1.85,0.57,2.64-2.32,0.8-2.89
			c-5.74-1.78-11.47-3.71-17.27-5.27c-5.65-1.52-11.54-2.4-17.31-0.97C224.33,243.55,225.13,246.44,227,245.98L227,245.98z"/>
	</g>
</g>
<g>
	<g>
		<path class="st0" d="M298.71,213.06c-7.21,4.83-13.96,10.35-20.1,16.49c-6.5,6.51-12.35,13.69-18.39,20.64
			c-1.26,1.45,0.85,3.58,2.12,2.12c5.93-6.83,11.69-13.89,18.07-20.32c6.04-6.09,12.68-11.56,19.81-16.34
			C301.82,214.58,300.32,211.98,298.71,213.06L298.71,213.06z"/>
	</g>
</g>
<g>
	<g>
		<path class="st0" d="M232.21,200.29c8.81,1.81,17.63,3.63,26.44,5.44c4.34,0.89,8.7,1.71,13.01,2.75c4,0.97,7.82,2.37,11.65,3.86
			c4.29,1.68,8.61,3.33,13.18,4.04c1.89,0.29,2.7-2.6,0.8-2.89c-8.11-1.25-15.35-5.42-23.24-7.5c-8.55-2.25-17.35-3.71-26-5.49
			c-5.01-1.03-10.03-2.06-15.04-3.09C231.12,197.01,230.31,199.9,232.21,200.29L232.21,200.29z"/>
	</g>
</g>
<g>
	<g>
		<path class="st0" d="M51.71,209.99c22.01,3.47,43.86,7.94,65.45,13.42c6.15,1.56,12.27,3.2,18.38,4.92
			c1.86,0.52,2.66-2.37,0.8-2.89c-21.45-6.03-43.17-11.09-65.08-15.13c-6.24-1.15-12.49-2.22-18.76-3.2
			C50.62,206.8,49.81,209.69,51.71,209.99L51.71,209.99z"/>
	</g>
</g>
<g>
	<g>
		<path class="st0" d="M72.86,212.06c-4.16,3.71-7.09,8.64-9.2,13.75c-0.31,0.75,0.34,1.65,1.05,1.85c0.86,0.24,1.53-0.3,1.85-1.05
			c1.92-4.63,4.67-9.07,8.43-12.42c0.6-0.54,0.55-1.57,0-2.12C74.38,211.46,73.47,211.52,72.86,212.06L72.86,212.06z"/>
	</g>
</g>
<g>
	<g>
		<path class="st0" d="M99.08,216.33c-4.76,1.45-9.33,3.52-13.55,6.16c-1.63,1.02-0.13,3.62,1.51,2.59
			c4.01-2.51,8.31-4.49,12.84-5.86C101.72,218.66,100.94,215.76,99.08,216.33L99.08,216.33z"/>
	</g>
</g>
<g>
	<g>
		<path class="st0" d="M77.36,180.4c0.77,5.19,1.54,10.38,2.3,15.57c0.38,2.57,0.78,5.15,1.14,7.72c0.35,2.48,0.54,4.99-0.14,7.43
			c-0.52,1.86,2.37,2.66,2.89,0.8c1.42-5.08-0.11-10.69-0.86-15.77c-0.82-5.51-1.63-11.03-2.45-16.54
			C79.97,177.69,77.08,178.5,77.36,180.4L77.36,180.4z"/>
	</g>
</g>
<g>
	<g>
		<path class="st0" d="M79.4,180.55c13.17,6.54,28.01,9.34,42.65,7.91c1.9-0.19,1.92-3.19,0-3c-14.11,1.37-28.43-1.19-41.14-7.5
			C79.19,177.1,77.67,179.69,79.4,180.55L79.4,180.55z"/>
	</g>
</g>
<g>
	<g>
		<path class="st0" d="M110.84,220.87c3.23-1.49,5.23-4.74,7.28-7.49c2.41-3.23,4.82-6.46,7.22-9.69c0.48-0.65,0.11-1.68-0.54-2.05
			c-0.77-0.45-1.57-0.11-2.05,0.54c-2.28,3.06-4.56,6.11-6.83,9.17c-1.86,2.5-3.66,5.58-6.59,6.94c-0.74,0.34-0.92,1.4-0.54,2.05
			C109.23,221.08,110.1,221.21,110.84,220.87L110.84,220.87z"/>
	</g>
</g>
<g>
	<g>
		<path class="st0" d="M226.69,220.38c1.48,0.1,2.96,0.21,4.43,0.31c0.78,0.06,1.53-0.73,1.5-1.5c-0.04-0.86-0.66-1.44-1.5-1.5
			c-1.48-0.1-2.96-0.21-4.43-0.31c-0.78-0.06-1.53,0.73-1.5,1.5C225.22,219.74,225.85,220.32,226.69,220.38L226.69,220.38z"/>
	</g>
</g>
<g>
	<g>
		<path class="st0" d="M223.97,246.93c0.76-0.33,1.52-0.67,2.28-1c0.17-0.09,0.32-0.22,0.42-0.39c0.13-0.14,0.22-0.31,0.27-0.51
			c0.06-0.2,0.07-0.4,0.03-0.6c-0.01-0.2-0.07-0.39-0.18-0.56c-0.21-0.32-0.51-0.6-0.9-0.69c-0.13-0.02-0.27-0.04-0.4-0.05
			c-0.27,0-0.52,0.07-0.76,0.2c-0.76,0.33-1.52,0.67-2.28,1c-0.17,0.09-0.32,0.22-0.42,0.39c-0.13,0.14-0.22,0.31-0.27,0.51
			c-0.06,0.2-0.07,0.4-0.03,0.6c0.01,0.2,0.07,0.39,0.18,0.56c0.21,0.32,0.51,0.6,0.9,0.69c0.13,0.02,0.27,0.04,0.4,0.05
			C223.48,247.13,223.73,247.07,223.97,246.93L223.97,246.93z"/>
	</g>
</g>
<g>
	<g>
		<path class="st0" d="M57.14,205.91c7.87,2.19,15.94,3.6,24.08,4.26c1.92,0.16,1.91-2.84,0-3c-7.88-0.64-15.67-2.04-23.28-4.16
			C56.07,202.5,55.28,205.39,57.14,205.91L57.14,205.91z"/>
	</g>
</g>
<g>
	<g>
		<path class="st0" d="M115.09,218.76c6.27,1.16,12.55,2.32,18.82,3.47c1.89,0.35,2.7-2.54,0.8-2.89
			c-6.27-1.16-12.55-2.32-18.82-3.47C114,215.52,113.19,218.41,115.09,218.76L115.09,218.76z"/>
	</g>
</g>
<g>
	<g>
		<path class="st0" d="M286.48,212.34c7.67-5.82,16.84-9.47,26.43-10.36c1.91-0.18,1.92-3.18,0-3
			c-10.12,0.93-19.84,4.62-27.95,10.77C283.45,210.9,284.94,213.51,286.48,212.34L286.48,212.34z"/>
	</g>
</g>
<g>
	<g>
		<path class="st0" d="M318.61,194.35c-1.67,0.77-3.28,1.65-4.36,3.19c-1,1.43-1.05,3.39-0.25,4.91c0.94,1.78,3.08,2.34,4.84,1.46
			c1.6-0.79,2.54-2.66,3.01-4.29c0.34-1.21,0.44-2.62-0.27-3.72c-0.72-1.12-2.1-1.84-3.43-1.42c-0.75,0.23-1.3,1.06-1.05,1.85
			c0.24,0.75,1.04,1.3,1.85,1.05c0.03-0.01,0.06-0.02,0.09-0.03c0.13-0.03,0.12-0.03-0.01,0c-0.04,0.01-0.07,0.01-0.11,0.02
			c0.13,0.01,0.12,0-0.01-0.01c-0.31-0.05,0.08,0.03,0.07,0.04c-0.02,0.04-0.33-0.19-0.1-0.03c0.04,0.03,0.12,0.09,0.16,0.11
			c-0.23-0.08-0.17-0.15-0.08-0.04c0,0,0.14,0.13,0.13,0.15c-0.13-0.17-0.15-0.19-0.06-0.06c0.02,0.03,0.03,0.06,0.05,0.09
			c0,0-0.11-0.33-0.02-0.03c0.01,0.05,0.09,0.31,0.04,0.11c-0.05-0.22,0.01,0.15,0.01,0.17c0,0.08,0,0.17-0.01,0.25
			c0,0.06,0,0.3,0.01-0.02c0,0.08-0.03,0.17-0.05,0.25c-0.04,0.21-0.1,0.42-0.16,0.62c-0.05,0.16-0.1,0.32-0.16,0.48
			c-0.02,0.04-0.05,0.21-0.09,0.23c0.01,0,0.16-0.34,0.03-0.08c-0.13,0.28-0.27,0.55-0.43,0.81c-0.04,0.07-0.09,0.14-0.14,0.21
			c-0.04,0.05-0.12,0.24-0.03,0.05c0.09-0.2-0.03,0.04-0.07,0.08c-0.04,0.05-0.09,0.1-0.13,0.15c-0.09,0.09-0.18,0.18-0.28,0.27
			c-0.19,0.19,0.06-0.07,0.08-0.06c-0.03-0.01-0.19,0.13-0.23,0.15c-0.06,0.04-0.14,0.06-0.2,0.11c-0.15,0.1,0.29-0.07,0.11-0.05
			c-0.06,0.01-0.15,0.04-0.21,0.06c-0.17,0.05-0.04-0.08,0.13-0.01c-0.04-0.02-0.34-0.02-0.37,0c0.09-0.08,0.32,0.07,0.13,0.01
			c-0.06-0.02-0.17-0.07-0.24-0.07c0.22-0.01,0.28,0.15,0.1,0.04c-0.04-0.03-0.09-0.05-0.14-0.08c-0.17-0.1-0.03-0.13,0.08,0.07
			c-0.02-0.03-0.09-0.08-0.11-0.11c-0.04-0.04-0.07-0.08-0.11-0.12c-0.16-0.17,0.08,0.09,0.09,0.11c-0.02-0.1-0.15-0.26-0.2-0.35
			c-0.11-0.21,0.05,0.1,0.05,0.13c0-0.06-0.05-0.14-0.07-0.2c-0.04-0.12-0.06-0.25-0.09-0.37c-0.03-0.14,0.05-0.15,0.02,0.15
			c0.01-0.05-0.01-0.12-0.01-0.17c-0.01-0.14-0.01-0.29,0-0.43c0-0.05,0.02-0.12,0.02-0.17c0.03,0.34-0.05,0.26-0.01,0.1
			c0.03-0.12,0.06-0.25,0.1-0.37c0.02-0.05,0.05-0.11,0.06-0.16c-0.06,0.32-0.11,0.23-0.05,0.13c0.09-0.15,0.18-0.3,0.27-0.44
			c0.15-0.23-0.03,0.02-0.04,0.05c0.04-0.09,0.15-0.17,0.21-0.24c0.12-0.13,0.25-0.26,0.38-0.38c0.07-0.06,0.14-0.12,0.21-0.17
			c0.14-0.12-0.23,0.16,0,0c0.15-0.1,0.3-0.21,0.46-0.31c0.66-0.41,1.36-0.74,2.07-1.07c0.72-0.33,0.95-1.42,0.54-2.05
			C320.19,194.15,319.38,194,318.61,194.35L318.61,194.35z"/>
	</g>
</g>
<g>
	<g>
		<path class="st0" d="M314.99,199.62c-1.21-1.69-2.91-4.79-0.83-6.54c1.37-1.16,3.39,0.55,2.88,2.13
			c-0.47,1.47,1.47,2.46,2.51,1.46c1.66-1.58,4.61-1.56,5.54,0.79c0.37,0.93,0.26,1.98-0.5,2.67c-0.67,0.61-1.71,0.9-2.55,0.47
			c-1.47-0.75-3.09,1.12-1.82,2.36c1.49,1.45,0.79,4.01-1.36,4.22c-2.13,0.21-3.21-2.16-2.13-3.84c-0.91-0.39-1.83-0.77-2.74-1.16
			c-0.33,2.22-3.03,3.49-4.59,1.53c-1.54-1.93,0.22-4.33,2.48-4.13c1.92,0.17,1.91-2.83,0-3c-2.13-0.18-4.25,1-5.33,2.82
			c-1.16,1.96-0.88,4.37,0.5,6.14c1.35,1.72,3.57,2.58,5.71,1.98c2.07-0.58,3.81-2.38,4.13-4.53c0.24-1.62-1.77-2.68-2.74-1.16
			c-2.35,3.68,0.54,8.77,4.97,8.33c2.12-0.21,3.96-1.51,4.64-3.57c0.66-2,0.09-4.29-1.41-5.75c-0.61,0.79-1.21,1.57-1.82,2.36
			c4.13,2.1,8.84-1.85,7.54-6.29c-1.39-4.75-7.28-5.57-10.63-2.36c0.84,0.49,1.67,0.97,2.51,1.46c1.22-3.81-3.15-7.64-6.75-5.86
			c-1.75,0.87-2.74,2.77-2.94,4.65c-0.24,2.3,0.85,4.52,2.15,6.34c0.47,0.66,1.31,0.98,2.05,0.54
			C315.1,201.29,315.47,200.28,314.99,199.62L314.99,199.62z"/>
	</g>
</g>
<g>
	<g>
		<path class="st0" d="M289.32,213.73c3.21-0.46,6.68,0.22,9.57,1.83c0.71,0.39,1.64,0.17,2.05-0.54c0.4-0.69,0.17-1.66-0.54-2.05
			c-3.64-2.02-7.77-2.72-11.88-2.13c-0.8,0.11-1.24,1.14-1.05,1.85C287.71,213.54,288.52,213.84,289.32,213.73L289.32,213.73z"/>
	</g>
</g>
<g>
	<g>
		<path class="st0" d="M293.9,213.98c2.66-0.41,5.53-0.87,8.14,0.04c1.69,0.58,3.52,2.05,3.76,3.9c0.1,0.8,0.62,1.5,1.5,1.5
			c0.73,0,1.6-0.69,1.5-1.5c-0.39-3.07-2.5-5.36-5.31-6.54c-3.3-1.38-6.97-0.82-10.39-0.29c-0.8,0.12-1.24,1.13-1.05,1.85
			C292.29,213.79,293.1,214.1,293.9,213.98L293.9,213.98z"/>
	</g>
</g>
<g>
	<g>
		<path class="st0" d="M296.45,211.59c3.41-0.82,6.82-1.65,10.23-2.47c0.79-0.19,1.26-1.08,1.05-1.85c-0.22-0.8-1.06-1.24-1.85-1.05
			c-3.41,0.82-6.82,1.65-10.23,2.47c-0.79,0.19-1.26,1.08-1.05,1.85C294.83,211.35,295.66,211.78,296.45,211.59L296.45,211.59z"/>
	</g>
</g>
<g>
	<g>
		<path class="st0" d="M285.94,210.11c0.44-2.9,0.87-5.81,1.31-8.71c0.12-0.77-0.19-1.65-1.05-1.85c-0.71-0.16-1.72,0.22-1.85,1.05
			c-0.44,2.9-0.87,5.81-1.31,8.71c-0.12,0.77,0.19,1.65,1.05,1.85C284.81,211.32,285.82,210.94,285.94,210.11L285.94,210.11z"/>
	</g>
</g>
<g>
	<g>
		<path class="st0" d="M251.8,201.49c3.43-9.54,1.94-20.59-3.9-28.87c-1.1-1.57-3.71-0.07-2.59,1.51c5.43,7.7,6.78,17.7,3.59,26.56
			C248.25,202.51,251.15,203.3,251.8,201.49L251.8,201.49z"/>
	</g>
</g>
<g>
	<g>
		<path class="st0" d="M247.94,172.81c-0.2-0.03-0.4-0.07-0.6-0.13c-0.08-0.02-0.66-0.24-0.33-0.09c-0.18-0.08-0.36-0.17-0.54-0.27
			c-0.07-0.04-0.14-0.08-0.21-0.13c-0.03-0.02-0.4-0.27-0.25-0.16c0.18,0.13-0.13-0.11-0.13-0.11c-0.06-0.05-0.12-0.11-0.18-0.16
			c-0.15-0.14-0.29-0.28-0.42-0.44c-0.04-0.04-0.29-0.36-0.07-0.07c-0.05-0.06-0.1-0.13-0.14-0.2c-0.14-0.2-0.27-0.41-0.38-0.62
			c-0.04-0.07-0.08-0.14-0.11-0.22c-0.03-0.05-0.17-0.43-0.04-0.09c-0.06-0.17-0.13-0.34-0.18-0.52c-0.05-0.17-0.09-0.35-0.13-0.53
			c-0.01-0.07-0.05-0.46-0.02-0.08c-0.01-0.12-0.02-0.24-0.03-0.36c-0.01-0.2,0-0.4,0.01-0.6c0.01-0.28,0-0.02-0.01,0.04
			c0.02-0.12,0.04-0.24,0.07-0.36c0.02-0.09,0.05-0.18,0.07-0.28c-0.01,0.02,0.15-0.41,0.07-0.22c-0.08,0.19,0.13-0.22,0.12-0.2
			c0.1-0.15,0.1-0.16,0.01-0.03c0.03-0.03,0.06-0.07,0.1-0.1c0.03-0.03,0.07-0.06,0.1-0.09c-0.11,0.09-0.09,0.09,0.06,0
			c-0.04,0-0.28,0.08,0.05-0.01c0.12-0.03,0.24-0.05,0.36-0.08c0.25-0.06-0.32,0.01,0.07-0.01c0.21-0.01,0.42-0.02,0.62,0
			c0.08,0,0.17,0.01,0.25,0.02c-0.37-0.03,0.08,0.02,0.16,0.04c0.18,0.04,0.36,0.09,0.54,0.15c0.05,0.02,0.43,0.18,0.11,0.03
			c0.08,0.03,0.15,0.07,0.23,0.11c0.19,0.09,0.37,0.2,0.54,0.31c0,0,0.33,0.24,0.15,0.1c-0.15-0.11,0.19,0.17,0.22,0.2
			c0.13,0.13,0.25,0.27,0.38,0.41c0.15,0.17-0.17-0.29,0.02,0.04c0.05,0.09,0.11,0.17,0.16,0.26s0.1,0.18,0.14,0.27
			c0.13,0.25,0.01,0.04-0.01-0.02c0.08,0.23,0.13,0.46,0.19,0.7c-0.07-0.31-0.01-0.14-0.01-0.05c0,0.12,0.01,0.23,0.01,0.35
			c0,0.08-0.01,0.16-0.01,0.24c-0.01,0.38,0.08-0.3-0.01,0.07c-0.04,0.17-0.08,0.35-0.13,0.51c-0.03,0.09-0.07,0.19-0.1,0.28
			c0.12-0.34-0.02,0.01-0.05,0.07c-0.05,0.1-0.11,0.21-0.18,0.31c-0.04,0.07-0.26,0.36-0.04,0.08c-0.13,0.17-0.29,0.31-0.44,0.47
			c-0.06,0.06-0.28,0.22-0.01,0.02c-0.09,0.07-0.19,0.13-0.29,0.19c-0.1,0.06-0.2,0.11-0.3,0.16c0.22-0.12,0.08-0.03-0.07,0.02
			c-0.07,0.02-0.15,0.04-0.23,0.06s-0.15,0.03-0.23,0.05c0.18-0.02,0.21-0.03,0.1-0.02c-0.1-0.01-0.21,0-0.31,0
			c-0.36,0,0.25,0.09-0.09-0.02c-0.12-0.04-0.23-0.06-0.35-0.11c0.24,0.1,0.06-0.01-0.06-0.07c0.22,0.11,0.11,0.1,0.03,0.02
			c-0.11-0.12-0.11-0.11,0.01,0.04c-0.08-0.15-0.08-0.13-0.01,0.04c-0.3-0.72-1.01-1.32-1.85-1.05c-0.69,0.22-1.37,1.07-1.05,1.85
			c0.31,0.74,0.73,1.34,1.44,1.76c0.61,0.36,1.33,0.53,2.03,0.54c1.27,0.02,2.52-0.57,3.42-1.44c1.82-1.77,2.29-4.69,0.98-6.89
			c-1.36-2.28-4.09-3.41-6.67-3.01c-3.11,0.48-3.86,4.11-3.07,6.7c0.78,2.56,2.96,4.81,5.66,5.25c0.77,0.13,1.65-0.2,1.85-1.05
			C249.16,173.94,248.77,172.95,247.94,172.81L247.94,172.81z"/>
	</g>
</g>
<g>
	<g>
		<path class="st0" d="M244.79,164.24c0.04-2.27,2.02-4.51,4.41-3.57c0.87,0.34,1.54,1.09,1.51,2.06c-0.02,0.81-0.44,1.72-1.25,2.01
			c-1.81,0.63-1.04,3.52,0.8,2.89c2.53-0.86,5.1,1.4,4.14,4.01c-0.87,2.37-4.16,2.75-5.57,0.63c-0.58-0.88-2.05-1.06-2.59,0
			c-0.87,1.71-2.77,3.39-4.78,2.39c-0.66-0.33-1.27-0.97-1.19-1.76c0.07-0.75,0.68-1.45,1.45-1.44c1.6,0.03,1.89-1.98,0.76-2.8
			c-1.53-1.1-3.32-2.91-2.67-4.98c0.2-0.64,0.65-1.25,1.36-1.23c0.47,0.01,1.14,0.3,1.16,0.79c0.09,1.92,3.09,1.93,3,0
			c-0.08-1.78-1.34-3.2-3.06-3.64c-1.86-0.48-3.69,0.31-4.73,1.9c-0.98,1.51-1.11,3.55-0.47,5.21c0.75,1.94,2.23,3.35,3.89,4.55
			c0.25-0.93,0.5-1.86,0.76-2.8c-1.98-0.03-3.62,1.37-4.23,3.21c-0.62,1.85,0.13,3.83,1.62,5.02c3.41,2.71,7.92,0.64,9.72-2.9
			c-0.86,0-1.73,0-2.59,0c1.26,1.89,3.45,3.04,5.74,2.88c2.44-0.17,4.39-1.75,5.24-4.01c0.81-2.16,0.36-4.65-1.27-6.31
			c-1.64-1.68-4.25-2.37-6.49-1.61c0.27,0.96,0.53,1.93,0.8,2.89c4.25-1.48,4.59-7.56,0.52-9.52c-4.43-2.14-8.91,1.53-8.99,6.13
			C241.76,166.17,244.76,166.17,244.79,164.24L244.79,164.24z"/>
	</g>
</g>
<g>
	<g>
		<path class="st0" d="M251.4,197.45c1.18-3.24,0.42-6.98-1.79-9.59c-2.21-2.6-5.78-3.68-9.09-3.12c-0.8,0.14-1.25,1.12-1.05,1.85
			c0.23,0.85,1.04,1.18,1.85,1.05c0.31-0.05-0.04-0.01,0.25-0.03c0.16-0.01,0.33-0.03,0.49-0.03c0.33-0.01,0.66,0.01,0.99,0.03
			c0.35,0.03,1.14,0.22,1.68,0.42c1,0.36,1.99,1.06,2.76,1.96c0.29,0.35,0.64,0.92,0.89,1.46c0.08,0.17,0.18,0.44,0.27,0.74
			c0.1,0.32,0.17,0.65,0.24,0.98c0.03,0.17,0.06,0.43,0.07,0.77c0.01,0.34-0.01,0.67-0.02,1.01c-0.01,0.28,0.02-0.03-0.03,0.27
			c-0.02,0.14-0.05,0.27-0.08,0.41c-0.08,0.36-0.19,0.7-0.31,1.04c-0.28,0.76,0.31,1.64,1.05,1.85
			C250.39,198.73,251.12,198.21,251.4,197.45L251.4,197.45z"/>
	</g>
</g>
<g>
	<g>
		<path class="st0" d="M240.15,199.74c-1.63-3.15-3.78-6.03-6.32-8.51c-0.56-0.55-1.57-0.6-2.12,0c-0.54,0.59-0.6,1.54,0,2.12
			c0.59,0.58,1.17,1.18,1.72,1.81c0.28,0.32,0.56,0.65,0.83,0.98c0.13,0.17,0.27,0.33,0.4,0.5c-0.1-0.12-0.03-0.04,0.03,0.04
			c0.07,0.1,0.14,0.19,0.21,0.29c1,1.36,1.89,2.79,2.67,4.29c0.36,0.7,1.4,0.96,2.05,0.54
			C240.32,201.34,240.53,200.49,240.15,199.74L240.15,199.74z"/>
	</g>
</g>
<g>
	<g>
		<path class="st0" d="M242.37,201.91c0.1-0.31,0.2-0.61,0.31-0.92c0.05-0.13,0.13-0.27,0.16-0.4c-0.07,0.32-0.05,0.11,0,0.01
			c0.03-0.07,0.06-0.13,0.09-0.2c0.27-0.59,0.58-1.15,0.93-1.7c0.16-0.26,0.33-0.51,0.51-0.76c0.05-0.07,0.11-0.14,0.16-0.22
			c0.12-0.17-0.17,0.21-0.04,0.05c0.1-0.13,0.2-0.25,0.31-0.38c0.42-0.49,0.86-0.96,1.34-1.4c0.58-0.53,0.58-1.59,0-2.12
			c-0.62-0.57-1.5-0.57-2.12,0c-2.12,1.95-3.68,4.47-4.54,7.22c-0.23,0.75,0.28,1.67,1.05,1.85
			C241.34,203.15,242.12,202.72,242.37,201.91L242.37,201.91z"/>
	</g>
</g>
<g>
	<g>
		<path class="st0" d="M247.62,202.6c1.36-1.19,2.72-2.38,4.09-3.57c0.28-0.24,0.44-0.7,0.44-1.06c0-0.37-0.16-0.81-0.44-1.06
			c-0.29-0.26-0.66-0.46-1.06-0.44c-0.41,0.02-0.75,0.17-1.06,0.44c-1.36,1.19-2.72,2.38-4.09,3.57c-0.28,0.24-0.44,0.7-0.44,1.06
			c0,0.37,0.16,0.81,0.44,1.06c0.29,0.26,0.66,0.46,1.06,0.44C246.97,203.02,247.31,202.88,247.62,202.6L247.62,202.6z"/>
	</g>
</g>
<g>
	<g>
		<path class="st0" d="M255.11,203.04c0.21-2.21,0.42-4.42,0.62-6.63c0.07-0.78-0.74-1.53-1.5-1.5c-0.88,0.04-1.42,0.66-1.5,1.5
			c-0.21,2.21-0.42,4.42-0.62,6.63c-0.07,0.78,0.74,1.53,1.5,1.5C254.48,204.5,255.03,203.88,255.11,203.04L255.11,203.04z"/>
	</g>
</g>
<g>
	<g>
		<path class="st0" d="M258.25,206.08c1.41-1.47,2.45-3.24,3.08-5.17c0.24-0.75-0.28-1.67-1.05-1.85c-0.82-0.19-1.59,0.25-1.85,1.05
			c-0.11,0.34-0.23,0.67-0.37,0.99c0.05-0.12,0.1-0.24,0.15-0.36c-0.39,0.91-0.89,1.76-1.48,2.54c0.08-0.1,0.16-0.2,0.23-0.3
			c-0.26,0.34-0.54,0.66-0.84,0.97c-0.54,0.57-0.61,1.56,0,2.12C256.72,206.62,257.67,206.69,258.25,206.08L258.25,206.08z"/>
	</g>
</g>
<g>
	<g>
		<path class="st0" d="M252.43,203.31c-1.39,0.98-2.78,1.97-4.16,2.95c-0.33,0.23-0.58,0.5-0.69,0.9c-0.1,0.36-0.05,0.84,0.15,1.16
			c0.21,0.32,0.51,0.6,0.9,0.69c0.37,0.09,0.83,0.08,1.16-0.15c1.39-0.98,2.78-1.97,4.16-2.95c0.33-0.23,0.58-0.5,0.69-0.9
			c0.1-0.36,0.05-0.84-0.15-1.16c-0.21-0.32-0.51-0.6-0.9-0.69C253.22,203.07,252.76,203.08,252.43,203.31L252.43,203.31z"/>
	</g>
</g>
<g>
	<g>
		<path class="st0" d="M245.02,202.48c-2.42,0.17-4.4,1.59-5.73,3.56c-1.37,2.02-1.81,4.5-2.21,6.85c-0.13,0.77,0.2,1.65,1.05,1.85
			c0.73,0.17,1.71-0.22,1.85-1.05c0.18-1.04,0.35-2.09,0.62-3.11c0.27-1.04,0.53-1.79,1.06-2.66c0.11-0.18,0.23-0.36,0.35-0.53
			c0.15-0.21-0.22,0.25,0.07-0.09c0.06-0.07,0.12-0.15,0.18-0.22c0.16-0.18,0.32-0.35,0.49-0.51c0.07-0.06,0.14-0.13,0.21-0.19
			c0.33-0.29-0.12,0.08,0.08-0.07c0.19-0.14,0.38-0.26,0.58-0.38c0.1-0.06,0.2-0.11,0.31-0.16c0.1-0.05,0.16-0.07,0.02-0.02
			c0.21-0.09,0.43-0.15,0.65-0.21c0.09-0.02,0.18-0.03,0.27-0.06c-0.3,0.07,0.1-0.01,0.15-0.01c0.78-0.06,1.54-0.65,1.5-1.5
			C246.48,203.22,245.85,202.42,245.02,202.48L245.02,202.48z"/>
	</g>
</g>
<g>
	<g>
		<path class="st0" d="M258.2,208.29c1.91,3.62,2.1,7.9,0.67,11.72c-0.28,0.76,0.32,1.64,1.05,1.85c0.84,0.23,1.56-0.29,1.85-1.05
			c1.71-4.56,1.29-9.74-0.98-14.03C259.89,205.07,257.3,206.58,258.2,208.29L258.2,208.29z"/>
	</g>
</g>
<g>
	<g>
		<path class="st0" d="M269.47,210.75c0.54,0.51,1.05,1.04,1.54,1.61c0.12,0.15,0.25,0.29,0.36,0.44c0.05,0.07,0.11,0.13,0.16,0.2
			c-0.19-0.24,0,0,0.04,0.05c0.23,0.31,0.45,0.62,0.66,0.94c0.41,0.62,0.78,1.26,1.12,1.92c0.16,0.32,0.32,0.65,0.46,0.98
			c0.05,0.12,0.11,0.25,0.02,0.05c0.03,0.08,0.06,0.16,0.1,0.24c0.08,0.2,0.15,0.39,0.23,0.59c0.27,0.73,1.03,1.31,1.85,1.05
			c0.72-0.23,1.34-1.06,1.05-1.85c-1.16-3.16-3-6.02-5.46-8.33c-0.57-0.54-1.56-0.61-2.12,0
			C268.93,209.21,268.85,210.17,269.47,210.75L269.47,210.75z"/>
	</g>
</g>
<g>
	<g>
		<path class="st0" d="M270.29,212.54c1.71-1.18,3.42-2.36,5.14-3.53c0.33-0.22,0.58-0.51,0.69-0.9c0.1-0.36,0.05-0.84-0.15-1.16
			c-0.41-0.64-1.36-1.01-2.05-0.54c-1.71,1.18-3.42,2.36-5.14,3.53c-0.33,0.22-0.58,0.51-0.69,0.9c-0.1,0.36-0.05,0.84,0.15,1.16
			C268.65,212.64,269.6,213.02,270.29,212.54L270.29,212.54z"/>
	</g>
</g>
<g>
	<g>
		<path class="st0" d="M274.92,214c0.79,0.68,1.18,1.16,1.66,2.03c0.11,0.2,0.22,0.41,0.31,0.62c0.02,0.05,0.04,0.09,0.06,0.14
			c-0.04-0.1-0.04-0.1,0,0s0.07,0.19,0.11,0.29c0.16,0.47,0.29,0.94,0.38,1.43c0.06,0.34,0.09,0.62,0.1,1.15c0,0.23,0,0.47-0.01,0.7
			c-0.01,0.13-0.02,0.26-0.03,0.39c-0.01,0.08-0.03,0.23,0,0.06c-0.07,0.49-0.19,0.97-0.34,1.43c-0.16,0.48-0.22,0.61-0.51,1.13
			c-0.94,1.69,1.65,3.2,2.59,1.51c2.33-4.18,1.44-9.86-2.21-13.01c-0.61-0.53-1.52-0.6-2.12,0
			C274.38,212.42,274.31,213.47,274.92,214L274.92,214z"/>
	</g>
</g>
<g>
	<g>
		<path class="st0" d="M264.99,207.02c-0.06-0.44,0,0.06,0.01,0.15c0.01,0.15,0.02,0.29,0.03,0.44c0.01,0.26,0.01,0.52,0,0.77
			c-0.01,0.15-0.02,0.29-0.03,0.44c-0.01,0.07-0.01,0.15-0.02,0.22c-0.02,0.17-0.02,0.15,0.01-0.07c0.03,0.22-0.1,0.54-0.15,0.76
			c-0.06,0.25-0.13,0.5-0.21,0.75c-0.05,0.14-0.09,0.28-0.15,0.42c-0.03,0.07-0.05,0.14-0.08,0.21c-0.06,0.15-0.06,0.14,0.02-0.05
			c-0.05,0.23-0.23,0.49-0.34,0.69c-0.14,0.26-0.3,0.51-0.46,0.75c-0.44,0.65-0.15,1.69,0.54,2.05c0.76,0.4,1.58,0.16,2.05-0.54
			c1.54-2.3,2.06-5.08,1.67-7.79c-0.05-0.34-0.4-0.73-0.69-0.9c-0.32-0.19-0.8-0.27-1.16-0.15c-0.36,0.12-0.71,0.34-0.9,0.69
			C264.94,206.24,264.93,206.59,264.99,207.02L264.99,207.02z"/>
	</g>
</g>
<g>
	<g>
		<path class="st0" d="M252.78,204.7c-3.73,0.81-7,3.08-9.19,6.19c-0.45,0.64-0.14,1.7,0.54,2.05c0.77,0.41,1.57,0.15,2.05-0.54
			c0.06-0.09,0.12-0.18,0.19-0.26c0.04-0.05,0.22-0.29,0.04-0.06c0.12-0.15,0.24-0.3,0.37-0.45c0.27-0.31,0.55-0.61,0.84-0.89
			s0.6-0.55,0.92-0.81c0.05-0.04,0.29-0.22,0.05-0.04c0.07-0.05,0.14-0.1,0.21-0.15c0.17-0.13,0.35-0.25,0.53-0.37
			c0.32-0.21,0.66-0.41,1-0.6c0.19-0.1,0.38-0.2,0.57-0.29c0.08-0.04,0.16-0.07,0.23-0.11c0,0,0.35-0.16,0.17-0.08
			c-0.18,0.08,0.14-0.06,0.18-0.07c0.1-0.04,0.2-0.08,0.3-0.11c0.18-0.07,0.36-0.13,0.55-0.19c0.41-0.13,0.83-0.24,1.25-0.33
			c0.77-0.17,1.29-1.1,1.05-1.85C254.36,204.94,253.6,204.52,252.78,204.7L252.78,204.7z"/>
	</g>
</g>
<g>
	<g>
		<path class="st0" d="M254.9,206.72c-1.06,0.57-1.81,1.59-2.17,2.71c-0.38,1.16-0.24,2.41,0.29,3.5c0.16,0.32,0.56,0.6,0.9,0.69
			c0.36,0.1,0.84,0.05,1.16-0.15c0.32-0.21,0.6-0.51,0.69-0.9c0.09-0.41,0.03-0.78-0.15-1.16c-0.02-0.05-0.05-0.1-0.07-0.15
			c0.05,0.12,0.1,0.24,0.15,0.36c-0.1-0.24-0.16-0.48-0.2-0.73c0.02,0.13,0.04,0.27,0.05,0.4c-0.04-0.29-0.04-0.58,0-0.87
			c-0.02,0.13-0.04,0.27-0.05,0.4c0.04-0.29,0.12-0.57,0.23-0.84c-0.05,0.12-0.1,0.24-0.15,0.36c0.11-0.27,0.26-0.52,0.44-0.76
			c-0.08,0.1-0.16,0.2-0.23,0.3c0.16-0.2,0.34-0.38,0.54-0.54c-0.1,0.08-0.2,0.16-0.3,0.23c0.13-0.1,0.27-0.19,0.41-0.27
			c0.69-0.37,0.97-1.39,0.54-2.05C256.5,206.56,255.64,206.33,254.9,206.72L254.9,206.72z"/>
	</g>
</g>
<g>
	<g>
		<path class="st0" d="M277.88,211.59c0.74,0.48,1.37,1.02,2.04,1.79c0.33,0.38,0.43,0.51,0.73,0.96c0.28,0.42,0.53,0.86,0.75,1.31
			c0.05,0.1,0.09,0.19,0.14,0.29c0.02,0.05,0.04,0.1,0.07,0.15c-0.04-0.09-0.03-0.09,0,0.01c0.09,0.22,0.17,0.45,0.25,0.67
			c0.15,0.45,0.28,0.92,0.37,1.38c0.03,0.13,0.05,0.26,0.07,0.39c0.01,0.04,0.05,0.37,0.03,0.15c0.03,0.24,0.05,0.48,0.06,0.71
			c0.03,0.5,0.02,1.01-0.02,1.51c-0.06,0.81,0.73,1.5,1.5,1.5c0.86,0,1.44-0.69,1.5-1.5c0.36-4.7-2.06-9.37-5.99-11.93
			c-0.68-0.44-1.66-0.14-2.05,0.54C276.92,210.26,277.2,211.14,277.88,211.59L277.88,211.59z"/>
	</g>
</g>
<g>
	<g>
		<path class="st0" d="M288.95,216.83c0,1.7,0,3.4,0,5.11c0,0.78,0.69,1.54,1.5,1.5s1.5-0.66,1.5-1.5c0-1.7,0-3.4,0-5.11
			c0-0.78-0.69-1.54-1.5-1.5C289.63,215.37,288.95,215.99,288.95,216.83L288.95,216.83z"/>
	</g>
</g>
<g>
	<g>
		<path class="st0" d="M239.39,200.13c-3.83,0.17-7.61,0.96-11.17,2.39c-0.75,0.3-1.28,1-1.05,1.85c0.2,0.71,1.09,1.35,1.85,1.05
			c3.31-1.33,6.8-2.12,10.37-2.29c0.81-0.04,1.5-0.66,1.5-1.5C240.89,200.84,240.2,200.09,239.39,200.13L239.39,200.13z"/>
	</g>
</g>
<g>
	<g>
		<path class="st0" d="M258.34,203.09c-0.85-2.68,2-4.58,3.97-5.71c2.94-1.69,5.92-3.33,8.88-4.99c1.68-0.95,0.17-3.54-1.51-2.59
			c-3.28,1.84-6.66,3.57-9.85,5.57c-2.85,1.79-5.53,4.91-4.38,8.52C256.03,205.72,258.92,204.93,258.34,203.09L258.34,203.09z"/>
	</g>
</g>
<g>
	<g>
		<path class="st0" d="M269.94,190.26c-0.03-0.3-0.04-0.6-0.01-0.89c0-0.04,0.02-0.13,0.02-0.18c-0.01,0.07-0.02,0.15-0.03,0.22
			c0.01-0.06,0.02-0.12,0.03-0.18c0.03-0.16,0.07-0.32,0.11-0.48c0.04-0.13,0.08-0.26,0.12-0.39c0.01-0.03,0.02-0.06,0.03-0.08
			c0.06-0.15,0.04-0.11-0.05,0.11c0.03-0.03,0.06-0.13,0.08-0.16c0.14-0.29,0.32-0.53,0.48-0.8c0.1-0.17-0.25,0.29-0.04,0.06
			c0.05-0.05,0.1-0.11,0.14-0.16c0.09-0.1,0.18-0.19,0.28-0.28c0.05-0.05,0.16-0.11,0.2-0.17c-0.02,0.02-0.3,0.21-0.1,0.08
			c0.15-0.09,0.29-0.19,0.44-0.27c0.04-0.02,0.12-0.05,0.15-0.08c-0.19,0.18-0.26,0.09-0.08,0.04c0.12-0.04,0.25-0.08,0.37-0.11
			c0.08-0.02,0.18-0.02,0.26-0.05c-0.27,0.11-0.28,0.03-0.14,0.02c0.16,0,0.32,0.01,0.48,0.01c-0.37,0.01-0.29-0.05-0.16-0.02
			c0.08,0.02,0.15,0.03,0.23,0.06c0.05,0.01,0.1,0.03,0.15,0.05c0.27,0.08-0.27-0.14-0.1-0.05c0.1,0.06,0.21,0.1,0.32,0.17
			c0.07,0.04,0.13,0.09,0.2,0.13c0.23,0.14-0.26-0.23-0.05-0.04c0.1,0.09,0.2,0.18,0.3,0.27c0.1,0.11,0.31,0.46,0.08,0.06
			c0.13,0.22,0.26,0.48,0.41,0.68c-0.19-0.27-0.09-0.26-0.05-0.11c0.02,0.06,0.04,0.12,0.06,0.18c0.04,0.12,0.04,0.26,0.09,0.37
			c-0.01-0.01-0.03-0.41-0.03-0.17c0,0.07,0.01,0.15,0.01,0.22c0,0.05,0,0.1-0.01,0.15c0,0.28,0.08-0.36,0.01-0.11
			c-0.03,0.12-0.08,0.24-0.1,0.36c0.06-0.34,0.13-0.25,0.04-0.12c-0.03,0.05-0.07,0.11-0.1,0.17c-0.11,0.2,0.06-0.09,0.09-0.11
			c-0.06,0.03-0.13,0.16-0.19,0.21c-0.04,0.04-0.09,0.08-0.13,0.12c-0.22,0.21,0.26-0.16,0.02-0.02c-0.14,0.08-0.35,0.15-0.47,0.26
			c0.19-0.17,0.24-0.1,0.07-0.04c-0.1,0.03-0.2,0.06-0.3,0.09c-0.14,0.04-0.32,0.03-0.45,0.09c0.07-0.01,0.14-0.02,0.21-0.03
			c-0.06,0.01-0.13,0.01-0.19,0.02c-0.1,0.01-0.19,0.01-0.29,0.02c-0.36,0.01-0.71,0-1.07-0.03c-0.19-0.02-0.39-0.04-0.58-0.06
			c-0.26-0.03,0.09,0.01,0.11,0.02c-0.11-0.04-0.26-0.04-0.38-0.06c-0.41-0.06-0.78-0.07-1.16,0.15c-0.31,0.18-0.61,0.54-0.69,0.9
			c-0.16,0.72,0.22,1.71,1.05,1.85c1.79,0.28,3.68,0.46,5.35-0.39c1.68-0.86,2.48-2.77,1.99-4.57c-0.44-1.61-1.72-2.92-3.28-3.47
			c-1.7-0.59-3.61,0.11-4.84,1.33c-1.34,1.32-2.1,3.35-1.91,5.23c0.08,0.78,0.63,1.54,1.5,1.5
			C269.18,191.73,270.02,191.1,269.94,190.26L269.94,190.26z"/>
	</g>
</g>
<g>
	<g>
		<path class="st0" d="M271.15,184.59c-0.9-1.19-0.39-3.5,1.3-3.72c1.67-0.22,2.78,2.1,2,3.4c-0.89,1.49,1.12,2.96,2.36,1.82
			c0.79-0.73,1.96-0.3,2.75,0.21c0.49,0.32,0.91,0.72,1.33,1.13c0.22,0.22,1.03,0.92,1.02,1.08c-0.03,0.41-2.06,1.34-2.54,1.52
			c-0.82,0.32-1.98,0.62-2.75,0.01c-1.48-1.18-3.6,0.83-2.12,2.12c0.62,0.54,0.67,1.33,0.31,2.05c-0.47,0.97-1.59,1.27-2.59,1.24
			c-1.04-0.02-2.2-0.4-3.01-1.07c-0.63-0.52-1.26-1.67-0.29-2.18c1.72-0.91,0.21-3.43-1.51-2.59c-2.33,1.13-5.34-0.74-4.58-3.43
			c0.31-1.1,1.16-1.94,2.34-1.88c1.12,0.05,2.12,0.77,2.39,1.87c0.46,1.87,3.36,1.08,2.89-0.8c-0.57-2.31-2.7-3.88-5.03-4.06
			c-2.5-0.19-4.65,1.48-5.42,3.81c-0.76,2.32-0.07,4.92,1.87,6.43c2.03,1.59,4.76,1.75,7.04,0.64c-0.5-0.86-1.01-1.73-1.51-2.59
			c-2.05,1.08-2.49,3.79-1.34,5.69c1.18,1.95,3.63,2.97,5.83,3.13c2.15,0.16,4.45-0.75,5.5-2.71c0.98-1.83,0.84-4.27-0.78-5.69
			c-0.71,0.71-1.41,1.41-2.12,2.12c1.78,1.42,3.9,1.48,5.97,0.65c1.79-0.72,4.44-2.09,4.43-4.32c0-1.08-0.66-1.94-1.38-2.68
			c-0.82-0.85-1.71-1.7-2.74-2.28c-1.95-1.12-4.39-1.13-6.08,0.44c0.79,0.61,1.57,1.21,2.36,1.82c1.97-3.3-0.72-8.17-4.67-7.91
			c-3.75,0.25-6.1,5.2-3.81,8.23c0.49,0.65,1.29,0.97,2.05,0.54C271.25,186.27,271.64,185.23,271.15,184.59L271.15,184.59z"/>
	</g>
</g>
<g>
	<g>
		<path class="st0" d="M278.88,209.86c5.59-8.21,12.77-15.28,21.07-20.74c1.61-1.06,0.1-3.66-1.51-2.59
			c-8.74,5.75-16.26,13.17-22.14,21.82C275.2,209.95,277.8,211.45,278.88,209.86L278.88,209.86z"/>
	</g>
</g>
<g>
	<g>
		<path class="st0" d="M298.34,186.9c-0.08-0.04-0.16-0.09-0.24-0.14c-0.03-0.02-0.07-0.05-0.1-0.07c-0.22-0.14,0.13,0.08,0.13,0.1
			c0-0.02-0.19-0.17-0.21-0.19c-0.07-0.06-0.13-0.13-0.19-0.2c-0.01-0.01-0.07-0.1-0.08-0.09c0.01,0,0.23,0.32,0.12,0.16
			c-0.05-0.08-0.11-0.15-0.16-0.23c-0.1-0.17-0.19-0.34-0.27-0.53c0.05,0.12,0.1,0.24,0.15,0.36c-0.13-0.31-0.21-0.63-0.26-0.96
			c0.02,0.13,0.04,0.27,0.05,0.4c-0.04-0.31-0.04-0.61,0-0.92c-0.02,0.13-0.04,0.27-0.05,0.4c0.04-0.26,0.11-0.51,0.21-0.76
			c-0.05,0.12-0.1,0.24-0.15,0.36c0.07-0.15,0.14-0.29,0.23-0.43c0.01-0.01,0.07-0.09,0.07-0.1c0,0.01-0.25,0.3-0.13,0.17
			c0.06-0.06,0.11-0.13,0.17-0.18c0.05-0.05,0.27-0.23,0.04-0.05c-0.24,0.18-0.01,0.01,0.05-0.03c0.13-0.08,0.27-0.16,0.42-0.22
			c-0.12,0.05-0.24,0.1-0.36,0.15c0.26-0.11,0.53-0.18,0.81-0.21c-0.13,0.02-0.27,0.04-0.4,0.05c0.28-0.03,0.56-0.03,0.84,0
			c-0.13-0.02-0.27-0.04-0.4-0.05c0.28,0.04,0.55,0.11,0.81,0.21c-0.12-0.05-0.24-0.1-0.36-0.15c0.13,0.06,0.27,0.12,0.39,0.2
			c0.06,0.04,0.12,0.08,0.18,0.12c-0.42-0.28-0.2-0.16-0.1-0.06c0.05,0.05,0.1,0.1,0.15,0.16c0.22,0.25-0.19-0.29-0.07-0.09
			c0.08,0.13,0.16,0.26,0.22,0.4c-0.05-0.12-0.1-0.24-0.15-0.36c0.07,0.17,0.11,0.34,0.14,0.52c-0.02-0.13-0.04-0.27-0.05-0.4
			c0.02,0.2,0.02,0.39-0.01,0.59c0.02-0.13,0.04-0.27,0.05-0.4c-0.03,0.22-0.09,0.43-0.18,0.63c0.05-0.12,0.1-0.24,0.15-0.36
			c-0.07,0.16-0.15,0.31-0.24,0.46c-0.03,0.04-0.06,0.08-0.09,0.13c-0.11,0.16,0.11-0.16,0.12-0.16c-0.04,0.01-0.16,0.18-0.18,0.2
			c-0.06,0.06-0.12,0.11-0.18,0.17c-0.09,0.08-0.24,0.15,0.14-0.1c-0.03,0.02-0.06,0.05-0.1,0.07c-0.15,0.1-0.3,0.18-0.47,0.25
			c0.12-0.05,0.24-0.1,0.36-0.15c-0.18,0.07-0.36,0.12-0.56,0.15c0.13-0.02,0.27-0.04,0.4-0.05c-0.17,0.02-0.35,0.02-0.52,0
			c0.13,0.02,0.27,0.04,0.4,0.05c-0.14-0.02-0.27-0.06-0.41-0.11c-0.35-0.13-0.85-0.03-1.16,0.15s-0.61,0.54-0.69,0.9
			c-0.19,0.85,0.26,1.55,1.05,1.85c1.73,0.64,3.61-0.42,4.5-1.9c0.91-1.51,0.77-3.59-0.62-4.78c-1.2-1.02-2.93-1.4-4.44-0.88
			c-0.88,0.3-1.58,0.81-2.14,1.56c-0.51,0.68-0.74,1.53-0.78,2.37c-0.11,1.83,0.94,3.76,2.56,4.63c0.69,0.37,1.66,0.2,2.05-0.54
			C299.25,188.25,299.08,187.29,298.34,186.9L298.34,186.9z"/>
	</g>
</g>
<g>
	<g>
		<path class="st0" d="M298.47,180.7c-0.75-1.07-0.62-2.47,0.21-3.48c0.98-1.19,2.65-1.53,4.12-1.46c1.19,0.06,2.68,0.44,2.31,1.92
			c-0.38,1.54-2.22,2.21-3.54,2.71c0.39,0.91,0.77,1.83,1.16,2.74c0.82-0.44,1.86-0.12,2.5,0.52c0.68,0.69,0.71,1.69,0.32,2.54
			c-1.09,2.4-4.1,1.99-5.63,0.29c-1.14-1.27-3.23,0.37-2.36,1.82c0.61,1.01-0.58,1.88-1.46,2.07c-1.21,0.27-2.63,0.01-3.71-0.59
			c-0.75-0.42-1.71-1.26-1.4-2.23c0.21-0.66,0.91-1.26,1.47-0.89c0.39-0.91,0.77-1.83,1.16-2.74c-1.85-0.59-3.76-2.41-2.84-4.51
			c0.6-1.36,2.72-1.57,3.04,0.08c0.37,1.89,3.26,1.09,2.89-0.8c-0.34-1.74-1.88-3-3.58-3.3c-1.93-0.34-3.78,0.55-4.78,2.23
			c-1,1.65-1.02,3.75-0.18,5.47c0.91,1.87,2.72,3.12,4.66,3.73c1.68,0.54,2.52-1.83,1.16-2.74c-2.01-1.33-4.57-0.05-5.56,1.93
			c-1.16,2.31,0.05,4.77,2.06,6.12c2.02,1.36,4.97,1.79,7.24,0.88c2.4-0.96,3.87-3.84,2.44-6.21c-0.79,0.61-1.57,1.21-2.36,1.82
			c3.12,3.47,9.03,2.89,10.69-1.7c1.57-4.35-3.17-8.53-7.27-6.36c-1.47,0.78-0.46,3.35,1.16,2.74c2.45-0.92,5.1-2.23,5.69-5.05
			c0.28-1.32,0.03-2.71-0.87-3.75c-0.9-1.05-2.27-1.48-3.59-1.65c-2.52-0.32-5.41,0.33-7.12,2.35c-1.63,1.93-2.1,4.88-0.6,7.03
			C296.98,183.78,299.58,182.29,298.47,180.7L298.47,180.7z"/>
	</g>
</g>
<g>
	<g>
		<path class="st0" d="M277.84,209.79c5.38-2.93,8.05-10.06,5.75-15.78c-0.3-0.75-1-1.28-1.85-1.05c-0.71,0.2-1.35,1.09-1.05,1.85
			c1.81,4.49-0.02,10.02-4.38,12.39C274.63,208.12,276.14,210.71,277.84,209.79L277.84,209.79z"/>
	</g>
</g>
<g>
	<g>
		<path class="st0" d="M273.52,207.54c2.38-2.04,4.77-4.08,7.15-6.12c0.6-0.51,0.57-1.6,0-2.12c-0.64-0.58-1.48-0.55-2.12,0
			c-2.38,2.04-4.77,4.08-7.15,6.12c-0.6,0.51-0.57,1.6,0,2.12C272.03,208.12,272.88,208.08,273.52,207.54L273.52,207.54z"/>
	</g>
</g>
<g>
	<g>
		<path class="st0" d="M263.28,206.59c1.06-0.24,2.02-0.79,2.83-1.5c0.82-0.72,1.4-1.65,1.78-2.67c0.13-0.35,0.03-0.85-0.15-1.16
			s-0.54-0.61-0.9-0.69c-0.38-0.09-0.82-0.07-1.16,0.15s-0.55,0.51-0.69,0.9c-0.02,0.07-0.05,0.13-0.08,0.2
			c0.05-0.12,0.1-0.24,0.15-0.36c-0.17,0.39-0.38,0.75-0.63,1.08c0.08-0.1,0.16-0.2,0.23-0.3c-0.27,0.35-0.58,0.66-0.92,0.93
			c0.1-0.08,0.2-0.16,0.3-0.23c-0.35,0.27-0.73,0.49-1.13,0.66c0.12-0.05,0.24-0.1,0.36-0.15c-0.26,0.11-0.52,0.19-0.8,0.26
			c-0.77,0.18-1.29,1.1-1.05,1.85C261.7,206.34,262.46,206.78,263.28,206.59L263.28,206.59z"/>
	</g>
</g>
<g>
	<g>
		<path class="st0" d="M270.73,206.32c0.67-0.52,1.35-1.04,2.02-1.56c0.17-0.09,0.32-0.22,0.42-0.39c0.13-0.14,0.22-0.31,0.27-0.51
			c0.06-0.2,0.07-0.4,0.03-0.6c-0.01-0.2-0.07-0.39-0.18-0.56c-0.21-0.32-0.51-0.6-0.9-0.69c-0.13-0.02-0.27-0.04-0.4-0.05
			c-0.27,0-0.52,0.07-0.76,0.2c-0.67,0.52-1.35,1.04-2.02,1.56c-0.17,0.09-0.32,0.22-0.42,0.39c-0.13,0.14-0.22,0.31-0.27,0.51
			c-0.06,0.2-0.07,0.4-0.03,0.6c0.01,0.2,0.07,0.39,0.18,0.56c0.21,0.32,0.51,0.6,0.9,0.69c0.13,0.02,0.27,0.04,0.4,0.05
			C270.24,206.52,270.5,206.45,270.73,206.32L270.73,206.32z"/>
	</g>
</g>
<g>
	<g>
		<path class="st0" d="M231.95,200.52c0.35-2.89,0.42-5.81,0.21-8.71c-0.06-0.78-0.65-1.54-1.5-1.5c-0.76,0.03-1.56,0.66-1.5,1.5
			c0.21,2.9,0.14,5.82-0.21,8.71c-0.09,0.78,0.76,1.53,1.5,1.5C231.35,201.98,231.85,201.36,231.95,200.52L231.95,200.52z"/>
	</g>
</g>
<g>
	<g>
		<path class="st0" d="M238.58,200.64c-3.15,1.64-5.8,4.23-7.55,7.32c-0.39,0.68-0.19,1.67,0.54,2.05c0.71,0.38,1.64,0.19,2.05-0.54
			c0.2-0.36,0.42-0.71,0.64-1.05c0.1-0.16,0.21-0.31,0.32-0.46c0.07-0.09,0.13-0.18,0.2-0.27c0.03-0.04,0.22-0.29,0.09-0.12
			s0.06-0.08,0.09-0.11c0.07-0.09,0.14-0.17,0.21-0.26c0.12-0.14,0.24-0.29,0.37-0.42c0.27-0.31,0.56-0.6,0.86-0.89
			c0.28-0.27,0.57-0.54,0.88-0.79c0.14-0.11,0.31-0.32,0.48-0.39c-0.16,0.06-0.15,0.11,0.01,0c0.08-0.06,0.15-0.11,0.23-0.17
			c0.67-0.48,1.37-0.91,2.1-1.29c0.7-0.36,0.96-1.39,0.54-2.05C240.18,200.47,239.33,200.25,238.58,200.64L238.58,200.64z"/>
	</g>
</g>
<g>
	<g>
		<path class="st0" d="M241.22,199.22c0.87-1.47,1.07-3.2,0.73-4.86c-0.34-1.66-1.33-3.08-2.68-4.06c-0.64-0.46-1.7-0.13-2.05,0.54
			c-0.41,0.78-0.14,1.56,0.54,2.05c0.25,0.18-0.18-0.17-0.05-0.04c0.05,0.05,0.12,0.1,0.17,0.15c0.11,0.1,0.22,0.21,0.32,0.32
			c0.04,0.04,0.08,0.09,0.12,0.14c0.21,0.23-0.13-0.2-0.04-0.05c0.08,0.13,0.17,0.25,0.25,0.38c0.07,0.12,0.14,0.24,0.2,0.36
			c0.02,0.05,0.08,0.21,0.12,0.25c-0.04-0.03-0.12-0.31-0.05-0.1c0.1,0.29,0.2,0.58,0.26,0.88c0.01,0.06,0.02,0.12,0.03,0.18
			c0.06,0.31-0.02-0.27-0.01-0.08c0.01,0.15,0.03,0.3,0.03,0.46c0,0.15,0,0.3,0,0.46c0,0.08-0.01,0.15-0.02,0.23
			c-0.01,0.21,0-0.07,0.02-0.13c-0.11,0.27-0.12,0.6-0.21,0.88c-0.02,0.06-0.04,0.11-0.06,0.17c-0.1,0.29,0.12-0.22,0.03-0.07
			c-0.09,0.14-0.15,0.3-0.24,0.44c-0.4,0.68-0.17,1.68,0.54,2.05C239.89,200.14,240.79,199.95,241.22,199.22L241.22,199.22z"/>
	</g>
</g>
<g>
	<g>
		<path class="st0" d="M294.67,215.51c1.26,0.43,2.5,1,3.56,1.82c0.48,0.37,0.96,0.82,1.34,1.3c0.18,0.23,0.36,0.5,0.52,0.77
			c0.08,0.14,0.15,0.28,0.22,0.42c0.09,0.18,0.09,0.19,0.11,0.25c0.4,1.09,0.43,2.03,0.15,3.04c-0.27,1-0.79,1.71-1.7,2.18
			c-0.72,0.37-0.93,1.38-0.54,2.05c0.43,0.73,1.33,0.91,2.05,0.54c2.96-1.54,4-5.42,2.98-8.46c-1.18-3.54-4.54-5.67-7.91-6.81
			c-0.77-0.26-1.64,0.3-1.85,1.05C293.39,214.49,293.9,215.25,294.67,215.51L294.67,215.51z"/>
	</g>
</g>
<g>
	<g>
		<path class="st0" d="M84.1,182.55c0.69-3.32-1.79-5.9-4.69-7.03c-3.44-1.34-7.17,0.09-10.68-0.7c-1.88-0.42-2.68,2.47-0.8,2.89
			c1.63,0.36,3.28,0.37,4.94,0.29c1.5-0.07,3.16-0.26,4.6,0.05c1.04,0.23,2.05,0.69,2.82,1.44c0.69,0.67,1.09,1.43,0.92,2.25
			c-0.16,0.79,0.23,1.62,1.05,1.85C83,183.8,83.94,183.35,84.1,182.55L84.1,182.55z"/>
	</g>
</g>
<g>
	<g>
		<path class="st0" d="M84.59,183.57c0.62,2.35,1.89,4.52,3.62,6.22c0.56,0.55,1.57,0.6,2.12,0c0.55-0.59,0.6-1.53,0-2.12
			c-0.37-0.37-0.69-0.77-1.04-1.16c0.09,0.1,0.18,0.23,0.04,0.05c-0.04-0.05-0.07-0.1-0.11-0.15c-0.07-0.1-0.14-0.2-0.21-0.3
			c-0.15-0.23-0.3-0.46-0.44-0.7c-0.13-0.22-0.25-0.45-0.37-0.69c-0.05-0.11-0.11-0.22-0.16-0.33c-0.03-0.06-0.05-0.11-0.08-0.17
			c-0.13-0.29,0.09,0.24,0.03,0.06c-0.2-0.5-0.37-1-0.51-1.52c-0.2-0.76-1.08-1.3-1.85-1.05C84.86,181.97,84.37,182.75,84.59,183.57
			L84.59,183.57z"/>
	</g>
</g>
<g>
	<g>
		<path class="st0" d="M93.85,186.2c0.12,0.92,0.16,1.86,0.09,2.78c-0.01,0.18,0.01,0.52-0.07,0.68c0.03-0.21,0.04-0.25,0.02-0.14
			c-0.01,0.05-0.01,0.1-0.02,0.16c-0.02,0.12-0.04,0.24-0.06,0.36c-0.09,0.47-0.2,0.93-0.33,1.38c-0.22,0.75,0.27,1.67,1.05,1.85
			c0.8,0.18,1.61-0.24,1.85-1.05c0.57-1.94,0.75-4.02,0.48-6.03c-0.06-0.41-0.13-0.75-0.44-1.06c-0.26-0.26-0.69-0.46-1.06-0.44
			c-0.39,0.02-0.79,0.14-1.06,0.44C94.04,185.41,93.8,185.81,93.85,186.2L93.85,186.2z"/>
	</g>
</g>
<g>
	<g>
		<path class="st0" d="M92.28,183.23c-1.8-9.13-6.67-17.55-13.68-23.66c-1.45-1.26-3.58,0.85-2.12,2.12
			c6.67,5.81,11.2,13.66,12.91,22.34C89.76,185.92,92.65,185.12,92.28,183.23L92.28,183.23z"/>
	</g>
</g>
<g>
	<g>
		<path class="st0" d="M76.88,159.23c-0.16-0.06-0.32-0.12-0.48-0.18c-0.07-0.03-0.53-0.22-0.23-0.09c-0.35-0.15-0.7-0.32-1.03-0.5
			c-0.3-0.16-0.58-0.35-0.86-0.54c-0.05-0.03-0.22-0.17,0,0.01c-0.06-0.05-0.13-0.1-0.19-0.16c-0.14-0.12-0.28-0.25-0.41-0.38
			c-0.12-0.12-0.22-0.24-0.33-0.37c-0.14-0.17,0.12,0.2,0.01,0c-0.04-0.07-0.09-0.14-0.14-0.21c-0.03-0.04-0.25-0.36-0.23-0.41
			c0,0,0.13,0.36,0.03,0.07c-0.03-0.08-0.06-0.16-0.08-0.24c-0.04-0.13-0.07-0.27-0.1-0.4c-0.08-0.37,0,0.26-0.02-0.11
			c-0.01-0.14-0.01-0.27-0.01-0.41c0-0.07,0.01-0.14,0.01-0.2c0.02-0.34-0.01,0.05-0.01,0.05c-0.01,0,0.08-0.36,0.09-0.39
			c0.02-0.06,0.04-0.13,0.06-0.19c0.08-0.29-0.03,0.1-0.04,0.08c-0.02-0.02,0.16-0.32,0.18-0.35c-0.01,0.01,0.1-0.17,0.11-0.16
			c0.01,0-0.23,0.25,0.01,0c0.04-0.05,0.09-0.09,0.14-0.14c0.16-0.17-0.08,0.08-0.08,0.05c0-0.05,0.29-0.18,0.34-0.21
			c0.2-0.12-0.07,0.02-0.07,0.03c0-0.01,0.2-0.06,0.2-0.06c0.03-0.01,0.2-0.05,0.2-0.04c0,0-0.38,0.02-0.04,0.01
			c0.07,0,0.14,0,0.2,0c0.02,0,0.03,0,0.05,0c0.13,0.01,0.14,0.01,0.01-0.01c-0.14,0.06-0.08-0.02,0.06,0.01
			c0.07,0.02,0.13,0.03,0.2,0.05s0.13,0.04,0.2,0.06s0.23,0.13,0.06,0.02c-0.17-0.12,0.01,0.01,0.06,0.04
			c0.08,0.04,0.15,0.09,0.23,0.13c0.02,0.02,0.15,0.08,0.17,0.12c-0.1-0.16-0.16-0.14-0.06-0.04c0.1,0.1,0.2,0.2,0.3,0.3
			c0.2,0.21-0.03-0.05-0.04-0.06c0.05,0.02,0.11,0.17,0.14,0.22c0.03,0.06,0.06,0.13,0.1,0.18c0.09,0.13-0.09-0.28,0-0.01
			c0.02,0.05,0.18,0.55,0.14,0.56c-0.02,0.01-0.02-0.39-0.01-0.05c0,0.1,0.01,0.19,0.01,0.29c0,0.08-0.01,0.15-0.01,0.23
			c0,0.18,0.06-0.28,0,0.01c-0.04,0.19-0.08,0.38-0.14,0.57c-0.02,0.07-0.05,0.15-0.08,0.22c0.06-0.19,0.06-0.13-0.02,0.02
			c-0.08,0.16-0.17,0.31-0.26,0.46c-0.04,0.07-0.09,0.13-0.13,0.2c0.19-0.29-0.02,0.01-0.06,0.06c-0.13,0.15-0.27,0.28-0.42,0.41
			c-0.59,0.52-0.57,1.6,0,2.12c0.63,0.58,1.49,0.55,2.12,0c1.53-1.33,2.26-3.4,1.9-5.39c-0.33-1.81-1.94-3.35-3.75-3.65
			c-1.9-0.32-3.78,0.55-4.57,2.36c-0.72,1.65-0.6,3.63,0.38,5.16c1.24,1.94,3.32,2.98,5.42,3.74c0.74,0.27,1.67-0.3,1.85-1.05
			C78.12,160.23,77.68,159.52,76.88,159.23L76.88,159.23z"/>
	</g>
</g>
<g>
	<g>
		<path class="st0" d="M75.82,152.1c-0.39-1.25-0.8-2.77-0.24-4.05c0.31-0.72,1.22-1.54,2.07-1.31c0.75,0.2,0.97,1.21,0.88,1.88
			c-0.17,1.25-1.13,2.28-1.94,3.16c-1.31,1.42,0.81,3.54,2.12,2.12c1.95-2.11,5.16-0.58,4.86,2.24c-0.3,2.82-3.87,3.51-5.8,1.79
			c-1-0.89-2.48-0.26-2.56,1.06c-0.12,1.81-0.39,5.37-2.67,5.83c-1.24,0.25-2.45-0.71-2.9-1.81c-0.29-0.7-0.34-1.5-0.25-2.25
			c0.05-0.4,0.13-0.89,0.3-1.26c0.03-0.13,0.09-0.25,0.18-0.35c0.34-0.24,0.11-0.31-0.7-0.22c0.22-0.84,0.44-1.67,0.66-2.51
			c-1.93,0.71-3.02-1.47-2.42-3.08c0.36-0.97,1.15-1.85,2.11-2.26c0.83-0.35,1.83-0.21,2.02,0.78c0.36,1.89,3.25,1.09,2.89-0.8
			c-0.42-2.2-2.7-3.42-4.8-3.1c-2.16,0.33-4.01,1.99-4.87,3.95c-0.85,1.93-0.74,4.18,0.64,5.83c1.24,1.48,3.37,2.24,5.22,1.55
			c1.07-0.4,1.46-1.63,0.66-2.51c-0.97-1.07-2.47-0.8-3.44,0.12c-1.02,0.96-1.35,2.47-1.47,3.82c-0.24,2.75,1.06,5.52,3.66,6.64
			c2.35,1.01,4.87,0.19,6.34-1.85c1.34-1.86,1.67-4.32,1.81-6.55c-0.85,0.35-1.71,0.71-2.56,1.06c3.85,3.44,10.59,1.64,10.92-3.91
			c0.13-2.25-0.97-4.61-3.04-5.63c-2.31-1.14-5.2-0.61-6.94,1.27c0.71,0.71,1.41,1.41,2.12,2.12c1.45-1.57,2.89-3.44,2.83-5.7
			c-0.05-1.94-1.18-3.89-3.16-4.37c-1.98-0.49-4.05,0.6-5.14,2.25c-1.33,2.01-1,4.64-0.32,6.81C73.5,154.73,76.4,153.95,75.82,152.1
			L75.82,152.1z"/>
	</g>
</g>
<g>
	<g>
		<path class="st0" d="M90.45,179.43c-3.11-4.61,0.84-9.89,3.7-13.46c0.51-0.63,0.62-1.5,0-2.12c-0.52-0.52-1.61-0.64-2.12,0
			c-2.02,2.53-4.09,5.12-5.09,8.25c-0.93,2.89-0.81,6.27,0.92,8.84C88.94,182.54,91.54,181.04,90.45,179.43L90.45,179.43z"/>
	</g>
</g>
<g>
	<g>
		<path class="st0" d="M100.17,187.3c-0.37-3.22,2.33-5.64,4.9-7.09c3.1-1.75,6.52-2.91,9.08-5.48c1.37-1.37-0.75-3.49-2.12-2.12
			c-2.63,2.64-6.37,3.58-9.43,5.59c-3.02,1.98-5.87,5.24-5.42,9.1c0.09,0.8,0.62,1.5,1.5,1.5C99.4,188.8,100.26,188.11,100.17,187.3
			L100.17,187.3z"/>
	</g>
</g>
<g>
	<g>
		<path class="st0" d="M114.82,173.05c-0.04,0-0.07-0.01-0.11-0.01c-0.18-0.01,0.36,0.07,0.19,0.03c-0.07-0.02-0.14-0.03-0.21-0.04
			c-0.08-0.02-0.15-0.05-0.23-0.07c-0.05-0.02-0.18-0.07,0.05,0.03c0.26,0.11,0.04,0.01-0.01-0.01c-0.13-0.07-0.25-0.16-0.38-0.23
			c-0.12-0.07,0.18,0.14,0.17,0.13c-0.02-0.02-0.05-0.04-0.08-0.07c-0.07-0.06-0.14-0.12-0.2-0.19c-0.06-0.06-0.11-0.12-0.16-0.18
			c-0.16-0.18,0.2,0.28,0.06,0.08c-0.1-0.15-0.2-0.29-0.28-0.45c-0.03-0.06-0.06-0.13-0.1-0.19c-0.13-0.27,0.1,0.29,0.03,0.06
			c-0.05-0.16-0.11-0.32-0.15-0.48c-0.02-0.08-0.04-0.16-0.05-0.25c-0.01-0.03-0.01-0.07-0.02-0.11c-0.01-0.02,0.03,0.37,0.03,0.22
			c0-0.18-0.03-0.36-0.02-0.53c0-0.07,0.01-0.14,0.01-0.21c0.01-0.24-0.08,0.41-0.01,0.08c0.03-0.16,0.07-0.32,0.12-0.47
			s0.19-0.29-0.04,0.07c0.04-0.06,0.06-0.13,0.09-0.19c0.04-0.07,0.09-0.14,0.13-0.21c0.15-0.26-0.19,0.21-0.04,0.05
			c0.11-0.12,0.26-0.23,0.37-0.36c0.01-0.01-0.28,0.19-0.15,0.12c0.03-0.02,0.06-0.04,0.09-0.06c0.08-0.05,0.17-0.1,0.25-0.15
			c0.03-0.02,0.07-0.03,0.1-0.05c0.16-0.09-0.33,0.12-0.16,0.06c0.07-0.02,0.14-0.05,0.21-0.07c0.08-0.03,0.16-0.05,0.25-0.07
			c0.15-0.03,0.44-0.02-0.04-0.01c0.16,0,0.32-0.03,0.48-0.02c0.07,0,0.15,0,0.22,0.01c0.05,0,0.1,0.01,0.15,0.01
			c0.18,0.01-0.35-0.07-0.18-0.02c0.16,0.04,0.32,0.06,0.48,0.11c0.08,0.02,0.17,0.05,0.25,0.08c0.04,0.01,0.07,0.03,0.11,0.04
			c0.19,0.07-0.12-0.05-0.15-0.06c0.15,0.09,0.32,0.15,0.47,0.24c0.06,0.04,0.13,0.08,0.19,0.12c0.04,0.03,0.08,0.06,0.12,0.09
			c0.17,0.11-0.1-0.07-0.12-0.1c0.11,0.12,0.25,0.21,0.36,0.33c0.06,0.06,0.12,0.13,0.18,0.19c0.15,0.17-0.2-0.3-0.03-0.04
			c0.1,0.15,0.18,0.29,0.26,0.45c0.02,0.03,0.03,0.07,0.05,0.1c0,0.01-0.11-0.33-0.08-0.19c0.02,0.1,0.07,0.19,0.09,0.28
			s0.04,0.17,0.06,0.26c0.05,0.24-0.02-0.35-0.01-0.07c0,0.19-0.03,0.41-0.01,0.6c-0.03-0.3,0.05-0.29,0.02-0.15
			c-0.01,0.04-0.02,0.08-0.03,0.12c-0.02,0.1-0.05,0.19-0.08,0.28c-0.02,0.07-0.08,0.16-0.08,0.24c0-0.03,0.16-0.34,0.05-0.13
			c-0.03,0.05-0.05,0.1-0.08,0.15c-0.05,0.1-0.11,0.2-0.17,0.29c-0.04,0.06-0.24,0.32-0.08,0.13c0.16-0.2-0.08,0.1-0.13,0.15
			c-0.08,0.09-0.16,0.17-0.24,0.25c-0.07,0.07-0.15,0.13-0.23,0.2c-0.11,0.1-0.12,0.01,0.1-0.07c-0.05,0.02-0.1,0.07-0.14,0.1
			c-0.18,0.12-0.37,0.23-0.56,0.33c-0.05,0.03-0.11,0.05-0.16,0.07c-0.16,0.08,0.29-0.09,0.12-0.05c-0.11,0.03-0.22,0.08-0.33,0.11
			c-0.1,0.03-0.19,0.05-0.29,0.07c-0.06,0.01-0.11,0.02-0.17,0.03c-0.21,0.04,0.1-0.03,0.14-0.02c-0.2-0.04-0.47,0.02-0.68,0.01
			c-0.24-0.01,0.34,0.07,0.02,0c-0.13-0.03-0.25-0.06-0.38-0.1c-0.75-0.23-1.67,0.27-1.85,1.05c-0.18,0.81,0.24,1.6,1.05,1.85
			c2.36,0.72,4.85-0.45,6.24-2.38c0.64-0.88,1.01-2.05,0.93-3.14c-0.09-1.16-0.54-2.2-1.34-3.05c-1.36-1.45-3.68-2.18-5.6-1.56
			c-2.06,0.67-3.35,2.69-3.11,4.84c0.26,2.41,1.92,4.54,4.45,4.7c0.78,0.05,1.53-0.73,1.5-1.5
			C116.28,173.69,115.66,173.1,114.82,173.05L114.82,173.05z"/>
	</g>
</g>
<g>
	<g>
		<path class="st0" d="M115.28,167.39c-0.25-0.63-1.35-3.38-0.11-3.63c0.66-0.13,1.27,0.64,1.48,1.16c0.4,1.01,0.27,2.2,0.2,3.26
			c-0.07,1.25,1.73,2.05,2.56,1.06c0.93-1.11,3.03-1.06,3.79,0.28c0.9,1.6-1.24,3.41-2.77,2.94c-1.61-0.49-2.68,1.95-1.16,2.74
			c0.77,0.4,1.1,1.23,0.9,2.08c-0.26,1.06-1.34,1.7-2.33,1.94c-2.02,0.49-5.04-1.27-3.38-3.51c0.86-1.16-0.55-2.42-1.69-2.2
			c-2.71,0.51-5.3-1.56-5.39-4.31c-0.04-1.18,0.32-2.58,1.43-3.19c1.12-0.62,1.59,0.88,1.87,1.71c0.63,1.81,3.52,1.03,2.89-0.8
			c-0.78-2.25-2.26-4.54-5-4c-2.39,0.47-3.83,2.86-4.13,5.12c-0.68,5.24,4.04,9.32,9.12,8.37c-0.56-0.73-1.13-1.47-1.69-2.2
			c-1.35,1.82-1.03,4.48,0.43,6.14c1.55,1.76,4.12,2.31,6.34,1.78c2.04-0.49,3.96-2.05,4.45-4.15c0.47-2.05-0.39-4.36-2.3-5.35
			c-0.39,0.91-0.77,1.83-1.16,2.74c3.89,1.19,8.04-3.08,6.37-6.91c-1.42-3.25-6.4-4.08-8.71-1.33c0.85,0.35,1.71,0.71,2.56,1.06
			c0.11-1.78,0.13-3.73-0.89-5.29c-0.86-1.32-2.42-2.26-4.02-2.11c-1.58,0.14-2.83,1.33-3.17,2.86c-0.34,1.52,0.05,3.14,0.61,4.55
			c0.3,0.75,1,1.28,1.85,1.05C114.94,169.04,115.58,168.15,115.28,167.39L115.28,167.39z"/>
	</g>
</g>
<g>
	<g>
		<path class="st0" d="M63.3,174.93c-1.3-0.9-3.02-0.09-3.66,1.21c-0.35,0.71-0.48,1.45-0.32,2.23c0.17,0.78,0.76,1.43,1.43,1.83
			c1.21,0.72,2.82,0.65,4.1,0.14c0.84-0.33,1.73-0.78,2.14-1.63c0.43-0.9,0.37-1.83-0.06-2.72c-0.42-0.87-1.24-1.45-2.13-1.76
			c-0.82-0.28-1.72-0.28-2.58-0.25c-0.78,0.03-1.54,0.67-1.5,1.5c0.04,0.79,0.66,1.53,1.5,1.5c0.49-0.02,0.98-0.03,1.47,0.03
			c-0.13-0.02-0.27-0.04-0.4-0.05c0.3,0.04,0.6,0.11,0.88,0.23c-0.12-0.05-0.24-0.1-0.36-0.15c0.17,0.07,0.33,0.16,0.47,0.27
			c-0.1-0.08-0.2-0.16-0.3-0.23c0.13,0.1,0.24,0.22,0.34,0.34c-0.08-0.1-0.16-0.2-0.23-0.3c0.11,0.15,0.2,0.3,0.28,0.47
			c-0.05-0.12-0.1-0.24-0.15-0.36c0.05,0.13,0.09,0.26,0.11,0.4c-0.02-0.13-0.04-0.27-0.05-0.4c0.02,0.13,0.02,0.26,0,0.4
			c0.02-0.13,0.04-0.27,0.05-0.4c-0.02,0.11-0.05,0.22-0.09,0.33c0.05-0.12,0.1-0.24,0.15-0.36c-0.05,0.09-0.1,0.18-0.16,0.26
			c0.08-0.1,0.16-0.2,0.23-0.3c-0.08,0.1-0.17,0.18-0.27,0.25c0.1-0.08,0.2-0.16,0.3-0.23c-0.22,0.15-0.45,0.27-0.69,0.38
			c0.12-0.05,0.24-0.1,0.36-0.15c-0.4,0.17-0.81,0.29-1.24,0.35c0.13-0.02,0.27-0.04,0.4-0.05c-0.31,0.04-0.63,0.05-0.94,0.01
			c0.13,0.02,0.27,0.04,0.4,0.05c-0.22-0.03-0.43-0.09-0.64-0.17c0.12,0.05,0.24,0.1,0.36,0.15c-0.15-0.07-0.28-0.14-0.41-0.24
			c0.1,0.08,0.2,0.16,0.3,0.23c-0.13-0.1-0.24-0.21-0.34-0.33c0.08,0.1,0.16,0.2,0.23,0.3c-0.06-0.08-0.11-0.16-0.15-0.25
			c0.05,0.12,0.1,0.24,0.15,0.36c-0.04-0.1-0.07-0.21-0.09-0.32c0.02,0.13,0.04,0.27,0.05,0.4c-0.02-0.14-0.02-0.28,0-0.43
			c-0.02,0.13-0.04,0.27-0.05,0.4c0.02-0.16,0.07-0.32,0.13-0.47c-0.05,0.12-0.1,0.24-0.15,0.36c0.07-0.16,0.16-0.31,0.27-0.45
			c-0.08,0.1-0.16,0.2-0.23,0.3c0.08-0.1,0.16-0.18,0.26-0.26c-0.1,0.08-0.2,0.16-0.3,0.23c0.09-0.07,0.19-0.13,0.29-0.18
			c-0.12,0.05-0.24,0.1-0.36,0.15c0.08-0.03,0.15-0.05,0.24-0.06c-0.13,0.02-0.27,0.04-0.4,0.05c0.07-0.01,0.13-0.01,0.2,0
			c-0.13-0.02-0.27-0.04-0.4-0.05c0.07,0.01,0.14,0.03,0.2,0.05c-0.12-0.05-0.24-0.1-0.36-0.15c0.07,0.03,0.14,0.07,0.2,0.11
			c0.31,0.21,0.81,0.25,1.16,0.15s0.72-0.36,0.9-0.69C64.24,176.22,63.99,175.41,63.3,174.93L63.3,174.93z"/>
	</g>
</g>
<g>
	<g>
		<path class="st0" d="M61.64,175.53c-2.03-1.57-4.68-2.12-7.07-1.01c-2.06,0.96-3.3,3.29-3.07,5.54c0.24,2.35,1.94,4.13,4.32,4.32
			c2.13,0.17,4.14-1.04,4.84-3.07c0.48-1.37-1.56-2.62-2.51-1.46c-1.05,1.28-1.69,2.83-1.65,4.51c0.02,0.85,0.13,1.84,0.79,2.42
			c0.62,0.55,1.48,0.81,2.3,0.82c1.55,0.01,2.98-0.84,3.86-2.08c1-1.41,1.22-3.16,1.43-4.83c-0.98,0.13-1.96,0.27-2.95,0.4
			c0.57,3.56,5.74,5.01,8.14,2.38c2.62-2.88,0.13-8.02-3.71-7.9c0.13,0.98,0.27,1.96,0.4,2.95c2.44-0.5,3.59-3.16,3.23-5.44
			c-0.4-2.54-2.79-4.16-5.12-4.77c-2.6-0.69-5.73-0.6-7.19,2.03c-1.43,2.58-0.04,5.53,2.57,6.59c0.75,0.3,1.65-0.33,1.85-1.05
			c0.24-0.86-0.29-1.54-1.05-1.85c-1.05-0.42-1.22-1.83-0.48-2.59c0.94-0.98,2.84-0.47,3.97-0.11c1.1,0.36,2.38,1.13,2.54,2.36
			c0.11,0.87-0.29,1.77-1.1,1.94c-1.66,0.34-1.28,3,0.4,2.95c1.31-0.04,2.4,1.96,1.47,2.9c-0.88,0.89-2.8,0.14-3.01-1.18
			c-0.12-0.73-0.98-1.17-1.65-1.07c-0.79,0.12-1.21,0.71-1.3,1.47c-0.13,1.07-0.26,2.38-0.97,3.25c-0.28,0.34-1.19,0.97-1.66,0.6
			c0.13,0.22,0.26,0.44,0.39,0.66c-0.29-1.1-0.11-2.32,0.63-3.22c-0.84-0.49-1.67-0.97-2.51-1.46c-0.1,0.29-0.33,0.52-0.71,0.7
			c-0.34,0.16-0.75,0.24-1.24,0.17c-0.7-0.1-1.3-0.77-1.35-1.72c-0.12-2.69,3.2-3.44,5.05-2.01c0.64,0.5,1.5,0.62,2.12,0
			C62.16,177.13,62.29,176.03,61.64,175.53L61.64,175.53z"/>
	</g>
</g>
<g>
	<g>
		<path class="st0" d="M85.86,179.35c-0.3-0.27-0.58-0.56-0.84-0.87c-0.18-0.21,0.04,0.07-0.05-0.07c-0.05-0.07-0.1-0.15-0.15-0.22
			c-0.11-0.17-0.22-0.34-0.32-0.51c-0.1-0.18-0.19-0.36-0.28-0.54c-0.05-0.1-0.11-0.28-0.04-0.07c-0.03-0.08-0.06-0.17-0.1-0.25
			c-0.14-0.4-0.26-0.82-0.34-1.23c-0.02-0.09-0.03-0.18-0.05-0.27c-0.05-0.24,0.03,0.35-0.01-0.07c-0.02-0.2-0.03-0.4-0.04-0.61
			c-0.01-0.2-0.01-0.4,0-0.61c0-0.09,0.01-0.18,0.02-0.27c0-0.04,0.04-0.4,0.02-0.2c-0.02,0.18,0.02-0.1,0.02-0.13
			c0.02-0.11,0.04-0.22,0.06-0.33c0.04-0.2,0.09-0.39,0.15-0.58c0.06-0.19,0.13-0.38,0.2-0.57c-0.05,0.14-0.05,0.1,0.01-0.01
			c0.06-0.12,0.12-0.24,0.18-0.36c0.36-0.69,0.2-1.66-0.54-2.05c-0.69-0.37-1.66-0.2-2.05,0.54c-1.94,3.71-1.16,8.62,2.01,11.42
			c0.61,0.54,1.52,0.6,2.12,0C86.41,180.93,86.47,179.89,85.86,179.35L85.86,179.35z"/>
	</g>
</g>
<g>
	<g>
		<path class="st0" d="M81.13,175.14c-0.28-0.11,0.33,0.16,0.06,0.03c-0.05-0.02-0.1-0.05-0.14-0.07c-0.13-0.07-0.26-0.14-0.38-0.22
			c-0.11-0.07-0.22-0.15-0.33-0.22c-0.15-0.1,0.28,0.23,0.08,0.06c-0.06-0.05-0.12-0.1-0.18-0.16c-0.2-0.18-0.37-0.38-0.55-0.58
			c-0.16-0.19,0.17,0.23,0.06,0.08c-0.04-0.05-0.08-0.11-0.12-0.16c-0.08-0.12-0.16-0.25-0.23-0.37s-0.13-0.23-0.19-0.35
			c-0.03-0.06-0.05-0.12-0.08-0.18c0.2,0.35,0.09,0.21,0.05,0.1c-0.1-0.26-0.18-0.53-0.24-0.8c-0.01-0.07-0.03-0.13-0.04-0.2
			c-0.05-0.3,0.03,0.11,0.01,0.12c0.01-0.01-0.03-0.37-0.03-0.4c0-0.15,0-0.29,0.01-0.44c0-0.07,0.01-0.13,0.02-0.2
			c0.02-0.27-0.06,0.37-0.01,0.08c0.07-0.41,0.07-0.78-0.15-1.16c-0.18-0.31-0.54-0.61-0.9-0.69c-0.72-0.16-1.71,0.22-1.85,1.05
			c-0.26,1.59,0,3.17,0.8,4.58c0.8,1.39,2.03,2.41,3.52,2.99c0.34,0.13,0.85,0.03,1.16-0.15c0.31-0.18,0.61-0.54,0.69-0.9
			C82.37,176.13,81.91,175.45,81.13,175.14L81.13,175.14z"/>
	</g>
</g>
<g>
	<g>
		<path class="st0" d="M80.06,179.95c-1.71,0.08-3.22,1.09-4.06,2.58c-0.83,1.49-0.96,3.31-0.12,4.83c0.38,0.69,1.38,0.97,2.05,0.54
			c0.7-0.45,0.94-1.32,0.54-2.05c-0.02-0.03-0.09-0.22-0.11-0.22c0.01,0,0.14,0.37,0.08,0.19c-0.02-0.05-0.03-0.1-0.05-0.15
			c-0.05-0.17-0.09-0.34-0.11-0.51c0.02,0.13,0.04,0.27,0.05,0.4c-0.04-0.29-0.03-0.57,0-0.86c-0.02,0.13-0.04,0.27-0.05,0.4
			c0.02-0.18,0.06-0.37,0.11-0.55c0.03-0.09,0.05-0.18,0.09-0.27c0.01-0.04,0.03-0.08,0.04-0.12c0.06-0.16-0.17,0.36-0.06,0.16
			c0.08-0.17,0.17-0.33,0.27-0.49c0.05-0.08,0.11-0.15,0.16-0.23c0.09-0.13-0.23,0.27-0.12,0.16c0.04-0.04,0.07-0.08,0.1-0.12
			c0.12-0.13,0.25-0.25,0.38-0.37c0.19-0.17-0.1,0.1-0.13,0.1c0.02,0,0.08-0.06,0.1-0.07c0.08-0.05,0.15-0.1,0.23-0.15
			c0.08-0.05,0.16-0.09,0.24-0.13c0.2-0.1-0.33,0.12-0.16,0.07c0.04-0.01,0.08-0.03,0.11-0.04c0.19-0.06,0.38-0.1,0.57-0.13
			c-0.13,0.02-0.27,0.04-0.4,0.05c0.08-0.01,0.17-0.02,0.25-0.02c0.78-0.04,1.54-0.66,1.5-1.5
			C81.52,180.67,80.9,179.92,80.06,179.95L80.06,179.95z"/>
	</g>
</g>
<g>
	<g>
		<path class="st0" d="M81.11,180.48c-2.1-0.11-3.99,1.25-5.04,2.98c-1.15,1.89-1.27,4.19-1.34,6.34c-0.03,0.79,0.71,1.54,1.5,1.5
			c0.84-0.04,1.47-0.66,1.5-1.5c0.02-0.45,0.03-0.89,0.06-1.34c0.01-0.21,0.03-0.42,0.05-0.63c0.01-0.12,0.03-0.23,0.04-0.35
			c0.01-0.18-0.04,0.2,0.01-0.09c0.07-0.44,0.16-0.87,0.28-1.29c0.06-0.2,0.13-0.4,0.2-0.59c-0.07,0.19-0.01,0.02,0.04-0.08
			c0.04-0.09,0.09-0.17,0.13-0.26c0.08-0.15,0.18-0.3,0.28-0.45c0.04-0.06,0.22-0.28,0.01-0.03c0.05-0.06,0.1-0.12,0.15-0.18
			c0.13-0.15,0.26-0.29,0.41-0.42c0.06-0.05,0.12-0.1,0.18-0.15c-0.23,0.22-0.05,0.04,0.02-0.01c0.16-0.11,0.32-0.21,0.49-0.29
			c0.03-0.02,0.07-0.03,0.1-0.05c0.1-0.05,0.07-0.03-0.1,0.04c0-0.01,0.19-0.07,0.21-0.07c0.09-0.03,0.18-0.05,0.27-0.07
			c0.04-0.01,0.07-0.02,0.11-0.02c0.11-0.02,0.07-0.02-0.12,0.01c0.04,0.04,0.49-0.01,0.57-0.01c0.78,0.04,1.53-0.72,1.5-1.5
			C82.57,181.14,81.95,180.53,81.11,180.48L81.11,180.48z"/>
	</g>
</g>
<g>
	<g>
		<path class="st0" d="M81.22,184.53c0.66,2.05,1.33,4.1,1.99,6.14c0.24,0.75,1.05,1.3,1.85,1.05c0.75-0.24,1.31-1.05,1.05-1.85
			c-0.66-2.05-1.33-4.1-1.99-6.14c-0.24-0.75-1.05-1.3-1.85-1.05C81.52,182.93,80.96,183.73,81.22,184.53L81.22,184.53z"/>
	</g>
</g>
<g>
	<g>
		<path class="st0" d="M94.85,185.78c-0.81-4.19,1.98-8.39,3.87-11.91c2.08-3.89,4.28-7.71,6.58-11.47
			c1.01-1.65-1.58-3.16-2.59-1.51c-2.54,4.17-4.97,8.41-7.25,12.72c-2.13,4.03-4.41,8.27-3.51,12.97
			C92.32,188.47,95.21,187.67,94.85,185.78L94.85,185.78z"/>
	</g>
</g>
<g>
	<g>
		<path class="st0" d="M100.48,154.38c0.56,1.24,0.82,2.71,0.76,4.19c-0.05,1.36-0.46,2.88-1.13,4.11
			c-0.39,0.71-0.18,1.63,0.54,2.05c0.68,0.4,1.66,0.18,2.05-0.54c1.91-3.52,2-7.7,0.36-11.33c-0.33-0.74-1.41-0.92-2.05-0.54
			C100.26,152.77,100.15,153.64,100.48,154.38L100.48,154.38z"/>
	</g>
</g>
<g>
	<g>
		<path class="st0" d="M94.77,161.29c0.37,0.3,0.7,0.64,1.02,0.99c0.07,0.07,0.13,0.15,0.03,0.03c0.07,0.09,0.14,0.19,0.21,0.29
			c0.13,0.2,0.26,0.4,0.37,0.6c0.1,0.19,0.2,0.38,0.29,0.57c0.19,0.4-0.08-0.25,0.07,0.17c0.03,0.09,0.07,0.18,0.1,0.27
			c0.15,0.45,0.26,0.91,0.35,1.38c0.02,0.12,0.02,0.18,0,0.03c0.01,0.12,0.02,0.24,0.03,0.36c0.02,0.24,0.02,0.48,0.02,0.71
			c0,0.24-0.02,0.47-0.04,0.71c-0.01,0.06-0.06,0.38-0.01,0.1c-0.02,0.09-0.03,0.19-0.05,0.28c-0.09,0.46-0.22,0.92-0.4,1.36
			c0.06-0.15,0.03-0.06-0.02,0.03c-0.05,0.11-0.1,0.21-0.16,0.32c-0.12,0.23-0.26,0.45-0.4,0.67c-0.45,0.68-0.13,1.66,0.54,2.05
			c0.73,0.43,1.6,0.14,2.05-0.54c2.55-3.84,1.72-9.59-1.89-12.5c-0.63-0.51-1.51-0.62-2.12,0C94.24,159.7,94.13,160.78,94.77,161.29
			L94.77,161.29z"/>
	</g>
</g>
<g>
	<g>
		<path class="st0" d="M100.47,149.74c-0.12,0.05-0.26,0.06-0.38,0.11c0.03-0.01,0.39-0.01,0.17-0.03c-0.03,0-0.11-0.01-0.15,0
			c0.31-0.06,0.32,0.07,0.15,0.01c-0.06-0.02-0.12-0.03-0.18-0.05c-0.14-0.04-0.05-0.11,0.15,0.07c-0.05-0.04-0.14-0.07-0.2-0.11
			c-0.04-0.02-0.08-0.07-0.13-0.09c0.3,0.14,0.2,0.18,0.09,0.06c-0.07-0.07-0.16-0.2-0.25-0.26c0.19,0.13,0.17,0.24,0.09,0.11
			c-0.04-0.06-0.08-0.11-0.11-0.17c-0.04-0.06-0.07-0.12-0.1-0.18c-0.07-0.14-0.04-0.29,0.02,0.06c-0.02-0.1-0.07-0.21-0.1-0.31
			c-0.02-0.06-0.02-0.14-0.04-0.2c-0.06-0.18,0.02,0.41,0.02,0.12c0-0.11,0-0.21,0-0.32c0-0.28-0.08,0.3-0.02,0.12
			c0.02-0.07,0.04-0.16,0.06-0.23c0.04-0.18,0.14-0.1-0.05,0.1c0.03-0.03,0.06-0.11,0.08-0.14c0.03-0.05,0.06-0.09,0.09-0.14
			c0.15-0.25-0.19,0.18-0.05,0.06c0.09-0.07,0.18-0.19,0.27-0.27c0.17-0.17-0.08,0.07-0.1,0.08c0.06-0.01,0.15-0.1,0.21-0.14
			s0.12-0.07,0.19-0.1c0.17-0.09,0.17,0.02-0.09,0.03c0.1-0.01,0.22-0.08,0.33-0.11c0.13-0.04,0.3-0.04,0.43-0.09
			c-0.03,0.01-0.39,0.03-0.14,0.02c0.09,0,0.18-0.01,0.27-0.01c0.15,0,0.3,0.01,0.45,0.02c0.14,0.01,0.16,0.08-0.13-0.02
			c0.05,0.02,0.12,0.02,0.18,0.03c0.15,0.03,0.29,0.06,0.44,0.11c0.06,0.02,0.11,0.04,0.17,0.06c0.04,0.01,0.08,0.03,0.13,0.05
			c0.11,0.04,0.06,0.02-0.15-0.07c0.06,0.05,0.72,0.32,0.7,0.4c0,0-0.23-0.2-0.05-0.04c0.07,0.06,0.13,0.12,0.2,0.18
			c0.1,0.09,0.36,0.29,0.4,0.43c-0.01-0.02-0.2-0.28-0.04-0.05c0.04,0.06,0.08,0.12,0.12,0.18c0.05,0.07,0.27,0.38,0.25,0.46
			c0-0.01-0.12-0.34-0.03-0.07c0.02,0.07,0.05,0.13,0.07,0.2c0.03,0.08,0.05,0.17,0.07,0.25c0.01,0.05,0.02,0.1,0.03,0.15
			c0.02,0.13,0.02,0.14,0,0.01c0.04-0.22,0,0.05,0,0.11c0,0.11-0.01,0.21-0.01,0.31c0,0.17-0.09,0.11,0.02-0.1
			c-0.04,0.07-0.05,0.21-0.07,0.29c0-0.01-0.06,0.19-0.06,0.19c0.09-0.21,0.1-0.23,0.03-0.09c-0.01,0.03-0.03,0.06-0.04,0.09
			c-0.04,0.07-0.08,0.14-0.13,0.21c-0.03,0.04-0.05,0.08-0.08,0.12c0.13-0.16,0.15-0.19,0.08-0.11c-0.03,0.03-0.35,0.4-0.38,0.38
			c-0.01-0.01,0.31-0.21,0.07-0.06c-0.08,0.05-0.17,0.1-0.25,0.15c-0.24,0.14,0.08-0.05,0.1-0.03c0-0.01-0.23,0.08-0.27,0.09
			c-0.05,0.01-0.33,0.11-0.08,0.02c0.14-0.02,0.14-0.02,0.01-0.01c-0.07,0-0.13,0-0.2,0c-0.79-0.02-1.54,0.71-1.5,1.5
			c0.04,0.83,0.66,1.47,1.5,1.5c2.26,0.07,4.05-1.88,4.25-4.04c0.19-2.01-1.09-4.02-2.79-5.02c-1.57-0.92-3.54-1.03-5.18-0.27
			c-1.73,0.8-2.65,2.74-2.11,4.58c0.55,1.86,2.55,3.58,4.58,2.78c0.73-0.29,1.32-1.02,1.05-1.85
			C102.09,150.08,101.26,149.43,100.47,149.74L100.47,149.74z"/>
	</g>
</g>
<g>
	<g>
		<path class="st0" d="M102.31,145.33c0.13-1.21,1.99-2.06,2.97-1.33c1.01,0.75,0.81,2.59-0.21,3.22c-1.4,0.85-0.5,3.34,1.16,2.74
			c1.21-0.44,2.8-0.86,4.01-0.22c1.13,0.59,1.09,1.83,0.52,2.82c-1.9,3.26-6.16,1.14-8.44-0.44c-0.71-0.49-1.61-0.08-2.05,0.54
			c-1.15,1.61-3.42,2.82-5.25,1.54c-0.64-0.45-1.13-1.19-0.95-2c0.18-0.79,0.81-1.4,1.63-1.39c0-1,0-2,0-3
			c-2.31,0.2-3.67-2.38-2.05-4.11c1.64-1.75,4.27-0.57,4.85,1.53c0.51,1.86,3.4,1.07,2.89-0.8c-1.2-4.38-6.92-6.27-10.06-2.64
			c-1.45,1.67-1.88,3.95-0.89,5.97c0.95,1.93,3.1,3.23,5.25,3.05c1.9-0.16,1.96-2.95,0-3c-1.9-0.04-3.54,1.18-4.27,2.89
			c-0.78,1.84-0.3,3.91,1.11,5.31c3.24,3.21,7.97,1.44,10.32-1.84c-0.68,0.18-1.37,0.36-2.05,0.54c2.24,1.55,4.93,2.81,7.72,2.5
			c2.32-0.26,4.28-1.72,5.19-3.88c0.89-2.12,0.41-4.53-1.51-5.9c-1.95-1.39-4.63-1.14-6.77-0.37c0.39,0.91,0.77,1.83,1.16,2.74
			c2.91-1.76,3.2-6.43,0.28-8.35c-3.09-2.03-7.18,0.44-7.55,3.88c-0.09,0.81,0.75,1.49,1.5,1.5
			C101.69,146.84,102.22,146.13,102.31,145.33L102.31,145.33z"/>
	</g>
</g>
<g>
	<g>
		<path class="st0" d="M97.95,185.99c0.75-3.61,1.78-7.15,3.06-10.6c0.28-0.76-0.32-1.64-1.05-1.85c-0.84-0.23-1.56,0.29-1.85,1.05
			c-1.29,3.45-2.31,6.99-3.06,10.6c-0.17,0.79,0.23,1.62,1.05,1.85C96.85,187.25,97.78,186.79,97.95,185.99L97.95,185.99z"/>
	</g>
</g>
<g>
	<g>
		<path class="st0" d="M108.42,185.93c0.16-0.36,0.36-0.7,0.6-1.01c-0.08,0.1-0.16,0.2-0.23,0.3c0.26-0.33,0.56-0.63,0.89-0.88
			c-0.1,0.08-0.2,0.16-0.3,0.23c0.32-0.25,0.67-0.45,1.05-0.61c-0.12,0.05-0.24,0.1-0.36,0.15c0.01-0.01,0.02-0.01,0.04-0.02
			c0.2-0.05,0.37-0.14,0.51-0.27c0.16-0.11,0.29-0.25,0.39-0.42c0.19-0.32,0.27-0.8,0.15-1.16c-0.12-0.36-0.34-0.71-0.69-0.9
			c-0.12-0.05-0.24-0.1-0.36-0.15c-0.27-0.07-0.53-0.07-0.8,0c-0.4,0.17-0.79,0.33-1.15,0.57s-0.71,0.51-1.02,0.81
			s-0.57,0.64-0.82,0.99c-0.18,0.26-0.34,0.54-0.47,0.84c-0.11,0.17-0.17,0.36-0.18,0.56c-0.04,0.2-0.04,0.4,0.03,0.6
			c0.1,0.35,0.36,0.72,0.69,0.9c0.35,0.18,0.77,0.28,1.16,0.15C107.87,186.5,108.26,186.27,108.42,185.93L108.42,185.93z"/>
	</g>
</g>
<g>
	<g>
		<path class="st0" d="M110.57,187.71c2.26,0.98,3.76,3.2,3.64,5.65c-0.11,2.21-1.82,4.34-3.96,5.02c-1.83,0.58-1.05,3.48,0.8,2.89
			c3.4-1.08,5.87-4.16,6.15-7.72c0.27-3.48-1.93-7.05-5.12-8.43c-0.74-0.32-1.61-0.22-2.05,0.54
			C109.66,186.29,109.83,187.39,110.57,187.71L110.57,187.71z"/>
	</g>
</g>
<g>
	<g>
		<path class="st0" d="M107.18,187.1c-3.51,1.09-6.37,4.24-6.9,7.92c-0.06,0.42-0.07,0.78,0.15,1.16c0.18,0.31,0.54,0.61,0.9,0.69
			c0.71,0.16,1.73-0.22,1.85-1.05c0.05-0.38,0.13-0.75,0.24-1.11c0.05-0.17,0.11-0.35,0.17-0.52c0.01-0.03,0.07-0.26,0.11-0.28
			c-0.08,0.19-0.1,0.23-0.05,0.13c0.02-0.05,0.04-0.09,0.06-0.14c0.16-0.34,0.34-0.68,0.54-1c0.1-0.15,0.2-0.3,0.31-0.45
			c0.07-0.1,0.27-0.26,0.01-0.01c0.07-0.06,0.13-0.16,0.19-0.23c0.24-0.28,0.49-0.54,0.76-0.78c0.14-0.13,0.32-0.25,0.45-0.39
			c-0.24,0.26-0.09,0.07,0.01-0.01c0.08-0.06,0.16-0.11,0.24-0.17c0.3-0.2,0.62-0.39,0.94-0.55c0.09-0.04,0.18-0.08,0.27-0.13
			c0.31-0.15-0.32,0.12,0.01,0c0.19-0.07,0.37-0.14,0.56-0.2c0.75-0.23,1.3-1.06,1.05-1.85
			C108.78,187.39,107.98,186.85,107.18,187.1L107.18,187.1z"/>
	</g>
</g>
<g>
	<g>
		<path class="st0" d="M109.13,188.16c0.09,0.29,0.17,0.57,0.22,0.87c0.04,0.22,0,0.13,0-0.03c0,0.07,0.02,0.14,0.02,0.21
			c0.01,0.16,0.02,0.32,0.03,0.47c0.01,0.3-0.01,0.6-0.04,0.9c-0.02,0.21-0.02-0.01,0.01-0.08c-0.03,0.07-0.03,0.18-0.04,0.26
			c-0.03,0.16-0.06,0.31-0.1,0.46c-0.08,0.29-0.18,0.57-0.28,0.85c-0.07,0.19,0.12-0.25,0.03-0.07c-0.04,0.08-0.07,0.16-0.11,0.24
			c-0.06,0.13-0.13,0.25-0.2,0.37c-0.08,0.14-0.16,0.27-0.25,0.4c-0.04,0.06-0.08,0.12-0.12,0.17c-0.16,0.22-0.08,0.01,0.01-0.01
			c-0.07,0.02-0.22,0.26-0.28,0.32c-0.12,0.13-0.25,0.25-0.37,0.37c-0.58,0.54-0.58,1.59,0,2.12c0.62,0.57,1.51,0.57,2.12,0
			c2.3-2.14,3.21-5.64,2.25-8.63c-0.24-0.75-1.05-1.3-1.85-1.05C109.43,186.56,108.87,187.36,109.13,188.16L109.13,188.16z"/>
	</g>
</g>
<g>
	<g>
		<path class="st0" d="M117.55,188.44c2.71-1.55,5.42-3.1,8.14-4.66c0.68-0.39,0.97-1.38,0.54-2.05c-0.44-0.69-1.32-0.96-2.05-0.54
			c-2.71,1.55-5.42,3.1-8.14,4.66c-0.68,0.39-0.97,1.38-0.54,2.05C115.94,188.59,116.82,188.86,117.55,188.44L117.55,188.44z"/>
	</g>
</g>
<g>
	<path class="st2" d="M91.34,269.65c0.09,0.03,0.24,0.07,0.44,0.06c2.67-0.24,3.65-11,5.03-18.35c1.11-5.92,3.32-14.13,8.2-23.79
		c-12.23-0.93-22.33-1.44-29.5-1.73c-15.32-0.63-33.85-0.97-33.85-0.97l0,0c0,0,8.57,35.76,8.31,39.49
		c-0.01,0.17-0.09,0.93,0.36,1.47c0.6,0.73,1.77,0.61,2.12,0.59C57.01,266.06,86.23,268.15,91.34,269.65z"/>
	<g>
		<path d="M90.94,271.1c2.31,0.57,3.52-1.58,4.2-3.42c1-2.69,1.41-5.62,1.87-8.44c1.01-6.16,2.04-12.22,3.99-18.16
			c1.44-4.39,3.23-8.63,5.3-12.76c0.53-1.06-0.13-2.17-1.3-2.26c-18.96-1.43-37.96-2.13-56.97-2.57c-2.13-0.05-4.26-0.09-6.39-0.13
			c-1-0.02-1.68,0.97-1.45,1.9c2.56,10.28,4.9,20.66,6.98,31.05c0.27,1.34,0.53,2.68,0.77,4.02c0.09,0.51,0.18,1.02,0.26,1.52
			c0.09,0.56,0.14,0.91,0.16,1.1c0.08,0.67,0.04,1.33,0.1,2c0.18,2.3,2.16,3.04,4.18,2.95c5.92-0.28,11.99,0.4,17.88,0.85
			c4.17,0.32,8.33,0.67,12.49,1.13C85.64,270.17,88.39,270.37,90.94,271.1c1.86,0.53,2.65-2.36,0.8-2.89
			c-2.2-0.63-4.55-0.83-6.82-1.1c-3.53-0.42-7.08-0.75-10.63-1.05c-6.56-0.55-13.15-1.09-19.74-1.17c-0.82-0.01-1.64,0.06-2.46,0.05
			c-0.74-0.01-0.63-0.11-0.63-0.75c0-0.27-0.02-0.54-0.05-0.81c-0.21-2.18-0.65-4.35-1.07-6.49c-1.26-6.47-2.72-12.9-4.19-19.33
			c-1-4.37-1.98-8.74-3.06-13.09c-0.48,0.63-0.96,1.27-1.45,1.9c15.05,0.28,30.1,0.69,45.13,1.51c6.08,0.33,12.16,0.73,18.23,1.19
			c-0.43-0.75-0.86-1.5-1.3-2.26c-3.1,6.18-5.63,12.66-7.3,19.38c-1.39,5.58-1.95,11.32-3.14,16.94c-0.28,1.3-0.57,2.64-1.06,3.87
			c-0.16,0.39-0.34,0.77-0.58,1.12c-0.22,0.33-0.18,0.02,0.11,0.09C89.86,267.74,89.06,270.63,90.94,271.1z"/>
	</g>
</g>
<g>
	<g>
		<path class="st0" d="M101.43,185.67c2.55-1.03,5.1-2.07,7.64-3.1c0.72-0.29,1.32-1.01,1.05-1.85c-0.23-0.7-1.07-1.36-1.85-1.05
			c-2.55,1.03-5.1,2.07-7.64,3.1c-0.72,0.29-1.32,1.01-1.05,1.85C99.81,185.32,100.65,185.98,101.43,185.67L101.43,185.67z"/>
	</g>
</g>
<g>
	<path class="st2" d="M40.97,227.41c-1.46-0.7-4.41-2.16-5.69-5.37c-1.35-3.36-0.1-6.67,0.39-7.82c0.95,0.44,1.89,0.88,2.84,1.31
		c-0.88-2.28-0.05-5.11,1.93-6.55c1.98-1.44,4.93-1.35,6.82,0.21c0.31-3.2,1.62-7.34,4.83-7.24c1.21,0.04,2.35,0.75,3.55,0.6
		c0.94-0.12,1.72-0.76,2.6-1.12c3.38-1.36,6.81,1.65,9.21,4.39c3.37-4.09,10.75-3.68,13.66,0.75c1.14-1.68,3.81-1.25,5.47-0.07
		c1.66,1.18,3,2.91,4.94,3.52c1.75,0.55,3.7,0.07,5.45,0.61c1.75,0.54,3.03,3.12,1.49,4.13c1.62-1.8,4.75-1.94,6.51-0.27
		c1.76,1.66,1.81,4.8,0.11,6.52c1.42,1.33,2.93,3.1,2.46,4.45c-1.23,3.57-14.31-1.4-32.65,0.24
		C60.97,226.94,49.51,231.5,40.97,227.41z"/>
	<g>
		<path d="M41.73,226.11c-1.79-0.86-3.53-1.92-4.58-3.67c-1.36-2.26-1.19-5.1-0.18-7.46c-0.68,0.18-1.37,0.36-2.05,0.54
			c0.95,0.44,1.89,0.88,2.84,1.31c1.08,0.5,2.67-0.34,2.2-1.69c-0.59-1.71-0.22-3.72,1.27-4.87c1.6-1.23,3.76-0.93,5.28,0.23
			c1.01,0.77,2.15-0.31,2.26-1.3c0.17-1.6,0.53-3.41,1.51-4.73c1.31-1.77,2.99-0.49,4.77-0.4c2.22,0.11,3.77-1.96,6.03-1.29
			c2.16,0.64,3.87,2.49,5.31,4.12c0.51,0.57,1.61,0.59,2.12,0c2.84-3.29,8.77-3.24,11.3,0.45c0.48,0.7,1.72,1.12,2.36,0.3
			c2.02-2.6,6,2.44,7.72,3.33c1.75,0.9,3.52,0.76,5.42,0.91c0.75,0.06,1.51,0.14,2,0.77c0.31,0.4,0.49,0.76,0.1,1.06
			c0.71,0.71,1.41,1.41,2.12,2.12c1.13-1.16,3.14-1.41,4.39-0.27c1.23,1.12,1.19,3.21,0.11,4.4c-0.54,0.59-0.61,1.54,0,2.12
			c0.52,0.49,1.05,1,1.48,1.58c0.18,0.25,0.39,0.53,0.5,0.82c0.06,0.16,0.05,0.49,0.11,0.59c-0.08-0.15,0.18-0.13,0.03-0.1
			c-0.23,0.04,0.18-0.04,0.07-0.05c-0.08,0-0.19,0.13-0.28,0.16c0.39-0.11-0.23,0.06-0.33,0.08c-0.34,0.09-0.33,0.07-0.47,0.08
			c-0.6,0.06-1.21,0.06-1.82,0.04c-3.89-0.11-7.77-0.73-11.65-1.04c-5.66-0.45-11.35-0.54-17.01-0.01
			c-5.91,0.54-11.72,1.76-17.58,2.66C52.08,227.65,46.47,228.32,41.73,226.11c-1.74-0.81-3.26,1.78-1.51,2.59
			c4.83,2.25,10.14,2.09,15.32,1.4c6.32-0.83,12.54-2.26,18.89-2.86c6.22-0.59,12.46-0.44,18.67,0.11c3.84,0.34,7.84,1.15,11.71,0.9
			c1.28-0.08,2.67-0.31,3.57-1.32c2.09-2.33-0.55-5.37-2.24-6.99c0,0.71,0,1.41,0,2.12c2.18-2.39,2.3-6.33-0.11-8.64
			c-2.38-2.29-6.38-2.04-8.64,0.27c-1.39,1.43,0.64,3.27,2.12,2.12c1.8-1.4,1.17-4.03-0.25-5.46c-2.01-2.02-4.7-1.05-7.15-1.72
			c-2.34-0.64-3.74-3.09-5.94-4.06c-2.01-0.88-4.66-0.95-6.13,0.93c0.79,0.1,1.57,0.2,2.36,0.3c-3.55-5.18-11.83-5.91-16.01-1.06
			c0.71,0,1.41,0,2.12,0c-1.8-2.03-3.96-4.12-6.64-4.89c-1.32-0.38-2.74-0.37-4.04,0.11c-0.63,0.24-1.19,0.64-1.81,0.89
			c-0.77,0.3-1.37,0.1-2.14-0.1c-5.49-1.48-7.64,3.94-8.12,8.42c0.75-0.43,1.5-0.86,2.26-1.3c-2.49-1.9-6.17-1.9-8.64,0.03
			c-2.38,1.85-3.31,5.17-2.32,8.01c0.73-0.56,1.47-1.13,2.2-1.69c-0.95-0.44-1.89-0.88-2.84-1.31c-0.66-0.31-1.71-0.26-2.05,0.54
			c-1.34,3.17-1.71,6.66-0.16,9.85c1.22,2.52,3.54,4.21,6,5.39C41.95,229.54,43.47,226.95,41.73,226.11z"/>
	</g>
</g>
<g>
	<g>
		<path class="st0" d="M110.59,187.11c1.88-0.66,3.76-1.32,5.64-1.98c0.74-0.26,1.31-1.04,1.05-1.85c-0.24-0.73-1.05-1.33-1.85-1.05
			c-1.88,0.66-3.76,1.32-5.64,1.98c-0.74,0.26-1.31,1.04-1.05,1.85C108.98,186.8,109.79,187.39,110.59,187.11L110.59,187.11z"/>
	</g>
</g>
<g>
	<g>
		<path class="st0" d="M104.57,229.56c1.93,0,1.93-3,0-3S102.64,229.56,104.57,229.56L104.57,229.56z"/>
	</g>
</g>
<g>
	<g>
		<path class="st0" d="M56.8,213.02c-0.45-0.52-0.4-1.44,0.02-2.06c0.42-0.62,1.14-0.72,1.83-0.4c1.01,0.48,0.96,1.22,1.08,2.23
			c0.09,0.74,0.28,1.45,0.83,1.99c0.69,0.69,1.43,0.58,2.28,0.85c0.81,0.26,1.44,1.2,1.29,2.04c-0.13,0.74-0.94,1.28-1.66,1.36
			c-1.05,0.11-2.03-1.06-3.15-1.29c-0.84-0.17-1.61,0.02-2.41,0.25c-0.83,0.24-1.66,0.41-2.52,0.47c-0.47,0.03-0.94,0.04-1.41,0.02
			c-0.21-0.01-1.01-0.2-1.18-0.11c-0.06,0.03-0.28-0.13-0.04,0.1c0.2,0.19,0.05,0.02,0.1-0.11c0.08-0.19,0.08-0.31,0.23-0.5
			c0.53-0.67,1.44-0.96,2.09-0.59c1.68,0.96,3.19-1.63,1.51-2.59c-1.67-0.95-3.69-0.64-5.16,0.53c-1.46,1.16-2.43,3.67-0.99,5.24
			c0.76,0.83,1.96,0.92,3.01,1c1.26,0.09,2.54-0.01,3.78-0.24c0.55-0.1,1.08-0.25,1.62-0.41c0.33-0.09,0.56-0.2,0.88-0.1
			c0.35,0.1,0.69,0.43,1,0.62c0.46,0.27,0.95,0.5,1.48,0.6c1.92,0.39,3.96-0.45,5.07-2.06c1.11-1.62,0.9-3.81-0.25-5.35
			c-0.59-0.79-1.38-1.41-2.32-1.72c-0.17-0.06-1.34-0.3-1.35-0.26c0.09,0.07,0.18,0.14,0.28,0.21c0,0.01,0.01,0.01,0.01,0.02
			c-0.03,0.01-0.08-0.61-0.08-0.6c-0.14-2.03-1.1-3.65-3.04-4.44c-2-0.81-4.25-0.13-5.41,1.71c-1.13,1.79-0.91,4.12,0.45,5.7
			c0.53,0.61,1.58,0.54,2.12,0C57.41,214.53,57.33,213.64,56.8,213.02L56.8,213.02z"/>
	</g>
</g>
<g>
	<g>
		<path class="st0" d="M58.87,216.59c0.67-0.32,1.33-0.63,2-0.95c-0.68-0.68-1.37-1.37-2.05-2.05c-0.32,0.49-0.64,0.98-0.96,1.47
			c-0.11,0.17-0.17,0.36-0.18,0.56c-0.04,0.2-0.04,0.4,0.03,0.6c0.05,0.2,0.14,0.37,0.27,0.51c0.11,0.16,0.25,0.29,0.42,0.39
			c0.35,0.18,0.77,0.28,1.16,0.15c0.38-0.12,0.68-0.35,0.9-0.69c0.32-0.49,0.64-0.98,0.96-1.47c0.05-0.12,0.1-0.24,0.15-0.36
			c0.06-0.2,0.07-0.4,0.03-0.6c0-0.14-0.03-0.26-0.1-0.38c-0.06-0.19-0.16-0.35-0.31-0.48c-0.19-0.18-0.41-0.31-0.66-0.39
			c-0.2-0.06-0.4-0.07-0.6-0.03c-0.2,0.01-0.39,0.07-0.56,0.18c-0.67,0.32-1.33,0.63-2,0.95c-0.17,0.09-0.32,0.22-0.42,0.39
			c-0.13,0.14-0.22,0.31-0.27,0.51c-0.06,0.2-0.07,0.4-0.03,0.6c0.01,0.2,0.07,0.39,0.18,0.56c0.21,0.32,0.51,0.6,0.9,0.69
			c0.13,0.02,0.27,0.04,0.4,0.05C58.38,216.8,58.63,216.73,58.87,216.59L58.87,216.59z"/>
	</g>
</g>
<g>
	<g>
		<path class="st0" d="M75.47,212.2c1.93,0,1.93-3,0-3S73.53,212.2,75.47,212.2L75.47,212.2z"/>
	</g>
</g>
<g>
	<g>
		<path class="st0" d="M42.79,220.88c1.93,0,1.93-3,0-3S40.85,220.88,42.79,220.88L42.79,220.88z"/>
	</g>
</g>
<g>
	<g>
		<path class="st0" d="M50.96,211.69c1.93,0,1.93-3,0-3S49.02,211.69,50.96,211.69L50.96,211.69z"/>
	</g>
</g>
<g>
	<g>
		<path class="st0" d="M84.16,215.67c-0.23,0-0.47-0.07-0.63-0.21c-0.29-0.24-0.4-0.44-0.47-0.8c0.04,0.24,0.03-0.45-0.01-0.22
			c0.01-0.05,0.16-0.42,0.08-0.26c0.17-0.33,0.29-0.42,0.62-0.6c0.25-0.14,0.51-0.2,0.84-0.17c-0.19-0.01,0.23,0.05,0.25,0.06
			c0.01,0,0.33,0.16,0.43,0.24c0.42,0.33,0.73,1.12,0.66,1.61c-0.2,1.25,0.98,2.38,2.2,1.69c1.01-0.57,2.12-1.23,3.31-1.33
			c0.92-0.07,1.59,0.27,1.95,1.03l0.08,0.29c0-0.01-0.03,0.19,0,0.12c-0.07,0.17-0.09,0.16-0.27,0.33c0.11-0.11-0.04,0-0.09,0.03
			c0.18-0.08-0.12,0.04-0.16,0.05c-0.71,0.21-1.68,0.02-2.56-0.21c-0.72-0.19-1.72,0.24-1.85,1.05c-0.11,0.73-0.38,1.13-0.93,1.47
			c-0.23,0.14-0.22,0.14-0.39,0.2c-0.07,0.02-0.59,0.13-0.4,0.11c-0.41,0.05-0.51,0.05-0.89-0.12c0.26,0.11-0.39-0.26-0.17-0.09
			c-0.12-0.09-0.24-0.22-0.34-0.33c-0.16-0.19-0.3-0.43-0.39-0.73c-0.13-0.45-0.13-0.43-0.09-0.87c-0.02,0.21,0.07-0.31,0.09-0.38
			c0.06-0.18,0.04-0.11,0.2-0.36c1.03-1.64-1.56-3.14-2.59-1.51c-1.57,2.48-0.37,6.05,2.34,7.12c2.66,1.05,6.03-0.86,6.47-3.7
			c-0.62,0.35-1.23,0.7-1.85,1.05c1.58,0.41,3.36,0.66,4.89-0.07c1.59-0.76,2.34-2.62,1.78-4.28c-0.58-1.7-2.15-2.93-3.91-3.13
			c-2.06-0.24-3.98,0.72-5.72,1.7c0.73,0.56,1.47,1.13,2.2,1.69c0.3-1.88-0.33-3.73-1.89-4.89c-1.4-1.04-3.36-1.07-4.84-0.15
			c-1.53,0.95-2.4,2.77-1.88,4.54c0.51,1.74,2.11,3.07,3.95,3.04C86.08,218.64,86.09,215.64,84.16,215.67L84.16,215.67z"/>
	</g>
</g>
<g>
	<g>
		<path class="st0" d="M72.4,222.93c1.93,0,1.93-3,0-3S70.47,222.93,72.4,222.93L72.4,222.93z"/>
	</g>
</g>
<g>
	<g>
		<path class="st0" d="M99.98,220.88c0.17,0,0.34,0,0.51,0c0.21,0.01,0.4-0.04,0.58-0.13c0.19-0.06,0.35-0.16,0.48-0.31
			c0.15-0.14,0.25-0.3,0.31-0.48c0.09-0.18,0.14-0.37,0.13-0.58c-0.02-0.13-0.04-0.27-0.05-0.4c-0.07-0.25-0.2-0.47-0.39-0.66
			c-0.1-0.08-0.2-0.16-0.3-0.23c-0.23-0.14-0.49-0.2-0.76-0.2c-0.17,0-0.34,0-0.51,0c-0.21-0.01-0.4,0.04-0.58,0.13
			c-0.19,0.06-0.35,0.16-0.48,0.31c-0.15,0.14-0.25,0.3-0.31,0.48c-0.09,0.18-0.14,0.37-0.13,0.58c0.02,0.13,0.04,0.27,0.05,0.4
			c0.07,0.25,0.2,0.47,0.39,0.66c0.1,0.08,0.2,0.16,0.3,0.23C99.46,220.81,99.71,220.88,99.98,220.88L99.98,220.88z"/>
	</g>
</g>
<g>
	<g>
		<path class="st0" d="M109.33,235.93c-3.17,4.14-5.82,8.64-7.9,13.42c-0.32,0.74-0.22,1.61,0.54,2.05
			c0.64,0.37,1.73,0.21,2.05-0.54c2.08-4.78,4.73-9.28,7.9-13.42c0.49-0.64,0.1-1.68-0.54-2.05
			C110.61,234.94,109.82,235.28,109.33,235.93L109.33,235.93z"/>
	</g>
</g>
<line class="st1" x1="122.28" y1="314.42" x2="166.5" y2="338.5"/>
<line class="st1" x1="234.5" y1="374.5" x2="339.5" y2="432.5"/>
</svg>
