<?xml version="1.0" encoding="utf-8"?>
<!-- Generator: Adobe Illustrator 27.9.0, SVG Export Plug-In . SVG Version: 6.00 Build 0)  -->
<svg version="1.1" xmlns="http://www.w3.org/2000/svg" xmlns:xlink="http://www.w3.org/1999/xlink" x="0px" y="0px"
	 viewBox="0 0 686 186" style="enable-background:new 0 0 686 186;" xml:space="preserve">
<style type="text/css">
	.st0{fill:#FACCB4;}
	.st1{fill:none;}
	.st2{fill:#979233;}
	.st3{font-family:'Stencil';}
	.st4{font-size:18px;}
</style>
<g id="Laag_1">
	<rect x="0.5" y="0.5" class="st0" width="686" height="186"/>
</g>
<g id="Laag_2">
	<g>
		<g>
			<path d="M360.86,77.34c13.91-4.77,27.71-11.06,39.09-20.52c4.35-3.61,8.34-7.78,11.35-12.59c1.2-1.92,2.64-4.17,2.6-6.53
				c-0.06-3.11-2.72-4.87-5.46-5.62c-3.37-0.92-7.09-0.71-10.48,0.04c-3.17,0.7-6.25,2.1-8.23,4.76c-2.02,2.71-2.76,6.49-3.52,9.7
				c-0.92,3.91-1.52,7.89-1.88,11.89c-1.46,16.23,1.26,32.42,1.84,48.62c0.29,8.06,0.05,16.2-1.53,24.13
				c-0.82,4.11-1.98,8.15-3.52,12.05c-0.95,2.42-2.13,4.71-4.21,6.35c-1.37,1.08-2.99,1.81-4.63,2.36c0.63,0.48,1.27,0.96,1.9,1.45
				c-1.62-22.54,11.65-42.37,27.64-56.99c5.88-5.38,12.24-10.2,18.87-14.61c1.6-1.06,0.1-3.66-1.51-2.59
				c-20.31,13.51-40.55,32.26-46.52,56.86c-1.37,5.66-1.9,11.52-1.48,17.33c0.07,0.91,0.91,1.78,1.9,1.45
				c2.95-0.99,5.74-2.48,7.75-4.91c1.84-2.23,2.87-4.93,3.84-7.62c2.66-7.34,3.98-15.09,4.43-22.87
				c0.89-15.52-1.65-30.95-2.11-46.44c-0.23-7.79,0.06-15.64,1.61-23.29c0.38-1.89,0.84-3.77,1.37-5.62
				c0.42-1.49,0.82-3.06,1.54-4.44c1.46-2.79,4.33-4.04,7.27-4.69c3.38-0.75,14.64-1.41,11.53,4.9c-2.24,4.55-5.62,8.51-9.29,11.97
				c-9.89,9.33-22.54,15.66-35.15,20.46c-1.92,0.73-3.86,1.43-5.8,2.09C358.24,75.07,359.02,77.96,360.86,77.34L360.86,77.34z"/>
		</g>
	</g>
	<g>
		<g>
			<path d="M448.04,51.24c-2.01,3.49-3.57,7.22-4.56,11.13c-1.02,4.01-1.53,8.13-2.13,12.21c-1.28,8.71-2.57,17.42-3.85,26.13
				c-1.27,8.63-2.54,17.25-3.81,25.88c-0.63,4.27-1.26,8.54-1.89,12.82c-0.47,3.18-1.03,6.55,0.68,9.49
				c1.65,2.84,4.81,4.25,7.92,4.82c3.02,0.55,6.57,0.57,9.23-1.18c1.6-1.06,0.1-3.66-1.51-2.59c-2.07,1.36-4.9,1.29-7.24,0.82
				c-2.4-0.49-4.99-1.46-6.06-3.86c-1.24-2.76-0.17-6.33,0.25-9.16c0.61-4.11,1.21-8.22,1.82-12.32c2.35-15.94,4.7-31.88,7.05-47.82
				c0.63-4.28,1.15-8.59,2.08-12.82c0.94-4.25,2.47-8.25,4.64-12.03C451.59,51.08,449,49.57,448.04,51.24L448.04,51.24z"/>
		</g>
	</g>
	<g>
		<g>
			<path d="M455.69,38.83c0-0.4,0-0.79,0-1.19c0.01-0.21-0.04-0.4-0.13-0.58c-0.06-0.19-0.16-0.35-0.31-0.48
				c-0.14-0.15-0.3-0.25-0.48-0.31c-0.18-0.09-0.37-0.14-0.58-0.13c-0.13,0.02-0.27,0.04-0.4,0.05c-0.25,0.07-0.47,0.2-0.66,0.39
				c-0.08,0.1-0.16,0.2-0.23,0.3c-0.14,0.23-0.2,0.49-0.2,0.76c0,0.4,0,0.79,0,1.19c-0.01,0.21,0.04,0.4,0.13,0.58
				c0.06,0.19,0.16,0.35,0.31,0.48c0.14,0.15,0.3,0.25,0.48,0.31c0.18,0.09,0.37,0.14,0.58,0.13c0.13-0.02,0.27-0.04,0.4-0.05
				c0.25-0.07,0.47-0.2,0.66-0.39c0.08-0.1,0.16-0.2,0.23-0.3C455.62,39.35,455.69,39.1,455.69,38.83L455.69,38.83z"/>
		</g>
	</g>
	<g>
		<g>
			<path d="M470.64,84.44c6.62-3.09,12.99-6.74,18.84-11.12c2.69-2.01,5.29-4.15,7.71-6.48c2.25-2.16,4.93-5.11,4.29-8.51
				c-0.51-2.67-2.98-4.51-5.41-5.34c-3.25-1.11-6.84-0.5-9.86,0.97c-2.95,1.44-5.49,3.79-7.77,6.11c-2.29,2.34-4.34,4.94-6.09,7.71
				c-6.76,10.75-8.44,23.73-9.72,36.11c-0.8,7.77-1.16,15.61-0.46,23.41c0.35,3.88,0.94,7.76,1.84,11.55
				c0.72,3.03,1.53,6.15,2.96,8.94c3.21,6.27,9.94,8.86,16.74,8.2c3.73-0.36,7.41-1.47,10.6-3.44c3.17-1.96,5.67-4.66,8.07-7.47
				c1.25-1.46-0.87-3.59-2.12-2.12c-1.94,2.27-3.92,4.57-6.39,6.29c-2.44,1.71-5.18,2.83-8.1,3.42c-5.38,1.09-11.71,0.21-15.1-4.54
				c-1.37-1.93-2.12-4.14-2.79-6.38c-1.01-3.41-1.76-6.9-2.26-10.42c-1-6.98-1.01-14.09-0.54-21.11c0.42-6.39,1.16-12.79,2.24-19.11
				c0.91-5.31,2.18-10.63,4.33-15.59c2.31-5.33,5.61-10.17,9.79-14.21c2.06-1.99,4.31-4.01,7-5.09c2.71-1.09,6.19-1.25,8.62,0.6
				c2.78,2.12,0.91,4.91-1.02,6.93c-2.36,2.46-5.03,4.67-7.75,6.73c-5.94,4.49-12.43,8.22-19.17,11.37
				C467.38,82.67,468.9,85.26,470.64,84.44L470.64,84.44z"/>
		</g>
	</g>
	<g>
		<g>
			<path d="M530.1,40.92c-4.98,20.29-10.02,40.75-11.16,61.69c-0.51,9.41-0.53,19.21,1.68,28.42c1.93,8.04,6.09,16.57,13.07,21.38
				c3.87,2.66,8.72,3.86,13.32,2.71c3.36-0.84,7.58-3.36,6.59-7.43c-0.46-1.87-3.35-1.08-2.89,0.8c0.66,2.69-4.48,3.88-6.24,4.04
				c-3.79,0.34-7.56-1.19-10.44-3.6c-6.09-5.09-9.43-13.06-10.96-20.67c-1.71-8.53-1.61-17.49-1.11-26.13
				c0.55-9.64,1.96-19.2,3.79-28.68c2.06-10.66,4.65-21.2,7.23-31.74C533.45,39.84,530.56,39.04,530.1,40.92L530.1,40.92z"/>
		</g>
	</g>
	<g>
		<g>
			<path d="M524.51,71.64c5.13-0.26,10.26-0.51,15.39-0.77c1.92-0.1,1.93-3.1,0-3c-5.13,0.26-10.26,0.51-15.39,0.77
				C522.58,68.74,522.57,71.74,524.51,71.64L524.51,71.64z"/>
		</g>
	</g>
	<g>
		<g>
			<path d="M592.69,54.43c-6.23-1.5-12.98-1.14-19.18,0.32c-5.37,1.26-11.37,3.8-13.38,9.39c-1.56,4.34-0.12,9.53,1.55,13.63
				c1.87,4.58,4.54,8.77,7.46,12.75c6.3,8.56,13.78,16.18,19.98,24.81c5.04,7.01,10.04,15.71,7.84,24.66
				c-0.63,2.55-1.77,4.79-3.79,6.52c-2.45,2.09-5.65,3.18-8.74,3.91c-3.68,0.86-7.5,1.16-11.27,0.87c-2.67-0.21-6.45-0.74-8.48-2.71
				c-0.16-0.15-0.44-0.52-0.45-0.57c-0.02-0.11,0.05-0.2,0.29-0.44c1.36-1.37-0.76-3.49-2.12-2.12c-1.71,1.72-1.33,3.98,0.43,5.49
				c2.38,2.03,5.79,2.8,8.81,3.19c3.82,0.49,7.73,0.27,11.52-0.4c3.27-0.58,6.6-1.54,9.49-3.22c9.61-5.6,9.03-17.85,4.99-26.77
				c-4.38-9.66-11.96-17.68-18.71-25.72c-6.34-7.56-13.54-15.84-15.87-25.69c-0.52-2.22-0.87-4.62-0.22-6.84
				c0.83-2.82,3.27-4.73,5.82-5.96c5.56-2.69,12.47-3.37,18.55-2.93c1.58,0.11,3.13,0.35,4.67,0.72
				C593.77,57.78,594.57,54.88,592.69,54.43L592.69,54.43z"/>
		</g>
	</g>
	<rect x="5.91" y="6.36" class="st1" width="675.57" height="24.51"/>
	<text transform="matrix(1 0 0 1 5.915 18.3677)" class="st2 st3 st4">DIY - DIY - DIY - DIY - DIY - DIY - DIY - DIY - DIY - DIY - DIY - DIY - DIY - DIY - DIY - DIY </text>
	<rect x="5.91" y="168.62" class="st1" width="675.57" height="24.51"/>
	<text transform="matrix(1 0 0 1 5.9114 180.6215)" class="st2 st3 st4">DIY - DIY - DIY - DIY - DIY - DIY - DIY - DIY - DIY - DIY - DIY - DIY - DIY - DIY - DIY - DIY </text>
	<rect x="1.91" y="25" class="st1" width="15.09" height="201"/>
	<text transform="matrix(1 0 0 1 5.887 37.0057)"><tspan x="0" y="0" class="st2 st3 st4">I</tspan><tspan x="-1.81" y="21.6" class="st2 st3 st4">Y </tspan><tspan x="1.32" y="43.2" class="st2 st3 st4">- </tspan><tspan x="-2.27" y="64.8" class="st2 st3 st4">D</tspan><tspan x="0" y="86.4" class="st2 st3 st4">I</tspan><tspan x="-1.81" y="108" class="st2 st3 st4">Y </tspan><tspan x="1.32" y="129.6" class="st2 st3 st4">- </tspan></text>
	<rect x="669.26" y="24.84" class="st1" width="15.09" height="201"/>
	<text transform="matrix(1 0 0 1 673.2402 36.8447)"><tspan x="0" y="0" class="st2 st3 st4">I</tspan><tspan x="-1.81" y="21.6" class="st2 st3 st4">Y </tspan><tspan x="1.32" y="43.2" class="st2 st3 st4">- </tspan><tspan x="-2.27" y="64.8" class="st2 st3 st4">D</tspan><tspan x="0" y="86.4" class="st2 st3 st4">I</tspan><tspan x="-1.81" y="108" class="st2 st3 st4">Y </tspan><tspan x="1.32" y="129.6" class="st2 st3 st4">- </tspan></text>
	<g>
		<g>
			<path d="M66.31,31.4c3.43,16.46,5.84,33.12,7.18,49.87c1.34,16.79,1.63,33.66,0.85,50.48c-0.19,4.12-0.23,8.35-0.92,12.43
				c-0.58,3.48-1.76,6.77-4.61,9.01c0.71,0,1.41,0,2.12,0c-3.1-3.03-3.42-7.5-3.27-11.6c0.19-5.21,0.79-10.43,1.49-15.59
				c0.74-5.42,1.71-10.8,2.88-16.14c0.96-4.35,1.56-10.07,5.28-13.05c3.14-2.51,7.56-2.99,11.39-3.61c4.2-0.67,8.21-1.63,12.07-3.45
				c7.56-3.56,13.98-9.81,17.27-17.53c4.04-9.5,3.15-20.62-2.19-29.44c-0.8-1.32-2.7-0.7-2.8,0.76c-1.2,18.43-1.52,36.92-0.93,55.38
				c0.29,9.23,0.81,18.46,1.55,27.66c0.54,6.69,1.27,13.7,4.61,19.67c1.67,2.98,4.23,6.1,7.4,7.54c2.74,1.24,7.07,1.66,8.59-1.62
				c0.81-1.74-1.78-3.27-2.59-1.51c-1.05,2.26-4.69,0.63-6.09-0.4c-2.44-1.81-4.24-4.33-5.52-7.07c-2.75-5.9-3.12-12.68-3.6-19.07
				c-1.3-17.1-1.83-34.26-1.59-51.41c0.14-9.73,0.53-19.45,1.16-29.16c-0.93,0.25-1.86,0.5-2.8,0.76c4.79,7.9,5.69,17.81,2.19,26.39
				c-3.18,7.82-9.99,14.02-17.75,17.15c-3.99,1.61-8.17,2.15-12.38,2.9c-3.9,0.69-8.01,1.75-10.9,4.64
				c-3.41,3.42-4.18,8.7-5.19,13.21c-1.19,5.34-2.16,10.72-2.92,16.14c-0.81,5.76-1.54,11.61-1.68,17.43
				c-0.11,4.74,0.63,9.71,4.17,13.16c0.63,0.61,1.48,0.51,2.12,0c5.46-4.31,5.74-11.86,6.12-18.23c0.52-8.65,0.75-17.31,0.71-25.97
				c-0.09-17.24-1.3-34.46-3.6-51.55c-1.3-9.71-2.96-19.37-4.96-28.97C68.81,28.71,65.92,29.51,66.31,31.4L66.31,31.4z"/>
		</g>
	</g>
	<g>
		<g>
			<path d="M146.13,84.01c6.62-3.09,12.99-6.74,18.84-11.12c2.69-2.01,5.29-4.15,7.71-6.48c2.25-2.16,4.93-5.11,4.29-8.51
				c-0.51-2.67-2.98-4.51-5.41-5.34c-3.25-1.11-6.84-0.5-9.86,0.97c-2.95,1.44-5.49,3.79-7.77,6.11c-2.29,2.34-4.34,4.94-6.09,7.71
				c-6.76,10.75-8.44,23.73-9.72,36.11c-0.8,7.77-1.16,15.61-0.46,23.41c0.35,3.88,0.94,7.76,1.84,11.55
				c0.72,3.03,1.53,6.15,2.96,8.94c3.21,6.27,9.94,8.86,16.74,8.2c3.73-0.36,7.41-1.47,10.6-3.44c3.17-1.96,5.67-4.66,8.07-7.47
				c1.25-1.46-0.87-3.59-2.12-2.12c-1.94,2.27-3.92,4.57-6.39,6.29c-2.44,1.71-5.18,2.83-8.1,3.42c-5.38,1.09-11.71,0.21-15.1-4.54
				c-1.37-1.93-2.12-4.14-2.79-6.38c-1.01-3.41-1.76-6.9-2.26-10.42c-1-6.98-1.01-14.09-0.54-21.11c0.42-6.39,1.16-12.79,2.24-19.11
				c0.91-5.31,2.18-10.63,4.33-15.59c2.31-5.33,5.61-10.17,9.79-14.21c2.06-1.99,4.31-4.01,7-5.09c2.71-1.09,6.19-1.25,8.62,0.6
				c2.78,2.12,0.91,4.91-1.02,6.93c-2.36,2.46-5.03,4.67-7.75,6.73c-5.94,4.49-12.43,8.22-19.17,11.37
				C142.87,82.24,144.39,84.83,146.13,84.01L146.13,84.01z"/>
		</g>
	</g>
	<g>
		<g>
			<path d="M252.13,82.01c6.62-3.09,12.99-6.74,18.84-11.12c2.69-2.01,5.29-4.15,7.71-6.48c2.25-2.16,4.93-5.11,4.29-8.51
				c-0.51-2.67-2.98-4.51-5.41-5.34c-3.25-1.11-6.84-0.5-9.86,0.97c-2.95,1.44-5.49,3.79-7.77,6.11c-2.29,2.34-4.34,4.94-6.09,7.71
				c-6.76,10.75-8.44,23.73-9.72,36.11c-0.8,7.77-1.16,15.61-0.46,23.41c0.35,3.88,0.94,7.76,1.84,11.55
				c0.72,3.03,1.53,6.15,2.96,8.94c3.21,6.27,9.94,8.86,16.74,8.2c3.73-0.36,7.41-1.47,10.6-3.44c3.17-1.96,5.67-4.66,8.07-7.47
				c1.25-1.46-0.87-3.59-2.12-2.12c-1.94,2.27-3.92,4.57-6.39,6.29c-2.44,1.71-5.18,2.83-8.1,3.42c-5.38,1.09-11.71,0.21-15.1-4.54
				c-1.37-1.93-2.12-4.14-2.79-6.38c-1.01-3.41-1.76-6.9-2.26-10.42c-1-6.98-1.01-14.09-0.54-21.11c0.42-6.39,1.16-12.79,2.24-19.11
				c0.91-5.31,2.18-10.63,4.33-15.59c2.31-5.33,5.61-10.17,9.79-14.21c2.06-1.99,4.31-4.01,7-5.09c2.71-1.09,6.19-1.25,8.62,0.6
				c2.78,2.12,0.91,4.91-1.02,6.93c-2.36,2.46-5.03,4.67-7.75,6.73c-5.94,4.49-12.43,8.22-19.17,11.37
				C248.87,80.24,250.39,82.83,252.13,82.01L252.13,82.01z"/>
		</g>
	</g>
	<g>
		<g>
			<path d="M195.15,77.08c7.11-11.62,20.09-18.98,24.05-32.61c0.93-3.2,1.23-6.56,0.68-9.85c-0.13-0.76-0.25-1.63-0.56-2.34
				c-0.33-0.77-0.91-1.07-1.69-1.31c-1.34-0.42-2.84-0.34-4.17,0.1c-7.05,2.37-7.21,11.24-8.01,17.37
				c-4.1,31.71-5.35,64.06-2.96,95.96c0.23,3.04,0.71,6.5,3.12,8.65c2.76,2.46,6.53,2,9.59,0.41c3.21-1.67,5.75-4.52,7.92-7.36
				c2.39-3.13,4.24-6.58,5.62-10.27c0.68-1.81-2.22-2.59-2.89-0.8c-1.6,4.29-4.02,8.28-7.11,11.66c-2.28,2.5-6.74,6.74-10.46,4.6
				c-1.6-0.92-2.19-2.79-2.51-4.49c-0.41-2.19-0.42-4.46-0.55-6.68c-0.31-5.31-0.53-10.63-0.67-15.95
				c-0.55-21.2,0.28-42.44,2.47-63.54c0.61-5.84,1.28-11.69,2.14-17.51c0.37-2.48,0.81-5.25,2.43-7.26c1.23-1.53,3.56-2.8,5.52-1.91
				c-0.23-0.3-0.46-0.6-0.69-0.9c2.51,8.26-1.86,16.74-7.08,22.96c-5.52,6.59-12.26,12.13-16.79,19.52
				C191.54,77.22,194.14,78.73,195.15,77.08L195.15,77.08z"/>
		</g>
	</g>
</g>
</svg>
