<?xml version="1.0" encoding="utf-8"?>
<!-- Generator: Adobe Illustrator 27.9.0, SVG Export Plug-In . SVG Version: 6.00 Build 0)  -->
<svg version="1.1" xmlns="http://www.w3.org/2000/svg" xmlns:xlink="http://www.w3.org/1999/xlink" x="0px" y="0px"
	 viewBox="0 0 454 301" style="enable-background:new 0 0 454 301;" xml:space="preserve">
<style type="text/css">
	.st0{fill:#FFAF77;}
</style>
<g id="Laag_2">
	<path class="st0" d="M363.5,301h-273C40.52,301,0,260.48,0,210.5v-120C0,40.52,40.52,0,90.5,0l273,0C413.48,0,454,40.52,454,90.5
		v120C454,260.48,413.48,301,363.5,301z"/>
</g>
<g id="Laag_1">
	<g>
		<g>
			<path d="M283,122.36c-6.63,1.39-10.52,6.7-12.73,13.12c-1.28,3.72-1.96,7.62-2.61,11.51c-0.79,4.76-1.39,9.54-1.8,14.34
				c-1.59,18.51-0.71,37.88,3.75,55.93c1.9,7.68,5.13,15.51,12.01,19.53c0.91,0.54,4.26-0.92,2.91-1.71
				c-5.83-3.4-8.85-10.07-10.68-16.51c-2.21-7.78-3.35-16.01-4.15-24.08c-1.76-17.76-1.01-35.95,2.54-53.43
				c0.73-3.54,1.71-7.1,3.38-10.28c1.44-2.77,3.69-5.9,6.83-6.56c0.51-0.11,2.05-0.45,2.08-1.21
				C284.55,122.26,283.51,122.26,283,122.36L283,122.36z"/>
		</g>
	</g>
	<g>
		<g>
			<path d="M267.94,160.55c-0.38-2.69-2.46-4.34-4.65-5.44c-2.35-1.18-5.3-2.31-7.69-0.67c-2.25,1.54-2.78,4.57-3.34,7.12
				c-0.73,3.29-1.24,6.62-1.54,9.99c-1.2,13.37,0.9,27.14,6.19,39.38c1.31,3.05,2.7,6.74,5.49,8.65c2.69,1.84,6.17,1.47,8.42-0.89
				c0.64-0.67,0.23-1.63-0.5-1.96c-0.9-0.41-1.93,0.05-2.56,0.72c-1.69,1.77-4.28-1.75-5-2.97c-1.31-2.23-2.34-4.72-3.28-7.15
				c-1.85-4.77-3.24-9.75-4.14-14.81c-1.85-10.4-1.64-21.19,0.68-31.48c0.28-1.2,0.5-2.47,1.05-3.58c0.68-1.34,1.36-0.83,2.56-0.37
				c2.09,0.8,4.34,1.93,4.69,4.48C264.57,163.43,268.21,162.47,267.94,160.55L267.94,160.55z"/>
		</g>
	</g>
	<g>
		<g>
			<path d="M285.49,154.74c4.25-4.22,7.77-9.14,10.38-14.63c2.54-5.32,4.72-11.62,4.92-17.63c0.09-2.62-1.2-4.81-3.88-4.88
				c-2.48-0.05-4.83,1.41-6.49,3.23c-1.99,2.17-3.18,5.19-4.25,7.95c-1.21,3.1-2.13,6.34-2.83,9.61c-1.4,6.47-1.98,13.1-2.41,19.7
				c-0.49,7.24-0.91,14.5-1.2,21.75c-0.56,14.47-0.44,29.11,2.28,43.36c1.21,6.37,2.61,14.59,8,18.68c4.35,3.3,11.12,3.05,14.7-1.39
				c0.56-0.71-0.49-1.04-0.96-1.05c-0.84-0.04-1.85,0.34-2.4,1.03c-3.13,3.89-8.53,0.14-10.69-2.96
				c-3.13-4.48-4.14-10.58-5.13-15.93c-2.31-12.57-2.66-25.42-2.3-38.17c0.19-6.36,0.54-12.71,0.93-19.06
				c0.35-5.86,0.68-11.72,1.38-17.55c0.69-5.68,1.74-11.33,3.63-16.71c0.94-2.67,2-5.52,3.56-7.86c0.56-0.84,1.45-2,2.39-2.38
				c1.1-0.43,1.8,0.95,1.99,1.95c0.53,2.72-0.54,6.2-1.2,8.83c-0.75,2.97-1.76,5.88-3,8.65c-2.49,5.57-6,10.66-10.26,14.89
				c-0.55,0.55-0.4,1.09,0.33,1.27C283.7,155.67,284.92,155.32,285.49,154.74L285.49,154.74z"/>
		</g>
	</g>
	<g>
		<g>
			<path d="M316.61,150.72c1.44-11.29,1.46-22.74,0.08-34.04c-0.04-0.3-0.49-0.45-0.7-0.49c-4.88-1.01-8.3,3.21-9.89,7.53
				c-2.19,5.94-3.51,12.37-4.65,18.61c-2.4,13.21-3.26,26.67-3.85,40.09c-0.53,11.91-0.89,24,1.1,35.79
				c0.98,5.77,2.54,11.45,4.97,16.73c1.91,4.18,4.82,10.45,10.04,10.25c2.78-0.11,4.92-1.88,5.77-4.63
				c1.01-3.33,1.36-7.03,1.61-10.5c0.53-7.48-0.16-15-2.03-22.24c-0.33-1.26-3.95-0.25-3.63,1.03c1.45,5.65,2.23,11.5,2.2,17.36
				c-0.01,3.1-0.25,6.19-0.69,9.27c-0.19,1.31-0.41,2.63-0.69,3.94c-0.2,0.97-0.44,2.77-1.24,3.43c-1.34,1.12-4.1-2.42-4.84-3.54
				c-1.45-2.2-2.6-4.67-3.63-7.11c-1.96-4.71-3.3-9.69-4.16-14.75c-1.8-10.48-1.71-21.2-1.31-31.81
				c0.45-11.61,1.06-23.24,2.59-34.74c0.84-6.37,1.98-12.71,3.54-18.94c0.75-3,1.51-6.07,2.61-8.96c0.55-1.45,2.08-5.21,3.96-4.81
				c-0.24-0.16-0.46-0.33-0.7-0.49c1.38,11.13,1.36,22.38-0.06,33.52C312.81,152.65,316.46,151.96,316.61,150.72L316.61,150.72z"/>
		</g>
	</g>
	<g>
		<g>
			<path d="M337.73,122.38c-1.03-3.01-5.25-2.34-7.19-0.84c-2.74,2.1-3.41,6.64-4.31,9.83c-2.38,8.45-4.1,17.11-5.17,25.85
				c-2.13,17.39-1.68,35.15,1.34,52.41c1.51,8.68,3.69,17.22,6.5,25.53c0.46,1.35,0.89,2.98,2,3.93c1.28,1.08,3.18,0.87,4.59,0.22
				c3.19-1.46,4.38-5.7,5.47-8.85c2.86-8.28,3.95-17.1,4.43-25.85c0.5-9.15,0.46-18.32,0.5-27.48c0.04-9.9,0.31-19.9-0.48-29.77
				c-0.71-8.87-2.66-17.73-7.77-25.01c-0.68-0.96-4.18,0.3-3.38,1.45c8.43,12.04,7.94,28.14,7.99,42.38
				c0.03,8.62-0.01,17.26-0.11,25.88c-0.1,7.99-0.28,16.01-1.36,23.94c-0.53,3.85-1.26,7.68-2.31,11.41
				c-0.5,1.76-1.06,3.51-1.71,5.22c-0.56,1.5-1.21,4.11-2.55,5.09c-0.06,0.07-0.13,0.12-0.19,0.18c0.35-0.18,0.34-0.37-0.05-0.54
				c-0.13-0.35-0.5-0.71-0.68-1.08c-0.33-0.68-0.54-1.42-0.79-2.14c-0.69-2.02-1.34-4.07-1.95-6.13c-1.11-3.75-2.09-7.52-2.95-11.34
				c-3.44-15.38-4.82-31.28-4.05-47.07c0.43-8.81,1.5-17.59,3.24-26.22c0.85-4.22,1.85-8.4,3.01-12.53c0.56-1.98,1.11-4,1.8-5.93
				c0.23-0.64,0.73-2.27,1.44-2.59c-0.23,0.11-0.16-0.04,0.09,0.03c0.5,0.12,0.79,0.58,0.95,1.05
				C334.53,124.62,338.12,123.52,337.73,122.38L337.73,122.38z"/>
		</g>
	</g>
	<g>
		<g>
			<path d="M345.41,131.04c5.75,26.24,11.68,53.44,7.25,80.44c-1.18,7.2-3.11,14.26-5.89,20.96c-0.33,0.79,3.15,0.43,3.59-0.62
				c10.31-24.84,8.3-52.75,3.48-78.69c-1.44-7.74-3.13-15.43-4.82-23.11C348.81,129.05,345.17,130.01,345.41,131.04L345.41,131.04z"
				/>
		</g>
	</g>
	<g>
		<g>
			<path d="M346.95,131.56c3.53,4.13,7.78,8.18,10.39,13.04c2.3,4.31,2.69,9.6,1.1,14.25c-0.35,1.03-0.78,2.01-1.3,2.93
				c-0.61,1.09-1.59,2.02-2.06,3.18c-0.93,2.25,1.23,4.28,2.31,6.02c2.78,4.42,4.93,9.25,6.38,14.31
				c1.65,5.72,2.39,11.66,2.24,17.63c-0.01,0.55,3.6,0.08,3.63-1.03c0.26-10.62-2.36-21.23-7.63-30.31
				c-0.64-1.1-1.33-2.18-2.04-3.25c-0.69-1.01-1.63-2.1-1.46-3.43c0.15-1.24,1.2-2.2,1.83-3.19c0.65-1.04,1.19-2.17,1.6-3.34
				c1.54-4.35,1.49-9.37-0.38-13.6c-1.15-2.6-2.91-4.84-4.72-6.97c-2.14-2.54-4.31-5.05-6.48-7.57
				C349.76,129.58,346.41,130.93,346.95,131.56L346.95,131.56z"/>
		</g>
	</g>
	<g>
		<g>
			<path d="M96.75,209.18c-3.18-5.63-5.95-11.75-6.62-18.34c-0.63-6.2,1.23-11.9,4.33-17.1c2.96-4.97,6.64-9.44,9.33-14.6
				c2.88-5.55,4.7-11.91,4.79-18.26c0.03-1.96-0.44-4.47-2.6-4.85c-2.73-0.49-4.69,1.62-6.02,3.8c-3.06,5.02-4.2,11-4.69,16.86
				c-0.58,6.73-0.63,13.55-0.31,20.28c0.31,6.97,0.94,14.14,2.63,20.91c0.84,3.38,2.28,6.36,4.36,9.08
				c2.08,2.71,4.44,5.14,6.25,8.04c3.7,5.93,5.5,13.17,5.18,20.24c1.09-0.38,2.18-0.76,3.26-1.14
				c-9.27-4.65-11.28-16.51-12.28-26.14c-0.59-5.61-1.29-11.65-0.65-17.27c0.61-5.43,3.93-9.36,7.43-13.1
				c1.44-1.54-2.09-1.35-2.88-0.51c-3.46,3.71-7.07,7.66-8,12.97c-0.5,2.85-0.36,5.82-0.25,8.7c0.13,3.21,0.34,6.41,0.66,9.61
				c1.03,10.32,3.19,22.57,13.07,27.54c0.69,0.34,3.2-0.03,3.26-1.14c0.26-5.74-0.71-11.46-3.03-16.68
				c-1.09-2.46-2.45-4.78-4.05-6.9c-1.68-2.22-3.6-4.22-5.23-6.49c-3.76-5.24-4.53-12.17-5.28-18.52
				c-0.79-6.66-1.06-13.38-0.96-20.08c0.09-6.06,0.29-12.28,1.71-18.18c0.69-2.83,1.68-5.59,3.16-8.04c0.31-0.51,0.63-1.03,1-1.5
				c0.05-0.07,0.09-0.12,0.14-0.18c0.51-0.46,0.5-0.51-0.03-0.18c-0.14,0.07-0.26,0.14-0.4,0.21c0.15,0.13,0.26,0.29,0.35,0.47
				c0.09,0.45,0.38,0.89,0.48,1.37c0.15,0.75,0.14,1.5,0.1,2.26c-0.3,6.19-2.03,12.38-4.98,17.74c-2.63,4.78-6.05,9.03-8.84,13.71
				c-3.14,5.17-5.12,10.76-4.74,16.97c0.43,6.99,3.35,13.54,6.7,19.47C93.8,211.39,97.26,210.09,96.75,209.18L96.75,209.18z"/>
		</g>
	</g>
	<g>
		<g>
			<path d="M115.66,170.81c4.88-8.69,8.63-18.01,11.17-27.73c0.08-0.28-0.1-0.45-0.34-0.54c-2.49-0.93-5.14,0.78-5.89,3.3
				c-0.43,1.45-0.3,3.02-0.33,4.51c-0.03,2.2-0.05,4.39-0.06,6.59c-0.08,8.48-0.09,16.97,0.16,25.45
				c0.48,16.65,1.9,33.37,5.68,49.59c0.84,3.58,1.54,8.36,4.63,10.66c2.66,1.98,6.52,1.76,9.05-0.35c0.6-0.5,0.39-0.91-0.28-1.08
				c-0.75-0.2-1.96,0.22-2.56,0.72c-0.86,0.72-2.45-0.32-3.16-0.96c-1.19-1.05-1.91-2.51-2.45-4.01c-1.08-3-1.68-6.23-2.34-9.35
				c-1.45-6.81-2.5-13.7-3.26-20.62c-1.51-13.71-1.86-27.54-1.88-41.33c0-3.98,0.03-7.95,0.06-11.93c0.01-1.88,0.04-3.76,0.06-5.65
				c0.01-0.88,0-1.76,0.23-2.62c0.06-0.26,0.15-0.53,0.25-0.78c0.05-0.12,0.1-0.24,0.16-0.35c0.54-0.67,0.2-0.72-1-0.13
				c-0.11-0.18-0.23-0.35-0.34-0.54c-2.54,9.73-6.29,19.05-11.17,27.73c-0.39,0.7,1.28,0.62,1.5,0.58
				C114.32,171.86,115.26,171.55,115.66,170.81L115.66,170.81z"/>
		</g>
	</g>
	<g>
		<g>
			<path d="M126.04,122.15c-1.98,0.39-3.85,1.06-5.62,2.09c-0.79,0.46-1.54,1-2.25,1.58c-0.63,0.51-1.28,1.08-1.68,1.83
				c-0.36,0.7-0.63,1.56-0.1,2.26c0.7,0.93,2.11,0.75,3.1,0.68c1.99-0.13,4.09-0.58,5.79-1.74c1.64-1.12,2.94-2.94,2.69-5.09
				c-0.04-0.3-0.49-0.47-0.7-0.53c-0.41-0.09-0.95-0.04-1.35,0.08c-0.6,0.18-1.66,0.63-1.56,1.46c0.06,0.53-0.04,1.13-0.28,1.66
				c0.06-0.14-0.1,0.18-0.13,0.22c-0.08,0.13-0.15,0.25-0.24,0.37c-0.05,0.07-0.1,0.13-0.15,0.2c-0.01,0.01-0.15,0.16-0.05,0.05
				c0.11-0.12-0.08,0.07-0.1,0.09c-0.08,0.08-0.15,0.14-0.23,0.21c-0.05,0.04-0.1,0.08-0.14,0.12c-0.16,0.16,0.23-0.14,0.04-0.03
				c-0.11,0.07-0.25,0.22-0.38,0.24c0.04,0,0.36-0.17,0.05-0.03c-0.06,0.03-0.13,0.05-0.19,0.09c-0.09,0.04-0.18,0.07-0.25,0.11
				c-0.24,0.12,0.45-0.13,0.03,0c-0.15,0.05-0.3,0.09-0.46,0.13c-0.06,0.01-0.14,0.04-0.2,0.05c-0.2,0.05-0.15-0.07,0.09-0.01
				c-0.13-0.03-0.35,0.07-0.48,0.08c-0.19,0.03-0.36,0.05-0.55,0.07c-0.16,0.01-0.33,0.03-0.48,0.04c-0.09,0.01-0.19,0.01-0.28,0.03
				c-0.29,0.03,0.05-0.01,0.05,0c0,0.01-0.55,0-0.29,0.01c0.19,0.01,0,0-0.04-0.01c0.05,0,0.1,0.01,0.14,0.05s0.04,0.03,0-0.01
				c0,0-0.14-0.2-0.08-0.07c0.05,0.11-0.01-0.03-0.01-0.05c-0.01-0.05-0.03-0.12-0.04-0.18c0,0.01-0.01,0.16,0,0.03
				c0.01-0.12,0.04-0.24,0.08-0.35c0.03-0.07,0.05-0.14,0.08-0.21c-0.06,0.16,0.01-0.01,0.05-0.08c0.06-0.12,0.15-0.22,0.21-0.33
				c0.04-0.07,0.18-0.18-0.03,0.01c0.04-0.04,0.08-0.08,0.11-0.12c0.24-0.22,0.49-0.45,0.74-0.66c0.05-0.05,0.49-0.38,0.2-0.16
				c0.13-0.09,0.25-0.18,0.38-0.28c0.28-0.2,0.55-0.38,0.84-0.55c0.18-0.11,0.35-0.2,0.51-0.3c0.19-0.11-0.11,0.07-0.11,0.07
				c0-0.01,0.26-0.13,0.3-0.14c0.34-0.17,0.68-0.32,1.03-0.46c0.06-0.03,0.13-0.05,0.19-0.07c0.23-0.09-0.39,0.12-0.04,0.01
				c0.16-0.05,0.34-0.11,0.5-0.16c0.19-0.05,0.38-0.11,0.58-0.16c0.14-0.04,0.75-0.16,0.21-0.05c0.49-0.09,0.95-0.21,1.38-0.49
				c0.25-0.17,0.61-0.46,0.69-0.8C127.77,122.15,126.5,122.06,126.04,122.15L126.04,122.15z"/>
		</g>
	</g>
	<g>
		<g>
			<path d="M140.31,154.65c4.25-4.22,7.77-9.14,10.38-14.63c2.54-5.32,4.72-11.62,4.92-17.63c0.09-2.62-1.2-4.81-3.88-4.88
				c-2.48-0.05-4.83,1.41-6.49,3.23c-1.99,2.17-3.18,5.19-4.25,7.95c-1.21,3.1-2.13,6.34-2.83,9.61c-1.4,6.47-1.98,13.1-2.41,19.7
				c-0.49,7.24-0.91,14.5-1.2,21.75c-0.56,14.47-0.44,29.11,2.28,43.36c1.21,6.37,2.61,14.59,8,18.68c4.35,3.3,11.12,3.05,14.7-1.39
				c0.56-0.71-0.49-1.04-0.96-1.05c-0.84-0.04-1.85,0.34-2.4,1.03c-3.13,3.89-8.53,0.14-10.69-2.96
				c-3.13-4.48-4.14-10.58-5.13-15.93c-2.31-12.57-2.66-25.42-2.3-38.17c0.19-6.36,0.54-12.71,0.93-19.06
				c0.35-5.86,0.68-11.72,1.38-17.55c0.69-5.68,1.74-11.33,3.63-16.71c0.94-2.67,2-5.52,3.56-7.86c0.56-0.84,1.45-2,2.39-2.38
				c1.1-0.43,1.8,0.95,1.99,1.95c0.53,2.72-0.54,6.2-1.2,8.83c-0.75,2.97-1.76,5.88-3,8.65c-2.49,5.57-6,10.66-10.26,14.89
				c-0.55,0.55-0.4,1.09,0.33,1.27C138.52,155.58,139.74,155.22,140.31,154.65L140.31,154.65z"/>
		</g>
	</g>
	<g>
		<g>
			<path d="M164.41,122.86c-1.71,20.2-2.25,40.5-1.59,60.77c0.33,10.03,0.95,20.03,1.85,30.02c0.46,5.05,0.99,10.08,1.6,15.12
				c0.35,2.92,0.59,7.23,3.63,8.53c3.96,1.68,7.87-1.81,10.19-4.73c3.16-3.97,6-8.22,8.49-12.7c0.35-0.63-1.29-0.45-1.46-0.42
				c-0.68,0.12-1.74,0.39-2.11,1.06c-2.13,3.81-4.49,7.48-7.14,10.92c-1.08,1.41-2.25,3.27-3.74,4.25c-1.4,0.92-2.68-1.13-3.15-2.34
				c-0.55-1.37-0.75-2.85-0.94-4.31c-0.29-2.35-0.56-4.71-0.83-7.06c-0.5-4.6-0.95-9.23-1.33-13.84
				c-1.51-18.38-2.04-36.83-1.58-55.27c0.26-10.34,0.84-20.69,1.71-31.01C168.09,121.26,164.51,121.68,164.41,122.86L164.41,122.86z
				"/>
		</g>
	</g>
	<g>
		<g>
			<path d="M203.6,167.67c0.11-3.72-0.71-7.39-2.41-10.66c-0.73-1.39-1.6-2.71-2.59-3.9c-1.01-1.21-2.38-2.79-3.88-3.29
				c-3.45-1.14-6.04,2.46-7.45,5.18c-1.55,3-2.26,6.43-2.14,9.83c0.26,7.07,4.79,12.37,8.8,17.57c2.09,2.71,4.13,5.53,5.28,8.83
				c1.41,4.02,1.23,8.35,0.24,12.45c-0.84,3.43-2.55,8.19-5.99,9.61c-2.91,1.21-6.43-1.31-6.99-4.34c-0.2-1.09-3.85-0.18-3.63,1.03
				c1.21,6.53,9.69,6.39,13.9,3.52c5.83-3.96,7.94-13.18,6.9-20.02c-1.06-6.94-6.17-11.96-10.03-17.31
				c-2.04-2.83-3.83-5.9-4.53-9.41c-0.74-3.68-0.3-7.56,1.14-10.99c0.41-0.97,0.9-1.92,1.49-2.79c0.19-0.28,0.38-0.54,0.56-0.8
				c0.21-0.3,0.45-0.58,0.71-0.84c-0.74,0.24-0.81,0.47-0.24,0.74c0.4,0.71,1.56,1.43,2.11,2.05c0.65,0.74,1.25,1.52,1.79,2.37
				c2.31,3.56,3.43,7.87,3.3,12.17C199.94,169.6,203.56,169,203.6,167.67L203.6,167.67z"/>
		</g>
	</g>
	<g>
		<g>
			<path d="M151.9,177.12c-0.56-6.73,3.61-13.7,9.83-15.71c3.51-1.14,7.08-1.66,10.38-3.5c2.94-1.63,5.53-3.88,7.55-6.66
				c0.49-0.67-0.43-0.76-0.89-0.75c-0.71,0.04-1.96,0.32-2.43,0.96c-2.16,2.97-5,5.43-8.37,6.76c-3.55,1.39-7.38,1.66-10.76,3.59
				c-5.62,3.19-9.53,9.52-8.95,16.35C148.35,178.98,151.99,178.27,151.9,177.12L151.9,177.12z"/>
		</g>
	</g>
	<g>
		<g>
			<path d="M219.33,144.97c17.87-7.64,33.67-20.26,45.51-36.25c3.36-4.53,6.38-9.33,9.03-14.35c0.88-1.66-2.76-1.37-3.4-0.17
				c-9.07,17.1-22.39,31.53-38.37,41.59c-4.57,2.87-9.33,5.34-14.26,7.44c-0.56,0.24-1.43,0.95-0.94,1.64
				C217.4,145.56,218.73,145.23,219.33,144.97L219.33,144.97z"/>
		</g>
	</g>
	<g>
		<g>
			<path d="M235.59,60.89c5.38-1.91,10.87-3.46,16.43-4.61c2.84-0.58,5.7-1.05,8.57-1.42c1.94-0.25,4-0.53,5.89,0.14
				c2.2,0.78,3.26,2.94,2.64,5.3c-0.75,2.79-3.08,4.99-4.85,7.08c-3.68,4.32-7.77,8.49-11.02,13.18c-2.63,3.8-3.88,9.79,0.54,12.75
				c1.04,0.7,4.36-0.88,2.88-1.89c-1.89-1.27-2.45-3.92-2.09-6.13c0.46-2.76,2.26-5.02,3.96-7.06c4-4.77,8.42-9.32,12.12-14.37
				c1.4-1.91,2.7-4.34,2.21-6.82c-0.4-2-1.89-3.35-3.65-4.02c-4.51-1.72-10.09-0.22-14.63,0.62c-6.62,1.22-13.14,2.96-19.51,5.22
				c-0.54,0.2-1.78,0.67-1.56,1.51C233.72,61.18,235.08,61.07,235.59,60.89L235.59,60.89z"/>
		</g>
	</g>
	<g>
		<g>
			<path d="M269.37,70.3c3.55,8.89,7.13,17.76,10.66,26.66c1.51,3.8,2.89,7.72,2.64,11.91c-0.24,4.09-1.8,8.04-4.5,11
				c-0.59,0.64,0.51,0.83,0.9,0.81c0.8-0.01,1.84-0.33,2.41-0.96c2.58-2.83,4.2-6.49,4.68-10.38c0.53-4.34-0.54-8.36-2.09-12.34
				c-3.6-9.28-7.39-18.49-11.08-27.72C272.56,68.2,269.01,69.41,269.37,70.3L269.37,70.3z"/>
		</g>
	</g>
	<g>
		<g>
			<path d="M210.59,184.56c2.08-11.12,2.35-22.08,1.3-33.31c-0.64-6.86-1.35-13.72-2.13-20.56c-0.21-1.91-0.41-3.81-0.73-5.69
				c-0.46-2.84-1.41-5.6-2.25-8.33c-1.15-3.71-2.33-7.44-2.84-11.3c-0.1-0.79-0.38-1.92,0.1-2.63c0.41-0.64,1.5-1.01,2.15-1.34
				c1.68-0.87,3.39-1.67,5.14-2.38c3.33-1.35,6.89-1.98,10.19-3.34c1.98-0.81,4.87-2.59,4.36-5.28c-0.58-3.05-4.65-4.38-7.12-4.93
				c-3.38-0.76-6.93-0.6-10.37-0.62c-7.38-0.04-15.42-0.42-22.5,2.16c-3.19,1.16-6.84,3.08-8.39,6.44
				c-1.45,3.15,0.25,5.99,2.85,7.68c4.92,3.18,11.23,2.5,15.65-1.35c1.89-1.64-0.99-3.09-2.43-1.83c-3.34,2.9-8.1,3.15-11.49,0.16
				c-2.53-2.23-1.15-4.98,1.21-6.65c2.55-1.81,5.73-2.62,8.74-3.02c6.78-0.95,13.85-0.81,20.67-0.6c2.86,0.09,6.15,0.34,8.53,2.21
				c2.88,2.26-1.66,3.44-3.29,3.88c-3.16,0.84-6.28,1.93-9.31,3.23c-1.48,0.63-2.91,1.33-4.34,2.06c-1.25,0.66-2.6,1.33-3.44,2.55
				c-1.65,2.39-0.33,6.48,0.3,9.06c0.85,3.51,2.04,6.9,3.04,10.37c1.1,3.8,1.59,7.52,2.03,11.46c0.7,6.27,1.34,12.55,1.94,18.84
				c0.4,4.19,0.78,8.4,0.75,12.62c-0.03,6.98-0.75,13.93-2.03,20.78C206.55,186.77,210.26,186.34,210.59,184.56L210.59,184.56z"/>
		</g>
	</g>
</g>
</svg>
