<?xml version="1.0" encoding="utf-8"?>
<!-- Generator: Adobe Illustrator 27.9.0, SVG Export Plug-In . SVG Version: 6.00 Build 0)  -->
<svg version="1.1" id="Laag_1" xmlns="http://www.w3.org/2000/svg" xmlns:xlink="http://www.w3.org/1999/xlink" x="0px" y="0px"
	 viewBox="0 0 235 151.5" style="enable-background:new 0 0 235 151.5;" xml:space="preserve">
<g>
	<g>
		<path d="M161.9,55.31c-5.3,1.06-8.41,5.1-10.18,9.98c-1.02,2.83-1.57,5.8-2.09,8.76c-0.63,3.62-1.11,7.26-1.44,10.91
			c-1.27,14.08-0.57,28.82,3,42.55c1.52,5.84,4.1,11.8,9.6,14.86c0.73,0.41,3.41-0.7,2.33-1.3c-4.66-2.59-7.08-7.66-8.54-12.56
			c-1.77-5.92-2.68-12.18-3.32-18.32c-1.41-13.51-0.81-27.35,2.03-40.65c0.58-2.69,1.37-5.4,2.7-7.82c1.15-2.11,2.95-4.49,5.46-4.99
			c0.41-0.08,1.64-0.34,1.66-0.92C163.14,55.23,162.31,55.23,161.9,55.31L161.9,55.31z"/>
	</g>
</g>
<g>
	<g>
		<path d="M149.86,84.36c-0.3-2.05-1.97-3.3-3.72-4.14c-1.88-0.9-4.24-1.76-6.15-0.51c-1.8,1.17-2.22,3.48-2.67,5.42
			c-0.58,2.5-0.99,5.04-1.23,7.6c-0.96,10.17,0.72,20.65,4.95,29.96c1.05,2.32,2.16,5.13,4.39,6.58c2.15,1.4,4.93,1.12,6.73-0.68
			c0.51-0.51,0.18-1.24-0.4-1.49c-0.72-0.31-1.54,0.04-2.05,0.55c-1.35,1.35-3.42-1.33-4-2.26c-1.05-1.7-1.87-3.59-2.62-5.44
			c-1.48-3.63-2.59-7.42-3.31-11.27c-1.48-7.91-1.31-16.12,0.54-23.95c0.22-0.91,0.4-1.88,0.84-2.72c0.54-1.02,1.09-0.63,2.05-0.28
			c1.67,0.61,3.47,1.47,3.75,3.41C147.16,86.55,150.07,85.82,149.86,84.36L149.86,84.36z"/>
	</g>
</g>
<g>
	<g>
		<path d="M163.89,79.94c3.4-3.21,6.21-6.95,8.3-11.13c2.03-4.05,3.77-8.84,3.93-13.41c0.07-1.99-0.96-3.66-3.1-3.71
			c-1.98-0.04-3.86,1.07-5.19,2.46c-1.59,1.65-2.54,3.95-3.4,6.05c-0.97,2.36-1.7,4.82-2.26,7.31c-1.12,4.92-1.58,9.97-1.93,14.99
			c-0.39,5.51-0.73,11.03-0.96,16.55c-0.45,11.01-0.35,22.15,1.82,32.99c0.97,4.85,2.09,11.1,6.4,14.21
			c3.48,2.51,8.89,2.32,11.75-1.06c0.45-0.54-0.39-0.79-0.77-0.8c-0.67-0.03-1.48,0.26-1.92,0.78c-2.5,2.96-6.82,0.11-8.55-2.25
			c-2.5-3.41-3.31-8.05-4.1-12.12c-1.85-9.56-2.13-19.34-1.84-29.04c0.15-4.84,0.43-9.67,0.74-14.5c0.28-4.46,0.54-8.92,1.1-13.35
			c0.55-4.32,1.39-8.62,2.9-12.71c0.75-2.03,1.6-4.2,2.85-5.98c0.45-0.64,1.16-1.52,1.91-1.81c0.88-0.33,1.44,0.72,1.59,1.48
			c0.42,2.07-0.43,4.72-0.96,6.72c-0.6,2.26-1.41,4.47-2.4,6.58c-1.99,4.24-4.8,8.11-8.2,11.33c-0.44,0.42-0.32,0.83,0.26,0.97
			C162.46,80.65,163.43,80.38,163.89,79.94L163.89,79.94z"/>
	</g>
</g>
<g>
	<g>
		<path d="M188.77,76.88c1.15-8.59,1.17-17.3,0.06-25.9c-0.03-0.23-0.39-0.34-0.56-0.37c-3.9-0.77-6.64,2.44-7.91,5.73
			c-1.75,4.52-2.81,9.41-3.72,14.16c-1.92,10.05-2.61,20.29-3.08,30.5c-0.42,9.06-0.71,18.26,0.88,27.23
			c0.78,4.39,2.03,8.71,3.97,12.73c1.53,3.18,3.85,7.95,8.03,7.8c2.22-0.08,3.93-1.43,4.61-3.52c0.81-2.53,1.09-5.35,1.29-7.99
			c0.42-5.69-0.13-11.41-1.62-16.92c-0.26-0.96-3.16-0.19-2.9,0.78c1.16,4.3,1.78,8.75,1.76,13.21c-0.01,2.36-0.2,4.71-0.55,7.05
			c-0.15,1-0.33,2-0.55,3c-0.16,0.74-0.35,2.11-0.99,2.61c-1.07,0.85-3.28-1.84-3.87-2.69c-1.16-1.67-2.08-3.55-2.9-5.41
			c-1.57-3.58-2.64-7.37-3.33-11.22c-1.44-7.97-1.37-16.13-1.05-24.2c0.36-8.83,0.85-17.68,2.07-26.43
			c0.67-4.85,1.58-9.67,2.83-14.41c0.6-2.28,1.21-4.62,2.09-6.82c0.44-1.1,1.66-3.96,3.17-3.66c-0.19-0.12-0.37-0.25-0.56-0.37
			c1.1,8.47,1.09,17.03-0.05,25.5C185.73,78.35,188.65,77.83,188.77,76.88L188.77,76.88z"/>
	</g>
</g>
<g>
	<g>
		<path d="M205.66,55.32c-0.82-2.29-4.2-1.78-5.75-0.64c-2.19,1.6-2.73,5.05-3.45,7.48c-1.9,6.43-3.28,13.02-4.13,19.67
			c-1.7,13.23-1.34,26.74,1.07,39.87c1.21,6.6,2.95,13.1,5.2,19.42c0.37,1.03,0.71,2.27,1.6,2.99c1.02,0.82,2.54,0.66,3.67,0.17
			c2.55-1.11,3.5-4.34,4.37-6.73c2.29-6.3,3.16-13.01,3.54-19.67c0.4-6.96,0.37-13.94,0.4-20.91c0.03-7.53,0.25-15.14-0.38-22.65
			c-0.57-6.75-2.13-13.49-6.21-19.03c-0.54-0.73-3.34,0.23-2.7,1.1c6.74,9.16,6.35,21.41,6.39,32.24
			c0.02,6.56-0.01,13.13-0.09,19.69c-0.08,6.08-0.22,12.18-1.09,18.21c-0.42,2.93-1.01,5.84-1.85,8.68
			c-0.4,1.34-0.85,2.67-1.37,3.97c-0.45,1.14-0.97,3.13-2.04,3.87c-0.05,0.05-0.1,0.09-0.15,0.14c0.28-0.14,0.27-0.28-0.04-0.41
			c-0.1-0.27-0.4-0.54-0.54-0.82c-0.26-0.52-0.43-1.08-0.63-1.63c-0.55-1.54-1.07-3.1-1.56-4.66c-0.89-2.85-1.67-5.72-2.36-8.63
			c-2.75-11.7-3.85-23.8-3.24-35.81c0.34-6.7,1.2-13.38,2.59-19.95c0.68-3.21,1.48-6.39,2.41-9.53c0.45-1.51,0.89-3.04,1.44-4.51
			c0.18-0.49,0.58-1.73,1.15-1.97c-0.18,0.08-0.13-0.03,0.07,0.02c0.4,0.09,0.63,0.44,0.76,0.8
			C203.1,57.03,205.97,56.19,205.66,55.32L205.66,55.32z"/>
	</g>
</g>
<g>
	<g>
		<path d="M211.8,61.91c4.6,19.96,9.34,40.66,5.8,61.2c-0.94,5.48-2.49,10.85-4.71,15.95c-0.26,0.6,2.52,0.33,2.87-0.47
			c8.24-18.9,6.64-40.13,2.78-59.87c-1.15-5.89-2.5-11.74-3.85-17.58C214.52,60.4,211.61,61.13,211.8,61.91L211.8,61.91z"/>
	</g>
</g>
<g>
	<g>
		<path d="M213.03,62.31c2.82,3.14,6.22,6.22,8.31,9.92c1.84,3.28,2.15,7.3,0.88,10.84c-0.28,0.78-0.62,1.53-1.04,2.23
			c-0.49,0.83-1.27,1.54-1.65,2.42c-0.74,1.71,0.98,3.26,1.85,4.58c2.22,3.36,3.94,7.04,5.1,10.89c1.32,4.35,1.91,8.87,1.79,13.41
			c-0.01,0.42,2.88,0.06,2.9-0.78c0.21-8.08-1.89-16.15-6.1-23.06c-0.51-0.84-1.06-1.66-1.63-2.47c-0.55-0.77-1.3-1.6-1.17-2.61
			c0.12-0.94,0.96-1.67,1.46-2.43c0.52-0.79,0.95-1.65,1.28-2.54c1.23-3.31,1.19-7.13-0.3-10.35c-0.92-1.98-2.33-3.68-3.77-5.3
			c-1.71-1.93-3.45-3.84-5.18-5.76C215.28,60.8,212.6,61.83,213.03,62.31L213.03,62.31z"/>
	</g>
</g>
<g>
	<g>
		<path d="M12.98,121.36c-2.54-4.28-4.76-8.94-5.29-13.95c-0.5-4.72,0.98-9.05,3.46-13.01c2.37-3.78,5.31-7.18,7.46-11.11
			c2.3-4.22,3.76-9.06,3.83-13.89c0.02-1.49-0.35-3.4-2.08-3.69c-2.18-0.37-3.75,1.23-4.81,2.89c-2.45,3.82-3.36,8.37-3.75,12.83
			c-0.46,5.12-0.5,10.31-0.25,15.43c0.25,5.3,0.75,10.76,2.1,15.91c0.67,2.57,1.82,4.84,3.49,6.91c1.66,2.06,3.55,3.91,5,6.12
			c2.96,4.51,4.4,10.02,4.14,15.4c0.87-0.29,1.74-0.58,2.61-0.87c-7.41-3.54-9.02-12.56-9.82-19.89c-0.47-4.27-1.03-8.86-0.52-13.14
			c0.49-4.13,3.14-7.12,5.94-9.97c1.15-1.17-1.67-1.03-2.3-0.39c-2.77,2.82-5.65,5.83-6.4,9.87c-0.4,2.17-0.29,4.43-0.2,6.62
			c0.1,2.44,0.27,4.88,0.53,7.31c0.82,7.85,2.55,17.17,10.45,20.95c0.55,0.26,2.56-0.02,2.61-0.87c0.21-4.37-0.57-8.72-2.42-12.69
			c-0.87-1.87-1.96-3.64-3.24-5.25c-1.34-1.69-2.88-3.21-4.18-4.94c-3.01-3.99-3.62-9.26-4.22-14.09
			c-0.63-5.07-0.85-10.18-0.77-15.28c0.07-4.61,0.23-9.34,1.37-13.83c0.55-2.15,1.34-4.25,2.53-6.12c0.25-0.39,0.5-0.78,0.8-1.14
			c0.04-0.05,0.07-0.09,0.11-0.14c0.41-0.35,0.4-0.39-0.02-0.14c-0.11,0.05-0.21,0.11-0.32,0.16c0.12,0.1,0.21,0.22,0.28,0.36
			c0.07,0.34,0.3,0.68,0.38,1.04c0.12,0.57,0.11,1.14,0.08,1.72c-0.24,4.71-1.62,9.42-3.98,13.5c-2.1,3.64-4.84,6.87-7.07,10.43
			C6,98.34,4.42,102.6,4.72,107.32c0.34,5.32,2.68,10.3,5.36,14.81C10.62,123.04,13.39,122.05,12.98,121.36L12.98,121.36z"/>
	</g>
</g>
<g>
	<g>
		<path d="M28.1,92.17c3.9-6.61,6.9-13.7,8.93-21.1c0.06-0.21-0.08-0.34-0.27-0.41c-1.99-0.71-4.11,0.59-4.71,2.51
			c-0.34,1.1-0.24,2.3-0.26,3.43c-0.02,1.67-0.04,3.34-0.05,5.01c-0.06,6.45-0.07,12.91,0.13,19.36
			c0.38,12.67,1.52,25.39,4.54,37.73c0.67,2.72,1.23,6.36,3.7,8.11c2.13,1.51,5.21,1.34,7.24-0.27c0.48-0.38,0.31-0.69-0.22-0.82
			c-0.6-0.15-1.57,0.17-2.05,0.55c-0.69,0.55-1.96-0.24-2.53-0.73c-0.95-0.8-1.53-1.91-1.96-3.05c-0.86-2.28-1.34-4.74-1.87-7.11
			c-1.16-5.18-2-10.42-2.61-15.69c-1.21-10.43-1.49-20.95-1.5-31.44c0-3.03,0.02-6.05,0.05-9.08c0.01-1.43,0.03-2.86,0.05-4.3
			c0.01-0.67,0-1.34,0.18-1.99c0.05-0.2,0.12-0.4,0.2-0.59c0.04-0.09,0.08-0.18,0.13-0.27c0.43-0.51,0.16-0.55-0.8-0.1
			c-0.09-0.14-0.18-0.27-0.27-0.41c-2.03,7.4-5.03,14.49-8.93,21.1c-0.31,0.53,1.02,0.47,1.2,0.44
			C27.03,92.97,27.78,92.73,28.1,92.17L28.1,92.17z"/>
	</g>
</g>
<g>
	<g>
		<path d="M36.4,55.15c-1.58,0.3-3.08,0.81-4.49,1.59c-0.63,0.35-1.23,0.76-1.8,1.2c-0.5,0.39-1.02,0.82-1.34,1.39
			c-0.29,0.53-0.5,1.19-0.08,1.72c0.56,0.71,1.69,0.57,2.48,0.52c1.59-0.1,3.27-0.44,4.63-1.32c1.31-0.85,2.35-2.24,2.15-3.87
			c-0.03-0.23-0.39-0.36-0.56-0.4c-0.33-0.07-0.76-0.03-1.08,0.06c-0.48,0.14-1.33,0.48-1.25,1.11c0.05,0.4-0.03,0.86-0.22,1.26
			c0.05-0.11-0.08,0.14-0.1,0.17c-0.06,0.1-0.12,0.19-0.19,0.28c-0.04,0.05-0.08,0.1-0.12,0.15c-0.01,0.01-0.12,0.12-0.04,0.04
			c0.09-0.09-0.06,0.05-0.08,0.07c-0.06,0.06-0.12,0.11-0.18,0.16c-0.04,0.03-0.08,0.06-0.11,0.09c-0.13,0.12,0.18-0.11,0.03-0.02
			c-0.09,0.05-0.2,0.17-0.3,0.18c0.03,0,0.29-0.13,0.04-0.02c-0.05,0.02-0.1,0.04-0.15,0.07c-0.07,0.03-0.14,0.05-0.2,0.08
			c-0.19,0.09,0.36-0.1,0.02,0c-0.12,0.04-0.24,0.07-0.37,0.1c-0.05,0.01-0.11,0.03-0.16,0.04c-0.16,0.04-0.12-0.05,0.07-0.01
			c-0.1-0.02-0.28,0.05-0.38,0.06c-0.15,0.02-0.29,0.04-0.44,0.05c-0.13,0.01-0.26,0.02-0.38,0.03c-0.07,0.01-0.15,0.01-0.22,0.02
			c-0.23,0.02,0.04-0.01,0.04,0c0,0.01-0.44,0-0.23,0.01c0.15,0.01,0,0-0.03-0.01c0.04,0,0.08,0.01,0.11,0.04
			c0.03,0.03,0.03,0.02,0-0.01c0,0-0.11-0.15-0.06-0.05c0.04,0.08-0.01-0.02-0.01-0.04c-0.01-0.04-0.02-0.09-0.03-0.14
			c0,0.01-0.01,0.12,0,0.02c0.01-0.09,0.03-0.18,0.06-0.27c0.02-0.05,0.04-0.11,0.06-0.16c-0.05,0.12,0.01-0.01,0.04-0.06
			c0.05-0.09,0.12-0.17,0.17-0.25c0.03-0.05,0.14-0.14-0.02,0.01c0.03-0.03,0.06-0.06,0.09-0.09c0.19-0.17,0.39-0.34,0.59-0.5
			c0.04-0.04,0.39-0.29,0.16-0.12c0.1-0.07,0.2-0.14,0.3-0.21c0.22-0.15,0.44-0.29,0.67-0.42c0.14-0.08,0.28-0.15,0.41-0.23
			c0.15-0.08-0.09,0.05-0.09,0.05c0-0.01,0.21-0.1,0.24-0.11c0.27-0.13,0.54-0.24,0.82-0.35c0.05-0.02,0.1-0.04,0.15-0.05
			c0.18-0.07-0.31,0.09-0.03,0.01c0.13-0.04,0.27-0.08,0.4-0.12c0.15-0.04,0.3-0.08,0.46-0.12c0.11-0.03,0.6-0.12,0.17-0.04
			c0.39-0.07,0.76-0.16,1.1-0.37c0.2-0.13,0.49-0.35,0.55-0.61C37.78,55.15,36.77,55.08,36.4,55.15L36.4,55.15z"/>
	</g>
</g>
<g>
	<g>
		<path d="M47.81,79.87c3.4-3.21,6.21-6.95,8.3-11.13c2.03-4.05,3.77-8.84,3.93-13.41c0.07-1.99-0.96-3.66-3.1-3.71
			c-1.98-0.04-3.86,1.07-5.19,2.46c-1.59,1.65-2.54,3.95-3.4,6.05c-0.97,2.36-1.7,4.82-2.26,7.31c-1.12,4.92-1.58,9.97-1.93,14.99
			c-0.39,5.51-0.73,11.03-0.96,16.55c-0.45,11.01-0.35,22.15,1.82,32.99c0.97,4.85,2.09,11.1,6.4,14.21
			c3.48,2.51,8.89,2.32,11.75-1.06c0.45-0.54-0.39-0.79-0.77-0.8c-0.67-0.03-1.48,0.26-1.92,0.78c-2.5,2.96-6.82,0.11-8.55-2.25
			c-2.5-3.41-3.31-8.05-4.1-12.12c-1.85-9.56-2.13-19.34-1.84-29.04c0.15-4.84,0.43-9.67,0.74-14.5c0.28-4.46,0.54-8.92,1.1-13.35
			c0.55-4.32,1.39-8.62,2.9-12.71c0.75-2.03,1.6-4.2,2.85-5.98c0.45-0.64,1.16-1.52,1.91-1.81c0.88-0.33,1.44,0.72,1.59,1.48
			c0.42,2.07-0.43,4.72-0.96,6.72c-0.6,2.26-1.41,4.47-2.4,6.58c-1.99,4.24-4.8,8.11-8.2,11.33c-0.44,0.42-0.32,0.83,0.26,0.97
			C46.38,80.58,47.35,80.31,47.81,79.87L47.81,79.87z"/>
	</g>
</g>
<g>
	<g>
		<path d="M67.08,55.69c-1.37,15.37-1.8,30.81-1.27,46.23c0.26,7.63,0.76,15.24,1.48,22.84c0.37,3.84,0.79,7.67,1.28,11.5
			c0.28,2.22,0.47,5.5,2.9,6.49c3.17,1.28,6.29-1.38,8.15-3.6c2.53-3.02,4.8-6.25,6.79-9.66c0.28-0.48-1.03-0.34-1.17-0.32
			c-0.54,0.09-1.39,0.3-1.69,0.81c-1.7,2.9-3.59,5.69-5.71,8.31c-0.86,1.07-1.8,2.49-2.99,3.23c-1.12,0.7-2.14-0.86-2.52-1.78
			c-0.44-1.04-0.6-2.17-0.75-3.28c-0.23-1.79-0.45-3.58-0.66-5.37c-0.4-3.5-0.76-7.02-1.06-10.53c-1.21-13.98-1.63-28.02-1.26-42.05
			c0.21-7.87,0.67-15.74,1.37-23.59C70.02,54.47,67.16,54.79,67.08,55.69L67.08,55.69z"/>
	</g>
</g>
<g>
	<g>
		<path d="M98.41,89.78c0.09-2.83-0.57-5.62-1.93-8.11c-0.58-1.06-1.28-2.06-2.07-2.97c-0.81-0.92-1.9-2.12-3.1-2.5
			c-2.76-0.87-4.83,1.87-5.96,3.94c-1.24,2.28-1.81,4.89-1.71,7.48c0.21,5.38,3.83,9.41,7.04,13.37c1.67,2.06,3.3,4.21,4.22,6.72
			c1.13,3.06,0.98,6.35,0.19,9.47c-0.67,2.61-2.04,6.23-4.79,7.31c-2.33,0.92-5.14-1-5.59-3.3c-0.16-0.83-3.08-0.14-2.9,0.78
			c0.97,4.97,7.75,4.86,11.11,2.68c4.66-3.01,6.35-10.03,5.52-15.23c-0.85-5.28-4.93-9.1-8.02-13.17c-1.63-2.15-3.06-4.49-3.62-7.16
			c-0.59-2.8-0.24-5.75,0.91-8.36c0.33-0.74,0.72-1.46,1.19-2.12c0.15-0.21,0.3-0.41,0.45-0.61c0.17-0.23,0.36-0.44,0.57-0.64
			c-0.59,0.18-0.65,0.36-0.19,0.56c0.32,0.54,1.25,1.09,1.69,1.56c0.52,0.56,1,1.16,1.43,1.8c1.85,2.71,2.74,5.99,2.64,9.26
			C95.49,91.25,98.38,90.79,98.41,89.78L98.41,89.78z"/>
	</g>
</g>
<g>
	<g>
		<path d="M57.08,96.97c-0.45-5.12,2.89-10.42,7.86-11.95c2.81-0.87,5.66-1.26,8.3-2.66c2.35-1.24,4.42-2.95,6.04-5.07
			c0.39-0.51-0.34-0.58-0.71-0.57C78,76.75,77,76.96,76.63,77.45c-1.73,2.26-4,4.13-6.69,5.14c-2.84,1.06-5.9,1.26-8.6,2.73
			c-4.49,2.43-7.62,7.24-7.16,12.44C54.24,98.38,57.15,97.84,57.08,96.97L57.08,96.97z"/>
	</g>
</g>
<g>
	<g>
		<path d="M110.99,72.51c14.29-5.81,26.92-15.41,36.39-27.58c2.69-3.45,5.1-7.1,7.22-10.92c0.7-1.26-2.21-1.04-2.72-0.13
			c-7.25,13.01-17.9,23.99-30.68,31.64c-3.65,2.18-7.46,4.06-11.4,5.66c-0.45,0.18-1.14,0.72-0.75,1.25
			C109.45,72.96,110.51,72.71,110.99,72.51L110.99,72.51z"/>
	</g>
</g>
<g>
	<g>
		<path d="M123.99,8.54c4.3-1.45,8.69-2.63,13.14-3.51c2.27-0.44,4.56-0.8,6.85-1.08c1.55-0.19,3.2-0.4,4.71,0.11
			c1.76,0.59,2.61,2.24,2.11,4.03c-0.6,2.12-2.46,3.8-3.88,5.39c-2.94,3.29-6.21,6.46-8.81,10.03c-2.1,2.89-3.1,7.45,0.43,9.7
			c0.83,0.53,3.49-0.67,2.3-1.44c-1.51-0.97-1.96-2.98-1.67-4.66c0.37-2.1,1.81-3.82,3.17-5.37c3.2-3.63,6.73-7.09,9.69-10.93
			c1.12-1.45,2.16-3.3,1.77-5.19c-0.32-1.52-1.51-2.55-2.92-3.06c-3.61-1.31-8.07-0.17-11.7,0.47c-5.29,0.93-10.51,2.25-15.6,3.97
			c-0.43,0.15-1.42,0.51-1.25,1.15C122.5,8.76,123.58,8.68,123.99,8.54L123.99,8.54z"/>
	</g>
</g>
<g>
	<g>
		<path d="M151,15.7c2.84,6.76,5.7,13.51,8.52,20.28c1.21,2.89,2.31,5.87,2.11,9.06c-0.19,3.11-1.44,6.12-3.6,8.37
			c-0.47,0.49,0.41,0.63,0.72,0.62c0.64-0.01,1.47-0.25,1.93-0.73c2.06-2.15,3.36-4.94,3.74-7.9c0.42-3.3-0.43-6.36-1.67-9.39
			c-2.88-7.06-5.91-14.07-8.86-21.09C153.55,14.1,150.71,15.02,151,15.7L151,15.7z"/>
	</g>
</g>
<g>
	<g>
		<path d="M104,102.63c1.66-8.46,1.88-16.8,1.04-25.34c-0.51-5.22-1.08-10.44-1.7-15.64c-0.17-1.45-0.33-2.9-0.58-4.33
			c-0.37-2.16-1.13-4.26-1.8-6.34c-0.92-2.82-1.86-5.66-2.27-8.6c-0.08-0.6-0.3-1.46,0.08-2c0.33-0.49,1.2-0.77,1.72-1.02
			c1.34-0.66,2.71-1.27,4.11-1.81c2.66-1.03,5.51-1.51,8.15-2.54c1.58-0.62,3.89-1.97,3.49-4.02c-0.46-2.32-3.72-3.33-5.69-3.75
			c-2.7-0.58-5.54-0.46-8.29-0.47c-5.9-0.03-12.33-0.32-17.99,1.64c-2.55,0.88-5.47,2.34-6.71,4.9c-1.16,2.4,0.2,4.56,2.28,5.84
			c3.93,2.42,8.98,1.9,12.51-1.03c1.51-1.25-0.79-2.35-1.94-1.39c-2.67,2.21-6.48,2.4-9.19,0.12c-2.02-1.7-0.92-3.79,0.97-5.06
			c2.04-1.38,4.58-1.99,6.99-2.3c5.42-0.72,11.07-0.62,16.53-0.46c2.29,0.07,4.92,0.26,6.82,1.68c2.3,1.72-1.33,2.62-2.63,2.95
			c-2.53,0.64-5.02,1.47-7.44,2.46c-1.18,0.48-2.33,1.01-3.47,1.57c-1,0.5-2.08,1.01-2.75,1.94c-1.32,1.82-0.26,4.93,0.24,6.89
			c0.68,2.67,1.63,5.25,2.43,7.89c0.88,2.89,1.27,5.72,1.62,8.72c0.56,4.77,1.07,9.55,1.55,14.33c0.32,3.19,0.62,6.39,0.6,9.6
			c-0.02,5.31-0.6,10.6-1.62,15.81C100.77,104.31,103.74,103.98,104,102.63L104,102.63z"/>
	</g>
</g>
</svg>
